<svg width="48" height="48" viewBox="0 0 48 48" fill="none" xmlns="http://www.w3.org/2000/svg">
<path d="M0 23.9989C0 10.7447 10.7447 0 23.9989 0C37.2531 0 47.9978 10.7447 47.9978 23.9989C47.9978 37.2531 37.2531 47.9978 23.9989 47.9978C10.7447 47.9978 0 37.2531 0 23.9989Z" fill="url(#paint0_linear_10338_349)"/>
<path d="M17.1866 25.4838L17.8733 20.3123L11.9077 16.1707L17.3583 18.0162L18.6458 16.0419L23.3453 13.1235L33.71 18.8316L34.2464 27.5439L29.6328 33.9601L25.9848 34.518L27.8731 31.0632V27.737L26.4997 25.1405L25.1049 24.2178L22.959 26.428V28.7671L21.2852 30.3336L19.1608 30.5911L18.2166 31.1275L16.6716 30.634L16.0278 28.3164L17.1866 26.6855V25.4838Z" fill="white"/>
<path d="M26.7144 16.1277C25.577 15.8916 24.3324 15.956 24.3324 15.956C24.3324 15.956 23.9247 17.8444 21.3926 18.338C21.414 18.338 24.7401 19.4753 26.7144 16.1277Z" fill="#94A6C3"/>
<path d="M27.7443 33.2519C29.1177 32.1789 30.1477 30.6983 30.6198 29.0245C30.6413 28.9601 30.8344 28.8528 30.9631 28.767C31.1777 28.6382 31.3923 28.5309 31.4352 28.3593C31.5211 27.8657 31.564 27.3507 31.564 26.8357C31.564 26.6425 31.3709 26.4494 31.1777 26.2563C31.0275 26.1275 30.8773 25.9773 30.8773 25.87C30.6627 23.9173 29.7614 22.0933 28.3237 20.7628L28.1735 20.913C29.5683 22.222 30.4696 24.0031 30.6627 25.8915C30.6842 26.0632 30.8558 26.2348 31.0275 26.4065C31.1777 26.5352 31.3494 26.7284 31.3494 26.8142C31.3494 27.3078 31.3065 27.8013 31.2207 28.2949C31.1992 28.3807 31.0061 28.4665 30.8558 28.5524C30.6413 28.6597 30.4481 28.767 30.4052 28.9386C29.8902 30.7626 28.71 32.3506 27.1435 33.3806C27.4224 32.7798 28.3022 30.827 28.7743 29.8399L28.6885 26.664L25.9632 24.0246L24.4182 24.2391L22.7229 26.9859C22.7229 26.9859 23.5169 27.9945 22.401 29.1747C21.3066 30.3335 20.4483 30.591 20.4483 30.591L19.6543 30.1618C19.8904 29.8614 20.3625 29.4107 20.7273 29.1103C21.3496 28.5953 21.9719 28.5524 21.9719 27.9945C21.9933 26.8357 20.7487 27.1576 20.7487 27.1576L20.2981 27.5867L20.1049 29.1747L19.1608 30.3549L19.0535 30.3335L17.5084 29.9901C17.5084 29.9901 18.4526 29.4966 18.6028 28.9386C18.753 28.4022 18.3024 26.6211 18.2809 26.5138C18.3024 26.5352 18.7316 26.9001 18.9247 27.5009C19.2681 26.5567 19.7187 25.6554 19.8474 25.5696C19.9762 25.4838 21.7144 24.561 21.7144 24.561L21.135 26.0846L21.5642 25.8486L22.5942 23.3164C22.5942 23.3164 23.6027 22.8229 24.3538 22.8229C25.7057 22.8014 27.7014 21.1491 26.8001 18.1877C27.0576 18.295 31.5211 20.5268 32.2936 24.9044C32.873 28.2734 30.9631 31.4279 27.7443 33.2519Z" fill="#94A6C3"/>
<path d="M17.8087 28.2092L17.9803 27.3508C17.9803 27.3508 17.2722 28.5955 17.2078 28.7671C17.1434 28.9603 17.2507 29.3036 17.5297 29.2822C17.8087 29.2607 18.152 28.853 18.152 28.5525C18.152 28.1663 17.8087 28.2092 17.8087 28.2092Z" fill="#1B314F"/>
<path d="M22.6377 16.5996C23.1312 16.0202 22.9381 15.1619 22.9381 15.1619L21.5004 17.2863C21.4789 17.2863 22.0154 17.3078 22.6377 16.5996Z" fill="#1B314F"/>
<path d="M30.5559 14.5612C30.5559 14.5612 31.6289 14.6042 32.7447 14.7329C30.234 12.7587 27.8521 12.1793 25.9208 12.1793C23.2599 12.1793 21.4573 13.2737 21.35 13.3381L22.1869 12.0076C22.1869 12.0076 18.8394 11.6857 17.6591 15.2265C17.3587 14.4754 17.0797 13.381 17.0797 13.381C17.0797 13.381 15.3416 14.9046 16.157 17.4367C14.1613 16.7071 11.3073 15.6986 11.2 15.6771C11.0498 15.6556 11.0069 15.72 11.0069 15.72C11.0069 15.72 10.9639 15.7844 11.0927 15.8917C11.3288 16.0848 15.8351 19.4109 16.8222 20.0547C16.6076 20.8272 16.6076 21.192 16.8222 21.5568C17.1226 22.0504 17.1441 22.3079 17.1012 22.6727C17.0583 23.0375 16.672 26.1919 16.5862 26.5782C16.5003 26.9644 15.5991 28.3378 15.642 28.7455C15.6849 29.1533 16.2428 30.8914 16.7364 31.0846C17.1012 31.2133 18.0025 31.4923 18.6033 31.4923C18.8179 31.4923 19.011 31.4494 19.0969 31.3635C19.4617 31.0416 19.569 30.9773 19.8265 30.9773C19.8479 30.9773 19.8694 30.9773 19.8908 30.9773C19.9981 30.9773 20.1269 30.9987 20.2771 30.9987C20.6204 30.9987 21.0711 30.9344 21.393 30.6339C21.8651 30.1618 22.6805 29.5181 22.938 29.2176C23.2599 28.8099 23.4316 28.252 23.3457 27.694C23.2813 27.179 23.5603 26.7284 23.8822 26.2778C24.2899 25.7413 25.041 24.7757 25.041 24.7757C26.5216 25.8915 27.4444 27.5868 27.4444 29.4751C27.4444 32.8227 24.526 35.5265 20.9209 35.5265C20.3629 35.5265 19.8265 35.4622 19.29 35.3334C20.9423 35.9128 22.3372 36.106 23.4745 36.106C25.8993 36.106 27.1869 35.2261 27.1869 35.2261C27.1869 35.2261 26.7362 35.8055 26.0066 36.4707C26.0281 36.4707 26.0281 36.4707 26.0281 36.4707C30.0409 35.9128 31.9937 32.6081 31.9937 32.6081C31.9937 32.6081 31.8434 33.6811 31.6503 34.4107C36.9936 30.3979 36.0923 25.3765 36.0708 25.2048C36.1138 25.2692 36.6502 25.913 36.9292 26.2563C37.7877 17.4152 30.5559 14.5612 30.5559 14.5612ZM22.3372 28.6812C22.2513 28.7885 21.8865 29.1104 21.629 29.3464C21.3715 29.5825 21.0925 29.8185 20.878 30.0331C20.7921 30.1189 20.6204 30.1618 20.3629 30.1618C20.2771 30.1618 20.1913 30.1618 20.1269 30.1618C20.084 30.1618 20.0411 30.1618 19.9981 30.1618C19.9552 30.1618 19.9338 30.1618 19.9123 30.1618C19.8479 30.1618 19.7836 30.1618 19.7192 30.1618C20.0411 29.7326 20.9852 28.7455 21.3071 28.5309C21.6934 28.2734 21.8865 28.0159 21.6505 27.5653C21.4144 27.1147 20.7921 27.222 20.7921 27.222C20.7921 27.222 21.1569 27.0717 21.4788 27.0717C21.0711 26.9644 20.5561 27.0718 20.32 27.3078C20.0625 27.5439 20.1054 28.3808 19.9981 28.9172C19.8908 29.4752 19.526 29.7541 18.9681 30.2691C18.6677 30.5481 18.4531 30.6339 18.2814 30.6339C17.9166 30.5696 17.4875 30.4622 17.187 30.3549C16.9724 30.076 16.6506 29.1533 16.5647 28.767C16.6291 28.5524 16.8866 28.1018 17.0154 27.8443C17.2729 27.3507 17.4231 27.0717 17.466 26.8142C17.5518 26.4494 17.8308 24.1963 17.9381 23.2521C18.2171 23.6169 18.6033 24.2177 18.5175 24.604C19.1398 23.7242 18.6891 22.8658 18.4746 22.5225C18.2814 22.1791 18.0239 21.4925 18.2385 20.7629C18.4531 20.0333 19.2256 18.0161 19.2256 18.0161C19.2256 18.0161 19.4831 18.4668 19.8479 18.3809C20.2127 18.2951 23.1526 13.8746 23.1526 13.8746C23.1526 13.8746 23.9466 15.6127 23.1097 16.8788C22.2513 18.1449 21.4144 18.3809 21.4144 18.3809C21.4144 18.3809 22.5947 18.5955 23.6891 17.8015C24.1397 18.853 24.5689 19.9474 24.5903 20.0976C24.526 20.2478 23.6676 22.3079 23.5818 22.4366C23.5389 22.4796 23.2384 22.5654 23.0238 22.6083C22.659 22.7156 22.4445 22.78 22.3586 22.8444C22.2084 22.9731 21.5217 24.8615 21.1998 25.7842C20.8136 25.8915 20.4273 26.1061 20.1484 26.5353C20.2986 26.428 20.7707 26.3636 21.114 26.3207C21.4144 26.2992 22.3372 26.7928 22.5732 27.7155C22.5732 27.737 22.5732 27.737 22.5732 27.7584C22.6161 28.1018 22.5088 28.4237 22.3372 28.6812ZM20.32 28.9387C20.5132 28.6597 20.4917 28.1876 20.5132 28.0374C20.5346 27.8872 20.5775 27.6082 20.7492 27.5653C20.9209 27.5224 21.3286 27.5868 21.3286 27.8872C21.3286 28.1661 21.0282 28.2305 20.8136 28.4237C20.6634 28.5739 20.3629 28.8957 20.32 28.9387ZM28.8821 24.84C29.0967 23.7456 29.1182 22.8015 29.0538 22.0289C29.8907 23.1448 30.4057 24.4967 30.5559 25.8915C30.5774 26.0632 30.749 26.2348 30.9207 26.4065C31.0709 26.5353 31.2426 26.7069 31.2426 26.8142C31.2426 27.3078 31.1997 27.8013 31.1138 28.2949C31.0924 28.3593 30.8993 28.4666 30.749 28.5524C30.5345 28.6597 30.3413 28.767 30.2984 28.9387C29.8263 30.591 28.8177 32.0502 27.4658 33.0802C29.4615 30.9987 30.4272 27.5653 28.8821 24.84ZM27.5302 33.2734C28.925 32.2004 29.998 30.6983 30.4701 29.003C30.4915 28.9387 30.6847 28.8314 30.8134 28.7455C31.028 28.6382 31.2426 28.5095 31.2855 28.3378C31.3713 27.8443 31.4143 27.3292 31.4143 26.8142C31.4143 26.6211 31.2211 26.428 31.028 26.2349C30.9207 26.1061 30.749 25.9559 30.749 25.8486C30.5774 24.2821 29.9551 22.8014 28.9894 21.5783C28.5602 19.0032 26.8435 18.2092 26.8006 18.1878C26.8435 18.2522 27.9594 19.8616 27.1869 21.75C26.3929 23.6598 24.3543 23.3594 24.1826 23.3808C24.011 23.3808 23.3457 24.2392 22.5088 25.8271C22.4015 25.7842 21.9509 25.6769 21.4359 25.7627C21.8221 24.6898 22.4015 23.1663 22.5088 23.0375C22.5517 22.9946 22.8736 22.9087 23.0882 22.8444C23.4959 22.7371 23.6891 22.6727 23.7534 22.5869C23.7964 22.5225 24.011 22.0289 24.2255 21.5139C24.4187 21.5139 24.9122 21.471 24.9551 21.4495C24.9981 21.4066 25.4058 20.3551 25.4058 20.2264C25.4058 20.1191 24.5689 18.0376 24.247 17.2436C24.3972 17.0719 24.5474 16.8573 24.6976 16.6213C29.0967 17.0934 32.5301 20.8272 32.5301 25.3551C32.5301 28.8314 30.4915 31.8571 27.5302 33.2734Z" fill="#1B314F"/>
<path d="M33.7529 31.3635C33.4311 31.7927 33.0663 32.2433 32.6371 32.6725C35.4053 27.3507 32.7658 22.4795 32.6585 22.2864C32.8517 22.4795 33.0448 22.6941 33.2165 22.8872C35.3409 25.2477 35.5984 28.7884 33.7529 31.3635Z" fill="#D82122"/>
<path d="M21.8222 21.6853C22.23 21.2132 22.0154 20.3334 21.2643 20.1832C21.4574 19.7326 21.7364 18.8313 21.7364 18.8313C21.7364 18.8313 19.5476 22.2647 19.3545 22.3291C19.1613 22.3935 18.9682 21.6424 18.9682 21.6424C18.5605 23.2089 19.6549 23.4235 19.7836 22.9299C20.3845 22.7797 21.4145 22.136 21.8222 21.6853Z" fill="#1B314F"/>
<path d="M19.9548 22.5226L21.0707 20.6128C21.0707 20.6128 21.7145 20.9347 21.3926 21.4497C20.9849 22.0505 19.9548 22.5226 19.9548 22.5226Z" fill="#FFD923"/>
<path d="M36.3279 24.5181C35.3622 21.9216 33.9888 19.7113 30.9631 17.7157C28.0447 15.7844 24.9117 15.9346 24.7401 15.956C24.7186 15.956 24.6971 15.956 24.6971 15.956C24.8044 15.9131 24.9117 15.8916 25.019 15.8702C25.6843 15.6556 26.5426 15.4839 27.401 15.3766C29.6756 15.0547 31.9717 15.8273 33.5382 17.4796C33.5597 17.5011 33.5597 17.5011 33.5811 17.5225C35.3622 19.4109 36.2849 21.7714 36.3279 24.5181Z" fill="#D82122"/>
<path d="M18.4531 18.0162C15.9424 17.9304 16.7793 15.012 16.8222 14.8403C16.8222 14.8618 16.9938 17.1364 18.4531 18.0162Z" fill="#D82122"/>
<path d="M17.7457 18.7885C17.8745 18.8958 18.0032 19.0889 17.853 19.3678C17.7672 19.5181 17.6384 19.4966 17.4453 19.4108C17.1878 19.282 15.6428 18.3807 14.2479 17.458C15.8359 18.0159 17.4453 18.6168 17.7028 18.7455C17.7028 18.7455 17.7243 18.767 17.7457 18.7885Z" fill="white"/>
<path d="M30.2765 13.8957C27.0791 13.2948 25.0191 13.5952 23.5384 14.1532C23.4955 13.9815 23.3453 13.6382 23.2165 13.3592C22.7659 13.8957 22.2938 14.5394 21.9934 14.9471C21.1779 15.5051 20.8346 16.0415 20.8346 16.0415C21.3067 14.4321 22.6801 13.2304 24.3539 12.93C24.8259 12.8442 25.341 12.8013 25.8989 12.8013C27.3796 12.8227 28.8602 13.1875 30.2765 13.8957Z" fill="#D82122"/>
<path d="M20.9206 12.7588C18.9893 13.9176 19.3756 16.6858 19.3756 16.6858C17.5301 13.8746 20.7704 12.8232 20.9206 12.7588Z" fill="#D82122"/>
<defs>
<linearGradient id="paint0_linear_10338_349" x1="0" y1="0" x2="48" y2="48" gradientUnits="userSpaceOnUse">
<stop stop-color="#742A31"/>
<stop offset="1" stop-color="#175180"/>
</linearGradient>
</defs>
</svg>
