<svg width="48" height="49" viewBox="0 0 48 49" fill="none" xmlns="http://www.w3.org/2000/svg">
<path d="M24 49C37.2548 49 48 38.2548 48 25C48 11.7452 37.2548 1 24 1C10.7452 1 0 11.7452 0 25C0 38.2548 10.7452 49 24 49Z" fill="url(#paint0_linear_10338_5412)"/>
<path d="M34.508 34.496L26.636 15.464C26.192 14.48 25.532 14 24.662 14H23.966C23.096 14 22.436 14.48 21.992 15.464L18.566 23.756H15.974C15.2 23.762 14.57 24.386 14.564 25.166V25.184C14.57 25.958 15.2 26.588 15.974 26.594H17.366L14.096 34.496C14.036 34.67 14 34.85 14 35.036C14 35.48 14.138 35.828 14.384 36.098C14.63 36.368 14.984 36.5 15.428 36.5C15.722 36.494 16.004 36.404 16.238 36.23C16.49 36.056 16.664 35.804 16.802 35.516L20.402 26.588H22.898C23.672 26.582 24.302 25.958 24.308 25.178V25.142C24.302 24.368 23.672 23.738 22.898 23.732H21.566L24.314 16.886L31.802 35.51C31.94 35.798 32.114 36.05 32.366 36.224C32.6 36.398 32.888 36.488 33.176 36.494C33.62 36.494 33.968 36.362 34.22 36.092C34.472 35.822 34.604 35.474 34.604 35.03C34.61 34.85 34.58 34.664 34.508 34.496Z" fill="white"/>
<defs>
<linearGradient id="paint0_linear_10338_5412" x1="41.8941" y1="9.94349" x2="6.18205" y2="39.9915" gradientUnits="userSpaceOnUse">
<stop stop-color="#B6509E"/>
<stop offset="1" stop-color="#2EBAC6"/>
</linearGradient>
</defs>
</svg>
