<svg width="122" height="30" viewBox="0 0 122 30" fill="none" xmlns="http://www.w3.org/2000/svg">
<path d="M14.2476 0.171143L0.317468 3.18668H14.2476V0.171143Z" fill="#7A8AA0"/>
<path d="M0.151672 4.69445C0.345488 6.1119 0.573436 7.45118 0.830463 8.71655H14.2476V4.69445H0.151672Z" fill="#7A8AA0"/>
<path d="M1.15646 10.2243C1.49076 11.6658 1.86349 13.004 2.2655 14.2461H14.2476V10.2243H1.15646Z" fill="#7A8AA0"/>
<path d="M2.78438 15.7539C3.32837 17.2426 3.91426 18.5776 4.52332 19.776H14.2476V15.7539H2.78438Z" fill="#7A8AA0"/>
<path d="M5.34111 21.2837C6.27914 22.9025 7.25009 24.2256 8.19115 25.3055H14.2476V21.2837H5.34111Z" fill="#7A8AA0"/>
<path d="M9.64002 26.8133C12.207 29.223 14.2476 29.8289 14.2476 29.8289V26.8133H9.64002Z" fill="#7A8AA0"/>
<path d="M15.7899 0.171143V29.829C15.7899 29.829 27.3847 26.3913 30.0685 3.26207L15.7899 0.171143Z" fill="#7A8AA0"/>
<path fill-rule="evenodd" clip-rule="evenodd" d="M43.2899 15.3242L38.264 2.05585L38.0379 1.98046C37.9206 1.98046 37.8117 1.99721 37.7112 2.03072C37.6274 2.06422 37.5436 2.12286 37.4599 2.20663C37.3929 2.29039 37.3342 2.36578 37.284 2.43279C37.2337 2.4998 37.1751 2.6087 37.1081 2.75947C37.041 2.8935 36.9908 3.01077 36.9573 3.11129C36.9238 3.19505 36.8735 3.32908 36.8065 3.51336C36.7562 3.69764 36.7144 3.83167 36.6809 3.91543L32.3083 15.1483C31.8727 16.2708 31.4791 17.0582 31.1272 17.5105C31.01 17.6613 30.7922 17.7785 30.4739 17.8623C30.1556 17.9461 29.8959 17.9879 29.6949 17.9879C29.6278 17.9879 29.5943 18.1052 29.5943 18.3398C29.5943 18.524 29.6278 18.6497 29.6949 18.7167C29.9797 18.7 30.2728 18.6832 30.5744 18.6665C30.8927 18.6497 31.1775 18.6329 31.4288 18.6162C31.6801 18.5994 31.9733 18.5911 32.3083 18.5911C32.3586 18.5911 33.2214 18.6329 34.8967 18.7167C34.9302 18.6329 34.9386 18.4905 34.9218 18.2895C34.9218 18.0885 34.8967 17.988 34.8464 17.988C34.6956 17.988 34.4527 17.9544 34.1177 17.8874C33.7826 17.8037 33.5397 17.7032 33.3889 17.5859C33.2549 17.4854 33.1879 17.3178 33.1879 17.0833C33.1879 16.765 33.3303 16.187 33.6151 15.3494L34.6956 12.5851L34.8213 12.5097C36.0778 12.426 37.1416 12.3841 38.0127 12.3841C38.6326 12.3841 39.2692 12.4092 39.9226 12.4595C39.9728 12.4595 40.0231 12.493 40.0733 12.56L41.2042 15.676C41.2544 15.8436 41.3047 16.0781 41.355 16.3797C41.422 16.6645 41.4555 16.9158 41.4555 17.1335C41.4555 17.2676 41.4387 17.4016 41.4052 17.5356C41.355 17.6696 41.179 17.7785 40.8775 17.8623C40.5759 17.9461 40.3246 17.988 40.1236 17.988C40.0566 17.988 40.0147 18.0968 39.998 18.3146C39.998 18.5157 40.0315 18.6497 40.0985 18.7167C42.0251 18.6329 42.9967 18.5911 43.0135 18.5911C43.181 18.5911 44.1024 18.6329 45.7777 18.7167C45.8112 18.6162 45.828 18.5324 45.828 18.4654C45.828 18.1471 45.7945 17.988 45.7275 17.988C45.5264 17.988 45.2165 17.9126 44.7977 17.7618C44.3789 17.5943 44.1192 17.3848 44.0187 17.1335C43.8344 16.7147 43.5915 16.1116 43.2899 15.3242ZM37.1332 11.1779C36.8149 11.1779 36.2202 11.1611 35.349 11.1276C35.3155 11.1276 35.2987 11.0941 35.2987 11.0271L37.4599 5.4232L39.4954 10.9768L39.42 11.1025C38.6326 11.1527 37.8703 11.1779 37.1332 11.1779Z" fill="#7A8AA0"/>
<path d="M48.2907 9.24292H46.8332C46.7494 9.24292 46.7075 9.06701 46.7075 8.7152C46.7075 8.61468 46.7159 8.55605 46.7327 8.53929C47.2185 8.3215 47.7462 7.87755 48.3158 7.20743C48.5001 6.98964 48.676 6.74672 48.8435 6.47867C49.0278 6.19387 49.1786 5.95095 49.2959 5.74992C49.4131 5.54888 49.4718 5.43999 49.4718 5.42324C49.9744 5.42324 50.2257 5.46512 50.2257 5.54888V8.0367C50.6612 8.0367 51.323 8.04508 52.2109 8.06184H53.6181C53.7522 8.06184 53.8192 8.13722 53.8192 8.288C53.8192 8.58955 53.7354 8.90786 53.5679 9.24292H50.2257V15.3996C50.2257 16.0698 50.3932 16.6059 50.7283 17.0079C51.0801 17.41 51.5324 17.611 52.0852 17.611C52.5878 17.611 53.1072 17.4519 53.6433 17.1336C53.6935 17.1001 53.7689 17.1755 53.8694 17.3598C53.97 17.5273 54.0118 17.6194 53.9951 17.6362C53.7438 17.9042 53.3585 18.1723 52.8391 18.4403C52.3198 18.6916 51.7837 18.8173 51.2308 18.8173C50.3932 18.8173 49.6896 18.5408 49.12 17.988C48.5671 17.4351 48.2907 16.6477 48.2907 15.6258V9.24292Z" fill="#7A8AA0"/>
<path d="M54.7238 9.24292H56.1814V15.6258C56.1814 16.6477 56.4578 17.4351 57.0106 17.988C57.5802 18.5408 58.2839 18.8173 59.1215 18.8173C59.6744 18.8173 60.2105 18.6916 60.7298 18.4403C61.2491 18.1723 61.6345 17.9042 61.8858 17.6362C61.9025 17.6194 61.8606 17.5273 61.7601 17.3598C61.6596 17.1755 61.5842 17.1001 61.5339 17.1336C60.9978 17.4519 60.4785 17.611 59.9759 17.611C59.4231 17.611 58.9707 17.41 58.6189 17.0079C58.2839 16.6059 58.1163 16.0698 58.1163 15.3996V9.24292H61.4586C61.6261 8.90786 61.7099 8.58955 61.7099 8.288C61.7099 8.13722 61.6428 8.06184 61.5088 8.06184H60.1016C59.2137 8.04508 58.5519 8.0367 58.1163 8.0367V5.54888C58.1163 5.46512 57.865 5.42324 57.3624 5.42324C57.3624 5.43999 57.3038 5.54888 57.1865 5.74992C57.0693 5.95095 56.9185 6.19387 56.7342 6.47867C56.5667 6.74672 56.3908 6.98964 56.2065 7.20743C55.6369 7.87755 55.1092 8.3215 54.6233 8.53929C54.6066 8.55605 54.5982 8.61468 54.5982 8.7152C54.5982 9.06701 54.6401 9.24292 54.7238 9.24292Z" fill="#7A8AA0"/>
<path fill-rule="evenodd" clip-rule="evenodd" d="M67.9671 7.68488C68.7377 7.68488 69.4162 7.83566 70.0026 8.13722C70.5889 8.42202 71.0329 8.79896 71.3344 9.26804C71.6528 9.72037 71.8789 10.1895 72.0129 10.6753C72.1637 11.1444 72.2391 11.6135 72.2391 12.0825C72.2391 12.4176 72.1889 12.627 72.0883 12.7108C71.9878 12.7778 71.7952 12.8113 71.5104 12.8113H65.1777C65.0437 12.8113 64.9767 12.8532 64.9767 12.9369C64.9767 13.9924 65.295 14.9641 65.9316 15.852C66.5682 16.7399 67.4896 17.1838 68.6958 17.1838C69.0477 17.1838 69.3827 17.1503 69.701 17.0833C70.0193 17.0163 70.2874 16.9409 70.5052 16.8571C70.7397 16.7566 70.9324 16.6645 71.0832 16.5807C71.2507 16.4802 71.3931 16.3881 71.5104 16.3043L71.6863 16.1787C71.7868 16.1787 71.837 16.2875 71.837 16.5053C71.837 16.6394 71.7868 16.7901 71.6863 16.9577C71.3512 17.4268 70.857 17.854 70.2036 18.2393C69.5502 18.6078 68.8382 18.7921 68.0676 18.7921C66.6771 18.7921 65.4793 18.2728 64.4741 17.2341C63.4857 16.1787 62.9914 14.897 62.9914 13.3893C62.9914 11.6302 63.4605 10.2397 64.3987 9.21778C65.3536 8.19585 66.5431 7.68488 67.9671 7.68488ZM67.7158 8.61468C66.8446 8.61468 66.1745 8.99162 65.7054 9.7455C65.2531 10.4826 65.0269 11.0941 65.0269 11.58C65.0269 11.6972 65.0772 11.7559 65.1777 11.7559H70.078C70.1617 11.7559 70.2036 11.6721 70.2036 11.5046C70.2036 10.9685 69.9775 10.357 69.5251 9.67011C69.0728 8.96649 68.4697 8.61468 67.7158 8.61468Z" fill="#7A8AA0"/>
<path d="M79.0492 7.81054C78.4964 7.71002 78.0356 7.65976 77.6671 7.65976C76.6954 7.65976 75.841 7.94456 75.1039 8.51416C74.3835 9.08377 74.0233 9.8209 74.0233 10.7256C74.0233 11.7642 74.6767 12.6605 75.9834 13.4144C76.1677 13.5317 76.4525 13.6908 76.8378 13.8919C77.2231 14.0929 77.5163 14.2604 77.7173 14.3945C77.9351 14.5117 78.1613 14.6709 78.3958 14.8719C78.6471 15.0562 78.823 15.274 78.9235 15.5253C79.0408 15.7598 79.0995 16.0195 79.0995 16.3043C79.0995 16.8572 78.9235 17.2844 78.5717 17.5859C78.2367 17.8707 77.8011 18.0131 77.265 18.0131C76.6451 18.0131 76.0672 17.7786 75.5311 17.3095C75.0117 16.8237 74.7018 16.3294 74.6013 15.8268C74.5845 15.7263 74.4505 15.6761 74.1992 15.6761C74.1322 15.6761 74.0317 15.7263 73.8976 15.8268C73.8976 16.1619 73.9395 16.6142 74.0233 17.1838C74.1238 17.7534 74.2243 18.1723 74.3249 18.4403C74.5426 18.4738 74.8526 18.5408 75.2546 18.6414C75.6567 18.7419 76.0001 18.8089 76.285 18.8424C76.5865 18.8926 76.9132 18.9178 77.265 18.9178C78.3037 18.9178 79.2083 18.5911 79.979 17.9377C80.7496 17.2676 81.1349 16.4383 81.1349 15.4499C81.1349 15.1986 81.0763 14.9557 80.959 14.7212C80.8585 14.4699 80.7496 14.2688 80.6324 14.118C80.5151 13.9505 80.3224 13.7662 80.0544 13.5652C79.8031 13.3642 79.6104 13.2218 79.4764 13.138C79.3424 13.0542 79.1078 12.9202 78.7728 12.7359C78.4545 12.5349 78.2618 12.4176 78.1948 12.3841C78.111 12.3338 77.8932 12.2166 77.5414 12.0323C77.2064 11.8313 76.9886 11.6972 76.8881 11.6302L76.4357 11.2533C76.2514 11.069 76.1258 10.8847 76.0588 10.7004C75.9918 10.4994 75.9583 10.2732 75.9583 10.0219C75.9583 9.03351 76.5614 8.53929 77.7676 8.53929C78.2702 8.53929 78.7141 8.74871 79.0995 9.16753C79.5015 9.58636 79.7444 10.0303 79.8282 10.4994C79.845 10.6167 79.9706 10.6753 80.2051 10.6753C80.4229 10.6753 80.5318 10.6334 80.5318 10.5497C80.4983 9.61149 80.3978 8.75708 80.2303 7.98645C80.0125 7.95294 79.6188 7.8943 79.0492 7.81054Z" fill="#7A8AA0"/>
<path d="M83.9243 9.24292H82.4668C82.383 9.24292 82.3412 9.06701 82.3412 8.7152C82.3412 8.61468 82.3495 8.55605 82.3663 8.53929C82.8521 8.3215 83.3799 7.87755 83.9495 7.20743C84.1338 6.98964 84.3097 6.74672 84.4772 6.47867C84.6615 6.19387 84.8122 5.95095 84.9295 5.74992C85.0468 5.54888 85.1054 5.43999 85.1054 5.42324C85.608 5.42324 85.8593 5.46512 85.8593 5.54888V8.0367C86.2949 8.0367 86.9566 8.04508 87.8445 8.06184H89.2518C89.3858 8.06184 89.4528 8.13722 89.4528 8.288C89.4528 8.58955 89.3691 8.90786 89.2015 9.24292H85.8593V15.3996C85.8593 16.0698 86.0268 16.6059 86.3619 17.0079C86.7137 17.41 87.166 17.611 87.7189 17.611C88.2215 17.611 88.7408 17.4519 89.2769 17.1336C89.3272 17.1001 89.4026 17.1755 89.5031 17.3598C89.6036 17.5273 89.6455 17.6194 89.6287 17.6362C89.3774 17.9042 88.9921 18.1723 88.4728 18.4403C87.9534 18.6916 87.4173 18.8173 86.8645 18.8173C86.0268 18.8173 85.3232 18.5408 84.7536 17.988C84.2008 17.4351 83.9243 16.6477 83.9243 15.6258L83.9243 9.24292Z" fill="#7A8AA0"/>
<path fill-rule="evenodd" clip-rule="evenodd" d="M97.6702 8.36338C97.2681 7.91105 96.6063 7.68488 95.6849 7.68488C94.596 7.68488 93.5238 8.04507 92.4683 8.76545C91.4129 9.46908 90.8852 10.1811 90.8852 10.9015C91.0695 11.2198 91.3962 11.3789 91.8652 11.3789C92.5521 11.3789 92.8956 11.0857 92.8956 10.4994C92.8956 9.94654 93.0631 9.50258 93.3981 9.16753C93.7332 8.81571 94.152 8.63981 94.6546 8.63981C95.1237 8.63981 95.5258 8.79058 95.8608 9.09214C96.1959 9.37694 96.3634 9.78739 96.3634 10.3235V12.2082C96.3634 12.4092 96.288 12.5349 96.1373 12.5851C95.9362 12.6689 95.5844 12.7945 95.0818 12.9621C94.5792 13.1296 94.1688 13.272 93.8505 13.3893C93.5489 13.4898 93.1804 13.649 92.7448 13.8667C92.3092 14.0845 91.9658 14.3023 91.7145 14.5201C91.4632 14.7211 91.2454 14.9892 91.0611 15.3243C90.8768 15.6426 90.7847 15.986 90.7847 16.3546C90.7847 17.1755 91.036 17.7953 91.5386 18.2141C92.0412 18.6162 92.6778 18.8173 93.4484 18.8173C93.7835 18.8173 94.1101 18.767 94.4284 18.6665C94.7635 18.566 95.0483 18.4403 95.2829 18.2895C95.5341 18.1388 95.7519 17.9964 95.9362 17.8623C96.1205 17.7116 96.2629 17.5859 96.3634 17.4854C96.4807 17.3681 96.5477 17.3095 96.5645 17.3095C96.6985 17.6613 96.9414 17.9964 97.2932 18.3147C97.645 18.633 98.0136 18.7921 98.3989 18.7921C98.8848 18.7921 99.4711 18.4989 100.158 17.9126C100.242 17.7786 100.284 17.6027 100.284 17.3849C100.284 17.2508 100.25 17.1838 100.183 17.1838C99.8313 17.4184 99.5381 17.5356 99.3036 17.5356C98.9853 17.5356 98.734 17.4184 98.5497 17.1838C98.3654 16.9493 98.2733 16.6561 98.2733 16.3043V10.4994C98.2733 9.51096 98.0722 8.79896 97.6702 8.36338ZM94.4284 17.3849C93.9761 17.3849 93.6076 17.2676 93.3227 17.0331C93.0379 16.7818 92.8955 16.43 92.8955 15.9776C92.8955 15.5923 93.0296 15.2572 93.2976 14.9724C93.5824 14.6709 93.8672 14.4615 94.152 14.3442C94.4536 14.2102 94.864 14.0594 95.3834 13.8919C95.9027 13.7243 96.2294 13.6071 96.3634 13.5401V16.1284C96.3634 16.4132 96.154 16.698 95.7352 16.9828C95.3164 17.2508 94.8808 17.3849 94.4284 17.3849Z" fill="#7A8AA0"/>
<path d="M108.551 7.63453C109.724 7.63453 110.545 8.05335 111.014 8.891C111.483 9.72865 111.718 11.0856 111.718 12.962V15.2488C111.718 16.2204 111.785 16.966 111.919 17.4853C111.952 17.6026 112.17 17.7198 112.572 17.8371C112.974 17.9376 113.259 17.9879 113.426 17.9879C113.477 17.9879 113.51 18.0884 113.527 18.2894C113.544 18.4905 113.535 18.6329 113.502 18.7166C111.826 18.6329 110.93 18.591 110.813 18.591C110.779 18.591 109.9 18.6329 108.174 18.7166C108.107 18.6496 108.074 18.5156 108.074 18.3146C108.074 18.0968 108.107 17.9879 108.174 17.9879C108.375 17.9879 108.652 17.9376 109.004 17.8371C109.372 17.7198 109.573 17.6026 109.607 17.4853C109.724 16.9995 109.783 16.4131 109.783 15.7262V13.2133C109.783 11.6552 109.582 10.5914 109.179 10.0218C108.777 9.45223 108.124 9.16743 107.219 9.16743C106.683 9.16743 106.164 9.36846 105.661 9.77054C105.175 10.1559 104.933 10.5077 104.933 10.826V15.2488C104.933 16.2204 105 16.966 105.134 17.4853C105.167 17.6026 105.385 17.7198 105.787 17.8371C106.189 17.9376 106.474 17.9879 106.641 17.9879C106.692 17.9879 106.725 18.0884 106.742 18.2894C106.759 18.4905 106.75 18.6329 106.717 18.7166C105.041 18.6329 104.145 18.591 104.028 18.591C103.927 18.591 103.014 18.6329 101.289 18.7166C101.222 18.6496 101.188 18.5156 101.188 18.3146C101.188 18.0968 101.222 17.9879 101.289 17.9879C101.49 17.9879 101.783 17.9376 102.168 17.8371C102.57 17.7198 102.788 17.6026 102.822 17.4853C102.939 16.9995 102.998 16.4131 102.998 15.7262V10.9768C102.998 10.3234 102.88 9.87105 102.646 9.61976C102.478 9.41872 102.269 9.2847 102.018 9.21769C101.783 9.13392 101.582 9.09204 101.414 9.09204C101.264 9.09204 101.188 9.07529 101.188 9.04178C101.188 8.63971 101.239 8.4303 101.339 8.41354C103.115 8.1455 104.271 7.92771 104.807 7.76018H104.882L104.933 7.73505C105 7.73505 105.041 7.81044 105.058 7.96121C105.075 8.09524 105.075 8.19575 105.058 8.26277C104.991 8.73185 104.958 9.06691 104.958 9.26795C104.958 9.33496 104.974 9.36846 105.008 9.36846C105.025 9.36846 105.05 9.35171 105.083 9.31821C105.469 8.91613 105.988 8.53919 106.641 8.18738C107.311 7.81881 107.948 7.63453 108.551 7.63453Z" fill="#7A8AA0"/>
<path d="M114.683 9.24292H116.14L116.14 15.6258C116.14 16.6477 116.417 17.4351 116.97 17.988C117.539 18.5408 118.243 18.8173 119.081 18.8173C119.633 18.8173 120.169 18.6916 120.689 18.4403C121.208 18.1723 121.593 17.9042 121.845 17.6362C121.862 17.6194 121.82 17.5273 121.719 17.3598C121.619 17.1755 121.543 17.1001 121.493 17.1336C120.957 17.4519 120.438 17.611 119.935 17.611C119.382 17.611 118.93 17.41 118.578 17.0079C118.243 16.6059 118.075 16.0698 118.075 15.3996V9.24292H121.418C121.585 8.90786 121.669 8.58955 121.669 8.288C121.669 8.13722 121.602 8.06184 121.468 8.06184H120.061C119.173 8.04508 118.511 8.0367 118.075 8.0367V5.54888C118.075 5.46512 117.824 5.42324 117.321 5.42324C117.321 5.43999 117.263 5.54888 117.146 5.74992C117.028 5.95095 116.877 6.19387 116.693 6.47867C116.526 6.74672 116.35 6.98964 116.165 7.20743C115.596 7.87755 115.068 8.3215 114.582 8.53929C114.566 8.55605 114.557 8.61468 114.557 8.7152C114.557 9.06701 114.599 9.24292 114.683 9.24292Z" fill="#7A8AA0"/>
<path d="M37.6784 25.4048L38.3286 22.0594C38.4103 21.6259 38.4511 21.3212 38.4511 21.1453C38.4511 21.1013 38.4417 21.0699 38.4229 21.0511C38.4103 21.0259 38.3318 21.004 38.1873 20.9851C38.0428 20.96 37.8198 20.9474 37.5182 20.9474C37.1853 20.9474 36.9497 21.0008 36.8115 21.1076C36.6732 21.2081 36.5256 21.4343 36.3685 21.7861C36.356 21.8175 36.3246 21.8332 36.2743 21.8332C36.1926 21.8332 36.1298 21.8112 36.0858 21.7673L36.5005 20.4197C36.7392 20.4888 36.9371 20.5234 37.0942 20.5234C37.3392 20.5234 37.6564 20.5328 38.0459 20.5516C38.4354 20.5705 38.7527 20.5799 38.9977 20.5799C39.2427 20.5799 39.5663 20.5705 39.9683 20.5516C40.3704 20.5328 40.694 20.5234 40.939 20.5234C41.0772 20.5234 41.2845 20.4888 41.5609 20.4197L41.4667 21.7673C41.4101 21.8112 41.3379 21.8332 41.2499 21.8332C41.1934 21.8332 41.1651 21.8175 41.1651 21.7861C41.1651 21.4469 41.1023 21.2238 40.9767 21.117C40.8573 21.004 40.65 20.9474 40.3547 20.9474C39.7328 20.9474 39.3998 20.9945 39.3558 21.0888C39.2679 21.2772 39.1799 21.5914 39.092 22.0311L38.4323 25.433C38.3632 25.7786 38.3286 26.0613 38.3286 26.2812C38.3286 26.3314 38.3695 26.3785 38.4511 26.4225C38.5391 26.4602 38.6239 26.4853 38.7056 26.4979L38.8375 26.5167C38.8501 26.5167 38.8564 26.5293 38.8564 26.5544C38.8564 26.6235 38.8375 26.6958 38.7998 26.7712C38.2218 26.7398 37.8952 26.7241 37.8198 26.7241C37.8072 26.7241 37.4617 26.7398 36.7832 26.7712C36.7706 26.7586 36.7643 26.7335 36.7643 26.6958C36.7643 26.5764 36.7863 26.5167 36.8303 26.5167C36.9057 26.5167 37.0188 26.4979 37.1695 26.4602C37.3203 26.4162 37.4083 26.366 37.4334 26.3094C37.5276 26.0958 37.6093 25.7943 37.6784 25.4048Z" fill="#7A8AA0"/>
<path d="M44.7272 23.2656C44.7272 22.851 44.5702 22.6436 44.2561 22.6436C44.0676 22.6436 43.8194 22.7881 43.5116 23.0771C43.2101 23.3598 42.9525 23.6394 42.7389 23.9158C42.5316 24.1922 42.3965 24.387 42.3337 24.5001L42.9839 21.1736C43.0656 20.7526 43.1064 20.5171 43.1064 20.4668C43.1064 20.3663 43.0875 20.3066 43.0499 20.2877C42.6729 20.426 42.2771 20.5139 41.8625 20.5516C41.8122 20.6019 41.7871 20.6647 41.7871 20.7401C41.7871 20.7778 41.7965 20.7966 41.8154 20.7966C42.1986 20.7966 42.3902 20.8563 42.3902 20.9757C42.3902 21.0322 42.3619 21.1987 42.3054 21.4751L41.2876 26.7429C41.3882 26.768 41.495 26.7806 41.608 26.7806C41.7211 26.7806 41.8185 26.768 41.9002 26.7429L42.0604 26.0078C42.186 25.367 42.4656 24.7639 42.8991 24.1985C43.3388 23.6268 43.6624 23.341 43.8697 23.341C43.9891 23.341 44.0487 23.4761 44.0487 23.7462C44.0487 23.8781 44.0268 24.0477 43.9828 24.2551L43.653 25.81C43.609 26.0424 43.587 26.2089 43.587 26.3094C43.587 26.4539 43.6153 26.5733 43.6718 26.6675C43.7283 26.7555 43.8069 26.7994 43.9074 26.7994C44.1021 26.7994 44.3283 26.6863 44.5859 26.4602C44.8435 26.234 45.0131 26.0518 45.0948 25.9136C45.0948 25.8885 45.0759 25.8476 45.0382 25.7911C45.0068 25.7283 44.9848 25.6969 44.9723 25.6969L44.9157 25.7628C44.878 25.8005 44.8372 25.8445 44.7932 25.8948C44.7492 25.9387 44.699 25.9859 44.6424 26.0361C44.5922 26.0864 44.5388 26.1304 44.4822 26.168C44.432 26.1995 44.388 26.2152 44.3503 26.2152C44.2875 26.2152 44.2561 26.1366 44.2561 25.9796C44.2561 25.8979 44.2655 25.8194 44.2843 25.744L44.5953 24.2928C44.6833 23.8907 44.7272 23.5483 44.7272 23.2656Z" fill="#7A8AA0"/>
<path fill-rule="evenodd" clip-rule="evenodd" d="M47.771 22.6437C48.06 22.6437 48.2674 22.7191 48.393 22.8698C48.5249 23.0143 48.5909 23.1745 48.5909 23.3504C48.5909 23.6269 48.4495 23.9001 48.1668 24.1703C47.8841 24.4404 47.5731 24.6509 47.2339 24.8017C46.9009 24.9462 46.6308 25.0184 46.4235 25.0184C46.3983 25.0184 46.3858 25.1283 46.3858 25.3482C46.3858 25.6309 46.4392 25.8477 46.546 25.9985C46.6591 26.1429 46.8098 26.2152 46.9983 26.2152C47.0486 26.2152 47.0957 26.2089 47.1397 26.1963C47.1899 26.1838 47.237 26.1681 47.281 26.1492L47.4129 26.0927C47.4569 26.0676 47.4978 26.0393 47.5355 26.0079C47.5731 25.9765 47.6077 25.9482 47.6391 25.9231C47.6768 25.8979 47.7082 25.8728 47.7333 25.8477C47.7648 25.8163 47.7868 25.7911 47.7993 25.7723L47.8747 25.6969C47.8873 25.6969 47.9093 25.7283 47.9407 25.7911C47.9784 25.8477 47.9972 25.8885 47.9972 25.9136C47.9093 26.0644 47.7333 26.2497 47.4695 26.4696C47.2056 26.6895 46.9449 26.7995 46.6873 26.7995C46.3607 26.7995 46.1094 26.6738 45.9334 26.4225C45.7638 26.1649 45.679 25.8131 45.679 25.3671C45.679 24.764 45.9083 24.1609 46.3669 23.5577C46.8255 22.9484 47.2936 22.6437 47.771 22.6437ZM47.6768 23.03C47.3815 23.03 47.102 23.2436 46.8381 23.6708C46.5805 24.0918 46.4517 24.4184 46.4517 24.6509C46.4517 24.676 46.4643 24.6886 46.4894 24.6886C46.7156 24.6886 47.0077 24.5378 47.3658 24.2362C47.7302 23.9347 47.9124 23.6269 47.9124 23.3127C47.9124 23.1243 47.8339 23.03 47.6768 23.03Z" fill="#7A8AA0"/>
<path fill-rule="evenodd" clip-rule="evenodd" d="M54.2827 23.0112C54.1445 22.7661 53.9372 22.6436 53.6608 22.6436C53.5791 22.6436 53.4786 22.6688 53.3592 22.719C53.2398 22.763 53.0702 22.8855 52.8503 23.0865C52.6305 23.2876 52.42 23.5546 52.219 23.8875L52.775 21.1736C52.8566 20.7778 52.8975 20.5422 52.8975 20.4668C52.8975 20.3663 52.8786 20.3066 52.8409 20.2877C52.4577 20.426 52.0619 20.5139 51.6535 20.5516C51.6033 20.6019 51.5782 20.6647 51.5782 20.7401C51.5782 20.7778 51.5876 20.7966 51.6064 20.7966C51.9897 20.7966 52.1813 20.8563 52.1813 20.9757C52.1813 21.0511 52.153 21.2175 52.0965 21.4751L51.3143 25.4519C51.2955 25.5649 51.286 25.6686 51.286 25.7628C51.286 26.0958 51.3803 26.3534 51.5687 26.5356C51.7635 26.7115 51.9802 26.7994 52.219 26.7994C52.7592 26.7994 53.2744 26.5136 53.7644 25.9419C54.2545 25.3702 54.4995 24.6823 54.4995 23.8781C54.4995 23.5452 54.4272 23.2562 54.2827 23.0112ZM52.8786 23.52C53.0859 23.2813 53.2556 23.1619 53.3875 23.1619C53.4817 23.1619 53.5602 23.1933 53.6231 23.2562C53.6859 23.3127 53.7267 23.3975 53.7456 23.5106C53.7707 23.6237 53.7864 23.7211 53.7927 23.8027C53.799 23.8844 53.8021 23.9849 53.8021 24.1043C53.8021 24.4498 53.7424 24.8016 53.6231 25.1597C53.51 25.5115 53.3466 25.81 53.133 26.055C52.9257 26.2937 52.7027 26.4131 52.464 26.4131C52.2441 26.4131 52.0902 26.3094 52.0022 26.1021C51.9143 25.8948 51.9048 25.6183 51.9739 25.2728C52.0242 25.0027 52.1373 24.7011 52.3132 24.3681C52.4891 24.0352 52.6776 23.7525 52.8786 23.52Z" fill="#7A8AA0"/>
<path d="M56.0638 22.6437C56.1643 22.6437 56.2428 22.6908 56.2994 22.785C56.3559 22.873 56.3842 22.9892 56.3842 23.1337C56.3842 23.3033 56.3653 23.4698 56.3276 23.6331L55.9978 25.188C55.9538 25.3702 55.9318 25.5398 55.9318 25.6969C55.9318 25.967 55.9915 26.1021 56.1109 26.1021C56.1988 26.1021 56.3245 26.0299 56.4878 25.8854C56.6512 25.7346 56.8208 25.543 56.9967 25.3105C57.1789 25.0718 57.3485 24.7828 57.5056 24.4436C57.6689 24.1043 57.782 23.7682 57.8448 23.4352L58.005 22.7002C58.0867 22.6751 58.1841 22.6625 58.2972 22.6625C58.4102 22.6625 58.517 22.6751 58.6176 22.7002L58.0333 25.744C58.0145 25.8194 58.005 25.8979 58.005 25.9796C58.005 26.1367 58.0364 26.2152 58.0993 26.2152C58.137 26.2152 58.1809 26.1995 58.2312 26.1681C58.2877 26.1304 58.3411 26.0864 58.3914 26.0361C58.4479 25.9859 58.4982 25.9388 58.5422 25.8948C58.5862 25.8445 58.627 25.8006 58.6647 25.7629L58.7212 25.6969C58.7338 25.6969 58.7558 25.7283 58.7872 25.7911C58.8249 25.8477 58.8437 25.8885 58.8437 25.9136C58.7621 26.0518 58.5924 26.234 58.3349 26.4602C58.0773 26.6864 57.8511 26.7994 57.6564 26.7994C57.5558 26.7994 57.4773 26.7555 57.4208 26.6675C57.3642 26.5733 57.336 26.4539 57.336 26.3094C57.336 26.2089 57.3579 26.0424 57.4019 25.81L57.5715 24.943C57.5087 25.0624 57.3799 25.2571 57.1852 25.5273C56.9904 25.7974 56.7454 26.077 56.4501 26.366C56.1549 26.655 55.913 26.7994 55.7245 26.7994C55.4104 26.7994 55.2534 26.5921 55.2534 26.1775C55.2534 25.8885 55.2973 25.5461 55.3853 25.1503L55.668 23.8405C55.6994 23.6143 55.7151 23.4886 55.7151 23.4635C55.7151 23.3064 55.6837 23.2279 55.6209 23.2279C55.5957 23.2279 55.5612 23.2436 55.5172 23.275C55.4732 23.3002 55.4261 23.3347 55.3759 23.3787L55.2534 23.5012C55.2157 23.5389 55.1811 23.5766 55.1497 23.6143L55.1026 23.6708C55.09 23.6708 55.0649 23.6426 55.0272 23.586C54.9958 23.5232 54.9801 23.4792 54.9801 23.4541C55.0555 23.3284 55.2125 23.162 55.4512 22.9546C55.6963 22.7473 55.9004 22.6437 56.0638 22.6437Z" fill="#7A8AA0"/>
<path d="M62.0289 22.9735C61.8216 22.7347 61.5389 22.6154 61.1808 22.6154C60.8101 22.6154 60.4991 22.7442 60.2478 23.0017C59.9965 23.253 59.8709 23.5106 59.8709 23.7745C59.8709 23.9881 59.9306 24.1985 60.0499 24.4058C60.1756 24.6132 60.3106 24.7891 60.4551 24.9336C60.5996 25.0781 60.7316 25.2445 60.8509 25.433C60.9766 25.6152 61.0394 25.788 61.0394 25.9513C61.0394 26.0581 60.9954 26.1586 60.9075 26.2529C60.8258 26.3408 60.7159 26.3848 60.5777 26.3848C60.408 26.3848 60.2698 26.3377 60.163 26.2434C60.0625 26.1492 59.9777 26.0581 59.9086 25.9702C59.8395 25.8759 59.7609 25.8288 59.673 25.8288C59.5788 25.8288 59.5002 25.8728 59.4374 25.9607C59.3809 26.0487 59.3526 26.1492 59.3526 26.2623C59.3526 26.3314 59.3683 26.3911 59.3997 26.4413C59.607 26.6801 59.8897 26.7994 60.2478 26.7994C60.6436 26.7994 60.9672 26.6926 61.2185 26.479C61.4697 26.2654 61.5954 25.9859 61.5954 25.6403C61.5954 25.4267 61.5326 25.2163 61.4069 25.009C61.2876 24.8016 61.1556 24.6257 61.0111 24.4812C60.8666 24.3367 60.7316 24.1734 60.6059 23.9912C60.4866 23.8027 60.4269 23.6268 60.4269 23.4635C60.4269 23.3504 60.4646 23.2499 60.54 23.1619C60.6153 23.074 60.719 23.03 60.8509 23.03C61.0206 23.03 61.1556 23.0771 61.2561 23.1714C61.3629 23.2656 61.4509 23.3598 61.52 23.4541C61.5891 23.542 61.6676 23.586 61.7556 23.586C61.8498 23.586 61.9252 23.5452 61.9818 23.4635C62.0446 23.3818 62.076 23.2844 62.076 23.1714C62.076 23.1148 62.0603 23.0489 62.0289 22.9735Z" fill="#7A8AA0"/>
<path d="M63.6969 22.6437C63.7974 22.6437 63.8759 22.6908 63.9325 22.785C63.989 22.873 64.0173 22.9892 64.0173 23.1337C64.0173 23.2656 63.9984 23.4321 63.9608 23.6332L63.5461 25.744C63.5273 25.8194 63.5178 25.898 63.5178 25.9796C63.5178 26.1367 63.5492 26.2152 63.6121 26.2152C63.6497 26.2152 63.6937 26.1995 63.744 26.1681C63.8005 26.1304 63.8539 26.0864 63.9042 26.0362C63.9607 25.9859 64.011 25.9388 64.055 25.8948C64.099 25.8446 64.1398 25.8006 64.1775 25.7629L64.234 25.6969C64.2465 25.6969 64.2685 25.7283 64.3 25.7912C64.3376 25.8477 64.3565 25.8885 64.3565 25.9137C64.2748 26.0519 64.1052 26.2341 63.8476 26.4602C63.59 26.6864 63.3639 26.7995 63.1691 26.7995C63.0686 26.7995 62.9901 26.7555 62.9335 26.6675C62.877 26.5733 62.8487 26.4539 62.8487 26.3094C62.8487 26.2089 62.8707 26.0424 62.9147 25.81L63.301 23.8405C63.3324 23.6457 63.3481 23.5201 63.3481 23.4635C63.3481 23.3065 63.3167 23.2279 63.2539 23.2279C63.2288 23.2279 63.1942 23.2436 63.1502 23.2751C63.1063 23.3002 63.0592 23.3347 63.0089 23.3787L62.8864 23.5012C62.8487 23.5389 62.8142 23.5766 62.7827 23.6143L62.7356 23.6709C62.7231 23.6709 62.6979 23.6426 62.6602 23.586C62.6288 23.5232 62.6131 23.4792 62.6131 23.4541C62.6885 23.3285 62.8456 23.162 63.0843 22.9547C63.3293 22.7473 63.5335 22.6437 63.6969 22.6437Z" fill="#7A8AA0"/>
<path d="M63.9702 20.6553C64.0644 20.6553 64.1429 20.693 64.2057 20.7684C64.2748 20.8438 64.3094 20.9317 64.3094 21.0323C64.3094 21.183 64.2591 21.315 64.1586 21.428C64.0644 21.5411 63.945 21.5977 63.8005 21.5977C63.7 21.5977 63.6215 21.56 63.5649 21.4846C63.5084 21.4029 63.4801 21.3055 63.4801 21.1925C63.4801 21.048 63.5272 20.9223 63.6215 20.8155C63.7157 20.7087 63.8319 20.6553 63.9702 20.6553Z" fill="#7A8AA0"/>
<path d="M66.4391 22.785C66.3826 22.6908 66.304 22.6437 66.2035 22.6437C66.0402 22.6437 65.836 22.7473 65.591 22.9546C65.3522 23.162 65.1952 23.3284 65.1198 23.4541C65.1198 23.4792 65.1355 23.5232 65.1669 23.586C65.2046 23.6426 65.2297 23.6708 65.2423 23.6708L65.2894 23.6143C65.3208 23.5766 65.3554 23.5389 65.393 23.5012L65.5156 23.3787C65.5658 23.3347 65.6129 23.3002 65.6569 23.275C65.7009 23.2436 65.7354 23.2279 65.7606 23.2279C65.8234 23.2279 65.8548 23.3064 65.8548 23.4635C65.8548 23.4886 65.8391 23.6143 65.8077 23.8405L65.2517 26.7429C65.3522 26.768 65.459 26.7806 65.5721 26.7806C65.6852 26.7806 65.7826 26.768 65.8642 26.7429L66.0244 26.0079C66.1501 25.3671 66.4297 24.764 66.8631 24.1985C67.3029 23.6269 67.6264 23.341 67.8338 23.341C67.9531 23.341 68.0128 23.4761 68.0128 23.7462C68.0128 23.8781 67.9908 24.0478 67.9468 24.2551L67.617 25.81C67.573 26.0424 67.551 26.2089 67.551 26.3094C67.551 26.4539 67.5793 26.5733 67.6359 26.6675C67.6924 26.7555 67.7709 26.7994 67.8715 26.7994C68.0662 26.7994 68.2924 26.6864 68.5499 26.4602C68.8075 26.234 68.9772 26.0518 69.0588 25.9136C69.0588 25.8885 69.04 25.8477 69.0023 25.7911C68.9709 25.7283 68.9489 25.6969 68.9364 25.6969L68.8798 25.7629C68.8421 25.8006 68.8013 25.8445 68.7573 25.8948C68.7134 25.9388 68.6631 25.9859 68.6066 26.0361C68.5563 26.0864 68.5029 26.1304 68.4464 26.1681C68.3961 26.1995 68.3521 26.2152 68.3144 26.2152C68.2516 26.2152 68.2202 26.1367 68.2202 25.9796C68.2202 25.8979 68.2296 25.8194 68.2485 25.744L68.5595 24.2928C68.6474 23.8907 68.6914 23.5483 68.6914 23.2656C68.6914 22.851 68.5343 22.6437 68.2202 22.6437C68.0317 22.6437 67.7836 22.7882 67.4757 23.0771C67.1742 23.3599 66.9166 23.6394 66.703 23.9158C66.4957 24.1923 66.3606 24.387 66.2978 24.5001L66.4674 23.6331C66.5051 23.4384 66.5239 23.2719 66.5239 23.1337C66.5239 22.9892 66.4957 22.873 66.4391 22.785Z" fill="#7A8AA0"/>
<path fill-rule="evenodd" clip-rule="evenodd" d="M71.7069 22.6437C71.9959 22.6437 72.2032 22.7191 72.3288 22.8698C72.4608 23.0143 72.5267 23.1745 72.5267 23.3504C72.5267 23.6269 72.3854 23.9001 72.1027 24.1703C71.82 24.4404 71.509 24.6509 71.1698 24.8017C70.8368 24.9462 70.5666 25.0184 70.3593 25.0184C70.3342 25.0184 70.3216 25.1283 70.3216 25.3482C70.3216 25.6309 70.375 25.8477 70.4818 25.9985C70.5949 26.1429 70.7457 26.2152 70.9342 26.2152C70.9844 26.2152 71.0315 26.2089 71.0755 26.1963C71.1258 26.1838 71.1729 26.1681 71.2169 26.1492L71.3488 26.0927C71.3928 26.0676 71.4336 26.0393 71.4713 26.0079L71.5138 25.9727C71.5354 25.955 71.5557 25.9384 71.575 25.9231C71.6126 25.8979 71.6441 25.8728 71.6692 25.8477C71.7006 25.8163 71.7226 25.7911 71.7352 25.7723L71.8106 25.6969C71.8231 25.6969 71.8451 25.7283 71.8765 25.7911C71.9142 25.8477 71.933 25.8885 71.933 25.9136C71.8451 26.0644 71.6692 26.2497 71.4053 26.4696C71.1414 26.6895 70.8807 26.7995 70.6231 26.7995C70.2965 26.7995 70.0452 26.6738 69.8693 26.4225C69.6996 26.1649 69.6148 25.8131 69.6148 25.3671C69.6148 24.764 69.8441 24.1609 70.3027 23.5577C70.7614 22.9484 71.2294 22.6437 71.7069 22.6437ZM71.6127 23.03C71.3174 23.03 71.0378 23.2436 70.774 23.6708C70.5164 24.0918 70.3876 24.4184 70.3876 24.6509C70.3876 24.676 70.4002 24.6886 70.4253 24.6886C70.6515 24.6886 70.9436 24.5378 71.3017 24.2362C71.6661 23.9347 71.8482 23.6269 71.8482 23.3127C71.8482 23.1243 71.7697 23.03 71.6127 23.03Z" fill="#7A8AA0"/>
<path d="M75.6554 22.9735C75.4481 22.7347 75.1653 22.6154 74.8072 22.6154C74.4366 22.6154 74.1256 22.7442 73.8743 23.0017C73.623 23.253 73.4974 23.5106 73.4974 23.7745C73.4974 23.9881 73.5571 24.1985 73.6764 24.4058C73.8021 24.6132 73.9371 24.7891 74.0816 24.9336C74.2261 25.0781 74.3581 25.2445 74.4774 25.433C74.6031 25.6152 74.6659 25.788 74.6659 25.9513C74.6659 26.0581 74.6219 26.1586 74.534 26.2529C74.4523 26.3408 74.3424 26.3848 74.2041 26.3848C74.0345 26.3848 73.8963 26.3377 73.7895 26.2434C73.689 26.1492 73.6042 26.0581 73.5351 25.9702C73.466 25.8759 73.3874 25.8288 73.2995 25.8288C73.2052 25.8288 73.1267 25.8728 73.0639 25.9607C73.0073 26.0487 72.9791 26.1492 72.9791 26.2623C72.9791 26.3314 72.9948 26.3911 73.0262 26.4413C73.2335 26.6801 73.5162 26.7994 73.8743 26.7994C74.2701 26.7994 74.5936 26.6926 74.8449 26.479C75.0962 26.2654 75.2219 25.9859 75.2219 25.6403C75.2219 25.4267 75.159 25.2163 75.0334 25.009C74.914 24.8016 74.7821 24.6257 74.6376 24.4812C74.4931 24.3367 74.358 24.1734 74.2324 23.9912C74.113 23.8027 74.0533 23.6268 74.0533 23.4635C74.0533 23.3504 74.091 23.2499 74.1664 23.1619C74.2418 23.074 74.3455 23.03 74.4774 23.03C74.647 23.03 74.7821 23.0771 74.8826 23.1714C74.9894 23.2656 75.0774 23.3598 75.1465 23.4541C75.2156 23.542 75.2941 23.586 75.3821 23.586C75.4763 23.586 75.5517 23.5452 75.6082 23.4635C75.6711 23.3818 75.7025 23.2844 75.7025 23.1714C75.7025 23.1148 75.6868 23.0489 75.6554 22.9735Z" fill="#7A8AA0"/>
<path d="M77.8228 22.6154C78.1809 22.6154 78.4636 22.7347 78.6709 22.9735C78.7023 23.0489 78.718 23.1148 78.718 23.1714C78.718 23.2844 78.6866 23.3818 78.6238 23.4635C78.5672 23.5452 78.4918 23.586 78.3976 23.586C78.3096 23.586 78.2311 23.542 78.162 23.4541C78.0929 23.3598 78.005 23.2656 77.8982 23.1714C77.7976 23.0771 77.6626 23.03 77.4929 23.03C77.361 23.03 77.2574 23.074 77.182 23.1619C77.1066 23.2499 77.0689 23.3504 77.0689 23.4635C77.0689 23.6268 77.1286 23.8027 77.2479 23.9912C77.3736 24.1734 77.5086 24.3367 77.6531 24.4812C77.7976 24.6257 77.9296 24.8016 78.0489 25.009C78.1746 25.2163 78.2374 25.4267 78.2374 25.6403C78.2374 25.9859 78.1118 26.2654 77.8605 26.479C77.6092 26.6926 77.2856 26.7994 76.8898 26.7994C76.5317 26.7994 76.249 26.6801 76.0417 26.4413C76.0103 26.3911 75.9946 26.3314 75.9946 26.2623C75.9946 26.1492 76.0229 26.0487 76.0794 25.9607C76.1423 25.8728 76.2208 25.8288 76.315 25.8288C76.403 25.8288 76.4815 25.8759 76.5506 25.9702C76.6197 26.0581 76.7045 26.1492 76.805 26.2434C76.9118 26.3377 77.0501 26.3848 77.2197 26.3848C77.3579 26.3848 77.4678 26.3408 77.5495 26.2529C77.6375 26.1586 77.6814 26.0581 77.6814 25.9513C77.6814 25.788 77.6186 25.6152 77.493 25.433C77.3736 25.2445 77.2417 25.0781 77.0972 24.9336C76.9527 24.7891 76.8176 24.6132 76.692 24.4058C76.5726 24.1985 76.5129 23.9881 76.5129 23.7745C76.5129 23.5106 76.6386 23.253 76.8899 23.0017C77.1412 22.7442 77.4521 22.6154 77.8228 22.6154Z" fill="#7A8AA0"/>
<path fill-rule="evenodd" clip-rule="evenodd" d="M84.0989 23.03C83.8978 22.7724 83.612 22.6437 83.2413 22.6437C82.7639 22.6437 82.299 22.9358 81.8466 23.5201C81.3943 24.1043 81.1681 24.7231 81.1681 25.3765C81.1681 25.8288 81.2655 26.1775 81.4603 26.4225C81.6613 26.6675 81.9503 26.79 82.3272 26.79C82.8047 26.79 83.2696 26.5042 83.7219 25.9325C84.1805 25.3545 84.4099 24.742 84.4099 24.0949C84.4099 23.6426 84.3062 23.2876 84.0989 23.03ZM82.2707 23.7745C82.5283 23.2782 82.8141 23.03 83.1282 23.03C83.3042 23.03 83.4424 23.1274 83.5429 23.3222C83.6434 23.5169 83.6937 23.7996 83.6937 24.1703C83.6937 24.6729 83.5712 25.1723 83.3261 25.6686C83.0874 26.1587 82.811 26.4037 82.4969 26.4037C82.321 26.4037 82.1733 26.3031 82.054 26.1021C81.9409 25.9011 81.8843 25.6184 81.8843 25.254C81.8843 24.7577 82.0131 24.2645 82.2707 23.7745Z" fill="#7A8AA0"/>
<path d="M88.217 20.1558C88.619 20.1558 88.8766 20.2626 88.9897 20.4762C88.9897 20.8845 88.8766 21.0887 88.6505 21.0887C88.5625 21.0887 88.4777 21.0416 88.396 20.9474C88.3206 20.8531 88.239 20.7589 88.151 20.6647C88.0693 20.5641 87.9782 20.5139 87.8777 20.5139C87.6767 20.5139 87.4631 20.7212 87.2369 21.1358C87.0108 21.5442 86.8349 22.1159 86.7092 22.8509V22.8698C86.7092 22.8949 86.7186 22.9075 86.7375 22.9075H87.8212C87.8526 22.9075 87.8683 22.9452 87.8683 23.0206C87.8683 23.1211 87.8337 23.2279 87.7646 23.341H86.6621C86.6307 23.341 86.6118 23.3661 86.6056 23.4163L86.0873 26.234C85.9365 27.1072 85.6695 27.7732 85.2863 28.2318C84.9093 28.6904 84.4978 28.9197 84.0518 28.9197C83.8319 28.9197 83.6591 28.8789 83.5335 28.7972C83.4078 28.7218 83.3262 28.6339 83.2885 28.5333C83.2822 28.3888 83.3168 28.2601 83.3922 28.147C83.4675 28.0339 83.5618 27.9774 83.6749 27.9774C83.7314 27.9774 83.7848 28.0056 83.835 28.0622C83.8853 28.125 83.9293 28.191 83.967 28.2601C84.0047 28.3354 84.0612 28.4014 84.1366 28.458C84.2057 28.5208 84.2842 28.5522 84.3722 28.5522C84.4916 28.5522 84.6109 28.4768 84.7303 28.326C84.8497 28.1815 84.9502 27.9962 85.0319 27.77C85.1198 27.5501 85.192 27.3397 85.2486 27.1387C85.3114 26.9376 85.3554 26.7586 85.3805 26.6015L85.9459 23.4069V23.3881C85.9459 23.3567 85.9365 23.341 85.9176 23.341H85.3051C85.2926 23.341 85.2863 23.3315 85.2863 23.3127C85.2863 23.2562 85.3366 23.1745 85.4371 23.0677C85.5376 22.9609 85.6381 22.9075 85.7386 22.9075H86.0119C86.037 22.9075 86.0559 22.8792 86.0684 22.8227C86.1941 22.0499 86.4642 21.4123 86.8789 20.9097C87.2935 20.4071 87.7395 20.1558 88.217 20.1558Z" fill="#7A8AA0"/>
<path d="M92.7309 22.9735C92.5235 22.7347 92.2408 22.6154 91.8827 22.6154C91.5121 22.6154 91.2011 22.7442 90.9498 23.0017C90.6985 23.253 90.5729 23.5106 90.5729 23.7745C90.5729 23.9881 90.6325 24.1985 90.7519 24.4058C90.8775 24.6132 91.0126 24.7891 91.1571 24.9336C91.3016 25.0781 91.4335 25.2445 91.5529 25.433C91.6786 25.6152 91.7414 25.788 91.7414 25.9513C91.7414 26.0581 91.6974 26.1586 91.6095 26.2529C91.5278 26.3408 91.4178 26.3848 91.2796 26.3848C91.11 26.3848 90.9718 26.3377 90.865 26.2434C90.7645 26.1492 90.6796 26.0581 90.6105 25.9702C90.5414 25.8759 90.4629 25.8288 90.375 25.8288C90.2807 25.8288 90.2022 25.8728 90.1394 25.9607C90.0828 26.0487 90.0546 26.1492 90.0546 26.2623C90.0546 26.3314 90.0703 26.3911 90.1017 26.4413C90.309 26.6801 90.5917 26.7994 90.9498 26.7994C91.3456 26.7994 91.6691 26.6926 91.9204 26.479C92.1717 26.2654 92.2973 25.9859 92.2973 25.6403C92.2973 25.4267 92.2345 25.2163 92.1089 25.009C91.9895 24.8016 91.8576 24.6257 91.7131 24.4812C91.5686 24.3367 91.4335 24.1734 91.3079 23.9912C91.1885 23.8027 91.1288 23.6268 91.1288 23.4635C91.1288 23.3504 91.1665 23.2499 91.2419 23.1619C91.3173 23.074 91.421 23.03 91.5529 23.03C91.7225 23.03 91.8576 23.0771 91.9581 23.1714C92.0649 23.2656 92.1528 23.3598 92.222 23.4541C92.2911 23.542 92.3696 23.586 92.4576 23.586C92.5518 23.586 92.6272 23.5452 92.6837 23.4635C92.7465 23.3818 92.778 23.2844 92.778 23.1714C92.778 23.1148 92.7623 23.0489 92.7309 22.9735Z" fill="#7A8AA0"/>
<path d="M94.2952 21.6353C94.314 21.5725 94.4679 21.5411 94.7569 21.5411C94.8323 21.5411 94.8889 21.5442 94.9265 21.5505L94.691 22.785H95.5485C95.5799 22.785 95.5956 22.8258 95.5956 22.9075C95.5956 22.9829 95.5673 23.074 95.5108 23.1808H94.6155L94.1161 25.744C94.0973 25.8194 94.0878 25.8979 94.0878 25.9796C94.0878 26.1366 94.1192 26.2152 94.1821 26.2152C94.2197 26.2152 94.2637 26.1995 94.314 26.168C94.3705 26.1304 94.4239 26.0864 94.4742 26.0361C94.5307 25.9859 94.581 25.9387 94.625 25.8948C94.6689 25.8445 94.7098 25.8005 94.7475 25.7628L94.804 25.6969C94.8165 25.6969 94.8385 25.7283 94.8699 25.7911C94.9076 25.8476 94.9265 25.8885 94.9265 25.9136C94.8448 26.0518 94.6752 26.234 94.4176 26.4602C94.16 26.6863 93.9339 26.7994 93.7391 26.7994C93.6386 26.7994 93.56 26.7554 93.5035 26.6675C93.447 26.5733 93.4187 26.4539 93.4187 26.3094C93.4187 26.2089 93.4407 26.0424 93.4847 25.8099L93.9935 23.1808H93.3245C93.3056 23.1808 93.2962 23.1462 93.2962 23.0771C93.2962 22.9954 93.3339 22.8981 93.4092 22.785H94.0689L94.2952 21.6353Z" fill="#7A8AA0"/>
<path fill-rule="evenodd" clip-rule="evenodd" d="M98.9127 22.7662C98.6928 22.6845 98.4635 22.6437 98.2248 22.6437C97.8039 22.6437 97.3829 22.7882 96.9619 23.0771C96.541 23.3599 96.1955 23.7274 95.9254 24.1797C95.6615 24.6258 95.5296 25.0718 95.5296 25.5178C95.5296 25.8697 95.6081 26.1712 95.7652 26.4225C95.9285 26.6675 96.1484 26.79 96.4248 26.79C96.5505 26.79 96.6824 26.7461 96.8206 26.6581C96.9651 26.5639 97.1002 26.4445 97.2258 26.3C97.3515 26.1555 97.4551 26.0267 97.5368 25.9136C97.6185 25.7943 97.6907 25.678 97.7535 25.565C97.7535 25.5775 97.7473 25.6058 97.7347 25.6498C97.7284 25.6875 97.719 25.7409 97.7064 25.81C97.6625 26.0361 97.6405 26.2026 97.6405 26.3094C97.6405 26.4539 97.6687 26.5733 97.7253 26.6675C97.7818 26.7555 97.8603 26.7995 97.9609 26.7995C98.1556 26.7995 98.3818 26.6864 98.6394 26.4602C98.8969 26.234 99.0666 26.0519 99.1482 25.9136C99.1482 25.8885 99.1294 25.8477 99.0917 25.7911C99.0603 25.7283 99.0383 25.6969 99.0258 25.6969L98.9692 25.7629C98.9315 25.8006 98.8907 25.8445 98.8467 25.8948C98.8028 25.9388 98.7525 25.9859 98.696 26.0361C98.6457 26.0864 98.5923 26.1304 98.5358 26.1681C98.4855 26.1995 98.4415 26.2152 98.4038 26.2152C98.341 26.2152 98.3096 26.1367 98.3096 25.9796C98.3096 25.8979 98.319 25.8194 98.3379 25.744L98.9127 22.7662ZM96.7453 23.8028C97.0971 23.319 97.4583 23.0771 97.829 23.0771C98.0112 23.0771 98.14 23.118 98.2154 23.1997L98.0269 24.1609C97.9327 24.632 97.7442 25.0969 97.4615 25.5555C97.1851 26.0142 96.9338 26.2435 96.7076 26.2435C96.3872 26.2435 96.227 25.9356 96.227 25.32C96.227 24.786 96.3998 24.2802 96.7453 23.8028Z" fill="#7A8AA0"/>
<path fill-rule="evenodd" clip-rule="evenodd" d="M102.673 22.6436C102.861 22.6436 103.025 22.7065 103.163 22.8321C103.307 22.9515 103.379 23.1023 103.379 23.2844C103.379 23.6928 103.197 24.0289 102.833 24.2928C102.475 24.5566 102.013 24.7357 101.448 24.8299C101.825 25.3953 102.11 25.7691 102.305 25.9513C102.506 26.1335 102.676 26.2246 102.814 26.2246C102.927 26.2246 103.034 26.1775 103.134 26.0832C103.241 25.989 103.32 25.8979 103.37 25.81C103.389 25.81 103.417 25.8351 103.455 25.8853C103.499 25.9356 103.521 25.9733 103.521 25.9984C103.489 26.1052 103.373 26.2623 103.172 26.4696C102.971 26.6769 102.78 26.7806 102.597 26.7806C102.516 26.7806 102.434 26.768 102.352 26.7429C102.277 26.7178 102.198 26.6769 102.117 26.6204C102.041 26.5638 101.969 26.5104 101.9 26.4602C101.837 26.4099 101.765 26.3345 101.683 26.234C101.608 26.1335 101.545 26.055 101.495 25.9984C101.445 25.9356 101.379 25.8414 101.297 25.7157C101.221 25.5901 101.168 25.5021 101.137 25.4519C101.105 25.4016 101.052 25.3105 100.976 25.1786C100.901 25.0466 100.854 24.9681 100.835 24.943L100.486 26.7429C100.373 26.7743 100.27 26.79 100.175 26.79C100.094 26.79 99.9901 26.7743 99.8645 26.7429L100.892 21.4751C100.948 21.2175 100.976 21.0511 100.976 20.9757C100.976 20.8563 100.785 20.7966 100.402 20.7966C100.383 20.7966 100.373 20.7778 100.373 20.7401C100.373 20.6647 100.398 20.6019 100.449 20.5516C100.857 20.5139 101.253 20.426 101.636 20.2877C101.674 20.3066 101.693 20.3663 101.693 20.4668C101.693 20.5422 101.652 20.7778 101.57 21.1736L101.08 23.7085L101.184 23.586C101.253 23.5043 101.335 23.4164 101.429 23.3221C101.529 23.2216 101.642 23.118 101.768 23.0112C101.9 22.9044 102.044 22.8164 102.201 22.7473C102.365 22.6782 102.522 22.6436 102.673 22.6436ZM102.333 23.0865C102.132 23.0865 101.856 23.297 101.504 23.7179C101.159 24.1388 100.986 24.4184 100.986 24.5566C100.986 24.5692 100.992 24.5755 101.005 24.5755C101.03 24.5755 101.061 24.5723 101.099 24.566C101.143 24.5598 101.221 24.5472 101.335 24.5283C101.454 24.5032 101.567 24.4749 101.674 24.4435C101.787 24.4121 101.906 24.3681 102.032 24.3116C102.164 24.2488 102.277 24.1828 102.371 24.1137C102.465 24.0383 102.544 23.9472 102.607 23.8404C102.676 23.7336 102.71 23.6174 102.71 23.4918C102.71 23.2216 102.585 23.0865 102.333 23.0865Z" fill="#7A8AA0"/>
<path d="M105.83 22.785C105.773 22.6908 105.695 22.6437 105.594 22.6437C105.431 22.6437 105.226 22.7473 104.981 22.9547C104.743 23.162 104.586 23.3285 104.51 23.4541C104.51 23.4792 104.526 23.5232 104.557 23.586C104.595 23.6426 104.62 23.6709 104.633 23.6709L104.68 23.6143C104.711 23.5766 104.746 23.5389 104.784 23.5012L104.906 23.3787C104.956 23.3347 105.003 23.3002 105.047 23.2751C105.091 23.2436 105.126 23.2279 105.151 23.2279C105.214 23.2279 105.245 23.3065 105.245 23.4635C105.245 23.5201 105.23 23.6457 105.198 23.8405L104.812 25.81C104.768 26.0424 104.746 26.2089 104.746 26.3094C104.746 26.4539 104.774 26.5733 104.831 26.6675C104.887 26.7555 104.966 26.7995 105.066 26.7995C105.261 26.7995 105.487 26.6864 105.745 26.4602C106.002 26.2341 106.172 26.0519 106.254 25.9137C106.254 25.8885 106.235 25.8477 106.197 25.7912C106.166 25.7283 106.144 25.6969 106.131 25.6969L106.075 25.7629C106.037 25.8006 105.996 25.8446 105.952 25.8948C105.908 25.9388 105.858 25.9859 105.801 26.0362C105.751 26.0864 105.698 26.1304 105.641 26.1681C105.591 26.1995 105.547 26.2152 105.509 26.2152C105.446 26.2152 105.415 26.1367 105.415 25.9796C105.415 25.898 105.424 25.8194 105.443 25.744L105.858 23.6332C105.896 23.4321 105.914 23.2656 105.914 23.1337C105.914 22.9892 105.886 22.873 105.83 22.785Z" fill="#7A8AA0"/>
<path d="M106.103 20.7684C106.04 20.693 105.962 20.6553 105.867 20.6553C105.729 20.6553 105.613 20.7087 105.519 20.8155C105.424 20.9223 105.377 21.048 105.377 21.1925C105.377 21.3055 105.406 21.4029 105.462 21.4846C105.519 21.56 105.597 21.5977 105.698 21.5977C105.842 21.5977 105.962 21.5411 106.056 21.428C106.156 21.315 106.207 21.183 106.207 21.0323C106.207 20.9317 106.172 20.8438 106.103 20.7684Z" fill="#7A8AA0"/>
<path d="M108.101 22.6437C108.201 22.6437 108.28 22.6908 108.336 22.785C108.393 22.873 108.421 22.9892 108.421 23.1337C108.421 23.2719 108.402 23.4384 108.365 23.6331L108.195 24.5001C108.258 24.387 108.393 24.1923 108.6 23.9158C108.814 23.6394 109.071 23.3599 109.373 23.0771C109.681 22.7882 109.929 22.6437 110.117 22.6437C110.431 22.6437 110.589 22.851 110.589 23.2656C110.589 23.5483 110.545 23.8907 110.457 24.2928L110.146 25.744C110.127 25.8194 110.117 25.8979 110.117 25.9796C110.117 26.1367 110.149 26.2152 110.212 26.2152C110.249 26.2152 110.293 26.1995 110.344 26.1681C110.4 26.1304 110.453 26.0864 110.504 26.0361C110.56 25.9859 110.611 25.9388 110.654 25.8948C110.698 25.8445 110.739 25.8006 110.777 25.7629L110.834 25.6969C110.846 25.6969 110.868 25.7283 110.899 25.7911C110.937 25.8477 110.956 25.8885 110.956 25.9136C110.874 26.0518 110.705 26.234 110.447 26.4602C110.19 26.6864 109.963 26.7994 109.769 26.7994C109.668 26.7994 109.59 26.7555 109.533 26.6675C109.476 26.5733 109.448 26.4539 109.448 26.3094C109.448 26.2089 109.47 26.0424 109.514 25.81L109.844 24.2551C109.888 24.0478 109.91 23.8781 109.91 23.7462C109.91 23.4761 109.85 23.341 109.731 23.341C109.524 23.341 109.2 23.6269 108.76 24.1985C108.327 24.764 108.047 25.3671 107.922 26.0079L107.761 26.7429C107.68 26.768 107.582 26.7806 107.469 26.7806C107.356 26.7806 107.249 26.768 107.149 26.7429L107.705 23.8405C107.736 23.6143 107.752 23.4886 107.752 23.4635C107.752 23.3064 107.721 23.2279 107.658 23.2279C107.633 23.2279 107.598 23.2436 107.554 23.275C107.51 23.3002 107.463 23.3347 107.413 23.3787L107.29 23.5012C107.253 23.5389 107.218 23.5766 107.187 23.6143L107.139 23.6708C107.127 23.6708 107.102 23.6426 107.064 23.586C107.033 23.5232 107.017 23.4792 107.017 23.4541C107.092 23.3284 107.249 23.162 107.488 22.9546C107.733 22.7473 107.937 22.6437 108.101 22.6437Z" fill="#7A8AA0"/>
<path fill-rule="evenodd" clip-rule="evenodd" d="M114.235 22.7662C114.009 22.6782 113.802 22.6343 113.613 22.6343C113.161 22.6343 112.75 22.8259 112.379 23.2091C112.015 23.586 111.832 24.0384 111.832 24.5661C111.832 24.7923 111.901 24.9902 112.04 25.1598C112.184 25.3231 112.332 25.4362 112.483 25.499C112.64 25.5619 112.778 25.5933 112.897 25.5933C112.715 25.6372 112.511 25.7283 112.285 25.8665C112.065 26.0048 111.955 26.1273 111.955 26.2341C111.955 26.3534 112.033 26.4665 112.19 26.5733L112.36 26.6864C112.19 26.7618 112.04 26.8372 111.908 26.9126C111.776 26.988 111.631 27.0822 111.474 27.1953C111.324 27.3084 111.207 27.434 111.126 27.5722C111.044 27.7167 111.003 27.8643 111.003 28.0151C111.003 28.3041 111.138 28.5303 111.408 28.6936C111.685 28.857 112.04 28.9386 112.473 28.9386C113.145 28.9386 113.679 28.8067 114.075 28.5428C114.477 28.279 114.678 27.924 114.678 27.478C114.678 27.2769 114.615 27.0979 114.49 26.9408C114.37 26.7838 114.223 26.6613 114.047 26.5733C113.871 26.4854 113.692 26.4131 113.51 26.3566C113.334 26.2938 113.183 26.2372 113.057 26.187C112.938 26.1304 112.878 26.0739 112.878 26.0173C112.878 25.9545 112.932 25.8885 113.039 25.8194C113.145 25.744 113.293 25.6624 113.482 25.5744C113.676 25.4802 113.805 25.4142 113.868 25.3765C113.943 25.3325 114.016 25.2791 114.085 25.2163C114.16 25.1535 114.251 25.0593 114.358 24.9336C114.471 24.808 114.559 24.6478 114.622 24.453C114.691 24.252 114.725 24.0352 114.725 23.8028C114.725 23.7023 114.707 23.5389 114.669 23.3128C114.669 23.2751 114.688 23.2562 114.725 23.2562H115.253C115.278 23.2311 115.3 23.1871 115.319 23.1243C115.344 23.0615 115.357 23.0081 115.357 22.9641C115.357 22.9138 115.338 22.8887 115.3 22.8887H114.895C114.681 22.8887 114.462 22.8479 114.235 22.7662ZM113.953 27.4686C114.034 27.5879 114.075 27.7167 114.075 27.8549C114.075 28.0497 113.962 28.2099 113.736 28.3355C113.51 28.4675 113.243 28.5334 112.935 28.5334C112.112 28.5334 111.7 28.2821 111.7 27.7795C111.7 27.679 111.726 27.5816 111.776 27.4874C111.832 27.3932 111.889 27.3178 111.946 27.2612C112.008 27.2047 112.103 27.1419 112.228 27.0728C112.354 27.0037 112.442 26.9565 112.492 26.9314C112.549 26.9063 112.637 26.8686 112.756 26.8183C112.932 26.8749 113.079 26.9251 113.199 26.9691C113.324 27.0194 113.463 27.0853 113.613 27.167C113.764 27.255 113.877 27.3555 113.953 27.4686ZM112.794 23.4447C112.97 23.1431 113.193 22.9924 113.463 22.9924C113.639 22.9924 113.777 23.0929 113.877 23.2939C113.978 23.495 114.028 23.7211 114.028 23.9724C114.028 24.2865 113.94 24.5818 113.764 24.8582C113.595 25.1347 113.378 25.2729 113.114 25.2729C112.932 25.2729 112.79 25.1912 112.69 25.0279C112.589 24.8645 112.539 24.6603 112.539 24.4153C112.539 24.0635 112.624 23.74 112.794 23.4447Z" fill="#7A8AA0"/>
</svg>
