<svg width="152" height="30" viewBox="0 0 152 30" fill="none" xmlns="http://www.w3.org/2000/svg">
<path d="M2.1674 21.0193C6.23478 18.8506 10.8334 16.7636 18.375 17.2664C22.25 17.5248 26.0522 18.7656 29.1682 20.1686C28.975 20.6539 28.7567 21.1265 28.5149 21.5848C25.7524 20.1 22.3678 18.7332 18.8132 18.2305C12.8926 17.3933 7.50762 18.8769 2.24489 21.1804C2.21875 21.1268 2.19292 21.0731 2.1674 21.0193Z" fill="#7A8AA0"/>
<path d="M29.941 17.5267C30.1158 16.6196 30.2073 15.6828 30.2073 14.7247C30.2073 6.59246 23.6148 0 15.4826 0C7.35042 0 0.757965 6.59246 0.757965 14.7247C0.757965 16.5853 1.10309 18.3654 1.73281 20.0044C2.91105 19.2453 4.11089 18.5726 5.40325 17.9917V11.7951C5.40325 11.762 5.4114 11.7294 5.42698 11.7002L5.92645 10.7637C6.00238 10.6213 6.20646 10.6213 6.2824 10.7637L6.64234 11.4386C6.71515 11.5751 6.90823 11.5822 6.99086 11.4514L8.73858 8.68412C8.81773 8.55879 9.00051 8.55879 9.07966 8.68412L10.8327 11.4598C10.9141 11.5887 11.1036 11.5842 11.1788 11.4515L11.5822 10.7397C11.6594 10.6033 11.8559 10.6033 11.9331 10.7397L12.4764 11.6984C12.4936 11.7287 12.5026 11.763 12.5026 11.7979V14.9997C12.5026 15.1955 12.3621 15.363 12.1693 15.397L11.0126 15.6011C10.7497 14.9 10.0836 14.0235 8.82147 14.0235C7.55936 14.0235 6.6303 14.9 6.6303 15.6011V17.4794C8.74561 16.6627 11.1393 16.0733 14.0803 15.732V8.94667C14.0803 8.9135 14.0885 8.88085 14.1041 8.8516L14.8546 7.44727C14.9306 7.30508 15.1344 7.30508 15.2104 7.44726L15.8215 8.5908C15.8944 8.72712 16.0872 8.73421 16.1699 8.60359L18.6709 4.65166C18.7501 4.52654 18.9326 4.52654 19.0118 4.65166L21.5182 8.61203C21.5996 8.74071 21.7888 8.73619 21.864 8.60375L22.5343 7.42329C22.6116 7.28715 22.8078 7.28715 22.8851 7.42329L23.6951 8.84983C23.7124 8.88019 23.7214 8.91451 23.7214 8.94943V14.5513C23.7214 14.7886 23.5175 14.9747 23.2812 14.953L21.8733 14.8238C21.8424 14.7417 21.811 14.6534 21.7781 14.5605C21.4297 13.5794 20.9026 12.0953 18.9009 12.0953C17.1869 12.0953 15.7467 13.523 15.7467 14.4733V15.57C16.0052 15.5495 16.2677 15.5306 16.5344 15.5135C21.3994 15.2011 26.2858 16.2926 29.941 17.5267Z" fill="#7A8AA0"/>
<path fill-rule="evenodd" clip-rule="evenodd" d="M2.53781 21.7482C3.46202 21.3031 4.4079 20.8851 5.40325 20.5132V21.333C5.40325 21.5558 5.58386 21.7364 5.80666 21.7364H6.22689C6.44969 21.7364 6.6303 21.5558 6.6303 21.333V20.088C8.77441 19.404 11.1765 18.9489 14.0803 18.8901V22.0342C14.0803 22.257 14.2609 22.4376 14.4837 22.4376H15.3432C15.566 22.4376 15.7467 22.257 15.7467 22.0342V18.8992C16.0054 18.907 16.2679 18.9178 16.5344 18.9317C18.5175 19.035 20.4783 19.4958 22.3191 20.1506V22.0342C22.3191 22.257 22.4997 22.4376 22.7225 22.4376H23.1427C23.3655 22.4376 23.5461 22.257 23.5461 22.0342V20.6218C25.0953 21.26 26.5371 22.017 27.8072 22.7851C25.177 26.7985 20.6394 29.4493 15.4826 29.4493C9.89372 29.4493 5.03207 26.3356 2.53781 21.7482ZM11.2756 19.8082C11.6262 19.6329 12.5026 19.6329 12.5026 19.6329V21.333C12.5026 21.5558 12.322 21.7364 12.0992 21.7364H11.679C11.4562 21.7364 11.2756 21.5562 11.2756 21.3334L11.2756 19.8082Z" fill="#7A8AA0"/>
<path d="M47.2379 10.2096C47.6897 10.3527 48.0437 10.5937 48.2997 10.9326C48.5557 11.2639 48.6837 11.6743 48.6837 12.1638C48.6837 12.8566 48.4127 13.3912 47.8705 13.7678C47.3358 14.1367 46.5526 14.3212 45.521 14.3212H41.4319V6.41429H45.2951C46.2589 6.41429 46.9969 6.59879 47.509 6.96778C48.0286 7.33677 48.2884 7.83755 48.2884 8.4701C48.2884 8.85415 48.1943 9.19679 48.006 9.498C47.8253 9.79922 47.5692 10.0364 47.2379 10.2096ZM43.2505 7.79236V9.65614H45.0691C45.521 9.65614 45.8636 9.57707 46.097 9.41893C46.3305 9.2608 46.4472 9.02735 46.4472 8.71861C46.4472 8.40986 46.3305 8.18018 46.097 8.02957C45.8636 7.87143 45.521 7.79236 45.0691 7.79236H43.2505ZM45.3854 12.9432C45.8674 12.9432 46.2288 12.8641 46.4698 12.706C46.7183 12.5478 46.8426 12.3031 46.8426 11.9717C46.8426 11.3166 46.3568 10.989 45.3854 10.989H43.2505V12.9432H45.3854Z" fill="#7A8AA0"/>
<path d="M57.1241 14.3212L55.5992 12.1186H55.5088H53.9161V14.3212H52.0862V6.41429H55.5088C56.2091 6.41429 56.8153 6.53102 57.3274 6.76446C57.847 6.9979 58.2461 7.32924 58.5247 7.75848C58.8034 8.18771 58.9427 8.69601 58.9427 9.28339C58.9427 9.87076 58.7996 10.3791 58.5134 10.8083C58.2348 11.23 57.8357 11.5538 57.3161 11.7797L59.0895 14.3212H57.1241ZM57.0902 9.28339C57.0902 8.83909 56.9471 8.50022 56.6609 8.26678C56.3748 8.02581 55.9569 7.90532 55.4071 7.90532H53.9161V10.6615H55.4071C55.9569 10.6615 56.3748 10.541 56.6609 10.3C56.9471 10.059 57.0902 9.72015 57.0902 9.28339Z" fill="#7A8AA0"/>
<path d="M62.4096 6.41429H64.2395V14.3212H62.4096V6.41429Z" fill="#7A8AA0"/>
<path d="M68.133 6.41429H71.725C72.5835 6.41429 73.3403 6.57996 73.9955 6.9113C74.6581 7.23511 75.1702 7.69447 75.5317 8.28937C75.9007 8.88427 76.0851 9.57707 76.0851 10.3678C76.0851 11.1585 75.9007 11.8513 75.5317 12.4462C75.1702 13.0411 74.6581 13.5042 73.9955 13.8355C73.3403 14.1593 72.5835 14.3212 71.725 14.3212H68.133V6.41429ZM71.6347 12.8189C72.4254 12.8189 73.0542 12.6005 73.521 12.1638C73.9955 11.7195 74.2327 11.1208 74.2327 10.3678C74.2327 9.61473 73.9955 9.01982 73.521 8.58306C73.0542 8.13876 72.4254 7.91661 71.6347 7.91661H69.9629V12.8189H71.6347Z" fill="#7A8AA0"/>
<path d="M84.8251 10.2435H86.4968V13.4515C86.0676 13.7753 85.5706 14.0238 85.0058 14.197C84.441 14.3702 83.8725 14.4568 83.3002 14.4568C82.4793 14.4568 81.7414 14.2836 81.0862 13.9372C80.4311 13.5833 79.9152 13.0975 79.5387 12.4801C79.1697 11.855 78.9852 11.1509 78.9852 10.3678C78.9852 9.5846 79.1697 8.88427 79.5387 8.26678C79.9152 7.64175 80.4348 7.15604 81.0975 6.80964C81.7602 6.45571 82.5057 6.27875 83.334 6.27875C84.0268 6.27875 84.6556 6.39547 85.2204 6.62891C85.7852 6.86235 86.2596 7.20122 86.6437 7.64552L85.4689 8.7299C84.9041 8.135 84.2226 7.83755 83.4244 7.83755C82.9199 7.83755 82.4718 7.94297 82.0802 8.15382C81.6886 8.36468 81.3837 8.66213 81.1653 9.04618C80.9469 9.43023 80.8377 9.87076 80.8377 10.3678C80.8377 10.8572 80.9469 11.294 81.1653 11.6781C81.3837 12.0621 81.6849 12.3633 82.0689 12.5817C82.4605 12.7926 82.9048 12.898 83.4018 12.898C83.929 12.898 84.4034 12.785 84.8251 12.5591V10.2435Z" fill="#7A8AA0"/>
<path d="M96.336 12.8528V14.3212H90.2137V6.41429H96.1891V7.88273H92.0323V9.59966H95.7034V11.0229H92.0323V12.8528H96.336Z" fill="#7A8AA0"/>
<path d="M101.447 7.90532H98.9167V6.41429H105.807V7.90532H103.277V14.3212H101.447V7.90532Z" fill="#7A8AA0"/>
<path d="M112.528 14.4568C111.707 14.4568 110.965 14.2798 110.302 13.9259C109.647 13.572 109.131 13.0863 108.755 12.4688C108.386 11.8437 108.201 11.1434 108.201 10.3678C108.201 9.59213 108.386 8.89557 108.755 8.27808C109.131 7.65305 109.647 7.16357 110.302 6.80964C110.965 6.45571 111.707 6.27875 112.528 6.27875C113.348 6.27875 114.086 6.45571 114.742 6.80964C115.397 7.16357 115.912 7.65305 116.289 8.27808C116.666 8.89557 116.854 9.59213 116.854 10.3678C116.854 11.1434 116.666 11.8437 116.289 12.4688C115.912 13.0863 115.397 13.572 114.742 13.9259C114.086 14.2798 113.348 14.4568 112.528 14.4568ZM112.528 12.898C112.994 12.898 113.416 12.7926 113.793 12.5817C114.169 12.3633 114.463 12.0621 114.674 11.6781C114.892 11.294 115.001 10.8572 115.001 10.3678C115.001 9.87829 114.892 9.44153 114.674 9.05747C114.463 8.67342 114.169 8.37597 113.793 8.16512C113.416 7.94674 112.994 7.83755 112.528 7.83755C112.061 7.83755 111.639 7.94674 111.262 8.16512C110.886 8.37597 110.588 8.67342 110.37 9.05747C110.159 9.44153 110.054 9.87829 110.054 10.3678C110.054 10.8572 110.159 11.294 110.37 11.6781C110.588 12.0621 110.886 12.3633 111.262 12.5817C111.639 12.7926 112.061 12.898 112.528 12.898Z" fill="#7A8AA0"/>
<path d="M131.932 6.41429L129.345 14.3212H127.38L125.64 8.96711L123.844 14.3212H121.89L119.292 6.41429H121.19L122.975 11.9717L124.839 6.41429H126.533L128.34 12.0169L130.181 6.41429H131.932Z" fill="#7A8AA0"/>
<path d="M141.093 12.8528V14.3212H134.971V6.41429H140.946V7.88273H136.789V9.59966H140.46V11.0229H136.789V12.8528H141.093Z" fill="#7A8AA0"/>
<path d="M149.604 14.3212L148.079 12.1186H147.989H146.396V14.3212H144.566V6.41429H147.989C148.689 6.41429 149.295 6.53102 149.807 6.76446C150.327 6.9979 150.726 7.32924 151.005 7.75848C151.283 8.18771 151.423 8.69601 151.423 9.28339C151.423 9.87076 151.279 10.3791 150.993 10.8083C150.715 11.23 150.316 11.5538 149.796 11.7797L151.569 14.3212H149.604ZM149.57 9.28339C149.57 8.83909 149.427 8.50022 149.141 8.26678C148.855 8.02581 148.437 7.90532 147.887 7.90532H146.396V10.6615H147.887C148.437 10.6615 148.855 10.541 149.141 10.3C149.427 10.059 149.57 9.72015 149.57 9.28339Z" fill="#7A8AA0"/>
<path d="M80.2405 26.6981C79.7274 26.6981 79.2626 26.5867 78.8463 26.364C78.4348 26.1365 78.1105 25.8243 77.8733 25.4273C77.6409 25.0303 77.5247 24.5825 77.5247 24.0839C77.5247 23.5853 77.6433 23.1375 77.8805 22.7405C78.1177 22.3436 78.4421 22.0338 78.8536 21.8111C79.2699 21.5836 79.7346 21.4698 80.2478 21.4698C80.6641 21.4698 81.0441 21.5424 81.3878 21.6876C81.7315 21.8329 82.022 22.0434 82.2592 22.3194L81.6492 22.893C81.2813 22.4961 80.8287 22.2976 80.2913 22.2976C79.9428 22.2976 79.6305 22.3751 79.3546 22.53C79.0787 22.68 78.8632 22.8906 78.7083 23.1617C78.5534 23.4328 78.476 23.7402 78.476 24.0839C78.476 24.4276 78.5534 24.735 78.7083 25.0061C78.8632 25.2772 79.0787 25.4902 79.3546 25.6451C79.6305 25.7952 79.9428 25.8702 80.2913 25.8702C80.8287 25.8702 81.2813 25.6693 81.6492 25.2675L82.2592 25.8485C82.022 26.1244 81.7291 26.335 81.3806 26.4802C81.0368 26.6254 80.6568 26.6981 80.2405 26.6981Z" fill="#7A8AA0"/>
<path d="M86.7575 25.4491H84.2159L83.7149 26.6254H82.7419L85.0292 21.5424H85.9587L88.2533 26.6254H87.2658L86.7575 25.4491ZM86.4452 24.7084L85.4867 22.4864L84.5354 24.7084H86.4452Z" fill="#7A8AA0"/>
<path d="M91.3945 21.5424C91.835 21.5424 92.2175 21.615 92.5418 21.7602C92.871 21.9055 93.1227 22.1136 93.297 22.3847C93.4713 22.6558 93.5584 22.9778 93.5584 23.3505C93.5584 23.7184 93.4713 24.0404 93.297 24.3163C93.1227 24.5874 92.871 24.7955 92.5418 24.9408C92.2175 25.086 91.835 25.1586 91.3945 25.1586H90.2472V26.6254H89.3032V21.5424H91.3945ZM91.3509 24.3599C91.7624 24.3599 92.0746 24.2727 92.2876 24.0984C92.5007 23.9242 92.6072 23.6749 92.6072 23.3505C92.6072 23.0262 92.5007 22.7769 92.2876 22.6026C92.0746 22.4283 91.7624 22.3412 91.3509 22.3412H90.2472V24.3599H91.3509Z" fill="#7A8AA0"/>
<path d="M94.9045 21.5424H95.8485V26.6254H94.9045V21.5424Z" fill="#7A8AA0"/>
<path d="M98.6579 22.3412H96.9732V21.5424H101.287V22.3412H99.6019V26.6254H98.6579V22.3412Z" fill="#7A8AA0"/>
<path d="M105.44 25.4491H102.898L102.397 26.6254H101.424L103.712 21.5424H104.641L106.936 26.6254H105.948L105.44 25.4491ZM105.128 24.7084L104.169 22.4864L103.218 24.7084H105.128Z" fill="#7A8AA0"/>
<path d="M107.986 21.5424H108.93V25.8267H111.587V26.6254H107.986V21.5424Z" fill="#7A8AA0"/>
<path fill-rule="evenodd" clip-rule="evenodd" d="M69.6412 24.205H43.9234V23.5999H69.6412V24.205Z" fill="#7A8AA0"/>
<path fill-rule="evenodd" clip-rule="evenodd" d="M148.105 24.205H119.766V23.5999H148.105V24.205Z" fill="#7A8AA0"/>
</svg>
