<svg width="138" height="26" viewBox="0 0 138 26" fill="none" xmlns="http://www.w3.org/2000/svg">
<path fill-rule="evenodd" clip-rule="evenodd" d="M10.1444 0.470087C10.0143 0.39506 9.85478 0.392543 9.72245 0.463432L0.586648 5.35761C0.448929 5.43139 0.361485 5.57349 0.357688 5.72968L0.357559 5.74025V16.3035C0.357559 16.4605 0.442365 16.6053 0.579328 16.6821L16.3593 25.5303C16.489 25.6048 16.6482 25.6073 16.7804 25.5364L25.753 20.7281C25.8941 20.6525 25.9821 20.5055 25.9821 20.3455V17.7718C25.9821 17.7644 25.9819 17.7569 25.9815 17.7495C25.9806 17.7326 25.9788 17.7158 25.976 17.6992C25.9548 17.5738 25.8791 17.4624 25.7669 17.3969L15.1752 11.2129L16.775 10.3545L23.1339 13.909C23.2649 13.9823 23.4248 13.9827 23.5564 13.9096L25.7588 12.686C25.8966 12.6095 25.9821 12.4642 25.9821 12.3066V9.85948C25.9821 9.7244 25.9192 9.59798 25.8139 9.51637C25.801 9.50642 25.7876 9.49713 25.7735 9.48858L25.7619 9.4818L10.1444 0.470087ZM24.6443 9.83916L23.3534 10.5085L16.9911 6.95196C16.8613 6.87942 16.7035 6.87833 16.5727 6.94906L16.5557 6.95828L11.8102 9.50466L10.3062 8.60756L14.5388 6.24435L14.5419 6.24266C14.628 6.19517 14.6938 6.12087 14.7312 6.03338C14.7534 5.98164 14.7656 5.92529 14.7662 5.86717L14.5388 6.24435L14.7662 5.86604C14.7668 5.7949 14.7499 5.72611 14.7186 5.6649C14.6812 5.59185 14.6233 5.52959 14.5498 5.48701L10.1858 2.95836C10.0551 2.88262 9.89446 2.88029 9.76162 2.95218L3.06511 6.57617L1.67715 5.75826L9.91959 1.34267L24.6443 9.83916ZM23.7797 12.7924V11.2653L25.114 10.5735V12.0512L23.7797 12.7924ZM1.22568 6.50686V16.0493L16.1413 24.4128V22.8752L2.85516 15.1684C2.72277 15.0904 2.64151 14.9482 2.64151 14.7945V7.35636L1.22568 6.50686ZM10.4023 5.66437V4.08713L13.4504 5.85335L11.9818 6.66365L10.4023 5.66437ZM9.53415 4.06445V5.64646L5.15073 8.05152C5.01181 8.12774 4.92546 8.27361 4.92546 8.43206V13.2742L3.50963 14.058V7.34408L9.53415 4.06445ZM11.1311 7.15273L9.95253 6.40711L5.79358 8.68901V13.2804L16.5874 19.5605L17.4748 19.1003L9.22026 14.3134L9.00395 13.9379V8.59725L9.00401 8.58785C9.00662 8.43318 9.09134 8.29159 9.2264 8.21618L11.1311 7.15273ZM9.87207 13.6879V9.36407L11.3287 10.2431L11.3287 12.5514C11.3287 12.7075 11.4127 12.8518 11.5488 12.9289L20.0677 17.7538L18.3821 18.6229L9.87207 13.6879ZM16.3452 9.59989L12.1968 11.8258V10.3034L16.3452 8.05917V9.59989ZM21.179 18.1575L16.7752 20.441C16.6432 20.5094 16.4855 20.5056 16.3571 20.4308L5.35427 14.0292L3.95594 14.8033L16.5828 22.1276L24.6624 17.7573L14.2783 11.6944L12.6618 12.5616L21.194 17.394C21.3326 17.4725 21.417 17.6205 21.4141 17.7797C21.4112 17.9389 21.3213 18.0837 21.1799 18.157L21.179 18.1575ZM22.9116 12.7903L17.2133 9.60491V8.07084L22.9116 11.2562V12.7903ZM17.0094 24.4288L25.114 20.0856V18.5L17.0094 22.8839V24.4288Z" fill="#7A8AA0"/>
<path d="M124.548 6.28346C123.895 6.28346 123.398 6.46087 123.057 6.8157C122.731 7.17053 122.568 7.69568 122.568 8.39114V9.7111H126.017V10.9885H122.61V20.9095H121.099V10.9885H119.097V9.7111H121.099V8.32727C121.099 7.30536 121.39 6.49636 121.972 5.90025C122.568 5.30413 123.405 5.00608 124.484 5.00608C124.91 5.00608 125.321 5.06995 125.719 5.19769C126.116 5.31123 126.449 5.48155 126.719 5.70864L126.208 6.83699C125.768 6.46797 125.215 6.28346 124.548 6.28346Z" fill="#7A8AA0"/>
<path d="M53.8022 9.62594C55.2073 9.62594 56.3215 10.0375 57.1447 10.8607C57.982 11.6698 58.4007 12.8549 58.4007 14.4161V20.9095H56.8892V14.5651C56.8892 13.4013 56.5982 12.5142 56.0163 11.9039C55.4344 11.2936 54.6041 10.9885 53.5254 10.9885C52.319 10.9885 51.361 11.3504 50.6513 12.0743C49.9558 12.7839 49.6081 13.7703 49.6081 15.0335V20.9095H48.0965V5.11253H49.6081V11.6698C50.0197 11.0169 50.5874 10.513 51.3113 10.1582C52.0351 9.80335 52.8654 9.62594 53.8022 9.62594Z" fill="#7A8AA0"/>
<path d="M39.586 21.0372C38.1099 21.0372 36.7758 20.7108 35.5835 20.0579C34.4055 19.405 33.4758 18.5037 32.7946 17.3541C32.1275 16.1903 31.794 14.8916 31.794 13.4581C31.794 12.0246 32.1275 10.733 32.7946 9.58336C33.4758 8.41953 34.4126 7.51116 35.6048 6.85828C36.797 6.2054 38.1312 5.87896 39.6073 5.87896C40.7143 5.87896 41.7362 6.06347 42.673 6.43249C43.6097 6.80151 44.4046 7.34085 45.0574 8.0505L44.0568 9.05112C42.893 7.87309 41.424 7.28407 39.6499 7.28407C38.4718 7.28407 37.4002 7.55374 36.4351 8.09308C35.47 8.63242 34.7107 9.37047 34.1571 10.3072C33.6178 11.244 33.3481 12.2942 33.3481 13.4581C33.3481 14.6219 33.6178 15.6722 34.1571 16.609C34.7107 17.5457 35.47 18.2837 36.4351 18.8231C37.4002 19.3624 38.4718 19.6321 39.6499 19.6321C41.4382 19.6321 42.9072 19.036 44.0568 17.8438L45.0574 18.8444C44.4046 19.554 43.6026 20.1005 42.6517 20.4837C41.715 20.8527 40.6931 21.0372 39.586 21.0372Z" fill="#7A8AA0"/>
<path fill-rule="evenodd" clip-rule="evenodd" d="M69.7856 10.733C69.005 9.99496 67.8837 9.62594 66.4218 9.62594C65.5418 9.62594 64.7044 9.76077 63.9096 10.0304C63.1148 10.2859 62.4335 10.6549 61.8658 11.1375L62.5471 12.2659C63.0155 11.8543 63.5761 11.5349 64.229 11.3078C64.8819 11.0665 65.5631 10.9459 66.2728 10.9459C67.3089 10.9459 68.0966 11.2014 68.6359 11.7123C69.1753 12.2091 69.4449 12.94 69.4449 13.9052V14.5864H65.8896C64.3851 14.5864 63.2851 14.8774 62.5897 15.4593C61.9084 16.0412 61.5678 16.8077 61.5678 17.7586C61.5678 18.7379 61.9368 19.5256 62.6748 20.1218C63.4129 20.7179 64.4064 21.0159 65.6554 21.0159C66.5637 21.0159 67.3444 20.8527 67.9972 20.5263C68.6643 20.1998 69.1682 19.7456 69.5088 19.1637V20.9095H70.9565V13.969C70.9565 12.5355 70.5662 11.4569 69.7856 10.733ZM68.0824 19.2489C67.4721 19.6321 66.7411 19.8237 65.8896 19.8237C64.9954 19.8237 64.2999 19.6392 63.8032 19.2702C63.3064 18.887 63.058 18.3689 63.058 17.716C63.058 16.3819 64.0161 15.7148 65.9321 15.7148H69.4449V17.5457C69.1469 18.2837 68.6927 18.8515 68.0824 19.2489Z" fill="#7A8AA0"/>
<path d="M75.0621 9.7111H76.5737V20.9095H75.0621V9.7111Z" fill="#7A8AA0"/>
<path d="M75.8285 7.26278C75.5163 7.26278 75.2537 7.15634 75.0408 6.94344C74.8279 6.73054 74.7215 6.47507 74.7215 6.17701C74.7215 5.89315 74.8279 5.64477 75.0408 5.43187C75.2537 5.21898 75.5163 5.11253 75.8285 5.11253C76.1408 5.11253 76.4033 5.21898 76.6162 5.43187C76.8291 5.63058 76.9356 5.87186 76.9356 6.15572C76.9356 6.46797 76.8291 6.73054 76.6162 6.94344C76.4033 7.15634 76.1408 7.26278 75.8285 7.26278Z" fill="#7A8AA0"/>
<path d="M89.8276 10.8607C89.0044 10.0375 87.8903 9.62594 86.4852 9.62594C85.52 9.62594 84.6684 9.81755 83.9304 10.2008C83.2066 10.5698 82.6388 11.0949 82.2272 11.7762V9.7111H80.7795V20.9095H82.2911V15.0335C82.2911 13.7703 82.6388 12.7839 83.3343 12.0743C84.0439 11.3504 85.002 10.9885 86.2084 10.9885C87.2871 10.9885 88.1174 11.2936 88.6993 11.9039C89.2812 12.5142 89.5722 13.4013 89.5722 14.5651V20.9095H91.0837V14.4161C91.0837 12.8549 90.665 11.6698 89.8276 10.8607Z" fill="#7A8AA0"/>
<path d="M99.6157 21.0372C98.5087 21.0372 97.4442 20.8598 96.4223 20.505C95.4146 20.1501 94.634 19.6818 94.0804 19.0998L94.6978 17.8863C95.2372 18.4257 95.9539 18.8657 96.8481 19.2063C97.7422 19.5327 98.6648 19.696 99.6157 19.696C100.95 19.696 101.951 19.4547 102.618 18.9721C103.285 18.4754 103.618 17.8367 103.618 17.056C103.618 16.4599 103.434 15.9845 103.065 15.6296C102.71 15.2748 102.27 15.0051 101.745 14.8206C101.22 14.6219 100.489 14.409 99.5519 14.1819C98.4306 13.8981 97.5364 13.6284 96.8694 13.3729C96.2023 13.1033 95.6275 12.6988 95.1449 12.1594C94.6765 11.6201 94.4423 10.8891 94.4423 9.96658C94.4423 9.21434 94.6411 8.53307 95.0385 7.92277C95.4359 7.29827 96.0462 6.80151 96.8694 6.43249C97.6926 6.06347 98.7145 5.87896 99.9351 5.87896C100.787 5.87896 101.617 5.9996 102.426 6.24088C103.249 6.46797 103.959 6.78732 104.555 7.19892L104.023 8.45501C103.398 8.04341 102.731 7.73826 102.021 7.53955C101.312 7.32665 100.616 7.22021 99.9351 7.22021C98.6293 7.22021 97.6429 7.47568 96.9758 7.98663C96.3229 8.48339 95.9965 9.12918 95.9965 9.924C95.9965 10.5201 96.1739 11.0027 96.5287 11.3717C96.8978 11.7265 97.3519 12.0033 97.8913 12.202C98.4448 12.3865 99.1828 12.5923 100.105 12.8194C101.198 13.0891 102.078 13.3587 102.745 13.6284C103.427 13.8839 104.001 14.2813 104.47 14.8206C104.938 15.3458 105.172 16.0625 105.172 16.9709C105.172 17.7231 104.967 18.4115 104.555 19.036C104.158 19.6463 103.54 20.1359 102.703 20.505C101.865 20.8598 100.836 21.0372 99.6157 21.0372Z" fill="#7A8AA0"/>
<path fill-rule="evenodd" clip-rule="evenodd" d="M115.567 10.733C114.786 9.99496 113.665 9.62594 112.203 9.62594C111.323 9.62594 110.486 9.76077 109.691 10.0304C108.896 10.2859 108.215 10.6549 107.647 11.1375L108.328 12.2659C108.797 11.8543 109.357 11.5349 110.01 11.3078C110.663 11.0665 111.344 10.9459 112.054 10.9459C113.09 10.9459 113.878 11.2014 114.417 11.7123C114.956 12.2091 115.226 12.94 115.226 13.9052V14.5864H111.671C110.166 14.5864 109.066 14.8774 108.371 15.4593C107.69 16.0412 107.349 16.8077 107.349 17.7586C107.349 18.7379 107.718 19.5256 108.456 20.1218C109.194 20.7179 110.188 21.0159 111.437 21.0159C112.345 21.0159 113.125 20.8527 113.778 20.5263C114.445 20.1998 114.949 19.7456 115.29 19.1637V20.9095H116.738V13.969C116.738 12.5355 116.347 11.4569 115.567 10.733ZM113.864 19.2489C113.253 19.6321 112.522 19.8237 111.671 19.8237C110.777 19.8237 110.081 19.6392 109.584 19.2702C109.088 18.887 108.839 18.3689 108.839 17.716C108.839 16.3819 109.797 15.7148 111.713 15.7148H115.226V17.5457C114.928 18.2837 114.474 18.8515 113.864 19.2489Z" fill="#7A8AA0"/>
<path fill-rule="evenodd" clip-rule="evenodd" d="M128.254 15.7787H137.621L137.642 15.3103C137.642 14.2032 137.408 13.2239 136.94 12.3723C136.472 11.5065 135.826 10.8324 135.003 10.3498C134.179 9.86722 133.25 9.62594 132.214 9.62594C131.177 9.62594 130.241 9.86722 129.403 10.3498C128.58 10.8324 127.927 11.5065 127.445 12.3723C126.976 13.2381 126.742 14.2174 126.742 15.3103C126.742 16.4032 126.99 17.3825 127.487 18.2483C127.984 19.114 128.672 19.7953 129.552 20.2921C130.447 20.7746 131.468 21.0159 132.618 21.0159C133.512 21.0159 134.328 20.8598 135.066 20.5475C135.819 20.2353 136.443 19.7811 136.94 19.185L136.088 18.2057C135.662 18.6882 135.159 19.0573 134.577 19.3127C133.995 19.554 133.356 19.6747 132.661 19.6747C131.426 19.6747 130.404 19.3198 129.595 18.6102C128.786 17.8863 128.339 16.9425 128.254 15.7787ZM129.488 11.9678C130.227 11.2723 131.135 10.9246 132.214 10.9246C133.306 10.9246 134.215 11.2723 134.939 11.9678C135.677 12.6491 136.095 13.5432 136.195 14.6503H128.254C128.353 13.5432 128.765 12.6491 129.488 11.9678Z" fill="#7A8AA0"/>
</svg>
