<svg width="86" height="29" viewBox="0 0 86 29" fill="none" xmlns="http://www.w3.org/2000/svg">
<path d="M43.5275 19.162H40.8547C40.8127 19.1624 40.7722 19.1779 40.7404 19.2057C40.7085 19.2334 40.6874 19.2716 40.6807 19.3136C40.3891 20.9876 39.2296 21.807 37.5845 21.807C35.34 21.807 34.0462 20.1468 34.0462 17.2885V17.133C34.0462 14.2747 35.4165 12.5756 37.5652 12.5756C39.2246 12.5756 40.1329 13.4094 40.3953 14.972C40.4096 15.0601 40.4823 15.1249 40.57 15.1249H43.3758C43.4013 15.1247 43.4264 15.1191 43.4496 15.1085C43.4728 15.0978 43.4935 15.0823 43.5104 15.063C43.5273 15.0437 43.54 15.0211 43.5476 14.9965C43.5553 14.9719 43.5578 14.946 43.5549 14.9204C43.1545 11.6605 40.7522 10.1042 37.5472 10.1042C33.685 10.1042 30.794 12.9626 30.794 17.1526V17.3074C30.794 21.5565 33.1721 24.3381 37.623 24.3381C40.9039 24.3381 43.2894 22.6502 43.706 19.3677C43.7089 19.3421 43.7065 19.3161 43.699 19.2915C43.6914 19.2668 43.6788 19.2441 43.6619 19.2247C43.6451 19.2053 43.6245 19.1897 43.6013 19.1789C43.5782 19.1681 43.553 19.1623 43.5275 19.162ZM49.4718 13.7939C46.4851 13.7939 44.2214 15.8599 44.2214 19.0273V19.1821C44.2214 22.3293 46.4845 24.3393 49.4519 24.3393C52.4387 24.3393 54.7024 22.311 54.7024 19.1242V18.9694C54.7024 15.8209 52.458 13.7939 49.4718 13.7939ZM51.9059 19.1431C51.9059 21.0549 51.0118 22.2141 49.4718 22.2141C47.9113 22.2141 47.0372 21.0549 47.0372 19.1242V18.9694C47.0372 17.0386 47.9499 15.9172 49.4718 15.9172C51.0125 15.9172 51.9059 17.0764 51.9059 19.0071V19.1424V19.1431ZM65.2624 10.5127H62.8799C62.8565 10.5127 62.8333 10.5173 62.8117 10.5264C62.79 10.5355 62.7703 10.5488 62.7538 10.5656C62.7372 10.5823 62.7241 10.6023 62.7151 10.6242C62.7061 10.6461 62.7015 10.6696 62.7015 10.6933V14.7838C62.1277 14.3137 61.3922 13.9739 60.4428 13.8996C57.4187 13.6636 55.1923 15.9663 55.1923 19.133V19.2878C55.1923 22.4356 57.4523 24.6514 60.4235 24.445C61.2976 24.384 62.0661 23.9668 62.7015 23.3689V24.1285C62.7015 24.2285 62.7823 24.3091 62.8799 24.3091H65.2624C65.3612 24.3091 65.4402 24.2273 65.4402 24.1285V10.6933C65.4404 10.6696 65.4359 10.6461 65.427 10.6241C65.4181 10.6022 65.4051 10.5822 65.3885 10.5654C65.372 10.5486 65.3523 10.5353 65.3307 10.5263C65.309 10.5172 65.2858 10.5126 65.2624 10.5127ZM62.6996 19.313C62.6996 21.2255 61.9828 22.3211 60.4422 22.3211C58.8816 22.3211 58.0075 21.1625 58.0075 19.2312V19.0764C58.0075 17.1456 58.9202 16.0242 60.4422 16.0242C61.9828 16.0242 62.6996 17.2457 62.6996 19.1771V19.313ZM71.157 13.7939C68.2659 13.7939 66.0395 15.8599 66.0395 19.0468V19.2016C66.0395 22.4268 68.2274 24.3393 71.2334 24.3393C73.8639 24.3393 75.5513 23.2015 75.9529 21.1544C75.9578 21.1282 75.9569 21.1012 75.9502 21.0754C75.9436 21.0496 75.9314 21.0257 75.9145 21.0052C75.8976 20.9848 75.8765 20.9683 75.8526 20.9571C75.8287 20.9459 75.8027 20.9402 75.7764 20.9404H73.5226C73.4829 20.9408 73.4444 20.9547 73.4133 20.9798C73.3822 21.0048 73.3603 21.0397 73.351 21.0788C73.1403 21.851 72.5142 22.35 71.3093 22.35C69.8072 22.35 68.9125 21.3841 68.8361 19.7044H75.8298C75.9287 19.7044 76.0083 19.6226 76.0083 19.5238V18.9323C76.0089 15.3194 73.7259 13.7939 71.157 13.7939ZM68.8752 17.9839C69.0841 16.5541 69.921 15.7246 71.1582 15.7246C72.4707 15.7246 73.2317 16.4584 73.3274 17.9839H68.8752ZM82.0626 9.64926C81.7232 9.55863 81.3657 9.5127 80.8422 9.5127C78.635 9.5127 77.3033 10.6914 77.3033 13.0475V14.2067H76.1687C76.1215 14.2069 76.0762 14.226 76.0429 14.2599C76.0096 14.2937 75.9909 14.3396 75.9909 14.3874V16.0148C75.9909 16.1154 76.0711 16.1954 76.1687 16.1954H77.3033V24.1253C77.3033 24.226 77.3835 24.306 77.4811 24.306H79.8642C79.9624 24.306 80.042 24.2241 80.042 24.1253V16.1954H82.0129C82.1117 16.1954 82.1907 16.1136 82.1907 16.0148V14.3874C82.1907 14.3396 82.172 14.2937 82.1386 14.2599C82.1053 14.226 82.0601 14.2069 82.0129 14.2067H80.042V12.9701C80.042 12.1986 80.4039 11.6379 81.26 11.6379C81.5447 11.6379 81.771 11.6668 81.9675 11.7197C81.9939 11.727 82.0215 11.728 82.0484 11.7226C82.0752 11.7173 82.1004 11.7058 82.1221 11.689C82.1438 11.6722 82.1614 11.6506 82.1735 11.6258C82.1856 11.601 82.1919 11.5737 82.1919 11.546V9.82546C82.1928 9.78572 82.1806 9.74681 82.1572 9.7149C82.1337 9.68298 82.1005 9.65989 82.0626 9.64926ZM84.4202 12.653C85.3149 12.653 86 11.9966 86 11.1281C86 10.2591 85.3149 9.60269 84.4202 9.60269C83.5448 9.60269 82.8609 10.2591 82.8609 11.1281C82.8609 11.9966 83.5448 12.653 84.4202 12.653ZM85.6307 14.2067H83.2482C83.201 14.2069 83.1558 14.226 83.1225 14.2599C83.0891 14.2937 83.0704 14.3396 83.0704 14.3874V24.1253C83.0704 24.226 83.1506 24.306 83.2482 24.306H85.6307C85.7296 24.306 85.8091 24.2241 85.8091 24.1253V14.388C85.8092 14.3642 85.8046 14.3407 85.7957 14.3188C85.7868 14.2968 85.7736 14.2769 85.757 14.2601C85.7405 14.2433 85.7208 14.23 85.6991 14.2209C85.6774 14.2119 85.6542 14.2073 85.6307 14.2074V14.2067ZM31.1453 6.42592V6.38564C31.1453 5.29882 31.882 4.54049 32.8737 4.54049C33.6894 4.54049 34.3223 4.95584 34.4019 5.80478H33.7304C33.6552 5.32462 33.3916 5.0773 32.8786 5.0773C32.2507 5.0773 31.8422 5.57257 31.8422 6.38186V6.42214C31.8422 7.23647 32.2258 7.71601 32.8836 7.71601C33.3766 7.71601 33.7248 7.46302 33.7944 6.95265H34.4417C34.3372 7.82236 33.7292 8.26162 32.8836 8.26162C31.767 8.26099 31.1453 7.53854 31.1453 6.42592ZM35.1075 6.42592V6.38564C35.1075 5.32839 35.8548 4.54553 36.9099 4.54553C37.9699 4.54553 38.703 5.30888 38.703 6.37054V6.41018C38.703 7.46743 37.9905 8.26036 36.9099 8.26036C35.8188 8.26036 35.1075 7.46743 35.1075 6.42592ZM38.0147 6.41522V6.37494C38.0147 5.63235 37.6062 5.08107 36.9087 5.08107C36.2117 5.08107 35.7989 5.60151 35.7989 6.3806V6.42088C35.7989 7.20941 36.2714 7.71978 36.9192 7.71978C37.5919 7.71978 38.0147 7.19871 38.0147 6.41522ZM39.5131 4.59587H40.3051L41.8047 7.20941V4.5965H42.4066V8.21065H41.7189L40.1161 5.44041V8.21065H39.5131V4.59587ZM43.2521 7.08795H43.8888C43.9335 7.45232 44.0778 7.75502 44.6808 7.75502C45.0744 7.75502 45.3523 7.53351 45.3523 7.19934C45.3523 6.86581 45.1882 6.73931 44.6106 6.64303C43.7588 6.52661 43.3566 6.26418 43.3566 5.58578C43.3566 4.99486 43.8539 4.54993 44.5963 4.54993C45.3629 4.54993 45.8211 4.90424 45.8907 5.59648H45.2839C45.2186 5.21763 45.0041 5.05527 44.5963 5.05527C44.1928 5.05527 43.9845 5.25288 43.9845 5.53166C43.9845 5.82492 44.1032 5.97092 44.7219 6.06217C45.5581 6.1786 45.9914 6.42088 45.9914 7.14333C45.9914 7.77076 45.4692 8.26099 44.6821 8.26099C43.7091 8.26099 43.3018 7.77076 43.2521 7.08795ZM46.8569 4.59587H49.0826V5.12638H47.5196V6.11755H48.7749V6.62289H47.519V7.68014H49.1672V8.21002H46.8569V4.59587ZM50.0102 4.59587H50.8023L52.3019 7.20941V4.5965H52.9038V8.21065H52.2167L50.6133 5.44041V8.21065H50.0102V4.59587ZM53.7524 7.08795H54.3897C54.4344 7.4517 54.5787 7.75502 55.1818 7.75502C55.5747 7.75502 55.8532 7.53351 55.8532 7.19871C55.8532 6.86518 55.6891 6.73868 55.1115 6.64303C54.2597 6.52598 53.8569 6.26418 53.8569 5.58578C53.8569 4.99423 54.3549 4.54993 55.0972 4.54993C55.8638 4.54993 56.322 4.90361 56.391 5.59648H55.7842C55.7195 5.21763 55.5057 5.05527 55.0972 5.05527C54.6931 5.05527 54.4854 5.25288 54.4854 5.53103C54.4854 5.82429 54.6042 5.97092 55.2222 6.06154C56.059 6.1786 56.4917 6.42025 56.4917 7.14333C56.4917 7.77076 55.9695 8.26099 55.1824 8.26099C54.2106 8.26099 53.8021 7.77013 53.7524 7.08732V7.08795ZM58.0392 6.64366L56.8585 4.5965H57.5909L58.393 6.09301L59.1745 4.59587H59.8217L58.7069 6.64806V8.21065H58.0398V6.64366H58.0392ZM60.1928 7.08795H60.8307C60.8755 7.45232 61.0197 7.75502 61.6222 7.75502C62.0157 7.75502 62.2943 7.53351 62.2943 7.19934C62.2943 6.86581 62.1295 6.73931 61.5519 6.64303C60.7002 6.52661 60.2979 6.26418 60.2979 5.58578C60.2979 4.99486 60.7959 4.54993 61.5383 4.54993C62.3042 4.54993 62.7631 4.90424 62.8321 5.59648H62.2253C62.16 5.21763 61.9467 5.05527 61.5383 5.05527C61.1341 5.05527 60.9259 5.25288 60.9259 5.53166C60.9259 5.82492 61.0452 5.97092 61.6632 6.06217C62.4994 6.1786 62.9328 6.42088 62.9328 7.14333C62.9328 7.77076 62.4105 8.26099 61.6234 8.26099C60.6504 8.26099 60.2432 7.77076 60.1935 7.08795H60.1928ZM14.2822 0C6.39381 0 0 6.49136 0 14.4994C0 22.5086 6.39381 29 14.2822 29C22.1707 29 28.5645 22.5086 28.5645 14.5C28.5645 6.49199 22.1694 0 14.2822 0ZM23.0666 18.7768C21.4905 22.0769 18.1593 24.3525 14.3046 24.3538C8.92236 24.3538 4.55724 19.9096 4.57216 14.4453C4.57509 11.9711 5.49672 9.58853 7.15418 7.77013C7.22754 7.68958 7.35562 7.78271 7.30277 7.87837C6.64996 9.05393 6.2676 10.4711 6.2676 11.996C6.2676 16.0645 8.97832 19.364 12.3201 19.364C14.4259 19.364 16.2798 18.0544 17.3635 16.0689C17.3745 16.0483 17.3929 16.0327 17.4148 16.0253C17.4368 16.018 17.4607 16.0194 17.4816 16.0292L23.0212 18.6528C23.0324 18.6577 23.0426 18.6649 23.051 18.6738C23.0594 18.6828 23.0659 18.6934 23.0702 18.705C23.0744 18.7166 23.0763 18.7289 23.0757 18.7413C23.075 18.7536 23.072 18.7657 23.0666 18.7768ZM23.0218 10.2937L17.3828 12.9632C17.3613 12.9733 17.3368 12.9746 17.3144 12.9667C17.292 12.9588 17.2735 12.9425 17.2628 12.9211C16.9645 12.3331 16.502 11.8471 15.9327 11.5233C15.3635 11.1996 14.7127 11.0525 14.0615 11.1005C12.4177 11.2181 11.0916 12.5712 10.9803 14.2401C10.9298 14.9739 11.1173 15.7043 11.5141 16.3204C11.911 16.9366 12.4956 17.4048 13.1793 17.6541C13.2085 17.6642 13.198 17.6875 13.1619 17.6881C13.1308 17.6894 13.0979 17.6894 13.0655 17.6894C10.09 17.6894 7.67705 14.753 7.67705 11.1307C7.67705 11.0533 7.67767 10.9771 7.68016 10.9003C7.77715 7.47058 10.5376 4.73306 13.9136 4.59902C14.0423 4.59399 14.1716 4.59147 14.3015 4.59147C18.1575 4.59147 21.4887 6.86706 23.0641 10.1691C23.0696 10.1799 23.073 10.1918 23.0738 10.204C23.0747 10.2162 23.0731 10.2284 23.0691 10.2399C23.0652 10.2515 23.059 10.2621 23.0508 10.2711C23.0427 10.2801 23.0328 10.2874 23.0218 10.2924V10.2937Z" fill="#7A8AA0"/>
</svg>
