<svg width="138" height="32" viewBox="0 0 138 32" fill="none" xmlns="http://www.w3.org/2000/svg">
<path fill-rule="evenodd" clip-rule="evenodd" d="M65.4166 16.3128C65.4166 14.6431 66.7733 13.4953 68.4089 13.4953C70.0091 13.4953 71.3658 14.6431 71.3658 16.3128C71.3658 18.0177 70.0091 19.1661 68.4089 19.1661C66.7733 19.1661 65.4166 18.0177 65.4166 16.3128ZM67.0869 16.3133C67.0869 17.1482 67.7129 17.7047 68.4089 17.7047C69.0696 17.7047 69.6961 17.1829 69.6961 16.3128C69.6961 15.4779 69.0696 14.9214 68.4089 14.9214C67.7129 14.9214 67.0869 15.4779 67.0869 16.3133Z" fill="#7A8AA0"/>
<path d="M64.5471 17.4265L64.9295 18.7831C64.5124 18.992 64.06 19.1661 63.5034 19.2003C62.1461 19.2003 61.346 18.4701 61.346 17.0435V14.9908H60.3723V13.6341H61.346V12.0339H63.051V13.6341H64.6512V14.9908H63.051V16.8699C63.051 17.4265 63.3293 17.6353 63.7817 17.6353C63.9905 17.6353 64.3382 17.5653 64.5471 17.4265Z" fill="#7A8AA0"/>
<path fill-rule="evenodd" clip-rule="evenodd" d="M55.4316 14.0518C55.8493 13.6688 56.4058 13.46 57.1018 13.46C58.528 13.46 59.7111 14.6431 59.7111 16.3128C59.7111 18.0177 58.528 19.1661 57.1018 19.1661C56.4058 19.1661 55.8493 18.9573 55.4316 18.5743V20.8358H53.7272V13.6341H55.4316V14.0518ZM55.4316 16.3133C55.4316 17.1482 56.0581 17.7047 56.7536 17.7047C57.4837 17.7047 58.0408 17.1482 58.0408 16.3128C58.0408 15.4779 57.519 14.9214 56.7536 14.9214C56.0576 14.9214 55.4316 15.4779 55.4316 16.3133Z" fill="#7A8AA0"/>
<path d="M52.6829 13.6341L49.5872 20.8358V20.8705H47.7081L48.5782 18.8526L46.3514 13.6341H48.1952L49.4824 16.7652L50.8391 13.6341H52.6829Z" fill="#7A8AA0"/>
<path d="M43.638 14.6778C44.0204 14.0171 44.6117 13.5647 45.4818 13.5647C45.6207 13.5647 45.7248 13.5647 45.8642 13.6341L45.7942 15.3391H45.4812C44.2987 15.3391 43.6374 15.9651 43.6374 17.357V19.0267H41.933V13.6341H43.638V14.6778Z" fill="#7A8AA0"/>
<path d="M38.8367 15.9651L40.5764 16.3133C40.2626 18.1227 38.8012 19.1661 36.9576 19.1661C34.8008 19.1661 33.1311 17.5312 33.1311 15.4085C33.1311 13.2864 34.8355 11.6509 36.9576 11.6509C38.732 11.6509 40.2286 12.6951 40.5758 14.3995L38.8367 14.8167C38.5931 13.7735 37.8971 13.2858 36.9576 13.2858C35.8097 13.2858 34.9049 14.1907 34.9049 15.4085C34.9049 16.6263 35.8097 17.5653 36.9576 17.5653C37.8624 17.5653 38.5931 17.0435 38.8367 15.9651Z" fill="#7A8AA0"/>
<path d="M0.983832 21.3577L6.75941 16.5563C6.84321 16.4887 6.94708 16.4518 7.05476 16.4518C7.16245 16.4518 7.26689 16.4887 7.35069 16.5563L13.4045 21.5665C13.4589 21.6067 13.5029 21.6591 13.5331 21.7195C13.5632 21.78 13.5787 21.8467 13.5781 21.9142V31.4816C13.5781 31.864 13.1263 32.0734 12.8133 31.8298L0.983832 22.0884C0.775549 21.8795 0.775549 21.5318 0.983832 21.3577Z" fill="#7A8AA0"/>
<path d="M13.5781 0.517988V10.1553C13.5781 10.2942 13.5093 10.3989 13.4051 10.503L7.38654 15.4779C7.30274 15.5456 7.1983 15.5824 7.09062 15.5824C6.98293 15.5824 6.8785 15.5456 6.7947 15.4779L0.949687 10.6772C0.706121 10.4683 0.706121 10.1553 0.949687 9.94649L12.8127 0.170282C13.1263 -0.0738539 13.5781 0.135567 13.5781 0.517988Z" fill="#7A8AA0"/>
<path d="M135.416 14.6778C135.799 14.0165 136.39 13.5641 137.26 13.5641C137.399 13.5641 137.504 13.5641 137.642 13.6341L137.573 15.3385H137.26C136.077 15.3385 135.416 15.965 135.416 17.3564V19.0267H133.711V13.6341H135.416V14.6778Z" fill="#7A8AA0"/>
<path d="M132.111 13.6341V19.0261H130.406V18.5043C130.024 18.922 129.432 19.1655 128.771 19.1655C127.519 19.1655 126.684 18.296 126.684 16.9387V13.6341H128.388V16.591C128.388 17.2176 128.736 17.6353 129.293 17.6353C129.954 17.6353 130.406 17.1823 130.406 16.1386V13.6341H132.111Z" fill="#7A8AA0"/>
<path d="M125.501 17.4259L125.883 18.7831C125.466 18.9914 125.013 19.1661 124.457 19.2003C123.1 19.2003 122.3 18.4696 122.3 17.0434V14.9908H121.326V13.6341H122.3V12.0333H124.004V13.6341H125.605V14.9908H124.004V16.8693C124.004 17.4259 124.283 17.6347 124.735 17.6347C124.944 17.6347 125.292 17.5653 125.501 17.4259Z" fill="#7A8AA0"/>
<path d="M121.048 19.0267H118.855L117.116 17.0782H116.803V19.0267H115.098V11.3031H116.803V15.4779H117.046L118.751 13.6341H120.804L118.438 16.2086L121.048 19.0267Z" fill="#7A8AA0"/>
<path fill-rule="evenodd" clip-rule="evenodd" d="M113.498 13.6341V18.9914H111.793V18.5737C111.375 18.9567 110.819 19.1655 110.123 19.1655C108.732 19.1655 107.514 18.0177 107.514 16.3127C107.514 14.6078 108.697 13.4594 110.123 13.4594C110.819 13.4594 111.375 13.6688 111.793 14.0512V13.6341H113.498ZM109.183 16.3127C109.183 17.1476 109.705 17.7041 110.471 17.7041C111.167 17.7041 111.793 17.1476 111.793 16.3127C111.793 15.4779 111.167 14.9213 110.471 14.9213C109.74 14.9213 109.183 15.4779 109.183 16.3127Z" fill="#7A8AA0"/>
<path d="M105.496 13.6341H106.992V14.9908H105.496V19.0261H103.791V14.9908H103.026V13.6341H103.791V13.2164C103.791 11.9638 104.661 11.1637 105.948 11.1637C106.306 11.1658 106.661 11.2367 106.992 11.3726L106.644 12.6945C106.505 12.6593 106.331 12.6251 106.192 12.6251C105.774 12.6251 105.496 12.8687 105.496 13.2858V13.6341Z" fill="#7A8AA0"/>
<path d="M101.912 13.6341V19.0261H100.208V18.5043C99.8249 18.922 99.2336 19.1655 98.5723 19.1655C97.3198 19.1655 96.485 18.296 96.485 16.9387V13.6341H98.1899V16.591C98.1899 17.2176 98.5376 17.6353 99.0942 17.6353C99.7554 17.6353 100.208 17.1823 100.208 16.1386V13.6341H101.912Z" fill="#7A8AA0"/>
<path d="M91.3706 14.1212C91.7536 13.7035 92.3449 13.46 93.0062 13.46C94.2581 13.46 95.0936 14.3642 95.0936 15.7215V18.9914H93.3886V16.0692C93.3886 15.4432 93.0409 15.0255 92.4837 15.0255C91.8231 15.0255 91.3706 15.4779 91.3706 16.5216V19.0267H89.6662V13.6341H91.3706V14.1212Z" fill="#7A8AA0"/>
<path fill-rule="evenodd" clip-rule="evenodd" d="M88.0654 13.6341V18.9914H86.361V18.5737C85.9433 18.9567 85.3868 19.1655 84.6908 19.1655C83.2994 19.1655 82.0816 18.0177 82.0816 16.3127C82.0816 14.6078 83.2647 13.4594 84.6908 13.4594C85.3868 13.4594 85.9433 13.6688 86.361 14.0512V13.6341H88.0654ZM83.7518 16.3127C83.7518 17.1476 84.2736 17.7041 85.0391 17.7041C85.7345 17.7041 86.361 17.1476 86.361 16.3127C86.361 15.4779 85.7345 14.9213 85.0391 14.9213C84.3084 14.9213 83.7518 15.4779 83.7518 16.3127Z" fill="#7A8AA0"/>
<path d="M80.8637 11.8256V19.0273H79.1241V15.4438L77.2455 19.0273H76.1671L74.2886 15.4091V18.992H72.5836V11.825H74.3233L76.7237 16.2786L79.1241 11.8256H80.8637Z" fill="#7A8AA0"/>
<path d="M7.87254 16.3822L13.5087 21.0447C13.5925 21.1123 13.6969 21.1492 13.8046 21.1492C13.9123 21.1492 14.0167 21.1123 14.1005 21.0447L19.7361 16.3822C19.945 16.2086 19.945 15.8604 19.7361 15.6521L14.1 11.0249C14.0162 10.9574 13.9119 10.9206 13.8043 10.9206C13.6968 10.9206 13.5924 10.9574 13.5087 11.0249L7.87254 15.6515C7.62897 15.8604 7.62897 16.2086 7.87254 16.3822Z" fill="#7A8AA0"/>
<path d="M26.6942 10.6772L20.8498 15.478C20.766 15.5456 20.6616 15.5825 20.5539 15.5825C20.4462 15.5825 20.3418 15.5456 20.258 15.478L14.2047 10.5031C14.1502 10.4631 14.106 10.4107 14.0757 10.3502C14.0454 10.2898 14.0299 10.223 14.0305 10.1554V0.51804C14.0305 0.135621 14.483 -0.0732317 14.7959 0.169764L26.6942 9.94654C26.9031 10.1554 26.9031 10.5031 26.6942 10.6772Z" fill="#7A8AA0"/>
<path d="M0.357843 20.2793V11.7904C0.354713 11.7003 0.377527 11.6111 0.423574 11.5336C0.469623 11.4561 0.536965 11.3935 0.617591 11.3531C0.698218 11.3128 0.788736 11.2964 0.87838 11.3061C0.968022 11.3157 1.05302 11.3508 1.12326 11.4074L6.27228 15.6521C6.48113 15.861 6.48113 16.2087 6.27228 16.3828L1.12326 20.627C0.810261 20.8711 0.357843 20.6617 0.357843 20.2793Z" fill="#7A8AA0"/>
<path d="M14.0305 31.4816V21.9143C14.0305 21.7754 14.1005 21.636 14.2052 21.5318L20.2585 16.5564C20.3423 16.4888 20.4468 16.4519 20.5545 16.4519C20.6621 16.4519 20.7666 16.4888 20.8504 16.5564L26.6248 21.3577C26.8337 21.5666 26.8337 21.9143 26.6248 22.0884L14.7959 31.8299C14.483 32.0735 14.0305 31.8646 14.0305 31.4816Z" fill="#7A8AA0"/>
</svg>
