<svg width="80" height="24" viewBox="0 0 80 24" fill="none" xmlns="http://www.w3.org/2000/svg">
<path d="M76.6309 20.8512C76.4356 20.8322 76.2555 20.7379 76.1286 20.5882C76.0018 20.4386 75.9383 20.2454 75.9516 20.0496C75.9461 19.8526 76.0187 19.6613 76.1535 19.5176C76.2884 19.3738 76.4746 19.2891 76.6716 19.282C76.8206 19.2748 76.9679 19.3167 77.0906 19.4014C77.2134 19.4861 77.3049 19.6089 77.3509 19.7508H78.071C78.0151 19.4565 77.8531 19.1931 77.6159 19.0103C77.3567 18.7849 77.0218 18.6659 76.6784 18.6775C76.3181 18.6775 75.9726 18.8206 75.7178 19.0754C75.463 19.3302 75.3198 19.6757 75.3198 20.0361C75.3121 20.2277 75.3451 20.4187 75.4165 20.5967C75.4879 20.7746 75.5962 20.9355 75.7342 21.0686C75.9971 21.3272 76.3504 21.4734 76.7192 21.4762C77.0332 21.4838 77.3403 21.3824 77.588 21.1892C77.8357 20.996 78.0088 20.7229 78.0778 20.4165H77.3577C77.2989 20.5571 77.1966 20.6752 77.0658 20.7534C76.935 20.8316 76.7826 20.8659 76.6309 20.8512ZM79.185 18.9628C79.0422 18.6303 78.837 18.3282 78.5805 18.0729C78.3221 17.812 78.014 17.6054 77.6745 17.4654C77.335 17.3254 76.9709 17.2548 76.6037 17.2577C76.2307 17.2583 75.8614 17.3321 75.5168 17.4751C74.8455 17.7574 74.3115 18.2915 74.0292 18.9628C73.8862 19.3097 73.8123 19.6812 73.8118 20.0564C73.8123 20.4295 73.8862 20.7988 74.0292 21.1433C74.172 21.4742 74.3746 21.7759 74.627 22.0332C74.881 22.2896 75.1835 22.4928 75.5168 22.631C75.8599 22.7797 76.2299 22.856 76.6037 22.8551C76.9776 22.856 77.3476 22.7797 77.6906 22.631C78.0221 22.493 78.3224 22.2897 78.5737 22.0332C78.8316 21.7791 79.0371 21.4767 79.1782 21.1433C79.3212 20.7988 79.3951 20.4295 79.3956 20.0564C79.3972 19.6817 79.3257 19.3102 79.185 18.9628ZM78.6212 20.9056C78.4582 21.3111 78.1763 21.6579 77.8126 21.9004C77.4489 22.1428 77.0204 22.2696 76.5833 22.2641C76.2917 22.2656 76.0028 22.2078 75.7342 22.0943C75.4814 21.9803 75.2513 21.8215 75.0549 21.6256C74.8611 21.4275 74.7026 21.1978 74.5862 20.9463C74.4759 20.6767 74.4183 20.3885 74.4164 20.0972C74.4183 19.8037 74.4759 19.5133 74.5862 19.2413C74.8067 18.7132 75.2265 18.2934 75.7546 18.0729C76.024 17.962 76.3124 17.9043 76.6037 17.9031C76.8914 17.9006 77.1767 17.9559 77.4427 18.0656C77.7088 18.1752 77.9501 18.3371 78.1525 18.5416C78.5747 18.9506 78.8188 19.5095 78.8318 20.0972C78.8149 20.3778 78.7433 20.6524 78.6212 20.9056ZM14.2785 2.51708C12.3141 1.55525 10.1395 1.10212 7.95432 1.19925H6.71801V6.04261H8.62003C11.7991 6.04261 13.7555 8.1756 13.7555 12.0272C13.7555 15.8788 11.772 17.9574 8.59286 17.9574H6.71801V22.8008H8.30076C15.0394 22.8008 19.2374 19.119 19.2374 12C19.2646 7.58461 17.3354 4.26287 14.2785 2.51708ZM0.60437 22.8008H6.12023V17.9574V6.04261V1.19925H0.60437V22.8008ZM30.6631 9.98931L30.4254 9.88062L29.1347 14.2485C30.2419 14.8055 31.1046 15.4916 31.1046 16.5241C31.1092 16.7946 31.0598 17.0632 30.9594 17.3144C30.859 17.5656 30.7096 17.7943 30.5199 17.9871C30.3302 18.18 30.104 18.3331 29.8546 18.4376C29.6051 18.5422 29.3373 18.596 29.0668 18.596C27.7082 18.596 26.8183 17.4276 26.7911 15.6478H21.3024V16.1165C21.3024 20.7561 24.3796 23.2084 29.0871 23.2084C33.7946 23.2084 36.6069 20.7561 36.6069 16.5852C36.6069 13.7526 35.4114 12.0272 30.6631 9.98931ZM26.7843 13.2567C27.3685 13.4877 27.9867 13.7254 28.5709 13.9768L29.814 9.62249C28.0003 8.80055 27.0968 8.21635 27.0968 7.08873C27.1248 6.61348 27.34 6.16869 27.6952 5.85169C28.0504 5.5347 28.5167 5.37131 28.992 5.39729C30.0721 5.39729 30.7174 5.94751 30.9484 7.4963H36.3828C36.3828 4.60931 35.2483 2.8839 32.9455 1.68834C31.7792 1.09074 30.486 0.78316 29.1755 0.791676C25.2084 0.791676 21.6625 3.50885 21.6625 7.15666C21.6625 9.95535 23.2588 11.8234 26.7843 13.2567ZM50.0773 8.9432C50.1357 9.60281 49.9541 10.2613 49.5661 10.7979C49.178 11.3345 48.6094 11.713 47.9647 11.8642L50.6819 15.2606C53.5961 14.4319 55.3622 11.7894 55.3622 8.61714C55.4095 7.24382 55.0606 5.88591 54.3572 4.70548C53.6538 3.52506 52.6255 2.572 51.3951 1.96006C49.7585 1.37478 48.023 1.1163 46.2868 1.19925H45.0302V6.04261H46.6061C48.678 6.04261 50.0773 7.09552 50.0773 8.9432ZM52.9507 19.1326L51.8367 17.774L49.989 15.444L47.2718 12.0136C47.0328 12.0413 46.7924 12.055 46.5518 12.0544H44.5139H44.412V1.19925H38.8893V22.8008H44.4052V15.8244H44.5682L49.5542 22.8008H55.8513L52.9507 19.1326ZM70.9588 1.19925L67.0325 14.6764L66.5502 16.3475L64.6617 22.8008H69.376L76.6037 1.19925H70.9588ZM62.128 1.19925H56.4898L63.6903 22.8008H64.0096L66.1901 15.3286L62.128 1.19925Z" fill="#7A8AA0"/>
</svg>
