<svg width="117" height="28" viewBox="0 0 117 28" fill="none" xmlns="http://www.w3.org/2000/svg">
<path fill-rule="evenodd" clip-rule="evenodd" d="M28.2492 13.8234C28.2492 13.947 28.2476 14.0701 28.2443 14.1929L28.2492 14.192V27.0768C28.2492 27.6508 27.6221 28.0046 27.1308 27.7078L22.5303 24.9283C20.2977 26.5234 17.5638 27.462 14.6107 27.462C7.07831 27.462 0.972122 21.3558 0.972122 13.8234C0.972122 6.29106 7.07831 0.184875 14.6107 0.184875C22.143 0.184875 28.2492 6.29106 28.2492 13.8234ZM16 13.8781V14.8781L20.7633 18.243V11.3781L16 13.8781ZM14.6823 7.09448L9.10803 10.135L15.1891 13.6823L20.7633 10.6417L14.6823 7.09448ZM9.10803 10.8781V17.2295L15.1891 21.2835V14.3781L9.10803 10.8781Z" fill="#7A8AA0"/>
<path d="M109.353 20.5804L110.361 6.86472C110.37 6.73901 110.475 6.64172 110.601 6.64172H112.221C112.362 6.64172 112.472 6.76214 112.461 6.90248L111.821 14.5222L115.078 10.9512C115.123 10.9012 115.188 10.8727 115.256 10.8727H116.759C116.963 10.8727 117.075 11.1115 116.943 11.268L113.405 15.4847L116.615 20.4678C116.718 20.6279 116.603 20.8387 116.413 20.8387H114.666C114.58 20.8387 114.501 20.7934 114.458 20.7196L112.199 16.8595C112.15 16.7762 112.066 16.7192 111.971 16.7039C111.783 16.6738 111.61 16.8123 111.598 17.0024L111.374 20.613C111.366 20.7398 111.261 20.8387 111.133 20.8387H109.593C109.453 20.8387 109.343 20.7199 109.353 20.5804Z" fill="#7A8AA0"/>
<path d="M63.5186 6.88473L62.5113 20.5603C62.5011 20.6998 62.6115 20.8186 62.7513 20.8186H64.1098C64.2374 20.8186 64.3427 20.7201 64.35 20.5927C64.4621 18.6236 64.6857 14.7801 64.7783 13.4996C64.8986 11.8352 67.8623 12.0959 67.746 13.259C67.6842 13.8771 67.3693 18.2298 67.2028 20.5618C67.1929 20.7011 67.3033 20.8186 67.4429 20.8186H68.8389C68.9678 20.8186 69.0738 20.7174 69.0793 20.5886C69.189 18.0317 69.3903 13.229 69.3903 12.7777C69.3903 12.1962 68.909 11.1334 67.4252 10.7123C66.671 10.4983 66.0333 10.7262 65.5914 11.0134C65.3964 11.1402 65.0702 10.9927 65.0846 10.7605L65.3238 6.91735C65.3324 6.77884 65.2224 6.66178 65.0837 6.66178H63.7586C63.6325 6.66178 63.5279 6.75903 63.5186 6.88473Z" fill="#7A8AA0"/>
<path d="M35.1186 20.8387H36.4596C36.5865 20.8387 36.6915 20.7409 36.6997 20.6144C36.7197 20.3061 36.7423 19.9564 36.7666 19.5808C36.9103 17.3608 37.1126 14.2324 37.1864 13.3592C37.3067 11.9355 40.1927 11.8352 40.1541 13.3592C40.1234 14.5745 39.9058 18.5298 39.7877 20.5855C39.7798 20.7236 39.8897 20.8387 40.0281 20.8387H41.0713C41.1983 20.8387 41.3034 20.7409 41.3115 20.6142C41.444 18.5414 41.7057 14.5189 41.7984 13.3592C41.9187 11.8553 40.4148 10.6121 39.1515 10.5519C38.5869 10.525 38.1525 10.7222 37.8371 10.9539C37.6488 11.0921 37.3324 10.9632 37.3441 10.7299L37.5347 6.93452C37.5416 6.79706 37.432 6.68183 37.2943 6.68183H36.0872C35.9609 6.68183 35.8561 6.77947 35.8471 6.90546L34.8786 20.5811C34.8687 20.7203 34.979 20.8387 35.1186 20.8387Z" fill="#7A8AA0"/>
<path d="M79.0884 22.2318L78.7366 22.7009C78.5365 22.9677 78.1575 23.0208 77.8918 22.8192L72.8881 19.0226C72.7318 18.9041 72.6431 18.7167 72.6505 18.5207L72.9508 10.5646C72.9564 10.4145 73.018 10.272 73.1234 10.1651L75.1565 8.10206C75.4957 7.7579 75.9587 7.56413 76.4419 7.56413H77.0156C77.523 7.56413 78.0071 7.77778 78.349 8.15273L79.9281 9.88414C80.0369 10.0034 80.0931 10.1615 80.0842 10.3227L79.666 17.8886C79.6601 17.9952 79.6259 18.0984 79.567 18.1874L79.0765 18.9284C78.8819 19.2224 78.4771 19.2867 78.2009 19.0675L77.959 18.8755C77.6849 18.658 77.6536 18.2533 77.8909 17.9962L78.0254 17.8505C78.1209 17.7471 78.1771 17.6135 78.1842 17.473L78.5218 10.8149C78.5297 10.6591 78.4767 10.5063 78.3741 10.3887L77.4706 9.35413C77.3564 9.22331 77.1912 9.14825 77.0175 9.14825H76.4461C76.2813 9.14825 76.1237 9.21588 76.0101 9.33535L74.803 10.6052C74.7006 10.7129 74.6417 10.8547 74.6377 11.0032L74.4521 17.8132C74.4467 18.0124 74.5402 18.2013 74.702 18.3178L78.9587 21.3826C79.232 21.5794 79.2905 21.9623 79.0884 22.2318Z" fill="#7A8AA0"/>
<path d="M85.8854 10.9529H84.6252C84.458 10.9529 84.3188 11.0814 84.3054 11.248L83.8002 17.519C83.7661 17.9431 83.8628 18.3704 84.1157 18.7126C84.7968 19.6345 85.9536 20.8387 87.0362 20.8387C88.1344 20.8387 89.2904 19.7765 89.9534 18.9823C90.1813 18.7093 90.3 18.3659 90.329 18.0115L90.8779 11.2999C90.8932 11.1131 90.7457 10.9529 90.5582 10.9529H89.5217C89.3529 10.9529 89.213 11.0837 89.2016 11.252L88.7691 17.6135C88.7509 17.8808 88.6262 18.1297 88.4229 18.3043L87.8576 18.7897C87.3907 19.1908 86.6963 19.1747 86.2484 18.7524L85.9831 18.5023C85.7616 18.2934 85.6473 17.995 85.6726 17.6916L86.2052 11.3004C86.2208 11.1134 86.0732 10.9529 85.8854 10.9529Z" fill="#7A8AA0"/>
<path d="M45.6619 20.7785H44.3005C44.13 20.7785 44.0136 20.6061 44.0773 20.4479L47.8536 11.0835C47.8903 10.9925 47.9786 10.9329 48.0768 10.9329H49.5478C49.6598 10.9329 49.757 11.0102 49.7822 11.1193L51.9769 20.604C52.0118 20.7548 51.8972 20.8988 51.7424 20.8988H50.5507C50.4393 20.8988 50.3425 20.8224 50.3166 20.7141L48.7594 14.1876C48.7042 13.9564 48.383 13.9366 48.2999 14.1592L45.8873 20.6221C45.8522 20.7162 45.7623 20.7785 45.6619 20.7785Z" fill="#7A8AA0"/>
<path d="M53.4034 19.3301L53.9782 18.4048C54.0503 18.2886 54.2046 18.256 54.32 18.3294C54.8725 18.6807 55.7795 19.1705 56.3563 19.1142C57.1785 19.034 59.0433 17.3496 57.5194 16.6879C57.342 16.6109 57.1417 16.5321 56.9284 16.4483C55.3613 15.8322 53.0876 14.9383 53.9701 12.3967C54.9368 9.61271 59.035 10.3144 60.2801 11.3029C60.3597 11.3661 60.3791 11.4762 60.3316 11.5661C60.1719 11.8677 59.9798 12.1168 59.8291 12.3123C59.8076 12.3401 59.7868 12.3672 59.7672 12.3929C59.6666 12.5247 59.4466 12.572 59.3048 12.4861C58.8144 12.189 57.9709 11.8383 57.0983 11.9556C55.7548 12.136 54.6719 13.6399 57.0181 14.6225C59.3642 15.6051 60.7277 16.6879 59.4444 18.9337C58.3834 20.7904 57.3717 20.803 56.3137 20.8161C56.2546 20.8168 56.1952 20.8176 56.1358 20.8186C55.3188 20.8332 54.1083 20.1082 53.4633 19.6449C53.3628 19.5727 53.3381 19.4352 53.4034 19.3301Z" fill="#7A8AA0"/>
<path d="M92.5436 20.7986H93.9264C94.0274 20.7986 94.1177 20.7355 94.1524 20.6406L96.5244 14.157C96.6066 13.9324 96.9305 13.9522 96.9848 14.1851L98.4828 20.6126C98.5082 20.7215 98.6053 20.7986 98.7171 20.7986H100.181C100.338 20.7986 100.453 20.6502 100.414 20.4979L97.9911 11.0934C97.9638 10.9871 97.8679 10.9128 97.7581 10.9128H96.2634C96.1647 10.9128 96.076 10.9732 96.0396 11.065L92.3198 20.4695C92.2574 20.6274 92.3737 20.7986 92.5436 20.7986Z" fill="#7A8AA0"/>
<path d="M103.248 17.5976L103.248 17.5987C103.163 18.6663 103.077 19.7441 103.016 20.582C103.006 20.7213 103.116 20.8387 103.256 20.8387H104.688C104.819 20.8387 104.925 20.7348 104.929 20.6042C104.992 18.3622 105.22 14.8819 105.424 13.7202C105.558 12.9603 107.347 12.5926 108.28 12.6011C108.425 12.6024 108.552 12.4893 108.552 12.3444V11.2796C108.552 11.1444 108.441 11.0357 108.306 11.0376C107.94 11.0427 107.343 11.0457 106.727 11.0332C105.745 11.0131 103.639 12.1761 103.519 14.041C103.467 14.8462 103.358 16.2133 103.248 17.5976Z" fill="#7A8AA0"/>
</svg>
