<svg width="108" height="27" viewBox="0 0 108 27" fill="none" xmlns="http://www.w3.org/2000/svg">
<mask id="mask0_10814_566" style="mask-type:alpha" maskUnits="userSpaceOnUse" x="7" y="0" width="13" height="27">
<path d="M7.33194 0H19.5338V26.618H7.33194V0Z" fill="white"/>
</mask>
<g mask="url(#mask0_10814_566)">
<path fill-rule="evenodd" clip-rule="evenodd" d="M13.4287 0C10.0672 0 7.33194 2.69352 7.33194 6.00442C7.33194 7.39722 7.82742 8.75515 8.72736 9.82727L9.25714 10.4389L15.4344 17.9198L15.9761 18.5503C16.4686 19.1374 16.7286 19.8507 16.7286 20.6139C16.7286 22.4012 15.2521 23.8553 13.437 23.8553C11.6219 23.8553 10.1455 22.4012 10.1455 20.6139V20.1474C9.27346 20.5646 8.31128 20.8329 7.34826 20.9166C7.509 24.0872 10.1784 26.618 13.437 26.618C16.7989 26.618 19.5338 23.9245 19.5338 20.6139C19.5338 19.2208 19.0384 17.8634 18.1282 16.7785L17.6023 16.1663L11.423 8.68322L10.883 8.05957C10.395 7.4746 10.1374 6.76403 10.1374 6.00442C10.1374 4.2171 11.6136 2.76272 13.4287 2.76272C15.2438 2.76272 16.7203 4.2171 16.7203 6.00442V6.39104C17.5633 5.97854 18.4856 5.74477 19.5161 5.67856C19.3438 2.51887 16.6794 0 13.4287 0Z" fill="#7A8AA0"/>
</g>
<path fill-rule="evenodd" clip-rule="evenodd" d="M30.8572 18.3981C31.2445 18.2074 31.3328 17.7739 31.3328 16.9936V12.1207V8.37524C31.3328 7.88972 31.1917 7.4388 30.8572 7.19604C30.8572 7.19604 32.8292 7.21348 34.3436 7.21348C33.8683 7.4388 33.8683 7.92432 33.8683 8.70464V16.716C33.8683 18.0859 34.3964 18.3635 34.3964 18.3635C34.3964 18.3635 31.5264 18.4499 30.8572 18.3981Z" fill="#7A8AA0"/>
<path fill-rule="evenodd" clip-rule="evenodd" d="M42.2846 18.3982C42.6191 18.2592 42.7425 17.3577 42.7425 16.9416L42.7602 12.936C42.7602 11.826 42.1615 11.4791 41.0873 11.4791C40.2247 11.4791 40.0485 11.6527 39.4147 12.1728L39.397 16.3346C39.397 17.2362 39.4147 18.1729 39.9782 18.3982C39.5204 18.3982 36.7384 18.4848 36.7735 18.3982C37.2314 18.2592 37.2139 17.4618 37.2139 17.0801V11.6181C37.2139 10.7337 37.0554 10.595 36.6858 10.404C37.513 10.2653 39.4147 10.0921 39.4147 10.0921L39.397 11.4274C40.3127 10.7337 41.6334 10.0226 42.8482 10.0226C44.5034 10.0226 44.9435 11.3059 44.9435 12.8493C44.9435 13.8029 44.9258 14.7045 44.9258 15.6412C44.9258 17.0978 44.9961 18.1552 45.5596 18.3462C44.873 18.3462 42.2495 18.5194 42.2846 18.3982Z" fill="#7A8AA0"/>
<path fill-rule="evenodd" clip-rule="evenodd" d="M51.5995 6.58911C50.455 6.58911 50.367 8.04594 50.367 10.3866H52.3213L52.0927 11.2885L50.3844 11.2539L50.4021 16.3867C50.4021 18.3113 50.7018 17.9994 51.3707 18.3982H47.6556C48.3071 18.1552 48.166 16.4733 48.166 16.4733L48.1486 11.2713C48.1486 11.2713 47.497 11.2539 47.0743 11.2364C47.6379 10.9765 48.166 10.1962 48.2542 9.8665L48.2365 9.64118C48.0254 6.91851 49.8917 5.79163 52.2159 5.79163C52.4095 5.79163 52.6032 5.80879 52.7617 5.84367L52.7968 7.14411C52.7968 7.14411 52.4095 6.58911 51.5995 6.58911Z" fill="#7A8AA0"/>
<path fill-rule="evenodd" clip-rule="evenodd" d="M56.1953 18.6062C55.1742 18.6062 54.1531 18.4501 53.1846 18.1899V15.5715C53.5544 16.6292 55.1037 17.6177 56.5301 17.6177C58.0445 17.6177 58.7837 17.0453 58.7837 15.7102C58.7837 12.693 53.431 14.7566 53.3782 10.3867C53.3605 8.04573 55.7729 7.05725 57.8328 7.05725C58.7134 7.05725 59.9984 7.24797 60.8085 7.491C60.8085 7.491 60.8262 8.87809 60.8262 9.6238C60.4914 8.87809 59.1533 7.90705 57.7802 7.90705C56.5826 7.90705 55.7023 8.54841 55.7023 9.6238C55.7023 12.138 61.1606 10.2826 61.2135 15.1381C61.2312 17.7564 58.6957 18.6062 56.1953 18.6062Z" fill="#7A8AA0"/>
<path fill-rule="evenodd" clip-rule="evenodd" d="M66.6197 18.6411C64.806 18.6411 63.6441 17.9472 63.6441 16.2827L63.6618 11.5485L62.2882 11.4793C62.2882 11.4793 64.1196 9.55439 64.9117 8.56592H65.792V10.335H68.5565L68.2746 11.4965H65.8274L65.8097 15.7277C65.8097 16.9418 66.0562 17.6698 67.5174 17.6006C67.9753 17.5832 68.3629 17.3925 68.5565 17.1494V17.6352C68.081 18.1553 67.5003 18.6411 66.6197 18.6411Z" fill="#7A8AA0"/>
<path fill-rule="evenodd" clip-rule="evenodd" d="M74.1206 10.7336C72.6239 10.699 71.9372 12.0514 71.9372 13.508C71.9372 15.2594 72.9055 17.7044 74.7544 17.7564C76.1102 17.7913 76.9202 16.4903 76.9202 15.1207C76.9202 13.4214 76.1102 10.7856 74.1206 10.7336ZM74.1206 18.6062C71.0218 18.6062 69.5605 16.6987 69.5605 14.2709C69.5605 11.7741 71.462 9.98784 74.5256 10.0227C77.7477 10.0748 79.2092 11.8087 79.2092 14.2709C79.2092 16.7333 77.1667 18.6062 74.1206 18.6062Z" fill="#7A8AA0"/>
<path fill-rule="evenodd" clip-rule="evenodd" d="M86.4992 18.3982C86.834 18.2592 86.9571 17.3577 86.9571 16.9416L86.9748 12.936C86.9748 11.826 86.3761 11.4791 85.3019 11.4791C84.4393 11.4791 84.2633 11.6527 83.6293 12.1728L83.6116 16.3346C83.6116 17.2362 83.6293 18.1729 84.1928 18.3982C83.7349 18.3982 80.953 18.4848 80.9881 18.3982C81.4459 18.2592 81.4285 17.4618 81.4285 17.0801V11.6181C81.4285 10.7337 81.27 10.595 80.9004 10.404C81.7278 10.2653 83.6293 10.0921 83.6293 10.0921L83.6116 11.4274C84.5273 10.7337 85.848 10.0226 87.0628 10.0226C88.7179 10.0226 89.1578 11.3059 89.1578 12.8493C89.1578 13.8029 89.1404 14.7045 89.1404 15.6412C89.1404 17.0978 89.2109 18.1552 89.7745 18.3462C89.0876 18.3462 86.4641 18.5194 86.4992 18.3982Z" fill="#7A8AA0"/>
<path fill-rule="evenodd" clip-rule="evenodd" d="M96.5008 10.7335C95.0921 10.7335 94.2295 11.8086 94.2295 13.0224L95.6553 12.9878C96.0958 12.9704 97.8038 13.1093 97.9269 12.5718C97.9446 12.4849 97.9975 12.2421 97.9975 12.1555C97.9975 11.3231 97.5219 10.7335 96.5008 10.7335ZM94.1944 13.6815C94.3 13.7856 94.1769 13.8027 94.1769 13.9763C94.1769 16.0225 94.7753 17.5659 97.3282 17.5482C98.4199 17.5313 99.3182 17.0799 99.8463 16.7853L99.7406 17.8953C98.9129 18.2593 97.751 18.6411 96.5536 18.6411C93.3489 18.6579 91.694 17.0109 91.694 14.3057C91.694 12.0514 93.2435 9.90116 96.5536 9.9532C99.5995 10.0052 100.181 11.722 100.128 13.6815H94.1944Z" fill="#7A8AA0"/>
<path fill-rule="evenodd" clip-rule="evenodd" d="M104.072 18.6581C103.227 18.6581 102.259 18.5368 101.431 18.3458C101.431 18.3458 101.484 16.5947 101.431 16.0569C101.766 17.0631 102.998 17.8606 103.984 17.8606C105.006 17.8606 105.763 17.2361 105.763 16.2825C105.763 14.375 101.625 15.7624 101.625 12.3981C101.625 10.4734 103.632 9.98792 105.147 9.98792C105.745 9.98792 106.89 10.1438 107.453 10.2827C107.453 10.2827 107.506 11.618 107.453 12.1033C107.136 11.2884 106.08 10.7162 105.147 10.7162C104.337 10.7162 103.738 11.2192 103.738 11.9995C103.738 13.8029 107.893 12.4329 107.946 15.8141C107.981 17.8952 105.904 18.6581 104.072 18.6581Z" fill="#7A8AA0"/>
<mask id="mask1_10814_566" style="mask-type:alpha" maskUnits="userSpaceOnUse" x="0" y="6" width="13" height="14">
<path d="M0.0533905 6.7511H12.8907V19.8569H0.0533905V6.7511Z" fill="white"/>
</mask>
<g mask="url(#mask1_10814_566)">
<path fill-rule="evenodd" clip-rule="evenodd" d="M6.7878 19.8569C8.46291 19.8361 10.1956 19.1392 11.3268 18.0251C11.8936 17.4671 12.4074 16.8854 12.8907 16.2956L11.0778 14.0998C10.535 14.7902 9.97342 15.4509 9.34321 16.0716C8.82532 16.5816 7.81085 17.0958 6.71145 17.0958C4.58706 17.0958 2.85855 15.3937 2.85855 13.3015C2.85855 11.2093 4.58706 9.50701 6.71145 9.50701C6.94798 9.50701 7.17898 9.52799 7.40362 9.56586C6.88048 8.70625 6.5521 7.74557 6.44199 6.7511C2.89535 6.89114 0.0533295 9.77483 0.0533295 13.3015C0.0533295 16.8912 2.99798 19.8152 6.63315 19.8569H6.7878Z" fill="#7A8AA0"/>
</g>
<path fill-rule="evenodd" clip-rule="evenodd" d="M20.4586 6.75208V6.76134H19.6176C17.974 6.8597 16.6961 7.43022 15.5309 8.57781C14.9638 9.13608 14.4498 9.7175 13.9667 10.3071L15.7796 12.5026C16.3218 11.8127 16.8837 11.1525 17.5142 10.5313C18.2728 9.78453 18.986 9.50689 20.1462 9.50689C22.2706 9.50689 23.9989 11.2092 23.9989 13.3014C23.9989 15.3936 22.2706 17.0957 20.1462 17.0957C19.9152 17.0957 19.6804 17.0722 19.4482 17.0289C19.9766 17.8893 20.3095 18.8536 20.4223 19.8518C23.9659 19.7085 26.8041 16.8259 26.8041 13.3014C26.8041 9.78889 23.9853 6.91337 20.4586 6.75208Z" fill="#7A8AA0"/>
</svg>
