<svg width="82" height="30" viewBox="0 0 82 30" fill="none" xmlns="http://www.w3.org/2000/svg">
<path d="M52.1929 8.54321H47.8894C47.4567 8.54321 47.107 8.89294 47.107 9.32565V28.8868C47.107 29.3194 47.4567 29.6692 47.8894 29.6692H52.1929C52.6256 29.6692 52.9753 29.3194 52.9753 28.8868V9.32565C52.9753 8.89294 52.6256 8.54321 52.1929 8.54321Z" fill="#7A8AA0"/>
<path d="M63.5381 13.5817V28.8868C63.5381 29.3194 63.8878 29.6692 64.3205 29.6692H68.624C69.0567 29.6692 69.4064 29.3194 69.4064 28.8868V15.7452C69.4064 15.0072 70.002 14.4115 70.74 14.4115H73.9349C74.6729 14.4115 75.2688 15.0072 75.2688 15.7452V28.8868C75.2688 29.3194 75.6186 29.6692 76.0512 29.6692H80.3547C80.7874 29.6692 81.1372 29.3194 81.1372 28.8868V13.5817C81.1372 10.7987 78.8817 8.54321 76.0986 8.54321H68.5766C65.7935 8.54321 63.5381 10.7987 63.5381 13.5817Z" fill="#7A8AA0"/>
<path d="M50.041 0.288818C48.2597 0.288818 46.8135 1.73515 46.8135 3.51638C46.8135 5.29761 48.2597 6.74394 50.041 6.74394C51.8223 6.74394 53.2686 5.29761 53.2686 3.51638C53.2686 1.73515 51.8253 0.288818 50.041 0.288818Z" fill="#7A8AA0"/>
<path d="M60.4085 1.50122H56.1049C55.6723 1.50122 55.3225 1.85095 55.3225 2.28366V28.8866C55.3225 29.3192 55.6723 29.669 56.1049 29.669H60.4085C60.8411 29.669 61.1909 29.3192 61.1909 28.8866V2.28366C61.1909 1.85095 60.8411 1.50122 60.4085 1.50122Z" fill="#7A8AA0"/>
<path d="M45.8028 28.4508L39.8486 19.5209C39.6798 19.269 39.6736 18.94 39.8307 18.6792L45.2931 9.73152C45.6131 9.2099 45.2366 8.54006 44.6263 8.54006H39.9998C39.7271 8.54006 39.4751 8.68233 39.333 8.9135L35.7851 14.7225C35.6339 14.9685 35.3674 15.1404 35.0562 15.1404C34.5818 15.1404 34.1967 14.7551 34.1967 14.2809V3.16671C34.1967 2.734 33.8468 2.38428 33.4141 2.38428H29.1108C28.6782 2.38428 28.3284 2.734 28.3284 3.16671V28.8864C28.3284 29.3191 28.6782 29.6688 29.1108 29.6688H33.4141C33.8468 29.6688 34.1967 29.3191 34.1967 28.8864V23.5724C34.1967 23.0982 34.5818 22.7129 35.0562 22.7129C35.3524 22.7129 35.6104 22.8611 35.7675 23.0893L39.9227 29.3223C40.068 29.5385 40.311 29.672 40.5748 29.672H45.1537C45.779 29.672 46.1525 28.9755 45.8058 28.4567" fill="#7A8AA0"/>
<path d="M8.77612 16.6999L11.3457 14.1303C11.5206 13.9554 11.8021 13.9554 11.9741 14.1303L14.5437 16.6999C14.846 17.0022 15.332 17.0022 15.6343 16.6999L17.8868 14.4474C18.1891 14.1451 18.1891 13.659 17.8868 13.3567L13.3374 8.8073C12.4127 7.88259 10.9101 7.88259 9.98534 8.8073L5.43593 13.3567C5.13362 13.659 5.13362 14.1451 5.43593 14.4474L7.6884 16.6999C7.99072 17.0022 8.47678 17.0022 8.77909 16.6999H8.77612Z" fill="#7A8AA0"/>
<path d="M21.7635 17.2397L20.6432 16.1194C20.3409 15.817 19.8548 15.817 19.5525 16.1194L16.7576 18.9142L11.9741 23.6978C11.7992 23.8726 11.5177 23.8726 11.3458 23.6978L6.56222 18.9142L3.76736 16.1164C3.46505 15.8141 2.97899 15.8141 2.67668 16.1164L1.55637 17.2367C0.631671 18.1614 0.631671 19.664 1.55637 20.5887L9.98538 29.0179C10.9101 29.9424 12.4127 29.9424 13.3374 29.0179L21.7665 20.5887C22.6912 19.664 22.6912 18.1614 21.7665 17.2367L21.7635 17.2397Z" fill="#7A8AA0"/>
</svg>
