<svg width="120" height="36" viewBox="0 0 120 36" fill="none" xmlns="http://www.w3.org/2000/svg">
<path d="M27.4847 0.489534C26.3664 -0.163178 24.9887 -0.163178 23.8705 0.489534L11.7569 7.5602C10.6386 8.21291 9.94977 9.41917 9.94977 10.7246V24.8659C9.94977 26.1713 10.6386 27.3776 11.7569 28.0303L13.8054 29.226C15.0013 28.7452 16.2641 28.1996 17.5798 27.5935L13.3997 25.1536C13.298 25.0943 13.2354 24.9846 13.2354 24.8659V13.1937L24.078 20.5837V24.3267C25.158 23.7408 26.2552 23.1249 27.3637 22.4807V20.3598L38.1197 13.0288V15.45C39.3096 14.5664 40.409 13.7039 41.4054 12.8747V10.7246C41.4054 9.56522 40.862 8.48406 39.9571 7.79942L36.0409 5.51355L36.0719 5.5019L27.4847 0.489534Z" fill="#7A8AA0"/>
<path fill-rule="evenodd" clip-rule="evenodd" d="M41.4054 14.1589C40.3981 14.9766 39.2991 15.8214 38.1197 16.6829C35.2068 18.8106 31.8031 21.0404 28.0772 23.2152C27.8389 23.3544 27.601 23.4922 27.3637 23.6288C26.2551 24.2666 25.1579 24.8764 24.078 25.4564C22.198 26.466 20.3703 27.3852 18.6257 28.204C17.3301 28.8121 16.0802 29.3649 14.8889 29.8584C13.4842 30.4403 12.1609 30.9398 10.9394 31.3503C8.61354 32.1319 6.74058 32.5622 5.41547 32.6579C4.79046 32.7031 4.37052 32.6669 4.11609 32.6063C4.19141 32.3533 4.37038 31.9675 4.72155 31.4428C5.46609 30.3305 6.77124 28.9058 8.60368 27.2603C8.71176 27.1632 8.82144 27.0656 8.9327 26.9674V22.646C8.0288 23.375 7.1894 24.0874 6.4217 24.7768C4.50447 26.4985 2.96775 28.136 2.0004 29.5812C1.51892 30.3005 1.12414 31.0516 0.926945 31.8021C0.728088 32.5588 0.693455 33.4763 1.1765 34.3221C1.65955 35.168 2.46276 35.5964 3.21045 35.8007C3.95188 36.0033 4.79267 36.0332 5.64959 35.9713C7.37126 35.8469 9.54233 35.3202 11.9758 34.5024C16.8688 32.8581 23.1616 29.9201 29.72 26.092C36.0113 22.4198 41.4788 18.552 45.3167 15.1871C45.5652 15.2479 45.8248 15.2801 46.0918 15.2801C47.9064 15.2801 49.3775 13.7929 49.3775 11.9583C49.3775 11.6959 49.3474 11.4405 49.2904 11.1956C49.6403 10.7696 49.9508 10.3559 50.2179 9.95689C50.6994 9.23756 51.0942 8.48647 51.2914 7.73602C51.4902 6.97924 51.5248 6.0618 51.0418 5.21594C50.5588 4.37008 49.7555 3.94168 49.0079 3.7374C48.2664 3.53483 47.4256 3.50493 46.5687 3.56682C44.847 3.69116 42.676 4.21788 40.2425 5.03565C39.6325 5.24067 39.0006 5.4658 38.3493 5.71026L41.5233 7.56294C41.7039 7.66835 41.864 7.80024 41.9998 7.95216C43.9939 7.31914 45.6175 6.96574 46.8028 6.88014C47.4278 6.835 47.8478 6.87119 48.1022 6.93176C48.0269 7.18482 47.8479 7.5706 47.4967 8.09525C47.3543 8.30809 47.1913 8.53236 47.008 8.76743C46.7172 8.68224 46.4098 8.63657 46.0918 8.63657C44.2772 8.63657 42.8062 10.1238 42.8062 11.9583C42.8062 12.2775 42.8507 12.5861 42.9338 12.8783C42.4514 13.2964 41.9414 13.7238 41.4054 14.1589ZM4.07452 32.8123L4.0746 32.8143L4.07471 32.815C4.07471 32.815 4.07487 32.8127 4.07455 32.8086L4.07452 32.8123ZM48.3017 6.99988C48.3017 6.99988 48.2996 6.99888 48.2963 6.99653C48.3001 6.99864 48.3017 6.99988 48.3017 6.99988ZM48.1435 6.72516C48.1435 6.72621 48.1436 6.72765 48.1438 6.72947C48.1439 6.72507 48.1436 6.72309 48.1436 6.72309L48.1435 6.72397L48.1435 6.72516ZM3.91865 32.5396L3.92205 32.5416C3.91867 32.5392 3.91665 32.5382 3.91665 32.5382L3.91712 32.5386L3.91865 32.5396Z" fill="#7A8AA0"/>
<path d="M24.078 30.3231C25.1576 29.7682 26.2547 29.1839 27.3637 28.5722V31.336L37.9554 25.1536C38.0571 25.0943 38.1197 24.9846 38.1197 24.8659V21.9542C39.2697 21.1642 40.3674 20.3787 41.4054 19.6042V24.8659C41.4054 26.1713 40.7165 27.3776 39.5982 28.0303L27.4847 35.101C26.3664 35.7537 24.9887 35.7537 23.8705 35.101L19.4991 32.5494C20.6696 32.0143 21.8741 31.4361 23.1041 30.818L24.078 31.3865V30.3231Z" fill="#7A8AA0"/>
<path d="M114.287 18.5441C112.956 18.5441 111.831 18.2435 110.914 17.6425C109.996 17.0415 109.343 16.2119 108.956 15.1535L111.243 13.8013C111.773 15.1993 112.813 15.8983 114.364 15.8983C115.088 15.8983 115.631 15.7676 115.993 15.5063C116.354 15.245 116.535 14.8922 116.535 14.448C116.535 13.9646 116.322 13.5922 115.896 13.3309C115.469 13.0565 114.707 12.7625 113.608 12.449C112.419 12.0831 111.482 11.6585 110.797 11.1751C109.944 10.5349 109.518 9.59413 109.518 8.3529C109.518 7.09861 109.951 6.11215 110.817 5.39355C111.683 4.64881 112.736 4.27644 113.977 4.27644C115.062 4.27644 116.025 4.54428 116.865 5.07997C117.705 5.61566 118.358 6.37347 118.823 7.35338L116.574 8.66648C116.031 7.49057 115.165 6.90262 113.977 6.90262C113.434 6.90262 113.001 7.03328 112.678 7.29459C112.355 7.54284 112.193 7.86948 112.193 8.27451C112.193 8.70567 112.368 9.05844 112.716 9.33282C113.104 9.6072 113.789 9.89464 114.771 10.1951L115.702 10.5087C115.87 10.561 116.161 10.672 116.574 10.8419C116.962 10.9856 117.246 11.1228 117.427 11.2535C118.06 11.6454 118.487 12.0505 118.707 12.4686C119.043 13.0173 119.211 13.6641 119.211 14.4088C119.211 15.6762 118.752 16.6822 117.834 17.427C116.917 18.1717 115.734 18.5441 114.287 18.5441Z" fill="#7A8AA0"/>
<path d="M64.9097 18.2697L59.695 11.2143L64.7158 4.55082H61.6336L56.9811 10.6067V4.55082H54.3059V18.2697H56.9811V11.8414L61.8274 18.2697H64.9097Z" fill="#7A8AA0"/>
<path d="M70.5784 17.2506C71.5477 18.1129 72.7883 18.5441 74.3004 18.5441C75.8254 18.5441 77.0725 18.1129 78.0418 17.2506C79.011 16.3882 79.4957 15.2319 79.4957 13.7817V4.55082H76.8205V13.5661C76.8205 14.2977 76.6073 14.8726 76.1808 15.2907C75.7672 15.6958 75.1404 15.8983 74.3004 15.8983C73.4604 15.8983 72.8271 15.6958 72.4006 15.2907C71.9871 14.8726 71.7803 14.2977 71.7803 13.5661V4.55082H69.1245V13.7817C69.1245 15.2319 69.6092 16.3882 70.5784 17.2506Z" fill="#7A8AA0"/>
<path d="M90.909 11.2143L96.1236 18.2697H93.0413L88.195 11.8414V18.2697H85.5198V4.55082H88.195V10.6067L92.8475 4.55082H95.9297L90.909 11.2143Z" fill="#7A8AA0"/>
<path d="M101.061 4.55082V18.2697H103.736V4.55082H101.061Z" fill="#7A8AA0"/>
<path d="M59.0352 27.2493H63.6076V27.804C63.6076 29.0103 63.1983 30.0141 62.3796 30.8154C61.5609 31.6078 60.4766 32.0041 59.1266 32.0041C57.7331 32.0041 56.5791 31.5418 55.6646 30.6173C54.7588 29.6751 54.3059 28.5392 54.3059 27.2096C54.3059 25.8801 54.7588 24.7486 55.6646 23.8152C56.5791 22.8819 57.7244 22.4152 59.1005 22.4152C59.9366 22.4152 60.7117 22.6221 61.4259 23.036C62.1488 23.4498 62.6931 23.9869 63.0589 24.6473L62.0138 25.2681C61.7525 24.7662 61.3562 24.3656 60.825 24.0662C60.2937 23.758 59.7145 23.6039 59.0874 23.6039C58.0336 23.6039 57.1757 23.9517 56.5138 24.6473C55.8431 25.3429 55.5078 26.1971 55.5078 27.2096C55.5078 28.2222 55.8431 29.0763 56.5138 29.772C57.1931 30.4588 58.0684 30.8022 59.1397 30.8022C60.0368 30.8022 60.7683 30.582 61.3345 30.1418C61.9093 29.6927 62.262 29.0984 62.3927 28.3587H59.0352V27.2493Z" fill="#7A8AA0"/>
<path d="M69.566 22.5869V30.6701H73.5114V31.8324H68.351V22.5869H69.566Z" fill="#7A8AA0"/>
<path fill-rule="evenodd" clip-rule="evenodd" d="M78.2593 23.8152C77.3448 24.7398 76.8876 25.8713 76.8876 27.2096C76.8876 28.5304 77.3448 29.6619 78.2593 30.604C79.1738 31.5374 80.293 32.0041 81.6168 32.0041C82.9406 32.0041 84.0598 31.5374 84.9743 30.604C85.8975 29.6707 86.3591 28.5392 86.3591 27.2096C86.3591 25.8713 85.8975 24.7398 84.9743 23.8152C84.0598 22.8819 82.9406 22.4152 81.6168 22.4152C80.293 22.4152 79.1738 22.8819 78.2593 23.8152ZM84.1251 24.6473C84.8045 25.3341 85.1441 26.1882 85.1441 27.2096C85.1441 28.2134 84.8045 29.0675 84.1251 29.772C83.4632 30.4588 82.6271 30.8022 81.6168 30.8022C80.6152 30.8022 79.7747 30.4588 79.0954 29.772C78.4248 29.0675 78.0895 28.2134 78.0895 27.2096C78.0895 26.1971 78.4248 25.3429 79.0954 24.6473C79.7747 23.9517 80.6152 23.6039 81.6168 23.6039C82.6271 23.6039 83.4632 23.9517 84.1251 24.6473Z" fill="#7A8AA0"/>
<path fill-rule="evenodd" clip-rule="evenodd" d="M96.3114 27.0379C96.7382 27.2493 97.0735 27.5442 97.3174 27.9229C97.5612 28.3015 97.6832 28.7329 97.6832 29.2172C97.6832 29.9569 97.4262 30.5776 96.9124 31.0795C96.3985 31.5814 95.7715 31.8324 95.0312 31.8324H91.0858V22.5869H94.7437C95.4666 22.5869 96.0719 22.8291 96.5597 23.3134C97.0561 23.7976 97.3043 24.3964 97.3043 25.1096C97.3043 25.9373 96.9734 26.5801 96.3114 27.0379ZM94.7437 23.736H92.3007V26.5625H94.7437C95.127 26.5625 95.4492 26.426 95.7105 26.153C95.9718 25.8801 96.1024 25.5455 96.1024 25.1492C96.1024 24.7618 95.9674 24.4316 95.6974 24.1586C95.4361 23.8769 95.1182 23.736 94.7437 23.736ZM92.3007 30.6833H95.0312C95.4405 30.6833 95.7845 30.538 96.0632 30.2474C96.3419 29.9569 96.4813 29.6003 96.4813 29.1776C96.4813 28.7638 96.3376 28.4116 96.0502 28.121C95.7802 27.8304 95.4405 27.6851 95.0312 27.6851H92.3007V30.6833Z" fill="#7A8AA0"/>
<path fill-rule="evenodd" clip-rule="evenodd" d="M108.412 31.8324H109.705L106.296 22.5869H104.924L101.514 31.8324H102.807L103.552 29.7587H107.667L108.412 31.8324ZM103.97 28.6097L105.603 24.053L107.249 28.6097H103.97Z" fill="#7A8AA0"/>
<path d="M115.265 22.5869V30.6701H119.21V31.8324H114.05V22.5869H115.265Z" fill="#7A8AA0"/>
</svg>
