<svg width="270" height="61" viewBox="0 0 270 61" fill="none" xmlns="http://www.w3.org/2000/svg">
<path d="M76.6803 53.2201C74.0403 53.2201 72.031 52.6188 70.6523 51.4161C69.303 50.2135 68.5256 48.6148 68.3203 46.6201H73.1603C73.2776 47.2948 73.6003 47.8668 74.1283 48.3361C74.6563 48.8055 75.3603 49.0401 76.2403 49.0401C77.1203 49.0401 77.8096 48.8201 78.3083 48.3801C78.8363 47.9108 79.1003 47.3975 79.1003 46.8401C79.1003 46.3708 78.8363 46.0041 78.3083 45.7401C77.8096 45.4761 77.179 45.2415 76.4163 45.0361C75.6536 44.8015 74.8176 44.5668 73.9083 44.3321C73.0283 44.0975 72.207 43.7601 71.4443 43.3201C70.6816 42.8508 70.0363 42.2641 69.5083 41.5601C69.0096 40.8268 68.7603 39.8735 68.7603 38.7001C68.7603 37.8788 68.9216 37.1015 69.2443 36.3681C69.5963 35.6055 70.095 34.9455 70.7403 34.3881C71.3856 33.8308 72.1483 33.3908 73.0283 33.0681C73.9083 32.7161 74.9056 32.5401 76.0203 32.5401C78.455 32.5401 80.3176 33.1268 81.6083 34.3001C82.9283 35.4735 83.7056 36.9401 83.9403 38.7001H79.1003C78.983 38.2601 78.6603 37.8201 78.1323 37.3801C77.6336 36.9401 77.003 36.7201 76.2403 36.7201C75.4776 36.7201 74.8763 36.9108 74.4363 37.2921C74.0256 37.6735 73.8203 38.1428 73.8203 38.7001C73.8203 39.1695 74.0696 39.5361 74.5683 39.8001C75.0963 40.0641 75.7416 40.3135 76.5043 40.5481C77.267 40.7535 78.0883 40.9881 78.9683 41.2521C79.8776 41.4868 80.7136 41.8388 81.4763 42.3081C82.239 42.7775 82.8696 43.3935 83.3683 44.1561C83.8963 44.8895 84.1603 45.8575 84.1603 47.0601C84.1603 47.8815 83.9843 48.6735 83.6323 49.4361C83.2803 50.1695 82.7816 50.8148 82.1363 51.3721C81.491 51.9295 80.699 52.3841 79.7603 52.7361C78.851 53.0588 77.8243 53.2201 76.6803 53.2201Z" fill="#273852"/>
<path d="M87.8969 32.7601H92.9569V53.0001H87.8969V32.7601ZM90.5369 30.3401C89.7742 30.3401 89.0995 30.0615 88.5129 29.5041C87.9555 28.9175 87.6769 28.2428 87.6769 27.4801C87.6769 26.7175 87.9555 26.0575 88.5129 25.5001C89.0995 24.9135 89.7742 24.6201 90.5369 24.6201C91.2995 24.6201 91.9595 24.9135 92.5169 25.5001C93.1035 26.0575 93.3969 26.7175 93.3969 27.4801C93.3969 28.2428 93.1035 28.9175 92.5169 29.5041C91.9595 30.0615 91.2995 30.3401 90.5369 30.3401Z" fill="#273852"/>
<path d="M106.58 60.4801C104.702 60.4801 103.177 60.1428 102.004 59.4681C100.86 58.7934 99.9504 58.0308 99.2757 57.1801C98.513 56.2121 97.941 55.1121 97.5597 53.8801H102.62C102.825 54.2615 103.104 54.5988 103.456 54.8921C103.778 55.1268 104.189 55.3468 104.688 55.5521C105.186 55.7575 105.817 55.8601 106.58 55.8601C108.017 55.8601 109.146 55.4641 109.968 54.6721C110.789 53.9095 111.2 52.9121 111.2 51.6801V50.1401C110.789 50.5508 110.32 50.9175 109.792 51.2401C109.322 51.5335 108.765 51.7975 108.12 52.0321C107.474 52.2375 106.741 52.3401 105.92 52.3401C104.658 52.3401 103.456 52.0908 102.312 51.5921C101.197 51.0935 100.214 50.4041 99.3637 49.5241C98.5424 48.6441 97.8824 47.6028 97.3837 46.4001C96.9144 45.1975 96.6797 43.8775 96.6797 42.4401C96.6797 41.0028 96.9144 39.6828 97.3837 38.4801C97.8824 37.2775 98.5424 36.2361 99.3637 35.3561C100.214 34.4761 101.197 33.7868 102.312 33.2881C103.456 32.7895 104.658 32.5401 105.92 32.5401C106.8 32.5401 107.592 32.6575 108.296 32.8921C109 33.1268 109.601 33.3761 110.1 33.6401C110.657 33.9628 111.17 34.3295 111.64 34.7401L112.52 32.7601H116.26V51.6801C116.26 54.3201 115.409 56.4468 113.708 58.0601C112.036 59.6735 109.66 60.4801 106.58 60.4801ZM106.58 47.5001C107.225 47.5001 107.841 47.3681 108.428 47.1041C109.014 46.8401 109.528 46.4881 109.968 46.0481C110.408 45.5788 110.76 45.0361 111.024 44.4201C111.288 43.8041 111.42 43.1441 111.42 42.4401C111.42 41.7361 111.288 41.0761 111.024 40.4601C110.76 39.8441 110.408 39.3161 109.968 38.8761C109.528 38.4068 109.014 38.0401 108.428 37.7761C107.841 37.5121 107.225 37.3801 106.58 37.3801C105.905 37.3801 105.274 37.5121 104.688 37.7761C104.101 38.0401 103.588 38.4068 103.148 38.8761C102.708 39.3161 102.356 39.8441 102.092 40.4601C101.857 41.0761 101.74 41.7361 101.74 42.4401C101.74 43.1441 101.857 43.8041 102.092 44.4201C102.356 45.0361 102.708 45.5788 103.148 46.0481C103.588 46.4881 104.101 46.8401 104.688 47.1041C105.274 47.3681 105.905 47.5001 106.58 47.5001Z" fill="#273852"/>
<path d="M121.112 32.7601H124.852L125.732 34.7401C126.142 34.3295 126.597 33.9628 127.096 33.6401C127.506 33.3761 128.005 33.1268 128.592 32.8921C129.178 32.6575 129.838 32.5401 130.572 32.5401C131.598 32.5401 132.478 32.6868 133.212 32.9801C133.945 33.2441 134.546 33.5375 135.016 33.8601C135.544 34.2415 135.969 34.6815 136.292 35.1801C136.761 34.6815 137.304 34.2415 137.92 33.8601C138.448 33.5375 139.078 33.2441 139.812 32.9801C140.545 32.6868 141.352 32.5401 142.232 32.5401C144.432 32.5401 146.192 33.2441 147.512 34.6521C148.832 36.0601 149.492 38.1428 149.492 40.9001V53.0001H144.432V41.3401C144.432 40.1081 144.094 39.1401 143.42 38.4361C142.774 37.7321 142.012 37.3801 141.132 37.3801C140.252 37.3801 139.474 37.7321 138.8 38.4361C138.154 39.1401 137.832 40.1081 137.832 41.3401V53.0001H132.772V41.3401C132.772 40.1081 132.434 39.1401 131.76 38.4361C131.114 37.7321 130.352 37.3801 129.472 37.3801C128.592 37.3801 127.814 37.7321 127.14 38.4361C126.494 39.1401 126.172 40.1081 126.172 41.3401V53.0001H121.112V32.7601Z" fill="#273852"/>
<path d="M160.052 53.2201C157.852 53.2201 156.165 52.6921 154.992 51.6361C153.818 50.5508 153.232 49.1721 153.232 47.5001C153.232 46.5028 153.422 45.5935 153.804 44.7721C154.214 43.9215 154.889 43.2028 155.828 42.6161C156.766 42.0001 157.998 41.5308 159.524 41.2081C161.078 40.8561 163.014 40.6801 165.332 40.6801C165.332 39.5655 165.024 38.7001 164.408 38.0841C163.821 37.4681 163.029 37.1601 162.032 37.1601C161.357 37.1601 160.814 37.2775 160.404 37.5121C160.022 37.7468 159.714 37.9961 159.48 38.2601C159.216 38.5828 159.04 38.9495 158.952 39.3601H153.892C154.009 38.4215 154.273 37.5415 154.684 36.7201C155.124 35.8988 155.71 35.1801 156.444 34.5641C157.177 33.9481 158.042 33.4641 159.04 33.1121C160.066 32.7308 161.21 32.5401 162.472 32.5401C163.616 32.5401 164.672 32.7455 165.64 33.1561C166.608 33.5375 167.444 34.0801 168.148 34.7841C168.852 35.4881 169.394 36.3241 169.776 37.2921C170.186 38.2601 170.392 39.3161 170.392 40.4601V53.0001H166.652L165.772 51.0201C165.302 51.4308 164.789 51.7975 164.232 52.1201C163.733 52.4135 163.132 52.6775 162.428 52.9121C161.724 53.1175 160.932 53.2201 160.052 53.2201ZM160.932 49.2601C162.252 49.2601 163.308 48.8788 164.1 48.1161C164.921 47.3241 165.332 46.3121 165.332 45.0801V44.2001C163.836 44.2001 162.633 44.2735 161.724 44.4201C160.814 44.5375 160.096 44.7281 159.568 44.9921C159.069 45.2268 158.732 45.5201 158.556 45.8721C158.38 46.2241 158.292 46.6201 158.292 47.0601C158.292 47.6175 158.541 48.1308 159.04 48.6001C159.538 49.0401 160.169 49.2601 160.932 49.2601Z" fill="#273852"/>
<path d="M175.435 33.2001H177.855L178.735 35.4001C179.145 34.9601 179.644 34.5641 180.231 34.2121C180.729 33.8895 181.345 33.6108 182.079 33.3761C182.812 33.1121 183.677 32.9801 184.675 32.9801C185.936 32.9801 187.124 33.2295 188.239 33.7281C189.383 34.2268 190.365 34.9308 191.187 35.8401C192.037 36.7201 192.697 37.7761 193.167 39.0081C193.665 40.2401 193.915 41.6041 193.915 43.1001C193.915 44.5961 193.665 45.9601 193.167 47.1921C192.697 48.4241 192.037 49.4948 191.187 50.4041C190.365 51.2841 189.383 51.9735 188.239 52.4721C187.124 52.9708 185.936 53.2201 184.675 53.2201C183.677 53.2201 182.812 53.0881 182.079 52.8241C181.345 52.5308 180.729 52.2228 180.231 51.9001C179.644 51.5188 179.145 51.0788 178.735 50.5801V60.0401H175.435V33.2001ZM184.455 50.1401C185.276 50.1401 186.053 49.9788 186.787 49.6561C187.549 49.3041 188.209 48.8201 188.767 48.2041C189.324 47.5881 189.764 46.8548 190.087 46.0041C190.439 45.1241 190.615 44.1561 190.615 43.1001C190.615 42.0441 190.439 41.0908 190.087 40.2401C189.764 39.3601 189.324 38.6121 188.767 37.9961C188.209 37.3801 187.549 36.9108 186.787 36.5881C186.053 36.2361 185.276 36.0601 184.455 36.0601C183.633 36.0601 182.841 36.2361 182.079 36.5881C181.345 36.9108 180.7 37.3801 180.143 37.9961C179.585 38.6121 179.131 39.3601 178.779 40.2401C178.456 41.0908 178.295 42.0441 178.295 43.1001C178.295 44.1561 178.456 45.1241 178.779 46.0041C179.131 46.8548 179.585 47.5881 180.143 48.2041C180.7 48.8201 181.345 49.3041 182.079 49.6561C182.841 49.9788 183.633 50.1401 184.455 50.1401Z" fill="#273852"/>
<path d="M198.294 33.2001H200.714L201.594 35.4001C202.005 34.9601 202.489 34.5641 203.046 34.2121C203.545 33.8895 204.146 33.6108 204.85 33.3761C205.554 33.1121 206.375 32.9801 207.314 32.9801H207.754V36.2801H206.874C205.319 36.2801 204.043 36.7788 203.046 37.7761C202.078 38.7735 201.594 40.1081 201.594 41.7801V53.0001H198.294V33.2001Z" fill="#273852"/>
<path d="M211.485 33.2001H214.785V53.0001H211.485V33.2001ZM213.113 29.6801C212.527 29.6801 212.028 29.4895 211.617 29.1081C211.236 28.6975 211.045 28.1988 211.045 27.6121C211.045 26.9961 211.236 26.4975 211.617 26.1161C212.028 25.7055 212.527 25.5001 213.113 25.5001C213.729 25.5001 214.228 25.7055 214.609 26.1161C215.02 26.4975 215.225 26.9961 215.225 27.6121C215.225 28.1988 215.02 28.6975 214.609 29.1081C214.228 29.4895 213.729 29.6801 213.113 29.6801Z" fill="#273852"/>
<path d="M220.509 33.2001H222.929L223.809 35.4001C224.131 34.9601 224.527 34.5641 224.997 34.2121C225.407 33.8895 225.906 33.6108 226.493 33.3761C227.079 33.1121 227.798 32.9801 228.649 32.9801C229.646 32.9801 230.482 33.1708 231.157 33.5521C231.861 33.9041 232.433 34.3001 232.873 34.7401C233.401 35.2681 233.826 35.8548 234.149 36.5001C234.53 35.8548 234.999 35.2681 235.557 34.7401C236.055 34.3001 236.671 33.9041 237.405 33.5521C238.138 33.1708 239.033 32.9801 240.089 32.9801C240.969 32.9801 241.805 33.1708 242.597 33.5521C243.389 33.9041 244.093 34.4321 244.709 35.1361C245.325 35.8401 245.809 36.7055 246.161 37.7321C246.513 38.7295 246.689 39.8588 246.689 41.1201V53.0001H243.389V41.1201C243.389 39.4481 243.007 38.1868 242.245 37.3361C241.482 36.4855 240.543 36.0601 239.429 36.0601C238.314 36.0601 237.331 36.5148 236.481 37.4241C235.659 38.3335 235.249 39.5655 235.249 41.1201V53.0001H231.949V41.1201C231.949 39.4481 231.567 38.1868 230.805 37.3361C230.042 36.4855 229.103 36.0601 227.989 36.0601C227.461 36.0601 226.933 36.1921 226.405 36.4561C225.906 36.6908 225.466 37.0428 225.085 37.5121C224.703 37.9521 224.395 38.4801 224.161 39.0961C223.926 39.7121 223.809 40.3868 223.809 41.1201V53.0001H220.509V33.2001Z" fill="#273852"/>
<path d="M260.317 53.2201C258.997 53.2201 257.765 52.9708 256.621 52.4721C255.477 51.9735 254.465 51.2841 253.585 50.4041C252.734 49.4948 252.059 48.4241 251.561 47.1921C251.091 45.9601 250.857 44.5961 250.857 43.1001C250.857 41.6041 251.106 40.2401 251.605 39.0081C252.133 37.7761 252.822 36.7201 253.673 35.8401C254.523 34.9308 255.506 34.2268 256.621 33.7281C257.735 33.2295 258.894 32.9801 260.097 32.9801C261.299 32.9801 262.443 33.2148 263.529 33.6841C264.643 34.1535 265.611 34.8281 266.433 35.7081C267.254 36.5588 267.899 37.6001 268.369 38.8321C268.867 40.0348 269.117 41.3841 269.117 42.8801C269.117 43.1735 269.102 43.4228 269.073 43.6281C269.043 43.8335 269.014 44.0095 268.985 44.1561C268.955 44.3321 268.926 44.4935 268.897 44.6401H254.377C254.435 45.3441 254.626 46.0335 254.949 46.7081C255.301 47.3828 255.741 47.9694 256.269 48.4681C256.797 48.9668 257.413 49.3775 258.117 49.7001C258.821 49.9935 259.554 50.1401 260.317 50.1401C260.962 50.1401 261.549 50.0521 262.077 49.8761C262.605 49.7001 263.059 49.4948 263.441 49.2601C263.851 49.0254 264.189 48.7761 264.453 48.5121C264.746 48.2188 264.981 47.9548 265.157 47.7201H268.677C268.354 48.4241 267.943 49.1134 267.445 49.7881C266.946 50.4628 266.345 51.0495 265.641 51.5481C264.966 52.0468 264.174 52.4575 263.265 52.7801C262.385 53.0735 261.402 53.2201 260.317 53.2201ZM265.817 41.7801C265.699 40.9588 265.465 40.1961 265.113 39.4921C264.79 38.7881 264.365 38.1868 263.837 37.6881C263.338 37.1895 262.766 36.7935 262.121 36.5001C261.475 36.2068 260.801 36.0601 260.097 36.0601C259.393 36.0601 258.718 36.2068 258.073 36.5001C257.427 36.7935 256.841 37.1895 256.313 37.6881C255.814 38.1868 255.389 38.7881 255.037 39.4921C254.714 40.1961 254.494 40.9588 254.377 41.7801H265.817Z" fill="#273852"/>
<path fill-rule="evenodd" clip-rule="evenodd" d="M59 0H53V17H59V0ZM10 33C10 27.4772 14.4772 23 20 23H30V35H29.8C28.8734 39.5645 24.8379 43 20 43C14.4772 43 10 38.5229 10 33ZM20 53C30.3707 53 38.8978 45.1066 39.9012 35H40V23H49V13H32H20C8.9543 13 0 21.9543 0 33C0 44.0457 8.9543 53 20 53Z" fill="black"/>
</svg>
