<svg width="283" height="53" viewBox="0 0 283 53" fill="none" xmlns="http://www.w3.org/2000/svg">
<path d="M47.4052 26.5695C47.4077 22.4614 46.215 18.4415 43.9727 15.0008L52.3075 6.65791L46.045 0.391113L37.7193 8.73404C34.2814 6.4898 30.2655 5.29489 26.1611 5.29489C22.0566 5.29489 18.0408 6.4898 14.6028 8.73404L6.25886 0.391113L0 6.65791L8.33481 15.0008C6.09313 18.442 4.8996 22.4614 4.8996 26.5695C4.8996 30.6775 6.09313 34.6969 8.33481 38.1381L0 46.4847L6.26069 52.7496L14.5955 44.4067C18.0333 46.6506 22.0488 47.8453 26.1529 47.8453C30.2569 47.8453 34.2724 46.6506 37.7102 44.4067L46.0468 52.7496L52.3075 46.4847L43.9709 38.1472C46.2152 34.7046 47.4086 30.682 47.4052 26.5713V26.5695ZM13.7556 26.5695C13.753 24.7186 14.1641 22.8906 14.9586 21.2194C15.7532 19.5482 16.9112 18.076 18.3478 16.9108C19.7843 15.7455 21.4631 14.9167 23.2611 14.485C25.0592 14.0532 26.9309 14.0296 28.7393 14.4157C30.5476 14.8019 32.2468 15.588 33.7123 16.7166C35.1778 17.8452 36.3725 19.2876 37.209 20.9382C38.0455 22.5888 38.5025 24.4059 38.5465 26.2562C38.5906 28.1065 38.2206 29.9432 37.4637 31.6319L29.2841 23.4351L23.0216 29.7038L31.2012 37.8914C29.315 38.7399 27.2463 39.1017 25.1844 38.9436C23.1224 38.7856 21.1329 38.1127 19.3977 36.9866C17.6625 35.8605 16.237 34.317 15.2514 32.4973C14.2657 30.6775 13.7515 28.6395 13.7556 26.5695Z" fill="#4CBBFD"/>
<path fill-rule="evenodd" clip-rule="evenodd" d="M92.4272 26.8199C92.4272 31.9371 89.8345 36.5591 85.2189 38.6919L87.6691 41.8902L82.6263 44.4488L79.2522 39.9712H79.1463C70.8023 39.9712 65.8672 33.8927 65.8672 26.8199C65.8672 19.7471 70.8023 13.6704 79.1463 13.6704C87.4902 13.6704 92.4272 19.7471 92.4272 26.8199ZM79.1463 34.8174C83.8696 34.8174 86.4258 31.1568 86.4258 26.8199C86.4258 22.4849 83.8696 18.8224 79.1463 18.8224C74.3882 18.8224 71.8321 22.4849 71.8668 26.8199C71.8321 31.1568 74.3882 34.8174 79.1463 34.8174ZM101.73 39.7227C97.6107 39.7227 95.4087 37.164 95.4087 32.7193V22.1285H100.912V31.5113C100.912 33.8579 101.693 35.1372 103.753 35.1372C106.06 35.1372 107.056 33.6441 107.056 31.334V22.1285H112.453V39.2603H107.056V36.8077C106.097 38.6206 104.32 39.7227 101.73 39.7227ZM123.78 39.7227C118.668 39.7227 115.719 35.8482 115.719 30.6944C115.719 25.5771 118.878 21.6661 123.851 21.6661C126.334 21.6661 128.288 22.8394 129.212 24.5811V22.1285H134.609V39.2603H129.212V36.8424C128.288 38.5493 126.159 39.7227 123.78 39.7227ZM125.341 35.2085C128.04 35.2085 129.425 33.1817 129.425 30.6944C129.425 28.2418 128.04 26.2168 125.341 26.2168C122.821 26.2168 121.259 28.0992 121.259 30.6944C121.259 33.2896 122.821 35.2085 125.341 35.2085ZM139.119 22.1285H144.55V24.6158C145.545 22.6969 147.499 21.6661 150.09 21.6661C154.245 21.6661 156.34 24.0127 156.34 28.6676V39.2603H150.871V30.4458C150.871 27.5674 150.055 26.2515 147.853 26.2515C145.688 26.2515 144.55 27.6734 144.55 30.3033V39.2584H139.119V22.1285ZM169.655 35.0312C170.331 35.0312 171.039 34.9947 171.536 34.9234V39.2603C170.756 39.4028 169.478 39.5436 167.915 39.5436C165.359 39.5436 161.843 38.977 161.843 33.253V26.4288H159.144V22.1285H161.843V17.0478H167.276V22.1285H171.147V26.4288H167.276V32.1162C167.276 34.6383 168.306 35.0312 169.655 35.0312ZM181.514 39.7939C176.507 39.7939 173.418 37.3413 173.418 34.1065H178.815C178.815 35.2798 179.953 36.1314 181.621 36.1314C182.792 36.1314 183.61 35.5283 183.61 34.5323C183.61 33.8561 183.29 33.2896 182.366 33.0757L178.176 32.0102C175.335 31.2975 173.88 29.5211 173.88 27.0684C173.88 23.8702 176.685 21.6314 181.194 21.6314C186.201 21.6314 188.828 23.7276 188.828 26.9624H183.467C183.467 25.7544 182.58 25.08 181.123 25.08C179.953 25.08 179.169 25.6466 179.169 26.5001C179.169 27.2823 179.703 27.7794 180.626 28.0279L184.674 29.13C187.303 29.8427 189.007 31.44 189.007 33.8927C189.007 37.4126 186.201 39.7939 181.514 39.7939ZM201.362 35.0312C202.038 35.0312 202.748 34.9947 203.245 34.9234V39.2603C202.463 39.4028 201.185 39.5436 199.622 39.5436C197.066 39.5436 193.551 38.977 193.551 33.253V26.4288H190.853V22.1285H193.551V17.0478H198.983V22.1285H202.854V26.4288H198.983V32.1162C198.983 34.6383 200.013 35.0312 201.362 35.0312ZM213.186 39.7227C208.074 39.7227 205.127 35.8482 205.127 30.6944C205.127 25.5771 208.286 21.6661 213.257 21.6661C215.744 21.6661 217.696 22.8394 218.62 24.5811V22.1285H224.017V39.2603H218.62V36.8424C217.696 38.5493 215.565 39.7227 213.186 39.7227ZM214.749 35.2085C217.447 35.2085 218.833 33.1817 218.833 30.6944C218.833 28.2418 217.447 26.2168 214.749 26.2168C212.229 26.2168 210.666 28.0992 210.666 30.6944C210.666 33.2896 212.227 35.2085 214.749 35.2085ZM228.526 22.1285H233.958V24.6158C234.705 22.9107 236.48 21.6661 238.859 21.6661C241.911 21.6661 243.474 23.0185 244.221 24.8297C245.143 22.982 247.168 21.6679 249.688 21.6679C254.588 21.6679 255.76 25.0435 255.76 28.6329V39.2603H250.292V29.6289C250.292 27.2476 249.405 26.2515 247.736 26.2515C246.03 26.2515 244.86 27.211 244.86 30.4458V39.2603H239.392V29.5923C239.392 27.211 238.539 26.2515 236.87 26.2515C235.13 26.2515 233.958 27.211 233.958 30.4458V39.2603H228.526V22.1285ZM260.058 22.1285H265.49V24.5811C266.377 22.9454 268.508 21.6661 271.064 21.6661C275.751 21.6661 278.946 25.292 278.946 30.6944C278.946 36.062 275.645 39.7227 270.922 39.7227C268.402 39.7227 266.341 38.4433 265.49 36.8424V46.3678H260.056V22.1285H260.058ZM269.359 35.2085C271.738 35.2085 273.407 33.3608 273.407 30.6944C273.407 28.0627 271.738 26.2168 269.359 26.2168C266.909 26.2168 265.24 28.0279 265.24 30.6944C265.24 33.3956 266.945 35.2085 269.359 35.2085ZM280.378 25.6886C279.953 25.6984 279.535 25.5916 279.167 25.3798C278.829 25.181 278.554 24.8909 278.373 24.5427C278.185 24.1773 278.089 23.7712 278.095 23.3603C278.095 22.9326 278.187 22.5415 278.373 22.1888C278.557 21.8342 278.822 21.5564 279.167 21.3499C279.535 21.1381 279.953 21.0312 280.378 21.0411C280.834 21.0411 281.236 21.1452 281.583 21.3518C281.929 21.5564 282.196 21.8342 282.38 22.1888C282.567 22.5415 282.66 22.9326 282.66 23.3603C282.66 23.7952 282.567 24.1882 282.38 24.5427C282.199 24.8917 281.922 25.1819 281.583 25.3798C281.236 25.5863 280.834 25.6904 280.378 25.6904V25.6886ZM280.378 25.3067C280.746 25.3067 281.071 25.2189 281.349 25.0453C281.624 24.8755 281.845 24.6316 281.988 24.3417C282.134 24.0474 282.207 23.7203 282.207 23.3603C282.207 23.0075 282.134 22.6841 281.988 22.388C281.842 22.0883 281.612 21.8376 281.326 21.6663C281.04 21.495 280.71 21.4105 280.378 21.423C280.035 21.4153 279.697 21.506 279.404 21.6844C279.13 21.8552 278.908 22.0988 278.763 22.388C278.611 22.6893 278.534 23.0227 278.537 23.3603C278.537 23.7203 278.612 24.0474 278.763 24.3417C278.913 24.6378 279.129 24.8717 279.404 25.0453C279.682 25.2189 280.007 25.3067 280.378 25.3067ZM279.552 22.1011H280.507C280.75 22.1011 280.949 22.1833 281.106 22.3496C281.261 22.5141 281.34 22.7133 281.34 22.9436C281.342 23.1152 281.293 23.2835 281.197 23.4261C281.101 23.5689 280.958 23.6746 280.794 23.7258L281.323 24.5592H280.898L280.412 23.7697H279.934V24.5592H279.552V22.1011ZM280.482 23.4389C280.626 23.4389 280.741 23.3913 280.829 23.2963C280.915 23.1998 280.962 23.0735 280.958 22.9436C280.963 22.8114 280.916 22.6825 280.829 22.5835C280.785 22.536 280.731 22.4986 280.671 22.474C280.611 22.4493 280.546 22.4381 280.482 22.441H279.943V23.4389H280.482Z" fill="#273852"/>
</svg>
