<svg width="180" height="30" viewBox="0 0 180 30" fill="none" xmlns="http://www.w3.org/2000/svg">
<path d="M11.9086 12.026L12.0646 8.63579H11.8781L8.39634 14.3276H7.65025L4.01249 8.63579H3.85649L4.04302 11.6835V23.6215H0V1.85938H4.3228L8.05381 7.89027H8.1776L11.8781 1.85938H16.1692V23.6215H11.9086V12.026Z" fill="#29C278"/>
<path d="M19.2441 20.2037H24.7177V11.4971H19.2441V8.07921H28.7579V20.2037H34.5107V23.6227H19.2441V20.2037ZM23.9699 3.85024C23.9699 3.20871 24.2096 2.65932 24.6878 2.20319C25.1637 1.74706 25.8273 1.51758 26.6762 1.51758C27.5466 1.51758 28.2424 1.74706 28.7607 2.20319C29.2796 2.65932 29.539 3.20871 29.539 3.85024C29.539 4.51381 29.2796 5.05924 28.7607 5.48429C28.2436 5.90933 27.5478 6.12016 26.6762 6.12016C25.8273 6.12016 25.1637 5.90933 24.6878 5.48429C24.2085 5.05924 23.9699 4.51381 23.9699 3.85024Z" fill="#29C278"/>
<path d="M42.6261 15.6037L37.2153 8.08008H42.0349L45.5483 13.2722L49.2171 8.08008H53.6004L48.2845 15.5427L53.909 23.6236H49.2171L45.2691 17.9042L41.2583 23.6236H36.8428L42.6261 15.6037Z" fill="#29C278"/>
<path d="M71.2893 6.92771C71.2893 7.46863 71.222 8.00502 71.0864 8.54368C70.953 9.08459 70.7303 9.57351 70.4183 10.0217C70.1091 10.4666 69.7027 10.8628 69.2053 11.203C68.7068 11.5444 68.1082 11.8005 67.4011 11.9649V12.1515C68.0251 12.2543 68.6141 12.4296 69.1742 12.6816C69.7349 12.9292 70.2216 13.2712 70.637 13.7064C71.0502 14.1422 71.3769 14.6701 71.616 15.293C71.8539 15.9153 71.9732 16.6501 71.9732 17.4979C71.9732 18.6165 71.7347 19.5852 71.2559 20.4065C70.7806 21.2232 70.143 21.8942 69.3455 22.4102C68.5474 22.9279 67.6379 23.3117 66.6256 23.5604C65.6065 23.8091 64.5609 23.9335 63.4825 23.9335C63.1298 23.9335 62.6798 23.9335 62.1299 23.9335C61.5811 23.9335 60.9881 23.9199 60.3579 23.8894C59.7254 23.8555 59.0817 23.8091 58.4294 23.747C57.7783 23.6859 57.1814 23.5938 56.6416 23.4666V2.01652C57.0344 1.95378 57.4872 1.89161 57.9936 1.82887C58.5023 1.76952 59.0466 1.71865 59.6288 1.67569C60.207 1.63387 60.805 1.60278 61.4149 1.57961C62.0259 1.56209 62.6324 1.55078 63.2355 1.55078C64.2506 1.55078 65.2409 1.62709 66.2034 1.78252C67.1671 1.93796 68.0285 2.21209 68.7825 2.60605C69.5393 3.00226 70.1458 3.54996 70.6037 4.25536C71.0609 4.95849 71.2893 5.85154 71.2893 6.92771ZM62.0835 11.0013C62.378 11.0013 62.7217 10.9899 63.1122 10.9724C63.5039 10.9492 63.8272 10.9182 64.0816 10.8786C64.8831 10.631 65.5772 10.2636 66.1588 9.7702C66.7381 9.2779 67.0298 8.63298 67.0298 7.83376C67.0298 7.29963 66.9235 6.8565 66.7116 6.50889C66.499 6.16015 66.2204 5.88432 65.8728 5.67858C65.5235 5.47453 65.1278 5.32984 64.6835 5.24901C64.2398 5.16706 63.7758 5.1241 63.288 5.1241C62.7381 5.1241 62.2322 5.1354 61.7659 5.15632C61.3018 5.1761 60.9424 5.20719 60.6903 5.24675V11.0007L62.0835 11.0013ZM63.4548 20.3607C63.9719 20.3607 64.4761 20.298 64.9628 20.1731C65.4494 20.0504 65.8801 19.8616 66.252 19.6067C66.6273 19.3495 66.9252 19.0251 67.1547 18.6351C67.3825 18.2462 67.4961 17.7828 67.4961 17.2486C67.4961 16.5721 67.3616 16.0374 67.0908 15.6513C66.8201 15.2596 66.4685 14.9589 66.0322 14.743C65.5969 14.5277 65.1114 14.3897 64.5722 14.3281C64.0341 14.2677 63.4955 14.2366 62.9568 14.2366H60.688V20.1759C60.7903 20.2177 60.9559 20.2477 61.1843 20.2697C61.4121 20.2884 61.6562 20.3053 61.9151 20.3149C62.1745 20.3268 62.4436 20.3358 62.7234 20.3483C63.0043 20.3562 63.2473 20.3607 63.4548 20.3607Z" fill="#29C278"/>
<path d="M82.7295 19.242H83.9136L86.9296 8.08008H91.0947L86.6786 22.1015C86.2858 23.2619 85.9009 24.3262 85.5296 25.2865C85.1554 26.2536 84.7196 27.0873 84.2233 27.7904C83.7259 28.4969 83.1387 29.0412 82.4666 29.4233C81.7935 29.8066 80.9711 30.0004 79.9938 30.0004C79.5185 30.0004 79.0668 29.9388 78.6418 29.8139C78.2179 29.6879 77.8267 29.5403 77.4757 29.3645C77.1225 29.1859 76.8122 28.9994 76.5431 28.8039C76.2735 28.6072 76.0559 28.4252 75.8926 28.2607L77.9748 25.4922C78.2456 25.7217 78.5666 25.9325 78.9385 26.1304C79.311 26.3271 79.6637 26.4248 79.9944 26.4248C80.6178 26.4248 81.1101 26.2084 81.4724 25.7726C81.8353 25.3374 82.1823 24.6235 82.5135 23.6264H80.3064L73.8408 8.0829H78.2247L82.7295 19.242Z" fill="#29C278"/>
<path d="M95.633 11.4954H92.5576V8.07753H95.633V4.5319L99.6737 3.38281V8.07809H107.82V11.496H99.6737V15.9437C99.6737 17.5382 99.9733 18.6929 100.575 19.409C101.176 20.1263 102.017 20.4835 103.094 20.4835C103.652 20.4835 104.161 20.414 104.616 20.2812C105.073 20.1478 105.48 19.9765 105.846 19.768C106.208 19.5611 106.54 19.3322 106.84 19.0846C107.14 18.8348 107.417 18.6076 107.664 18.4013L109.529 21.1985C109.176 21.6117 108.738 21.9893 108.208 22.3335C107.679 22.6743 107.111 22.9778 106.499 23.2361C105.888 23.4933 105.25 23.6957 104.586 23.8404C103.924 23.9851 103.271 24.0585 102.626 24.0585C100.307 24.0585 98.5608 23.4108 97.388 22.1153C96.218 20.8204 95.6318 18.7624 95.6318 15.9443V11.4965L95.633 11.4954Z" fill="#29C278"/>
<path d="M127.282 21.9751C127.013 22.2244 126.666 22.4674 126.241 22.7059C125.817 22.9445 125.319 23.1683 124.749 23.3752C124.176 23.5826 123.552 23.7471 122.868 23.872C122.185 23.9969 121.457 24.0562 120.689 24.0562C119.362 24.0562 118.178 23.872 117.129 23.4978C116.083 23.127 115.197 22.5816 114.472 21.866C113.747 21.1527 113.191 20.293 112.811 19.2852C112.424 18.2831 112.234 17.138 112.234 15.8521C112.234 14.4854 112.451 13.2877 112.885 12.2601C113.321 11.2354 113.918 10.3825 114.674 9.69571C115.43 9.01349 116.318 8.5014 117.33 8.15549C118.346 7.81523 119.444 7.64453 120.627 7.64453C121.416 7.64453 122.228 7.74853 123.066 7.95597C123.906 8.16227 124.678 8.52119 125.384 9.02875C126.089 9.53519 126.664 10.2146 127.108 11.0647C127.554 11.9148 127.778 12.9932 127.778 14.2994C127.778 15.1885 127.673 16.1522 127.466 17.19H116.275C116.295 17.8541 116.433 18.4142 116.693 18.8687C116.952 19.3248 117.294 19.699 117.718 19.9872C118.142 20.2766 118.629 20.4914 119.18 20.6231C119.73 20.7582 120.314 20.8254 120.936 20.8254C122.18 20.8254 123.2 20.6808 123.997 20.3908C124.796 20.0974 125.444 19.7464 125.94 19.3333L127.282 21.9751ZM120.569 10.8759C120.029 10.8759 119.521 10.9488 119.044 11.098C118.567 11.2461 118.138 11.4615 117.755 11.748C117.369 12.0329 117.057 12.3873 116.806 12.8078C116.559 13.2306 116.415 13.7076 116.371 14.2339H124.02C124.02 13.1995 123.734 12.3805 123.163 11.7797C122.594 11.1788 121.728 10.8759 120.569 10.8759Z" fill="#29C278"/>
<path d="M141.833 19.3324C141.833 18.9187 141.58 18.5875 141.07 18.3354C140.563 18.0878 139.935 17.8595 139.191 17.6543C138.445 17.4446 137.625 17.2315 136.733 17.0139C135.843 16.7963 135.024 16.4962 134.276 16.113C133.53 15.7286 132.903 15.242 132.397 14.6524C131.889 14.0606 131.633 13.297 131.633 12.3672C131.633 11.5991 131.805 10.9242 132.146 10.346C132.487 9.76554 132.955 9.27098 133.545 8.87024C134.137 8.46384 134.841 8.15806 135.659 7.95175C136.477 7.74432 137.366 7.64258 138.319 7.64258C139.332 7.64258 140.224 7.71323 140.991 7.85793C141.758 8.00262 142.427 8.1801 142.997 8.3881C143.568 8.59441 144.053 8.82615 144.46 9.08671C144.864 9.34728 145.209 9.57789 145.501 9.78533L143.792 12.5521C143.48 12.3678 143.123 12.1756 142.721 11.9778C142.315 11.7822 141.89 11.5991 141.444 11.4346C140.999 11.2679 140.533 11.1345 140.045 11.0271C139.557 10.9242 139.075 10.8739 138.598 10.8739C137.727 10.8739 137.024 10.9875 136.485 11.217C135.947 11.4431 135.676 11.7975 135.676 12.2734C135.676 12.6476 135.929 12.9477 136.439 13.1755C136.945 13.4039 137.573 13.6158 138.32 13.8114C139.063 14.0103 139.884 14.2234 140.775 14.4518C141.666 14.6767 142.484 14.9752 143.232 15.3352C143.976 15.6987 144.606 16.1717 145.113 16.7505C145.62 17.3321 145.877 18.0777 145.877 18.9905C145.877 20.5658 145.3 21.8036 144.147 22.7051C142.997 23.6061 141.293 24.0577 139.035 24.0577C137.251 24.0577 135.713 23.7937 134.417 23.2664C133.122 22.7362 132.079 22.1207 131.293 21.4175L133.16 18.4931C133.431 18.7214 133.786 18.9758 134.232 19.2561C134.676 19.5342 135.179 19.7914 135.737 20.0192C136.297 20.2464 136.893 20.4375 137.527 20.5935C138.157 20.7489 138.786 20.8275 139.407 20.8275C140.071 20.8275 140.64 20.7138 141.118 20.4855C141.594 20.2543 141.833 19.8711 141.833 19.3324Z" fill="#29C278"/>
<path d="M162.018 0.00169554C160.682 2.42366 159.689 4.77102 159.042 7.04377C158.394 9.31369 158.068 11.5842 158.068 13.8552C158.068 16.1048 158.393 18.3758 159.042 20.6588C159.689 22.9451 160.679 25.3066 162.018 27.7381H158.556C156.946 25.3953 155.753 23.087 154.972 20.8074C154.193 18.5364 153.805 16.2139 153.805 13.8535C153.805 11.5022 154.196 9.18369 154.98 6.89737C155.767 4.61219 156.957 2.31062 158.556 0H162.018V0.00169554Z" fill="#29C278"/>
<path d="M171.397 0.00195312H174.858C176.458 2.3137 177.649 4.61414 178.433 6.89933C179.218 9.18564 179.611 11.5036 179.611 13.8555C179.611 16.2158 179.221 18.5383 178.442 20.8094C177.662 23.0878 176.469 25.3973 174.858 27.739H171.397C172.732 25.3068 173.727 22.9465 174.374 20.6607C175.022 18.3778 175.348 16.1056 175.348 13.8572C175.348 11.5861 175.023 9.31564 174.374 7.04572C173.727 4.77127 172.734 2.42392 171.397 0.00195312Z" fill="#29C278"/>
</svg>
