<svg width="138" height="22" viewBox="0 0 138 22" fill="none" xmlns="http://www.w3.org/2000/svg">
<path d="M30.3969 6.39567C31.499 6.39595 32.5653 6.79 33.4059 7.50769C34.2466 8.22542 34.8072 9.22017 34.9879 10.315L40.3076 9.07287C39.9873 7.38536 39.2456 5.8078 38.1523 4.48888C37.059 3.16998 35.6502 2.15316 34.0587 1.53428C32.4672 0.915416 30.7454 0.714883 29.0556 0.95159C27.3659 1.1883 25.7638 1.85445 24.4004 2.88724L27.7208 7.24938C28.5039 6.69333 29.4387 6.39511 30.3969 6.39567Z" fill="#7A8AA0"/>
<path d="M10.6247 6.3957C11.3762 6.39751 12.1159 6.58422 12.7793 6.93956C13.6278 7.38574 14.3206 8.08242 14.7648 8.93623L19.0166 5.71613C18.1117 4.23245 16.8465 3.00535 15.3402 2.1506L12.7793 6.93956L15.3365 2.1487C13.5959 1.16366 11.6026 0.724965 9.6126 0.888922C7.62256 1.05288 5.72664 1.81201 4.16813 3.06887C2.59383 4.32121 1.42887 6.02045 0.824006 7.9468C0.219249 9.87276 0.202175 11.9371 0.774979 13.873C1.2428 15.4759 2.09648 16.9375 3.26118 18.1273C4.42588 19.3171 5.86478 20.1982 7.44962 20.6921C9.0345 21.1861 10.7161 21.2775 12.3445 20.9583C13.973 20.639 15.4977 19.919 16.7829 18.8625L13.6066 14.6913C12.77 15.3948 11.7146 15.7798 10.6246 15.779C9.64234 15.7789 8.68514 15.4662 7.88986 14.8856C7.09457 14.3049 6.50184 13.486 6.19634 12.5458C6.043 12.0751 5.9646 11.5828 5.96398 11.0874C5.96473 10.325 6.15011 9.57442 6.50403 8.90059C6.85795 8.22675 7.36975 7.65002 7.99503 7.22039L4.16813 3.06887L7.99783 7.21477C8.77143 6.67912 9.6887 6.39342 10.6275 6.3957H10.6247Z" fill="#7A8AA0"/>
<path d="M26.3748 13.4481L22.1082 16.7178C23.3693 18.5731 25.2049 19.9556 27.3285 20.6494C27.6347 19.7062 27.992 18.6351 28.3184 17.6566C28.5864 16.8531 28.8336 16.1119 29.0146 15.5552C27.9049 15.208 26.9642 14.4564 26.3748 13.4481Z" fill="#7A8AA0"/>
<path d="M30.3969 15.779C29.9294 15.7774 29.4649 15.7042 29.0193 15.5619C28.8482 16.0864 28.6185 16.7739 28.3681 17.5233L28.3677 17.5245C28.0291 18.5378 27.6527 19.6643 27.3322 20.6541C28.8922 21.1629 30.5524 21.2781 32.167 20.9897C33.7815 20.7013 35.3011 20.0181 36.5922 19.0001L35.776 17.9814L36.5932 18.9999C37.8071 18.0549 38.7901 16.8425 39.4669 15.4557C40.1436 14.0689 40.496 12.5445 40.4973 10.9993C40.4979 10.3532 40.4357 9.70853 40.3113 9.0747L34.9916 10.315C35.0361 10.5701 35.0594 10.8283 35.0613 11.0873H35.0576C35.0584 11.8074 34.8937 12.5178 34.5765 13.1632C34.2598 13.8076 33.7994 14.3697 33.2314 14.8056L33.2291 14.8027C32.4182 15.434 31.4219 15.7761 30.3969 15.7753V15.779Z" fill="#7A8AA0"/>
<path d="M49.4115 14.9085V6.73463H50.7129L54.1132 12.1255V6.73463H55.737V14.9085H54.4357L51.0456 9.51856V14.9085H49.4115Z" fill="#7A8AA0"/>
<path d="M60.6432 14.9141C60.8428 14.9453 61.0444 14.9619 61.2464 14.9637C61.6052 14.9631 61.9854 14.9591 62.387 14.9515C62.786 14.9397 63.1808 14.9212 63.5712 14.8963C63.9616 14.8713 64.3183 14.8401 64.6411 14.8027V13.4351H61.5801C61.4659 13.4354 61.3524 13.4149 61.2455 13.3742C61.1384 13.3327 61.0492 13.2544 60.9936 13.1533C60.9244 13.0149 60.8923 12.8606 60.9006 12.7059V11.5826L64.1141 11.489V10.1972L60.9006 10.1036V8.92412C60.9006 8.69668 60.962 8.52627 61.0866 8.41583C61.2359 8.29699 61.4236 8.23798 61.6136 8.25015H64.6411V6.87878C64.3622 6.84883 64.0555 6.82543 63.719 6.80671C63.3825 6.78861 63.0042 6.77207 62.5841 6.75709C62.1639 6.74212 61.6796 6.73463 61.1311 6.73463C60.9114 6.73538 60.6926 6.76528 60.4805 6.82356C60.262 6.88215 60.0571 6.98328 59.8772 7.12123C59.6857 7.273 59.5349 7.47057 59.4385 7.69598C59.3205 7.9825 59.2644 8.29111 59.274 8.60115V13.1636C59.274 13.583 59.3418 13.9125 59.4775 14.1522C59.5967 14.3751 59.7749 14.5605 59.9925 14.6876C60.1935 14.8032 60.4142 14.8801 60.6432 14.9141Z" fill="#7A8AA0"/>
<path d="M69.7147 14.9085V8.20426H67.4836V6.73463H73.5714V8.20426H71.3374V14.9085H69.7147Z" fill="#7A8AA0"/>
<path d="M76.6459 6.73463V14.9085H78.2699V11.606H81.33V14.9085H82.9643V6.73463H81.33V10.1373H78.2699V6.73463H76.6459Z" fill="#7A8AA0"/>
<path d="M88.5257 14.9637C88.3233 14.9619 88.1223 14.9454 87.9226 14.9141C87.6936 14.8797 87.4727 14.8029 87.2716 14.6876C87.0542 14.5605 86.8757 14.3751 86.7567 14.1522C86.6213 13.9125 86.5536 13.583 86.5543 13.1636V8.60115C86.5427 8.29166 86.596 7.98319 86.7109 7.69598C86.808 7.47051 86.9591 7.27294 87.1506 7.12123C87.3304 6.98311 87.5356 6.88197 87.7544 6.82356C87.9664 6.76519 88.1852 6.73529 88.4047 6.73463C88.9531 6.73463 89.4373 6.74212 89.8578 6.75709C90.2777 6.77207 90.6565 6.78861 90.9936 6.80671C91.3294 6.82543 91.6371 6.84883 91.9147 6.87878V8.25015H88.8875C88.6974 8.23791 88.51 8.29692 88.361 8.41583C88.2372 8.52627 88.175 8.69572 88.175 8.92412V10.1036L91.3889 10.1972V11.489L88.175 11.5826V12.7059C88.1667 12.8606 88.1989 13.0149 88.268 13.1533C88.324 13.2547 88.4136 13.333 88.521 13.3742C88.6276 13.4149 88.7412 13.4354 88.8553 13.4351H91.9168V14.8027C91.594 14.8401 91.2371 14.8713 90.8466 14.8963C90.4562 14.9212 90.0616 14.9397 89.6623 14.9515C89.2629 14.9591 88.8841 14.9631 88.5257 14.9637Z" fill="#7A8AA0"/>
<path fill-rule="evenodd" clip-rule="evenodd" d="M95.2928 6.73463V14.9085L96.9209 14.9076V11.8587C97.0167 11.87 97.1227 11.87 97.2403 11.87H97.5904C97.7073 11.87 97.8229 11.8718 97.9364 11.8756C98.0499 11.8794 98.1504 11.8812 98.2373 11.8812L99.5386 14.9076H101.193L99.6801 11.6313C99.8449 11.5623 100.003 11.4771 100.151 11.3767C100.312 11.2671 100.451 11.1287 100.563 10.9685C100.698 10.769 100.796 10.5471 100.854 10.3133C100.933 9.99941 100.97 9.67644 100.964 9.35286C100.977 8.91098 100.916 8.47012 100.782 8.04889C100.685 7.74624 100.513 7.47307 100.283 7.25416C100.073 7.06353 99.821 6.92533 99.5481 6.8507C99.2548 6.77115 98.9525 6.7321 98.6489 6.73463H95.2928ZM98.3638 10.5679H96.9155V8.20425H98.3638C98.4971 8.20234 98.6305 8.21903 98.759 8.2539C98.8746 8.2857 98.9799 8.34663 99.0654 8.4308C99.1618 8.5292 99.2315 8.65065 99.2685 8.78372C99.3211 8.96862 99.3451 9.16057 99.3396 9.35286C99.3457 9.55411 99.3211 9.75501 99.2685 9.94915C99.2309 10.0867 99.1611 10.2134 99.0654 10.3189C98.9819 10.4093 98.876 10.4761 98.759 10.5127C98.6305 10.5509 98.4978 10.5695 98.3638 10.5679Z" fill="#7A8AA0"/>
<path d="M104.145 14.9085L105.087 6.73463H106.646L108.51 12.9979L110.363 6.73463H111.91L112.865 14.9085H111.295L110.673 9.56351L109.256 14.9085H107.731L106.314 9.63807L105.718 14.9085H104.145Z" fill="#7A8AA0"/>
<path d="M116.243 6.73463V14.9085H117.866V6.73463H116.243Z" fill="#7A8AA0"/>
<path d="M121.518 14.9085V6.73463H122.82L126.22 12.1255V6.73463H127.843V14.9085H126.542L123.149 9.51856V14.9085H121.518Z" fill="#7A8AA0"/>
<path fill-rule="evenodd" clip-rule="evenodd" d="M131.379 6.73463V14.9085L134.811 14.9113C135.449 14.9113 135.975 14.7621 136.391 14.4638C136.808 14.1656 137.12 13.7147 137.329 13.1112C137.538 12.5077 137.642 11.7455 137.642 10.8244C137.646 10.2692 137.602 9.71488 137.51 9.16749C137.438 8.71083 137.284 8.27121 137.055 7.87008C136.848 7.51255 136.547 7.22063 136.183 7.02762C135.818 6.83229 135.36 6.73463 134.812 6.73463H131.379ZM134.648 13.4398H133.003V8.20242H134.648C134.852 8.19804 135.055 8.23565 135.245 8.31285C135.427 8.39498 135.577 8.53427 135.673 8.70974C135.805 8.9592 135.893 9.2306 135.931 9.51103C135.996 9.94471 136.026 10.383 136.019 10.8216C136.028 11.3076 135.982 11.7931 135.882 12.2687C135.791 12.6594 135.646 12.9521 135.448 13.1468C135.341 13.2472 135.215 13.3249 135.077 13.3752C134.94 13.4255 134.793 13.4475 134.648 13.4398Z" fill="#7A8AA0"/>
</svg>
