<svg width="28" height="28" viewBox="0 0 28 28" fill="none" xmlns="http://www.w3.org/2000/svg">
<path fill-rule="evenodd" clip-rule="evenodd" d="M25.9993 21.9993H17.7593C17.5603 21.4402 17.2392 20.9323 16.8195 20.5125C16.3998 20.0928 15.8919 19.7718 15.3327 19.5727V15.3327H24.666C25.0196 15.3327 25.3588 15.1922 25.6088 14.9422C25.8589 14.6921 25.9993 14.353 25.9993 13.9993C25.9993 13.6457 25.8589 13.3066 25.6088 13.0565C25.3588 12.8065 25.0196 12.666 24.666 12.666H23.3327V4.66602C23.3327 3.60515 22.9113 2.58773 22.1611 1.83759C21.411 1.08744 20.3935 0.666016 19.3327 0.666016H8.66602C7.60515 0.666016 6.58773 1.08744 5.83759 1.83759C5.08744 2.58773 4.66602 3.60515 4.66602 4.66602V12.666H3.33268C2.97906 12.666 2.63992 12.8065 2.38987 13.0565C2.13982 13.3066 1.99935 13.6457 1.99935 13.9993C1.99935 14.353 2.13982 14.6921 2.38987 14.9422C2.63992 15.1922 2.97906 15.3327 3.33268 15.3327H12.666V19.5727C12.1068 19.7718 11.5989 20.0928 11.1792 20.5125C10.7595 20.9323 10.4384 21.4402 10.2393 21.9993H1.99935C1.64573 21.9993 1.30659 22.1398 1.05654 22.3899C0.806491 22.6399 0.666016 22.9791 0.666016 23.3327C0.666016 23.6863 0.806491 24.0254 1.05654 24.2755C1.30659 24.5255 1.64573 24.666 1.99935 24.666H10.2393C10.5196 25.4382 11.0309 26.1054 11.7036 26.5769C12.3763 27.0484 13.1779 27.3013 13.9993 27.3013C14.8208 27.3013 15.6224 27.0484 16.2951 26.5769C16.9678 26.1054 17.4791 25.4382 17.7593 24.666H25.9993C26.353 24.666 26.6921 24.5255 26.9422 24.2755C27.1922 24.0254 27.3327 23.6863 27.3327 23.3327C27.3327 22.9791 27.1922 22.6399 26.9422 22.3899C26.6921 22.1398 26.353 21.9993 25.9993 21.9993ZM7.33268 12.666V4.66602C7.33268 4.31239 7.47316 3.97326 7.72321 3.72321C7.97325 3.47316 8.31239 3.33268 8.66602 3.33268H19.3327C19.6863 3.33268 20.0254 3.47316 20.2755 3.72321C20.5255 3.97326 20.666 4.31239 20.666 4.66602V12.666H7.33268ZM12.666 23.3327C12.666 23.6863 12.8065 24.0254 13.0565 24.2755C13.3066 24.5255 13.6457 24.666 13.9993 24.666C14.353 24.666 14.6921 24.5255 14.9422 24.2755C15.1922 24.0254 15.3327 23.6863 15.3327 23.3327C15.3327 22.9791 15.1922 22.6399 14.9422 22.3899C14.6921 22.1398 14.353 21.9993 13.9993 21.9993C13.6457 21.9993 13.3066 22.1398 13.0565 22.3899C12.8065 22.6399 12.666 22.9791 12.666 23.3327Z" fill="#273852"/>
</svg>
