<svg width="98" height="20" viewBox="0 0 98 20" fill="none" xmlns="http://www.w3.org/2000/svg">
<path fill-rule="evenodd" clip-rule="evenodd" d="M0.481485 0C0.276935 0 0.111115 0.16582 0.111115 0.37037V11.4815C0.111115 11.686 0.276935 11.8519 0.481485 11.8519H29.3704C29.5749 11.8519 29.7407 11.686 29.7407 11.4815V0.37037C29.7407 0.16582 29.5749 0 29.3704 0H0.481485ZM25.8519 8.14815C25.9541 8.14815 26.037 8.06524 26.037 7.96296V3.88889C26.037 3.78661 25.9541 3.7037 25.8519 3.7037H4C3.89773 3.7037 3.81482 3.78661 3.81482 3.88889V7.96296C3.81482 8.06524 3.89773 8.14815 4 8.14815H25.8519Z" fill="#7A8AA0"/>
<path d="M3.81482 16.6667C3.81482 16.4621 3.649 16.2963 3.44445 16.2963H0.481485C0.276935 16.2963 0.111115 16.4621 0.111115 16.6667V19.6296C0.111115 19.8342 0.276935 20 0.481485 20H3.44445C3.649 20 3.81482 19.8342 3.81482 19.6296V16.6667Z" fill="#7A8AA0"/>
<path d="M71.963 16.6667C71.963 16.4621 71.7971 16.2963 71.5926 16.2963H68.6296C68.4251 16.2963 68.2593 16.4621 68.2593 16.6667V19.6296C68.2593 19.8342 68.4251 20 68.6296 20H71.5926C71.7971 20 71.963 19.8342 71.963 19.6296V16.6667Z" fill="#7A8AA0"/>
<path d="M34.1852 16.6667C34.1852 16.4621 34.351 16.2963 34.5556 16.2963H63.4445C63.649 16.2963 63.8148 16.4621 63.8148 16.6667V19.6296C63.8148 19.8342 63.649 20 63.4445 20H34.5556C34.351 20 34.1852 19.8342 34.1852 19.6296V16.6667Z" fill="#7A8AA0"/>
<path fill-rule="evenodd" clip-rule="evenodd" d="M68.2593 0.37037C68.2593 0.16582 68.4251 0 68.6296 0H97.5185C97.7231 0 97.8889 0.16582 97.8889 0.37037V11.4815C97.8889 11.686 97.7231 11.8519 97.5185 11.8519H68.6296C68.4251 11.8519 68.2593 11.686 68.2593 11.4815V0.37037ZM94 3.7037C94.1023 3.7037 94.1852 3.78661 94.1852 3.88889V7.96296C94.1852 8.06524 94.1023 8.14815 94 8.14815H72.1482C72.0459 8.14815 71.963 8.06524 71.963 7.96296V3.88889C71.963 3.78661 72.0459 3.7037 72.1482 3.7037H94Z" fill="#7A8AA0"/>
<path d="M34.5556 0C34.351 0 34.1852 0.165821 34.1852 0.37037V3.33333C34.1852 3.53788 34.351 3.7037 34.5556 3.7037H59.9259C60.0282 3.7037 60.1111 3.78661 60.1111 3.88889V7.96296C60.1111 8.06524 60.0282 8.14815 59.9259 8.14815H34.5556C34.351 8.14815 34.1852 8.31397 34.1852 8.51852V11.4815C34.1852 11.686 34.351 11.8519 34.5556 11.8519H63.4445C63.649 11.8519 63.8148 11.686 63.8148 11.4815V0.37037C63.8148 0.16582 63.649 0 63.4445 0H34.5556Z" fill="#7A8AA0"/>
</svg>
