<svg width="138" height="26" viewBox="0 0 138 26" fill="none" xmlns="http://www.w3.org/2000/svg">
<path fill-rule="evenodd" clip-rule="evenodd" d="M19.4808 15.2347L10.9587 0.76001L5.20778 10.5279L5.20673 10.526L2.42913 15.1487L2.46803 15.1494L0.108871 18.8529L0.186303 18.8247L10.8623 25.2399V25.0774L10.8623 25.0773V25.2399L21.571 18.8051L21.4598 18.7382L21.5785 18.7814L19.4486 15.2566V15.2347H19.4808ZM92.5902 7.31021H90.8119V5.67944H92.5902V7.31021ZM92.5902 16.4898H90.8119V8.52038H92.5902V16.4898ZM31.185 16.4898V5.86391H35.5756C35.9002 5.86391 36.1831 5.88359 36.4241 5.92295C37.3195 6.06069 37.9934 6.43456 38.446 7.04456C38.9035 7.64965 39.1323 8.40969 39.1323 9.32469C39.1323 9.91994 39.0314 10.4562 38.8297 10.9333C38.6329 11.4105 38.3304 11.8041 37.9221 12.114C37.5187 12.4239 37.0194 12.6256 36.4241 12.7191C36.1831 12.7584 35.9002 12.7781 35.5756 12.7781H32.9634V16.4898H31.185ZM35.5018 11.1178C35.7773 11.1178 36.0011 11.0932 36.1733 11.044C36.5816 10.9407 36.8767 10.7267 37.0588 10.402C37.2457 10.0774 37.3392 9.71824 37.3392 9.32469C37.3392 8.93114 37.2457 8.57203 37.0588 8.24735C36.8767 7.91775 36.5816 7.7013 36.1733 7.59799C35.9962 7.55372 35.7723 7.53158 35.5018 7.53158H32.9634V11.1178H35.5018ZM42.9793 8.94098C43.2007 8.78848 43.4516 8.67534 43.732 8.60155C44.0124 8.52284 44.3001 8.48348 44.5953 8.48348C44.7478 8.48348 44.9151 8.49578 45.0971 8.52038V10.1807C44.9101 10.1315 44.7183 10.1069 44.5215 10.1069C44.1132 10.1069 43.7566 10.1954 43.4516 10.3725C43.0974 10.5644 42.8317 10.8374 42.6546 11.1916C42.4824 11.5458 42.3964 11.9615 42.3964 12.4387V16.4898H40.6106V8.52038H42.1824V9.79695C42.3988 9.42308 42.6645 9.13776 42.9793 8.94098ZM51.6395 8.52038L49.4775 14.2244L47.249 8.52038H45.3969L48.6215 16.4307L47.308 20.0317H48.9757L53.4179 8.52038H51.6395ZM57.5955 16.7111C56.6116 16.7111 55.8122 16.4898 55.1973 16.047C54.5824 15.6043 54.2085 14.982 54.0757 14.1801L55.8909 13.8997C55.9795 14.2982 56.1836 14.6106 56.5034 14.8369C56.8281 15.0582 57.2339 15.1689 57.7209 15.1689C58.144 15.1689 58.4736 15.0853 58.7097 14.918C58.9459 14.7458 59.0639 14.5122 59.0639 14.217C59.0639 14.0252 59.0172 13.8776 58.9237 13.7743C58.8352 13.671 58.6556 13.5701 58.3851 13.4717C58.1145 13.3684 57.6644 13.2331 57.0347 13.0659C56.3607 12.8888 55.827 12.6994 55.4334 12.4977C55.0448 12.2911 54.7644 12.05 54.5922 11.7745C54.42 11.4941 54.3339 11.1522 54.3339 10.7489C54.3339 10.2569 54.4618 9.82647 54.7177 9.45752C54.9784 9.08856 55.3449 8.80324 55.8171 8.60155C56.2943 8.39985 56.8453 8.299 57.47 8.299C58.085 8.299 58.6335 8.39493 59.1156 8.58679C59.5977 8.77864 59.9863 9.05413 60.2815 9.41324C60.5816 9.76744 60.7636 10.1807 60.8275 10.6529L59.0123 10.9776C58.9631 10.6382 58.8057 10.3701 58.54 10.1733C58.2793 9.97651 57.9325 9.86583 57.4996 9.84123C57.0814 9.82155 56.7444 9.88796 56.4886 10.0405C56.2328 10.188 56.1049 10.3947 56.1049 10.6603C56.1049 10.8226 56.1566 10.9555 56.2599 11.0588C56.3681 11.1621 56.5723 11.2678 56.8723 11.3761C57.1724 11.4794 57.6422 11.6122 58.2817 11.7745C58.9262 11.9418 59.4353 12.1287 59.8092 12.3354C60.188 12.542 60.461 12.7904 60.6283 13.0806C60.8005 13.366 60.8866 13.7177 60.8866 14.1358C60.8866 14.6671 60.7537 15.1271 60.4881 15.5157C60.2274 15.8994 59.8486 16.1946 59.3517 16.4012C58.8598 16.6078 58.2744 16.7111 57.5955 16.7111ZM72.5974 8.68271C72.189 8.44167 71.6971 8.32114 71.1216 8.32114C70.605 8.32114 70.1328 8.43429 69.7048 8.66058C69.2768 8.88195 68.9398 9.19187 68.6938 9.59034C68.4774 9.19187 68.1724 8.88195 67.7788 8.66058C67.3853 8.43429 66.9155 8.32114 66.3694 8.32114C65.8972 8.32114 65.4594 8.41461 65.056 8.60155C64.6575 8.78848 64.3254 9.04921 64.0598 9.38373V8.52038H62.488V16.4898H64.2812V11.5827C64.2812 11.2531 64.3427 10.9628 64.4656 10.712C64.5886 10.4562 64.7633 10.2594 64.9895 10.1216C65.2158 9.97897 65.479 9.90764 65.7791 9.90764C66.2464 9.90764 66.6154 10.0651 66.886 10.3799C67.1565 10.6898 67.2918 11.1203 67.2918 11.6712V16.4898H69.0628V11.5827C69.0628 11.2383 69.1267 10.9407 69.2546 10.6898C69.3875 10.434 69.567 10.2397 69.7933 10.1069C70.0245 9.97405 70.2828 9.90764 70.5681 9.90764C71.0305 9.90764 71.397 10.0626 71.6676 10.3725C71.9382 10.6824 72.0734 11.108 72.0734 11.6491V16.4898H73.8518V11.199C73.8518 10.6185 73.746 10.1143 73.5345 9.68627C73.323 9.25336 73.0106 8.91884 72.5974 8.68271ZM82.2996 10.5791C82.3389 10.8497 82.3586 11.1891 82.3586 11.5974V16.4898H80.8016V15.4198C80.4622 15.8675 80.0686 16.1946 79.621 16.4012C79.1733 16.6078 78.6346 16.7111 78.0049 16.7111C77.4441 16.7111 76.962 16.6054 76.5586 16.3938C76.1602 16.1774 75.8552 15.8871 75.6436 15.5231C75.437 15.1591 75.3337 14.7532 75.3337 14.3056C75.3337 13.7202 75.4788 13.2307 75.7691 12.8371C76.0643 12.4436 76.5242 12.1386 77.149 11.9221C77.4983 11.809 77.8992 11.7131 78.3518 11.6343C78.8093 11.5507 79.4611 11.4449 80.3072 11.317L80.6171 11.2728C80.5827 10.8103 80.4351 10.4709 80.1744 10.2545C79.9186 10.038 79.5226 9.92978 78.9864 9.92978C78.5928 9.92978 78.2337 10.0208 77.909 10.2028C77.5893 10.3848 77.3679 10.6652 77.2449 11.044L75.6215 10.5349C75.8232 9.83631 76.2069 9.29026 76.7726 8.89671C77.3384 8.49824 78.0763 8.299 78.9864 8.299C79.7243 8.299 80.3564 8.41953 80.8828 8.66058C81.4141 8.90163 81.8052 9.2755 82.056 9.7822C82.184 10.038 82.2651 10.3036 82.2996 10.5791ZM80.4179 13.9735C80.5261 13.7128 80.5852 13.2996 80.595 12.7338C79.8227 12.8568 79.2668 12.9503 78.9273 13.0142C78.5928 13.0733 78.2976 13.147 78.0418 13.2356C77.7221 13.3537 77.481 13.4963 77.3187 13.6636C77.1563 13.8308 77.0752 14.0375 77.0752 14.2834C77.0752 14.5835 77.1859 14.827 77.4072 15.014C77.6335 15.2009 77.9508 15.2944 78.3591 15.2944C78.7379 15.2944 79.07 15.2279 79.3553 15.0951C79.6456 14.9574 79.8792 14.7877 80.0563 14.586C80.2334 14.3843 80.3539 14.1801 80.4179 13.9735ZM86.6115 13.1323V9.91502H88.9506V8.52038H86.6115V6.30666H84.8405V8.52038H83.3942V9.91502H84.8405V13.2356L84.8331 13.9145C84.8331 14.2539 84.8528 14.5466 84.8921 14.7926C84.9315 15.0385 85.0151 15.2771 85.143 15.5083C85.3546 15.897 85.6743 16.1823 86.1023 16.3643C86.5303 16.5414 87.0296 16.63 87.6003 16.63C88.0184 16.63 88.4685 16.5832 88.9506 16.4898V14.9992C88.5964 15.0533 88.2816 15.0804 88.0061 15.0804C87.706 15.0804 87.4527 15.041 87.2461 14.9623C87.0444 14.8836 86.887 14.7508 86.7738 14.5638C86.7049 14.4605 86.6607 14.3302 86.641 14.1727C86.6213 14.0153 86.6115 13.8087 86.6115 13.5529V13.1323ZM96.1731 16.1725C96.7634 16.5316 97.4595 16.7111 98.2614 16.7111C99.1518 16.7111 99.9045 16.4947 100.519 16.0618C101.134 15.624 101.565 14.9992 101.811 14.1875L99.9955 13.7816C99.8528 14.2047 99.6437 14.522 99.3683 14.7335C99.0928 14.9402 98.7238 15.0435 98.2614 15.0435C97.6071 15.0435 97.1078 14.8172 96.7634 14.3646C96.4191 13.9071 96.2445 13.2873 96.2395 12.5051C96.2445 11.7376 96.4142 11.1227 96.7487 10.6603C97.0881 10.1979 97.5924 9.96667 98.2614 9.96667C98.6697 9.96667 99.0337 10.0872 99.3535 10.3282C99.6782 10.5693 99.9069 10.9014 100.04 11.3244L101.811 10.8448C101.688 10.3233 101.461 9.8732 101.132 9.49441C100.807 9.1107 100.401 8.81554 99.9143 8.60892C99.4273 8.40231 98.8837 8.299 98.2835 8.299C97.4915 8.299 96.7979 8.47856 96.2026 8.83768C95.6123 9.19679 95.1573 9.69611 94.8375 10.3356C94.5178 10.9702 94.3579 11.6934 94.3579 12.5051C94.3628 13.3118 94.5202 14.035 94.8301 14.6745C95.14 15.3091 95.5877 15.8084 96.1731 16.1725ZM112.863 16.4898H106.392V5.86391H108.17V14.8221H112.863V16.4898ZM120.695 11.5974C120.695 11.1891 120.675 10.8497 120.636 10.5791C120.602 10.3036 120.52 10.038 120.393 9.7822C120.142 9.2755 119.751 8.90163 119.219 8.66058C118.693 8.41953 118.061 8.299 117.323 8.299C116.413 8.299 115.675 8.49824 115.109 8.89671C114.543 9.29026 114.16 9.83631 113.958 10.5349L115.581 11.044C115.704 10.6652 115.926 10.3848 116.246 10.2028C116.57 10.0208 116.929 9.92978 117.323 9.92978C117.859 9.92978 118.255 10.038 118.511 10.2545C118.772 10.4709 118.919 10.8103 118.954 11.2728L118.644 11.317C117.798 11.4449 117.146 11.5507 116.688 11.6343C116.236 11.7131 115.835 11.809 115.486 11.9221C114.861 12.1386 114.401 12.4436 114.106 12.8371C113.815 13.2307 113.67 13.7202 113.67 14.3056C113.67 14.7532 113.774 15.1591 113.98 15.5231C114.192 15.8871 114.497 16.1774 114.895 16.3938C115.299 16.6054 115.781 16.7111 116.341 16.7111C116.971 16.7111 117.51 16.6078 117.958 16.4012C118.405 16.1946 118.799 15.8675 119.138 15.4198V16.4898H120.695V11.5974ZM118.932 12.7338C118.922 13.2996 118.863 13.7128 118.754 13.9735C118.69 14.1801 118.57 14.3843 118.393 14.586C118.216 14.7877 117.982 14.9574 117.692 15.0951C117.407 15.2279 117.074 15.2944 116.696 15.2944C116.287 15.2944 115.97 15.2009 115.744 15.014C115.522 14.827 115.412 14.5835 115.412 14.2834C115.412 14.0375 115.493 13.8308 115.655 13.6636C115.818 13.4963 116.059 13.3537 116.378 13.2356C116.634 13.147 116.929 13.0733 117.264 13.0142C117.603 12.9503 118.159 12.8568 118.932 12.7338ZM126.38 8.299C127.117 8.299 127.767 8.48102 128.328 8.84505C128.888 9.20417 129.321 9.70349 129.626 10.343C129.931 10.9776 130.084 11.6983 130.084 12.5051C130.084 13.302 129.934 14.0202 129.634 14.6598C129.334 15.2944 128.906 15.7961 128.35 16.1651C127.799 16.5291 127.164 16.7111 126.446 16.7111C125.526 16.7111 124.768 16.4406 124.173 15.8994V16.4898H122.601V5.86391H124.395V8.91147C124.95 8.50316 125.612 8.299 126.38 8.299ZM126.173 15.1173C126.621 15.1173 126.994 15.0041 127.295 14.7778C127.6 14.5515 127.826 14.2416 127.973 13.8481C128.126 13.4545 128.202 13.0068 128.202 12.5051C128.202 12.0082 128.126 11.563 127.973 11.1695C127.821 10.7759 127.587 10.466 127.272 10.2397C126.963 10.0085 126.576 9.89288 126.114 9.89288C125.46 9.89288 124.973 10.1266 124.653 10.5939C124.333 11.0563 124.173 11.6934 124.173 12.5051C124.173 13.3168 124.336 13.9563 124.66 14.4236C124.985 14.886 125.489 15.1173 126.173 15.1173ZM132.202 16.047C132.817 16.4898 133.616 16.7111 134.6 16.7111C135.279 16.7111 135.864 16.6078 136.356 16.4012C136.853 16.1946 137.232 15.8994 137.493 15.5157C137.758 15.1271 137.891 14.6671 137.891 14.1358C137.891 13.7177 137.805 13.366 137.633 13.0806C137.466 12.7904 137.193 12.542 136.814 12.3354C136.44 12.1287 135.931 11.9418 135.286 11.7745C134.647 11.6122 134.177 11.4794 133.877 11.3761C133.577 11.2678 133.373 11.1621 133.264 11.0588C133.161 10.9555 133.109 10.8226 133.109 10.6603C133.109 10.3947 133.237 10.188 133.493 10.0405C133.749 9.88796 134.086 9.82155 134.504 9.84123C134.937 9.86583 135.284 9.97651 135.545 10.1733C135.81 10.3701 135.968 10.6382 136.017 10.9776L137.832 10.6529C137.768 10.1807 137.586 9.76744 137.286 9.41324C136.991 9.05413 136.602 8.77864 136.12 8.58679C135.638 8.39493 135.09 8.299 134.475 8.299C133.85 8.299 133.299 8.39985 132.822 8.60155C132.349 8.80324 131.983 9.08856 131.722 9.45752C131.466 9.82647 131.339 10.2569 131.339 10.7489C131.339 11.1522 131.425 11.4941 131.597 11.7745C131.769 12.05 132.049 12.2911 132.438 12.4977C132.832 12.6994 133.365 12.8888 134.039 13.0659C134.669 13.2331 135.119 13.3684 135.39 13.4717C135.66 13.5701 135.84 13.671 135.928 13.7743C136.022 13.8776 136.068 14.0252 136.068 14.217C136.068 14.5122 135.95 14.7458 135.714 14.918C135.478 15.0853 135.149 15.1689 134.725 15.1689C134.238 15.1689 133.833 15.0582 133.508 14.8369C133.188 14.6106 132.984 14.2982 132.895 13.8997L131.08 14.1801C131.213 14.982 131.587 15.6043 132.202 16.047Z" fill="#7A8AA0"/>
</svg>
