<svg width="144" height="28" viewBox="0 0 144 28" fill="none" xmlns="http://www.w3.org/2000/svg">
<path d="M39.1511 8.21132H42.6431C43.3736 8.21132 44.0007 8.32133 44.5244 8.54137C45.048 8.7614 45.4507 9.08705 45.7324 9.51832C46.014 9.94958 46.1548 10.4799 46.1548 11.1092C46.1548 11.6064 46.0668 12.0377 45.8908 12.403C45.7148 12.7682 45.4661 13.0741 45.1449 13.3205C44.828 13.5669 44.454 13.7606 44.0227 13.9014L43.455 14.1918H40.3723L40.3591 12.7594H42.6629C43.0369 12.7594 43.3472 12.6934 43.5936 12.5614C43.8401 12.4294 44.0249 12.2467 44.1481 12.0135C44.2757 11.7803 44.3395 11.514 44.3395 11.2148C44.3395 10.8935 44.2779 10.6163 44.1547 10.3831C44.0315 10.1454 43.8445 9.96279 43.5936 9.83517C43.3428 9.70755 43.0259 9.64374 42.6431 9.64374H40.9664V17.8224H39.1511V8.21132ZM44.5772 17.8224L42.3526 13.5185L44.2735 13.5119L46.5245 17.73V17.8224H44.5772Z" fill="#7A8AA0"/>
<path d="M52.5365 14.3239V14.1852C52.5365 13.6616 52.6113 13.1797 52.7609 12.7396C52.9106 12.2951 53.1284 11.9101 53.4144 11.5844C53.7005 11.2588 54.0503 11.0057 54.464 10.8253C54.8777 10.6405 55.3485 10.5481 55.8766 10.5481C56.4135 10.5481 56.8888 10.6405 57.3024 10.8253C57.7205 11.0057 58.0726 11.2588 58.3586 11.5844C58.6446 11.9101 58.8625 12.2951 59.0121 12.7396C59.1617 13.1797 59.2365 13.6616 59.2365 14.1852V14.3239C59.2365 14.8431 59.1617 15.325 59.0121 15.7695C58.8625 16.2095 58.6446 16.5946 58.3586 16.9247C58.0726 17.2503 57.7227 17.5033 57.309 17.6838C56.8954 17.8642 56.4223 17.9544 55.8898 17.9544C55.3617 17.9544 54.8887 17.8642 54.4706 17.6838C54.0525 17.5033 53.7005 17.2503 53.4144 16.9247C53.1284 16.5946 52.9106 16.2095 52.7609 15.7695C52.6113 15.325 52.5365 14.8431 52.5365 14.3239ZM54.2792 14.1852V14.3239C54.2792 14.6363 54.31 14.9289 54.3716 15.2018C54.4332 15.4746 54.5278 15.7145 54.6554 15.9213C54.7831 16.1281 54.9481 16.291 55.1505 16.4098C55.3573 16.5242 55.6038 16.5814 55.8898 16.5814C56.1715 16.5814 56.4135 16.5242 56.6159 16.4098C56.8184 16.291 56.9834 16.1281 57.111 15.9213C57.243 15.7145 57.3398 15.4746 57.4015 15.2018C57.4631 14.9289 57.4939 14.6363 57.4939 14.3239V14.1852C57.4939 13.8772 57.4631 13.5889 57.4015 13.3205C57.3398 13.0477 57.243 12.8078 57.111 12.601C56.9834 12.3898 56.8162 12.2247 56.6093 12.1059C56.4069 11.9827 56.1627 11.9211 55.8766 11.9211C55.595 11.9211 55.3529 11.9827 55.1505 12.1059C54.9481 12.2247 54.7831 12.3898 54.6554 12.601C54.5278 12.8078 54.4332 13.0477 54.3716 13.3205C54.31 13.5889 54.2792 13.8772 54.2792 14.1852Z" fill="#7A8AA0"/>
<path d="M68.6679 16.5814C68.9143 16.5814 69.1344 16.533 69.328 16.4362C69.5216 16.3394 69.6756 16.2029 69.7901 16.0269C69.9089 15.8509 69.9727 15.6463 69.9815 15.413H71.6251C71.6163 15.8971 71.4799 16.3306 71.2159 16.7134C70.9518 17.0963 70.5998 17.3999 70.1597 17.6244C69.724 17.8444 69.2356 17.9544 68.6943 17.9544C68.1442 17.9544 67.6645 17.862 67.2553 17.6772C66.846 17.4923 66.505 17.2349 66.2321 16.9048C65.9637 16.5748 65.7612 16.1919 65.6248 15.7563C65.4928 15.3206 65.4268 14.8541 65.4268 14.3569V14.1456C65.4268 13.6484 65.4928 13.1819 65.6248 12.7462C65.7612 12.3105 65.9637 11.9277 66.2321 11.5976C66.505 11.2676 66.846 11.0101 67.2553 10.8253C67.6645 10.6405 68.142 10.5481 68.6877 10.5481C69.2642 10.5481 69.7703 10.6603 70.2059 10.8847C70.646 11.1092 70.9892 11.426 71.2357 11.8353C71.4865 12.2445 71.6163 12.7264 71.6251 13.2809H69.9815C69.9727 13.0257 69.9155 12.7968 69.8099 12.5944C69.7042 12.392 69.5546 12.2291 69.361 12.1059C69.1674 11.9827 68.9319 11.9211 68.6547 11.9211C68.3598 11.9211 68.1134 11.9827 67.9154 12.1059C67.7217 12.2291 67.5699 12.3986 67.4599 12.6142C67.3543 12.8254 67.2795 13.0631 67.2355 13.3271C67.1959 13.5867 67.1761 13.8596 67.1761 14.1456V14.3569C67.1761 14.6473 67.1959 14.9245 67.2355 15.1886C67.2795 15.4526 67.3543 15.6903 67.4599 15.9015C67.5699 16.1083 67.7217 16.2734 67.9154 16.3966C68.1134 16.5198 68.3642 16.5814 68.6679 16.5814Z" fill="#7A8AA0"/>
<path d="M79.7627 7.67664V17.8224H78.02V7.67664H79.7627ZM84.2382 10.6801L81.1291 14.172L79.4458 15.8817L78.8914 14.5285L80.1918 12.8914L82.1325 10.6801H84.2382ZM82.4559 17.8224L80.2446 14.4955L81.4063 13.3667L84.4758 17.8224H82.4559Z" fill="#7A8AA0"/>
<path d="M96.5542 16.786V17.8224H91.7486V16.786H96.5542ZM91.9995 8.21132V17.8224H90.7255V8.21132H91.9995Z" fill="#7A8AA0"/>
<path d="M102.738 14.3305V14.1786C102.738 13.6638 102.813 13.1863 102.962 12.7462C103.112 12.3017 103.328 11.9167 103.609 11.591C103.891 11.261 104.232 11.0057 104.632 10.8253C105.033 10.6405 105.482 10.5481 105.979 10.5481C106.481 10.5481 106.932 10.6405 107.332 10.8253C107.737 11.0057 108.08 11.261 108.362 11.591C108.648 11.9167 108.866 12.3017 109.015 12.7462C109.165 13.1863 109.24 13.6638 109.24 14.1786V14.3305C109.24 14.8453 109.165 15.3228 109.015 15.7629C108.866 16.2029 108.648 16.588 108.362 16.9181C108.08 17.2437 107.739 17.4989 107.339 17.6838C106.943 17.8642 106.494 17.9544 105.992 17.9544C105.49 17.9544 105.039 17.8642 104.639 17.6838C104.238 17.4989 103.895 17.2437 103.609 16.9181C103.328 16.588 103.112 16.2029 102.962 15.7629C102.813 15.3228 102.738 14.8453 102.738 14.3305ZM103.959 14.1786V14.3305C103.959 14.6869 104.001 15.0236 104.084 15.3404C104.168 15.6529 104.293 15.9301 104.461 16.1721C104.632 16.4142 104.846 16.6056 105.101 16.7464C105.356 16.8828 105.653 16.9511 105.992 16.9511C106.327 16.9511 106.619 16.8828 106.87 16.7464C107.125 16.6056 107.337 16.4142 107.504 16.1721C107.671 15.9301 107.796 15.6529 107.88 15.3404C107.968 15.0236 108.012 14.6869 108.012 14.3305V14.1786C108.012 13.8266 107.968 13.4943 107.88 13.1819C107.796 12.865 107.669 12.5856 107.497 12.3436C107.33 12.0971 107.119 11.9035 106.863 11.7627C106.613 11.6218 106.318 11.5514 105.979 11.5514C105.644 11.5514 105.35 11.6218 105.094 11.7627C104.844 11.9035 104.632 12.0971 104.461 12.3436C104.293 12.5856 104.168 12.865 104.084 13.1819C104.001 13.4943 103.959 13.8266 103.959 14.1786Z" fill="#7A8AA0"/>
<path d="M120.632 10.6801H121.741V17.6706C121.741 18.2999 121.613 18.8367 121.358 19.2812C121.103 19.7257 120.746 20.0623 120.288 20.2912C119.835 20.5244 119.311 20.641 118.717 20.641C118.471 20.641 118.181 20.6014 117.846 20.5222C117.516 20.4474 117.19 20.3176 116.869 20.1327C116.552 19.9523 116.286 19.7081 116.07 19.4L116.711 18.6739C117.01 19.0348 117.322 19.2856 117.648 19.4264C117.978 19.5673 118.304 19.6377 118.625 19.6377C119.012 19.6377 119.347 19.5651 119.628 19.4198C119.91 19.2746 120.128 19.059 120.282 18.7729C120.44 18.4913 120.519 18.1436 120.519 17.73V12.2511L120.632 10.6801ZM115.714 14.3305V14.1918C115.714 13.6461 115.778 13.1511 115.905 12.7066C116.037 12.2577 116.224 11.8727 116.466 11.5514C116.713 11.2302 117.01 10.9837 117.358 10.8121C117.705 10.6361 118.097 10.5481 118.533 10.5481C118.981 10.5481 119.373 10.6273 119.708 10.7857C120.046 10.9397 120.332 11.1664 120.566 11.4656C120.803 11.7605 120.99 12.1169 121.127 12.535C121.263 12.953 121.358 13.4261 121.411 13.9542V14.5615C121.362 15.0852 121.268 15.556 121.127 15.9741C120.99 16.3922 120.803 16.7486 120.566 17.0435C120.332 17.3383 120.046 17.5649 119.708 17.7234C119.369 17.8774 118.973 17.9544 118.519 17.9544C118.092 17.9544 117.705 17.8642 117.358 17.6838C117.014 17.5033 116.719 17.2503 116.473 16.9247C116.227 16.599 116.037 16.2161 115.905 15.7761C115.778 15.3316 115.714 14.8497 115.714 14.3305ZM116.935 14.1918V14.3305C116.935 14.6869 116.97 15.0214 117.041 15.3338C117.116 15.6463 117.228 15.9213 117.377 16.1589C117.531 16.3966 117.727 16.5836 117.965 16.72C118.203 16.852 118.486 16.9181 118.816 16.9181C119.221 16.9181 119.556 16.8322 119.82 16.6606C120.084 16.489 120.293 16.2624 120.447 15.9807C120.605 15.6991 120.729 15.3932 120.817 15.0632V13.4723C120.768 13.2303 120.693 12.9971 120.592 12.7726C120.495 12.5438 120.368 12.3414 120.209 12.1653C120.055 11.9849 119.864 11.8419 119.635 11.7363C119.406 11.6306 119.138 11.5778 118.83 11.5778C118.495 11.5778 118.207 11.6482 117.965 11.7891C117.727 11.9255 117.531 12.1147 117.377 12.3568C117.228 12.5944 117.116 12.8716 117.041 13.1885C116.97 13.5009 116.935 13.8354 116.935 14.1918Z" fill="#7A8AA0"/>
<path d="M130.155 10.6801V17.8224H128.928V10.6801H130.155ZM128.835 8.78561C128.835 8.58758 128.895 8.42035 129.013 8.28393C129.137 8.14751 129.317 8.0793 129.555 8.0793C129.788 8.0793 129.966 8.14751 130.089 8.28393C130.217 8.42035 130.281 8.58758 130.281 8.78561C130.281 8.97483 130.217 9.13766 130.089 9.27408C129.966 9.4061 129.788 9.47211 129.555 9.47211C129.317 9.47211 129.137 9.4061 129.013 9.27408C128.895 9.13766 128.835 8.97483 128.835 8.78561Z" fill="#7A8AA0"/>
<path d="M140.207 16.9511C140.498 16.9511 140.766 16.8916 141.013 16.7728C141.259 16.654 141.461 16.4912 141.62 16.2844C141.778 16.0731 141.869 15.8333 141.891 15.5648H143.052C143.03 15.9873 142.887 16.3812 142.623 16.7464C142.364 17.1073 142.023 17.3999 141.6 17.6244C141.178 17.8444 140.713 17.9544 140.207 17.9544C139.67 17.9544 139.202 17.8598 138.801 17.6706C138.405 17.4813 138.075 17.2217 137.811 16.8916C137.551 16.5616 137.356 16.1831 137.224 15.7563C137.096 15.325 137.032 14.8695 137.032 14.3899V14.1126C137.032 13.6329 137.096 13.1797 137.224 12.7528C137.356 12.3215 137.551 11.9409 137.811 11.6108C138.075 11.2808 138.405 11.0211 138.801 10.8319C139.202 10.6427 139.67 10.5481 140.207 10.5481C140.766 10.5481 141.255 10.6625 141.673 10.8913C142.091 11.1158 142.419 11.4238 142.656 11.8155C142.898 12.2027 143.03 12.6428 143.052 13.1357H141.891C141.869 12.8408 141.785 12.5746 141.64 12.3369C141.499 12.0993 141.305 11.9101 141.059 11.7693C140.817 11.624 140.533 11.5514 140.207 11.5514C139.833 11.5514 139.519 11.6262 139.263 11.7759C139.013 11.9211 138.812 12.1191 138.663 12.37C138.517 12.6164 138.412 12.8914 138.346 13.1951C138.284 13.4943 138.253 13.8002 138.253 14.1126V14.3899C138.253 14.7023 138.284 15.0104 138.346 15.314C138.407 15.6177 138.511 15.8927 138.656 16.1391C138.806 16.3856 139.006 16.5836 139.257 16.7332C139.512 16.8784 139.829 16.9511 140.207 16.9511Z" fill="#7A8AA0"/>
<path opacity="0.8" d="M0.947693 0.917236H18.8275C23.524 0.917236 27.3313 4.72452 27.3313 9.42104C27.3313 14.1176 23.524 17.9248 18.8275 17.9248H0.947693V0.917236Z" fill="#7A8AA0"/>
<path opacity="0.8" d="M0.947693 0.917236L27.3313 27.0828H0.947693V0.917236Z" fill="#7A8AA0"/>
<path d="M0.947693 17.9248H18.097L0.947693 0.917236V17.9248Z" fill="#7A8AA0"/>
</svg>
