<svg width="138" height="32" viewBox="0 0 138 32" fill="none" xmlns="http://www.w3.org/2000/svg">
<path fill-rule="evenodd" clip-rule="evenodd" d="M27.395 0.57373H30.4558V9.24598H27.395V0.57373ZM10.5602 7.20558H10.5604V12.3069H10.5602C7.74282 12.3069 5.45888 14.5908 5.45888 17.4082C5.45888 20.2256 7.74282 22.5096 10.5602 22.5096C13.0282 22.5096 15.0868 20.757 15.5595 18.4285H15.6619V12.3076H20.7632V18.4292H20.7124C20.2002 23.5846 15.8504 27.6109 10.5602 27.6109C4.92544 27.6109 0.357559 23.043 0.357559 17.4082C0.357559 11.7735 4.92544 7.20558 10.5602 7.20558ZM16.6815 7.20601H10.5604V12.3073H16.6815H16.682H25.3538V7.20601H16.682H16.6815ZM47.7776 17.2855H45.1963V27.6106H47.7776V17.2855ZM45.5106 15.6245C45.8098 15.9088 46.154 16.051 46.5431 16.051C46.9321 16.051 47.2688 15.9088 47.5531 15.6245C47.8524 15.3252 48.0021 14.981 48.0021 14.592C48.0021 14.2029 47.8524 13.8662 47.5531 13.5819C47.2688 13.2826 46.9321 13.133 46.5431 13.133C46.154 13.133 45.8098 13.2826 45.5106 13.5819C45.2263 13.8662 45.0841 14.2029 45.0841 14.592C45.0841 14.981 45.2263 15.3252 45.5106 15.6245ZM36.3993 26.8025C37.1026 27.416 38.1276 27.7228 39.4744 27.7228C40.058 27.7228 40.5817 27.6405 41.0456 27.4759C41.5244 27.2963 41.9285 27.0644 42.2577 26.7801C42.5869 26.4958 42.8413 26.1665 43.0208 25.7924C43.2004 25.4034 43.2902 24.9994 43.2902 24.5804C43.2902 23.9669 43.1555 23.473 42.8862 23.0989C42.6318 22.7099 42.3101 22.3956 41.921 22.1562C41.5319 21.9168 41.1055 21.7372 40.6416 21.6175C40.1927 21.4828 39.7737 21.3631 39.3846 21.2584C38.9955 21.1387 38.6663 21.0115 38.397 20.8768C38.1426 20.7421 38.0154 20.5551 38.0154 20.3157C38.0154 20.0314 38.1202 19.7919 38.3297 19.5974C38.5541 19.4029 38.8609 19.3056 39.2499 19.3056C39.639 19.3056 39.9607 19.4178 40.2151 19.6423C40.4845 19.8667 40.6491 20.0912 40.7089 20.3157H43.178C43.0582 19.4178 42.6617 18.6696 41.9883 18.0711C41.3299 17.4725 40.3797 17.1732 39.1377 17.1732C38.5691 17.1732 38.0603 17.263 37.6114 17.4426C37.1625 17.6072 36.7734 17.8317 36.4442 18.116C36.115 18.4003 35.8606 18.737 35.681 19.126C35.5164 19.5001 35.4341 19.8967 35.4341 20.3157C35.4341 20.9142 35.5613 21.4005 35.8157 21.7746C36.0851 22.1338 36.4143 22.4331 36.8033 22.6725C37.1924 22.8969 37.6114 23.069 38.0603 23.1887C38.5242 23.3084 38.9507 23.4282 39.3397 23.5479C39.7288 23.6526 40.0505 23.7723 40.3049 23.907C40.5742 24.0417 40.7089 24.2287 40.7089 24.4681C40.7089 24.7525 40.5742 25.0143 40.3049 25.2537C40.0505 25.4782 39.6989 25.5904 39.2499 25.5904C38.801 25.5904 38.4419 25.4707 38.1725 25.2313C37.9032 24.9919 37.7386 24.7001 37.6787 24.3559H35.2097C35.3144 25.3735 35.711 26.189 36.3993 26.8025ZM54.727 31.4263C53.7693 31.4263 52.9912 31.2543 52.3927 30.9101C51.8091 30.5659 51.3452 30.1769 51.001 29.7429C50.612 29.2491 50.3202 28.688 50.1256 28.0595H52.7069C52.8117 28.254 52.9538 28.4261 53.1334 28.5757C53.298 28.6954 53.5075 28.8077 53.7619 28.9124C54.0162 29.0172 54.338 29.0695 54.727 29.0695C55.4603 29.0695 56.0364 28.8675 56.4554 28.4635C56.8744 28.0744 57.0838 27.5657 57.0838 26.9372V26.1516C56.8743 26.3611 56.6349 26.5481 56.3656 26.7127C56.1262 26.8624 55.8418 26.997 55.5126 27.1168C55.1834 27.2215 54.8093 27.2739 54.3903 27.2739C53.7469 27.2739 53.1334 27.1467 52.5498 26.8923C51.9812 26.6379 51.4799 26.2863 51.0459 25.8373C50.6269 25.3884 50.2902 24.8572 50.0359 24.2437C49.7964 23.6302 49.6767 22.9568 49.6767 22.2236C49.6767 21.4903 49.7964 20.817 50.0359 20.2034C50.2902 19.5899 50.6269 19.0587 51.0459 18.6098C51.4799 18.1609 51.9812 17.8092 52.5498 17.5548C53.1334 17.3004 53.7469 17.1732 54.3903 17.1732C54.8393 17.1732 55.2433 17.2331 55.6024 17.3528C55.9616 17.4725 56.2683 17.5997 56.5227 17.7344C56.807 17.899 57.0689 18.086 57.3083 18.2955L57.7572 17.2855H59.6651V26.9372C59.6651 28.2839 59.2312 29.3688 58.3633 30.1918C57.5103 31.0148 56.2982 31.4263 54.727 31.4263ZM54.727 24.8048C55.0562 24.8048 55.3705 24.7375 55.6698 24.6028C55.969 24.4681 56.2309 24.2886 56.4554 24.0641C56.6798 23.8247 56.8594 23.5479 56.9941 23.2336C57.1287 22.9194 57.1961 22.5827 57.1961 22.2236C57.1961 21.8644 57.1287 21.5277 56.9941 21.2135C56.8594 20.8993 56.6798 20.6299 56.4554 20.4054C56.2309 20.166 55.969 19.979 55.6698 19.8443C55.3705 19.7096 55.0562 19.6423 54.727 19.6423C54.3829 19.6423 54.0611 19.7096 53.7619 19.8443C53.4626 19.979 53.2007 20.166 52.9763 20.4054C52.7518 20.6299 52.5722 20.8993 52.4376 21.2135C52.3178 21.5277 52.258 21.8644 52.258 22.2236C52.258 22.5827 52.3178 22.9194 52.4376 23.2336C52.5722 23.5479 52.7518 23.8247 52.9763 24.0641C53.2007 24.2886 53.4626 24.4681 53.7619 24.6028C54.0611 24.7375 54.3829 24.8048 54.727 24.8048ZM64.0482 17.2855H62.1403V27.6106H64.7216V21.6624C64.7216 21.0339 64.8862 20.5401 65.2154 20.181C65.5595 19.8219 65.9561 19.6423 66.405 19.6423C66.8539 19.6423 67.243 19.8219 67.5722 20.181C67.9164 20.5401 68.0884 21.0339 68.0884 21.6624V27.6106H70.6697V21.6624C70.6697 21.0339 70.8343 20.5401 71.1635 20.181C71.5077 19.8219 71.9042 19.6423 72.3531 19.6423C72.8021 19.6423 73.1911 19.8219 73.5203 20.181C73.8645 20.5401 74.0366 21.0339 74.0366 21.6624V27.6106H76.6179V21.438C76.6179 20.0314 76.2812 18.9689 75.6078 18.2506C74.9344 17.5324 74.0366 17.1732 72.9143 17.1732C72.4654 17.1732 72.0539 17.2481 71.6798 17.3977C71.3057 17.5324 70.9839 17.682 70.7146 17.8466C70.4004 18.0412 70.1235 18.2656 69.8841 18.52C69.7195 18.2656 69.5025 18.0412 69.2332 17.8466C68.9938 17.682 68.687 17.5324 68.3129 17.3977C67.9388 17.2481 67.4899 17.1732 66.9661 17.1732C66.592 17.1732 66.2554 17.2331 65.9561 17.3528C65.6568 17.4725 65.4024 17.5997 65.1929 17.7344C64.9385 17.899 64.7066 18.086 64.4971 18.2955L64.0482 17.2855ZM82.0048 27.7228C80.8826 27.7228 80.0221 27.4534 79.4236 26.9147C78.825 26.3611 78.5257 25.6578 78.5257 24.8048C78.5257 24.2961 78.623 23.8322 78.8175 23.4132C79.027 22.9792 79.3712 22.6126 79.85 22.3133C80.3289 21.9991 80.9574 21.7597 81.7355 21.5951C82.5286 21.4155 83.5162 21.3257 84.6983 21.3257C84.6983 20.7571 84.5412 20.3157 84.227 20.0014C83.9277 19.6872 83.5237 19.5301 83.0149 19.5301C82.6707 19.5301 82.3939 19.5899 82.1844 19.7096C81.9899 19.8293 81.8328 19.9565 81.7131 20.0912C81.5784 20.2558 81.4886 20.4429 81.4437 20.6524H78.8624C78.9223 20.1735 79.057 19.7246 79.2665 19.3056C79.4909 18.8866 79.7902 18.52 80.1643 18.2058C80.5384 17.8915 80.9798 17.6446 81.4886 17.465C82.0123 17.2705 82.5959 17.1732 83.2394 17.1732C83.823 17.1732 84.3617 17.278 84.8555 17.4875C85.3493 17.682 85.7757 17.9589 86.1349 18.318C86.494 18.6771 86.7708 19.1036 86.9654 19.5974C87.1749 20.0912 87.2796 20.6299 87.2796 21.2135V27.6106H85.3717L84.9228 26.6005C84.6834 26.81 84.4215 26.997 84.1372 27.1616C83.8828 27.3113 83.5761 27.446 83.2169 27.5657C82.8578 27.6704 82.4538 27.7228 82.0048 27.7228ZM82.4538 25.7027C83.1271 25.7027 83.6658 25.5081 84.0699 25.1191C84.4888 24.715 84.6983 24.1988 84.6983 23.5703V23.1214C83.9352 23.1214 83.3217 23.1588 82.8578 23.2336C82.3939 23.2935 82.0273 23.3907 81.7579 23.5254C81.5036 23.6451 81.3315 23.7948 81.2417 23.9743C81.1519 24.1539 81.107 24.3559 81.107 24.5804C81.107 24.8647 81.2342 25.1266 81.4886 25.366C81.743 25.5904 82.0647 25.7027 82.4538 25.7027ZM91.0866 17.5099H89.8521V31.2019H91.5356V26.376C91.745 26.6304 91.9994 26.8549 92.2987 27.0494C92.5531 27.214 92.8673 27.3711 93.2414 27.5208C93.6155 27.6555 94.057 27.7228 94.5657 27.7228C95.2092 27.7228 95.8152 27.5956 96.3839 27.3412C96.9674 27.0868 97.4687 26.7352 97.8877 26.2863C98.3217 25.8224 98.6584 25.2762 98.8978 24.6477C99.1522 24.0192 99.2794 23.3234 99.2794 22.5602C99.2794 21.7971 99.1522 21.1013 98.8978 20.4728C98.6584 19.8443 98.3217 19.3056 97.8877 18.8567C97.4687 18.3928 96.9674 18.0337 96.3839 17.7793C95.8152 17.5249 95.2092 17.3977 94.5657 17.3977C94.057 17.3977 93.6155 17.465 93.2414 17.5997C92.8673 17.7194 92.5531 17.8616 92.2987 18.0262C91.9994 18.2058 91.745 18.4078 91.5356 18.6322L91.0866 17.5099ZM95.6431 25.9047C95.269 26.0693 94.8725 26.1516 94.4535 26.1516C94.0345 26.1516 93.6305 26.0693 93.2414 25.9047C92.8673 25.7251 92.5381 25.4782 92.2538 25.164C91.9695 24.8497 91.7376 24.4756 91.558 24.0417C91.3934 23.5928 91.3111 23.0989 91.3111 22.5602C91.3111 22.0215 91.3934 21.5352 91.558 21.1013C91.7376 20.6524 91.9695 20.2708 92.2538 19.9565C92.5381 19.6423 92.8673 19.4029 93.2414 19.2383C93.6305 19.0587 94.0345 18.9689 94.4535 18.9689C94.8725 18.9689 95.269 19.0587 95.6431 19.2383C96.0322 19.4029 96.3689 19.6423 96.6532 19.9565C96.9375 20.2708 97.162 20.6524 97.3266 21.1013C97.5061 21.5352 97.5959 22.0215 97.5959 22.5602C97.5959 23.0989 97.5061 23.5928 97.3266 24.0417C97.162 24.4756 96.9375 24.8497 96.6532 25.164C96.3689 25.4782 96.0322 25.7251 95.6431 25.9047ZM101.513 17.5099H102.748L103.197 18.6322C103.406 18.4078 103.653 18.2058 103.938 18.0262C104.192 17.8616 104.499 17.7194 104.858 17.5997C105.217 17.465 105.636 17.3977 106.115 17.3977H106.339V19.0811H105.89C105.097 19.0811 104.446 19.3355 103.938 19.8443C103.444 20.3531 103.197 21.0339 103.197 21.8869V27.6106H101.513V17.5099ZM109.926 17.5099H108.243V27.6106H109.926V17.5099ZM108.31 15.4225C108.52 15.617 108.774 15.7143 109.073 15.7143C109.388 15.7143 109.642 15.617 109.836 15.4225C110.046 15.213 110.151 14.9586 110.151 14.6593C110.151 14.3451 110.046 14.0907 109.836 13.8962C109.642 13.6867 109.388 13.5819 109.073 13.5819C108.774 13.5819 108.52 13.6867 108.31 13.8962C108.116 14.0907 108.018 14.3451 108.018 14.6593C108.018 14.9586 108.116 15.213 108.31 15.4225ZM112.846 17.5099H114.08L114.529 18.6322C114.694 18.4078 114.896 18.2058 115.135 18.0262C115.345 17.8616 115.599 17.7194 115.899 17.5997C116.198 17.465 116.564 17.3977 116.998 17.3977C117.507 17.3977 117.934 17.495 118.278 17.6895C118.637 17.8691 118.929 18.0711 119.153 18.2955C119.423 18.5649 119.64 18.8642 119.804 19.1934C119.999 18.8642 120.238 18.5649 120.522 18.2955C120.777 18.0711 121.091 17.8691 121.465 17.6895C121.839 17.495 122.296 17.3977 122.834 17.3977C123.283 17.3977 123.71 17.495 124.114 17.6895C124.518 17.8691 124.877 18.1384 125.191 18.4976C125.505 18.8567 125.752 19.2981 125.932 19.8219C126.111 20.3306 126.201 20.9067 126.201 21.5502V27.6106H124.518V21.5502C124.518 20.6972 124.323 20.0538 123.934 19.6198C123.545 19.1859 123.066 18.9689 122.498 18.9689C121.929 18.9689 121.428 19.2009 120.994 19.6647C120.575 20.1286 120.365 20.7571 120.365 21.5502V27.6106H118.682V21.5502C118.682 20.6972 118.487 20.0538 118.098 19.6198C117.709 19.1859 117.23 18.9689 116.662 18.9689C116.392 18.9689 116.123 19.0363 115.854 19.1709C115.599 19.2906 115.375 19.4702 115.18 19.7096C114.986 19.9341 114.829 20.2034 114.709 20.5177C114.589 20.8319 114.529 21.1761 114.529 21.5502V27.6106H112.846V17.5099ZM131.268 27.3412C131.851 27.5956 132.48 27.7228 133.153 27.7228C133.707 27.7228 134.208 27.648 134.657 27.4983C135.121 27.3337 135.525 27.1242 135.869 26.8698C136.228 26.6155 136.535 26.3162 136.789 25.972C137.044 25.6278 137.253 25.2762 137.418 24.9171H135.622C135.533 25.0368 135.413 25.1714 135.263 25.3211C135.128 25.4558 134.956 25.583 134.747 25.7027C134.552 25.8224 134.32 25.9271 134.051 26.0169C133.782 26.1067 133.482 26.1516 133.153 26.1516C132.764 26.1516 132.39 26.0768 132.031 25.9271C131.672 25.7625 131.358 25.553 131.088 25.2986C130.819 25.0443 130.594 24.745 130.415 24.4008C130.25 24.0566 130.153 23.705 130.123 23.3458H137.53C137.545 23.271 137.56 23.1887 137.575 23.0989C137.59 23.0241 137.605 22.9343 137.62 22.8296C137.635 22.7249 137.642 22.5977 137.642 22.448C137.642 21.6849 137.515 20.9965 137.261 20.383C137.021 19.7545 136.692 19.2233 136.273 18.7893C135.854 18.3404 135.36 17.9963 134.792 17.7568C134.238 17.5174 133.655 17.3977 133.041 17.3977C132.428 17.3977 131.836 17.5249 131.268 17.7793C130.699 18.0337 130.198 18.3928 129.764 18.8567C129.33 19.3056 128.978 19.8443 128.709 20.4728C128.455 21.1013 128.327 21.7971 128.327 22.5602C128.327 23.3234 128.447 24.0192 128.687 24.6477C128.941 25.2762 129.285 25.8224 129.719 26.2863C130.168 26.7352 130.684 27.0868 131.268 27.3412ZM135.6 20.7197C135.779 21.0788 135.899 21.4679 135.959 21.8869H130.123C130.183 21.4679 130.295 21.0788 130.46 20.7197C130.639 20.3606 130.856 20.0538 131.111 19.7994C131.38 19.545 131.679 19.343 132.009 19.1934C132.338 19.0437 132.682 18.9689 133.041 18.9689C133.4 18.9689 133.744 19.0437 134.074 19.1934C134.403 19.343 134.695 19.545 134.949 19.7994C135.218 20.0538 135.435 20.3606 135.6 20.7197Z" fill="#7A8AA0"/>
</svg>
