<svg width="110" height="33" viewBox="0 0 110 33" fill="none" xmlns="http://www.w3.org/2000/svg">
<mask id="path-1-inside-1_10814_532" fill="white">
<path d="M40.3447 24.1872C39.7215 23.9962 39.1453 23.6777 38.6531 23.2522L39.1831 22.1563C39.6398 22.5369 40.162 22.8321 40.7243 23.0278C41.3007 23.2136 41.9039 23.3039 42.5098 23.2952C43.2616 23.2952 43.848 23.153 44.2577 22.8707C44.4558 22.7395 44.6165 22.5598 44.7245 22.3489C44.8325 22.138 44.884 21.9029 44.8742 21.6664C44.8829 21.4646 44.8335 21.2646 44.732 21.0897C44.6305 20.9148 44.481 20.7724 44.3009 20.679C43.7195 20.3951 43.1026 20.1894 42.4666 20.0676C41.7899 19.9321 41.1273 19.7343 40.4875 19.4766C40.0123 19.2858 39.5951 18.9752 39.2771 18.5753C38.9726 18.1551 38.8185 17.6455 38.8392 17.1279C38.8285 16.5685 38.9912 16.0194 39.3053 15.5553C39.6391 15.0856 40.0989 14.7189 40.6322 14.4969C41.2624 14.2339 41.9413 14.1065 42.6245 14.1229C43.3045 14.1188 43.9805 14.2281 44.6242 14.4464C45.2034 14.6358 45.7309 14.9558 46.1654 15.3814L45.656 16.4678C45.2254 16.1069 44.7393 15.8171 44.2164 15.6095C43.7144 15.4208 43.1817 15.3258 42.6451 15.329C41.9197 15.329 41.3489 15.4805 40.9329 15.7834C40.7319 15.9254 40.5696 16.115 40.4607 16.3351C40.3518 16.5551 40.2996 16.7987 40.309 17.0438C40.2987 17.2504 40.3437 17.4561 40.4395 17.6397C40.5352 17.8234 40.6783 17.9785 40.854 18.0891C41.2174 18.3247 41.8006 18.5385 42.6038 18.7305C43.2982 18.8792 43.9804 19.0792 44.6449 19.3289C45.1245 19.506 45.553 19.7975 45.8929 20.1779C46.2155 20.5744 46.3812 21.0745 46.359 21.5841C46.3694 22.1342 46.2064 22.6737 45.8929 23.1269C45.5564 23.5879 45.0939 23.9429 44.5603 24.1498C43.9047 24.403 43.2054 24.525 42.5023 24.5088C41.7706 24.515 41.0424 24.4064 40.3447 24.1872ZM48.1802 24.3891V14.2238H49.6556V24.3854L48.1802 24.3891ZM60.5208 14.2238H61.6973V24.3854H60.3648L60.3779 17.0344L57.3708 22.7566H56.369L53.3431 17.1074L53.3581 24.3854H52.0256V14.2238H53.2153L56.884 21.2569L60.5208 14.2238ZM64.0617 14.2238H68.2473C69.3186 14.2238 70.1499 14.4881 70.7413 15.0167C71.3327 15.5453 71.6291 16.2933 71.6303 17.2607C71.6303 18.2194 71.334 18.9674 70.7413 19.5047C70.1487 20.042 69.3173 20.3107 68.2473 20.3107H65.539V24.376H64.0617V14.2238ZM68.0894 19.1251C69.5053 19.1251 70.2126 18.5055 70.2113 17.2663C70.2101 16.0271 69.5028 15.4131 68.0894 15.4244H65.539V19.1288L68.0894 19.1251ZM73.4083 24.3891V14.2238H74.8856V23.1456H79.7872V24.3854L73.4083 24.3891ZM87.4705 14.2238L83.4428 19.6468V24.3891H81.9655V19.6468L77.9378 14.2238H79.6294L82.7117 18.4182L85.794 14.2238H87.4705ZM99.469 14.2238H100.973L96.5258 24.3891H95.2778L90.8254 14.2238H92.359L95.9131 22.5116L99.469 14.2238ZM103.747 23.8693C103.024 23.4451 102.445 22.8153 102.085 22.061C101.681 21.1977 101.482 20.2531 101.505 19.3009C101.482 18.3486 101.681 17.4041 102.085 16.5408C102.444 15.7879 103.023 15.1602 103.747 14.74C104.525 14.3067 105.407 14.0903 106.299 14.1135C106.953 14.1081 107.604 14.2176 108.22 14.437C108.783 14.6373 109.296 14.9563 109.723 15.372L109.201 16.4678C108.787 16.1049 108.315 15.8152 107.803 15.6114C107.322 15.4334 106.812 15.3435 106.299 15.3458C105.247 15.3458 104.436 15.6868 103.869 16.3687C103.301 17.0506 103.017 18.0255 103.016 19.2934C103.016 20.5612 103.3 21.5392 103.869 22.2274C104.438 22.9156 105.248 23.2615 106.299 23.2652C106.812 23.2693 107.321 23.1813 107.803 23.0053C108.313 22.803 108.786 22.5152 109.199 22.1545L109.716 23.2503C109.288 23.666 108.775 23.985 108.212 24.1853C107.599 24.4047 106.951 24.5143 106.299 24.5088C105.406 24.5306 104.523 24.3095 103.747 23.8693Z"/>
</mask>
<path d="M40.3447 24.1872C39.7215 23.9962 39.1453 23.6777 38.6531 23.2522L39.1831 22.1563C39.6398 22.5369 40.162 22.8321 40.7243 23.0278C41.3007 23.2136 41.9039 23.3039 42.5098 23.2952C43.2616 23.2952 43.848 23.153 44.2577 22.8707C44.4558 22.7395 44.6165 22.5598 44.7245 22.3489C44.8325 22.138 44.884 21.9029 44.8742 21.6664C44.8829 21.4646 44.8335 21.2646 44.732 21.0897C44.6305 20.9148 44.481 20.7724 44.3009 20.679C43.7195 20.3951 43.1026 20.1894 42.4666 20.0676C41.7899 19.9321 41.1273 19.7343 40.4875 19.4766C40.0123 19.2858 39.5951 18.9752 39.2771 18.5753C38.9726 18.1551 38.8185 17.6455 38.8392 17.1279C38.8285 16.5685 38.9912 16.0194 39.3053 15.5553C39.6391 15.0856 40.0989 14.7189 40.6322 14.4969C41.2624 14.2339 41.9413 14.1065 42.6245 14.1229C43.3045 14.1188 43.9805 14.2281 44.6242 14.4464C45.2034 14.6358 45.7309 14.9558 46.1654 15.3814L45.656 16.4678C45.2254 16.1069 44.7393 15.8171 44.2164 15.6095C43.7144 15.4208 43.1817 15.3258 42.6451 15.329C41.9197 15.329 41.3489 15.4805 40.9329 15.7834C40.7319 15.9254 40.5696 16.115 40.4607 16.3351C40.3518 16.5551 40.2996 16.7987 40.309 17.0438C40.2987 17.2504 40.3437 17.4561 40.4395 17.6397C40.5352 17.8234 40.6783 17.9785 40.854 18.0891C41.2174 18.3247 41.8006 18.5385 42.6038 18.7305C43.2982 18.8792 43.9804 19.0792 44.6449 19.3289C45.1245 19.506 45.553 19.7975 45.8929 20.1779C46.2155 20.5744 46.3812 21.0745 46.359 21.5841C46.3694 22.1342 46.2064 22.6737 45.8929 23.1269C45.5564 23.5879 45.0939 23.9429 44.5603 24.1498C43.9047 24.403 43.2054 24.525 42.5023 24.5088C41.7706 24.515 41.0424 24.4064 40.3447 24.1872ZM48.1802 24.3891V14.2238H49.6556V24.3854L48.1802 24.3891ZM60.5208 14.2238H61.6973V24.3854H60.3648L60.3779 17.0344L57.3708 22.7566H56.369L53.3431 17.1074L53.3581 24.3854H52.0256V14.2238H53.2153L56.884 21.2569L60.5208 14.2238ZM64.0617 14.2238H68.2473C69.3186 14.2238 70.1499 14.4881 70.7413 15.0167C71.3327 15.5453 71.6291 16.2933 71.6303 17.2607C71.6303 18.2194 71.334 18.9674 70.7413 19.5047C70.1487 20.042 69.3173 20.3107 68.2473 20.3107H65.539V24.376H64.0617V14.2238ZM68.0894 19.1251C69.5053 19.1251 70.2126 18.5055 70.2113 17.2663C70.2101 16.0271 69.5028 15.4131 68.0894 15.4244H65.539V19.1288L68.0894 19.1251ZM73.4083 24.3891V14.2238H74.8856V23.1456H79.7872V24.3854L73.4083 24.3891ZM87.4705 14.2238L83.4428 19.6468V24.3891H81.9655V19.6468L77.9378 14.2238H79.6294L82.7117 18.4182L85.794 14.2238H87.4705ZM99.469 14.2238H100.973L96.5258 24.3891H95.2778L90.8254 14.2238H92.359L95.9131 22.5116L99.469 14.2238ZM103.747 23.8693C103.024 23.4451 102.445 22.8153 102.085 22.061C101.681 21.1977 101.482 20.2531 101.505 19.3009C101.482 18.3486 101.681 17.4041 102.085 16.5408C102.444 15.7879 103.023 15.1602 103.747 14.74C104.525 14.3067 105.407 14.0903 106.299 14.1135C106.953 14.1081 107.604 14.2176 108.22 14.437C108.783 14.6373 109.296 14.9563 109.723 15.372L109.201 16.4678C108.787 16.1049 108.315 15.8152 107.803 15.6114C107.322 15.4334 106.812 15.3435 106.299 15.3458C105.247 15.3458 104.436 15.6868 103.869 16.3687C103.301 17.0506 103.017 18.0255 103.016 19.2934C103.016 20.5612 103.3 21.5392 103.869 22.2274C104.438 22.9156 105.248 23.2615 106.299 23.2652C106.812 23.2693 107.321 23.1813 107.803 23.0053C108.313 22.803 108.786 22.5152 109.199 22.1545L109.716 23.2503C109.288 23.666 108.775 23.985 108.212 24.1853C107.599 24.4047 106.951 24.5143 106.299 24.5088C105.406 24.5306 104.523 24.3095 103.747 23.8693Z" fill="#7A8AA0" stroke="#7A8AA0" stroke-width="0.323796" mask="url(#path-1-inside-1_10814_532)"/>
<path fill-rule="evenodd" clip-rule="evenodd" d="M16.9621 0L19.8947 1.74025V5.16314L16.9169 6.90122L14.0212 5.15913V1.73985L16.9621 0ZM14.9329 2.25977V4.64366L16.9239 5.84149L18.983 4.63965V2.25937L16.9614 1.05971L14.9329 2.25977Z" fill="#7A8AA0"/>
<path d="M16.9204 3.95714L16.5821 3.77015V3.35314L16.9204 3.16614L17.2587 3.35314V3.76828L16.9204 3.95714Z" fill="#7A8AA0"/>
<path fill-rule="evenodd" clip-rule="evenodd" d="M16.9204 3.16614L16.5821 3.35314V3.77015L16.9204 3.95714L17.2587 3.76828V3.35314L16.9204 3.16614Z" fill="#7A8AA0"/>
<path fill-rule="evenodd" clip-rule="evenodd" d="M30.1388 23.5538L33.0717 25.252V28.6088L30.1388 30.307L27.2038 28.6089V25.2519L30.1388 23.5538ZM28.1155 25.7777V28.0831L30.1386 29.2536L32.16 28.0832V25.7776L30.1386 24.6072L28.1155 25.7777Z" fill="#7A8AA0"/>
<path d="M30.1387 27.3269L29.8004 27.1399V26.7247L30.1387 26.5377L30.4751 26.7247V27.1399L30.1387 27.3269Z" fill="#7A8AA0"/>
<path fill-rule="evenodd" clip-rule="evenodd" d="M30.1387 26.5377L29.8004 26.7247V27.1399L30.1387 27.3269L30.4751 27.1399V26.7247L30.1387 26.5377Z" fill="#7A8AA0"/>
<path fill-rule="evenodd" clip-rule="evenodd" d="M25.9426 10.7587L28.8673 12.4661V15.8139L25.9426 17.5125L22.9995 15.8148V12.4652L25.9426 10.7587ZM23.9111 12.9904V15.2882L25.9411 16.4591L27.9556 15.2891V12.9895L25.9411 11.8134L23.9111 12.9904Z" fill="#7A8AA0"/>
<path d="M25.9418 14.5323L25.6035 14.3453V13.9283L25.9418 13.7413L26.2782 13.9283V14.3435L25.9418 14.5323Z" fill="#7A8AA0"/>
<path fill-rule="evenodd" clip-rule="evenodd" d="M25.9418 13.7413L25.6035 13.9283V14.3453L25.9418 14.5323L26.2782 14.3435V13.9283L25.9418 13.7413Z" fill="#7A8AA0"/>
<path fill-rule="evenodd" clip-rule="evenodd" d="M7.95156 10.7667L10.8845 12.4649V15.8142L7.95156 17.5125L5.01857 15.8142V12.4649L7.95156 10.7667ZM7.95156 11.8202L5.93026 12.9906V15.2886L7.95156 16.459L9.97285 15.2886V12.9906L7.95156 11.8202Z" fill="#7A8AA0"/>
<path d="M7.95156 14.5323L7.61325 14.3453V13.9283L7.95156 13.7413L8.28986 13.9283V14.3435L7.95156 14.5323Z" fill="#7A8AA0"/>
<path fill-rule="evenodd" clip-rule="evenodd" d="M7.95156 13.7413L7.61325 13.9283V14.3453L7.95156 14.5323L8.28986 14.3435V13.9283L7.95156 13.7413Z" fill="#7A8AA0"/>
<path fill-rule="evenodd" clip-rule="evenodd" d="M3.70957 23.5538L6.64255 25.2521V28.6088L3.70957 30.3071L0.776581 28.6088V25.2521L3.70957 23.5538ZM1.68827 25.7777V28.0832L3.70957 29.2536L5.73087 28.0832V25.7777L3.70957 24.6073L1.68827 25.7777Z" fill="#7A8AA0"/>
<path d="M3.70957 27.3269L3.37126 27.1399V26.7247L3.70957 26.5377L4.04787 26.7247V27.1399L3.70957 27.3269Z" fill="#7A8AA0"/>
<path fill-rule="evenodd" clip-rule="evenodd" d="M3.70957 26.5377L3.37126 26.7247V27.1399L3.70957 27.3269L4.04787 27.1399V26.7247L3.70957 26.5377Z" fill="#7A8AA0"/>
<path fill-rule="evenodd" clip-rule="evenodd" d="M16.9542 25.8953L19.8872 27.5913V30.9439L16.9173 32.647L14.0212 30.9403V27.5913L16.9542 25.8953ZM14.9329 28.1172V30.4193L16.9235 31.5924L18.9755 30.4157V28.1172L16.9542 26.9484L14.9329 28.1172Z" fill="#7A8AA0"/>
<path d="M16.9204 29.6661L16.5821 29.4791V29.064L16.9204 28.877L17.2587 29.064V29.4791L16.9204 29.6661Z" fill="#7A8AA0"/>
<path fill-rule="evenodd" clip-rule="evenodd" d="M16.9204 28.877L16.5821 29.064V29.4791L16.9204 29.6661L17.2587 29.4791V29.064L16.9204 28.877Z" fill="#7A8AA0"/>
<path d="M23.3801 15.589L6.41226 25.3634L23.3801 15.589Z" fill="#7A8AA0"/>
<path fill-rule="evenodd" clip-rule="evenodd" d="M17.3762 6.1123V18.5215L23.5476 14.9665L24.0027 15.7564L17.8447 19.3038L28.2071 25.2766L27.7518 26.0664L17.3762 20.0861V26.5748H16.4645V20.0988L6.24481 25.986L5.78973 25.196L16.0186 19.3036L9.99407 15.8311L10.4493 15.0412L16.4645 18.5083V6.1123H17.3762Z" fill="#7A8AA0"/>
</svg>
