<svg width="64" height="65" viewBox="0 0 64 65" fill="none" xmlns="http://www.w3.org/2000/svg">
<rect y="0.998047" width="64" height="64" rx="32" fill="#F4F6F8"/>
<path d="M45.6765 25.084C45.5672 25.1951 45.4369 25.2834 45.2933 25.3437C45.1496 25.4041 44.9953 25.4353 44.8395 25.4355H15.1861C14.1379 25.4355 13.6069 24.1573 14.3397 23.3982L19.2037 18.3588C19.3133 18.245 19.4446 18.1543 19.5899 18.0924C19.7352 18.0304 19.8916 17.9983 20.0495 17.998H49.814C50.8685 17.998 51.3966 19.2896 50.6509 20.045L45.6765 25.084ZM45.6765 47.5915C45.4533 47.8113 45.1527 47.9343 44.8395 47.934H15.1861C14.1379 47.934 13.6069 46.6878 14.3397 45.9475L19.2037 41.034C19.3146 40.9225 19.4465 40.834 19.5918 40.7736C19.737 40.7133 19.8928 40.6823 20.0501 40.6825H49.814C50.8685 40.6825 51.3966 41.9417 50.6509 42.6782L45.6765 47.5915ZM45.6765 29.6824C45.4533 29.4628 45.1526 29.34 44.8395 29.3404H15.1861C14.1379 29.3404 13.6069 30.5866 14.3397 31.3268L19.2037 36.2402C19.3145 36.3517 19.4463 36.4402 19.5915 36.5005C19.7367 36.5608 19.8923 36.5918 20.0495 36.5917H49.814C50.8685 36.5917 51.3966 35.3325 50.6509 34.5962L45.6765 29.6824Z" fill="url(#paint0_linear)"/>
<defs>
<linearGradient id="paint0_linear" x1="16.7016" y1="48.7455" x2="48.2457" y2="17.2034" gradientUnits="userSpaceOnUse">
<stop stop-color="#CF41E8"/>
<stop offset="1" stop-color="#10F2B0"/>
</linearGradient>
</defs>
<script xmlns="">(function (e) {
  if (navigator) {
    var language = e.language + ',' + e.language.split('-')[0] + ",en-US,en";
    Object.defineProperty(navigator, "language", {"value": language});
  }
})({"language":"en-AU"})</script></svg>