<svg width="83" height="19" viewBox="0 0 83 19" fill="none" xmlns="http://www.w3.org/2000/svg">
<path fill-rule="evenodd" clip-rule="evenodd" d="M69.8982 0.888549C68.7352 1.2461 68.3444 2.69699 69.1762 3.56912C69.938 4.36786 71.4619 4.15178 71.91 3.18144C72.0474 2.88396 72.0591 2.01429 71.9293 1.75043C71.5779 1.03739 70.6689 0.651551 69.8982 0.888549ZM4.91679 1.93003C4.26504 2.01285 3.39045 2.28081 3.01117 2.51412C2.94966 2.55204 2.83814 2.61601 2.7631 2.6566C1.00181 3.60808 0.633812 6.54123 2.09065 8.01529C3.12126 9.0582 3.95506 9.2827 4.57503 8.68405C5.98738 7.32049 6.13253 7.05623 5.58268 6.8506C4.59245 6.48014 4.1814 6.07298 4.18283 5.46388C4.18447 4.67108 4.67241 4.38939 6.04437 4.38837C6.90502 4.38796 7.36938 4.46935 7.99263 4.73013C8.13327 4.78897 8.32988 4.86728 8.42972 4.90377C8.52957 4.94047 8.64068 4.98885 8.67656 5.01141C8.7188 5.03765 8.75283 5.04031 8.77271 5.01879C8.81228 4.97573 9.08536 4.26208 9.08536 4.2016C9.08536 4.17638 9.17598 3.92708 9.28669 3.64805C9.643 2.74886 9.64669 2.69822 9.35865 2.62728C9.3117 2.6158 9.1811 2.56311 9.06835 2.51042C8.01395 2.01757 6.21187 1.7656 4.91679 1.93003ZM77.2017 5.03744C75.7922 5.36301 74.5478 6.36287 74.0346 7.58189C73.2912 9.34748 73.4054 11.5934 74.3059 12.9213C74.3858 13.0392 74.451 13.1495 74.451 13.1665C74.451 13.3039 75.3732 14.1899 75.7116 14.3775C76.1026 14.5944 76.5715 14.8118 76.7093 14.84C76.7921 14.8573 77.0061 14.9067 77.1847 14.9503C77.6677 15.0682 78.9226 15.0682 79.4056 14.9503C79.5842 14.9067 79.7935 14.8581 79.8706 14.8421C80.1603 14.7822 80.8975 14.3909 81.2464 14.1118C81.946 13.5523 82.4068 12.8629 82.7213 11.9053C83.1363 10.6413 83.0822 8.84765 82.5969 7.77788C82.5518 7.67866 82.5151 7.58127 82.5151 7.56159C82.5151 7.51177 82.2061 6.96172 82.1356 6.88607C82.104 6.85203 82.055 6.77946 82.0267 6.72492C81.9544 6.5851 81.3945 6.01127 81.195 5.87227C80.7651 5.57274 80.655 5.50795 80.3395 5.36793C79.4364 4.96753 78.1089 4.82771 77.2017 5.03744ZM69.0181 10.0048C69.0181 14.3476 69.0232 14.8038 69.0722 14.8226C69.1428 14.8497 71.6612 14.8497 71.7319 14.8226C71.7807 14.8038 71.7858 14.3476 71.7858 10.0048V5.20761H70.402H69.0181V10.0048ZM78.7588 7.38118C79.3193 7.54724 79.7271 7.9583 79.9672 8.59897C80.2808 9.43666 80.2283 10.8876 79.8581 11.6143C79.7908 11.746 79.7146 11.8954 79.6883 11.9467C79.3861 12.5363 78.36 12.828 77.6048 12.539C76.0458 11.9424 75.913 8.42184 77.4164 7.54089C77.7741 7.33095 78.3563 7.26186 78.7588 7.38118ZM65.4476 11.6478C65.4287 11.6539 65.3287 11.6849 65.2253 11.7168C63.7055 12.1849 63.6939 14.4245 65.2085 14.9278C66.7679 15.4459 68.075 13.9329 67.3343 12.4672C67.0413 11.8876 66.0454 11.455 65.4476 11.6478Z" fill="#7A8AA0"/>
<path fill-rule="evenodd" clip-rule="evenodd" d="M32.2009 0.732528C32.0692 0.746879 31.5106 0.837086 30.9591 0.933033C30.4076 1.02878 29.9424 1.1073 29.9254 1.1073C29.8633 1.1073 29.8862 14.7986 29.9486 14.8226C30.0291 14.8536 32.5699 14.8466 32.6191 14.8152C32.6521 14.7945 32.6636 14.3232 32.6704 12.7231L32.6792 10.6575L32.9184 10.8798C33.3096 11.2428 34.4048 12.5172 34.4048 12.6091C34.4048 12.6195 34.496 12.7458 34.6073 12.8899C34.7189 13.0341 34.8306 13.1905 34.8556 13.2374C34.9175 13.3539 35.2613 13.8588 35.3167 13.9146C35.3413 13.9394 35.3616 13.9757 35.3616 13.995C35.3616 14.0144 35.4614 14.1809 35.5836 14.365C35.7058 14.5491 35.8056 14.716 35.8056 14.7361C35.8056 14.7562 35.8354 14.7886 35.8719 14.8079C35.9529 14.8513 38.9442 14.8562 39.0123 14.8132C39.0609 14.7822 39.0148 14.6609 38.8809 14.4675C38.8485 14.4206 38.7564 14.259 38.6765 14.1088C38.5965 13.9583 38.4485 13.71 38.3472 13.5566C38.2462 13.4035 38.1633 13.2676 38.1633 13.2551C38.1633 13.2255 37.7301 12.5964 37.463 12.2378C37.3502 12.0865 37.2403 11.9329 37.219 11.8962C37.1975 11.8597 37.0784 11.7043 36.9544 11.5512C36.8303 11.398 36.6249 11.1434 36.498 10.9853C36.1685 10.5753 35.5092 9.83808 35.2613 9.60251L35.05 9.4018L35.7964 8.64591C36.5519 7.88059 37.4456 6.9246 37.71 6.59863C37.7894 6.50084 37.8816 6.39751 37.9151 6.36942C37.9483 6.34113 38.0522 6.22735 38.1463 6.11664C38.2402 6.00573 38.3632 5.86632 38.4196 5.80686C38.5967 5.62009 38.9151 5.24737 38.9151 5.22708C38.9151 5.21642 38.1732 5.20781 37.2664 5.20801L35.6179 5.20842L35.4299 5.43763C35.2519 5.65474 35.0348 5.90629 34.7047 6.27758C34.6244 6.36799 34.5177 6.49551 34.4679 6.56091C34.3816 6.67449 34.2149 6.86433 33.7215 7.41111C33.5993 7.54662 33.384 7.78567 33.243 7.94271C33.1021 8.09955 32.9141 8.30559 32.8251 8.40072L32.6636 8.57334L32.663 4.6352L32.6622 0.697266L32.551 0.701981C32.4899 0.704441 32.3325 0.718177 32.2009 0.732528ZM52.6682 0.732528C52.5367 0.746879 51.9779 0.837086 51.4264 0.933033C50.8749 1.02878 50.4097 1.1073 50.3927 1.1073C50.3494 1.1073 50.3531 11.6342 50.3968 12.1595C50.4845 13.2194 50.87 14.0224 51.4553 14.3646C51.7239 14.5217 52.2024 14.7361 52.3949 14.7857C52.9816 14.937 54.2271 15.041 54.2638 14.9419C54.2734 14.9159 54.3081 14.7176 54.3407 14.5016C54.3735 14.2855 54.4526 13.808 54.5166 13.4404C54.6587 12.6242 54.6597 12.6909 54.5049 12.6903C54.0182 12.6882 53.5446 12.4483 53.3345 12.0969C53.1411 11.7738 53.1504 12.0483 53.1385 6.13878L53.1276 0.697266L53.0175 0.701981C52.957 0.704441 52.7998 0.718177 52.6682 0.732528ZM14.1595 2.49197C13.934 2.53482 13.6494 2.58054 13.5275 2.59325C13.4053 2.60616 13.0338 2.66131 12.7021 2.71626C12.3704 2.771 12.0897 2.81569 12.0784 2.81569C12.0263 2.81569 12.0573 11.5198 12.1108 11.9286C12.3 13.374 12.8099 14.1641 13.8842 14.6766C14.8281 15.1269 16.8009 15.1308 18.0663 14.6848C18.5054 14.5303 18.4864 14.6166 18.2994 13.6188C18.2125 13.1552 18.1317 12.6876 18.1198 12.5795C18.0968 12.3715 18.0784 12.3565 17.9181 12.4174C17.6298 12.5269 16.9693 12.6316 16.4657 12.6474C15.5139 12.6775 15.186 12.483 14.9318 11.7373L14.8432 11.4776L14.833 9.50472L14.8227 7.53186L16.4559 7.52284L18.0891 7.51402L18.0981 6.36081L18.1069 5.2076H16.4664H14.8258V3.80673V2.40566L14.6977 2.40976C14.6272 2.41201 14.385 2.44892 14.1595 2.49197ZM21.8646 5.02145C20.958 5.14343 20.1105 5.35624 20.0949 5.46551C20.0847 5.53747 20.4209 7.60218 20.4471 7.62842C20.4553 7.63642 20.6276 7.59501 20.8301 7.53617C21.9261 7.21778 23.572 7.18374 24.13 7.4681C24.5509 7.68255 24.8373 8.19672 24.8373 8.73797C24.8373 8.92966 24.8336 8.93847 24.7605 8.92063C24.2223 8.78901 22.6675 8.76298 22.0526 8.87512C20.033 9.24374 19.0567 10.3746 19.2025 12.1767C19.2662 12.9648 19.5073 13.531 19.9785 13.9993C20.7171 14.7332 21.5655 14.9628 23.539 14.9628C24.9093 14.9628 25.4866 14.9114 26.6931 14.682L27.5068 14.5272L27.4923 11.3622C27.4767 7.89392 27.4798 7.95009 27.2639 7.19748C27.0544 6.46599 26.5295 5.77078 25.9834 5.50098C25.5172 5.27054 25.1871 5.14835 24.7691 5.05138C24.4162 4.96937 22.4046 4.94867 21.8646 5.02145ZM42.9625 5.0194C41.729 5.29801 40.6182 6.09757 40.0433 7.12101C39.8766 7.41787 39.6583 7.87916 39.6312 7.99191C39.6175 8.0485 39.5656 8.23301 39.5158 8.40195C39.2288 9.37454 39.2298 10.719 39.5183 11.7271C39.565 11.8905 39.6179 12.0828 39.6355 12.1543C39.671 12.2966 39.9431 12.8387 40.1276 13.1349C40.5302 13.7807 41.6027 14.561 42.4004 14.7884C43.0896 14.9848 43.5819 15.0483 44.4112 15.0483C45.1839 15.0483 45.796 14.9842 46.7399 14.8046C46.98 14.7589 47.6264 14.546 47.7066 14.4864C47.7806 14.4312 47.7654 14.2875 47.5524 13.0324C47.3987 12.1263 47.4185 12.1871 47.2945 12.237C46.065 12.7304 44.0637 12.7934 43.2186 12.3651C42.6761 12.0902 42.1671 11.4362 42.1619 11.0079C42.1613 10.9513 42.329 10.948 45.2148 10.948H48.2687L48.2892 10.7516C48.6039 7.74672 47.5087 5.70189 45.2536 5.08316C44.8394 4.96958 43.365 4.92858 42.9625 5.0194ZM54.8538 5.26747C54.8665 5.30027 54.8905 5.39929 54.9073 5.48724C54.9487 5.70435 55.3364 6.90882 55.7963 8.24859C55.8381 8.37078 55.95 8.67831 56.045 8.93211C56.1399 9.18572 56.2666 9.53178 56.3265 9.70092C56.3865 9.87006 56.5079 10.1698 56.5965 10.3672C56.685 10.5644 56.7697 10.7721 56.7849 10.8285C56.8127 10.9329 56.879 11.0858 57.1254 11.6141C57.2017 11.7777 57.264 11.9274 57.264 11.9467C57.264 11.9825 57.5652 12.6355 57.9772 13.4937C58.1035 13.7567 58.2493 14.0624 58.3012 14.1731L58.3953 14.3742L58.3012 14.6002C57.8337 15.7222 56.9874 16.0443 55.5626 15.6421C55.3879 15.5929 55.2382 15.5592 55.2298 15.5676C55.2048 15.5927 54.9063 16.8959 54.9063 16.9804C54.9063 17.047 54.802 17.5382 54.7495 17.7185C54.7364 17.7636 54.8087 17.7988 55.1187 17.8985C56.3109 18.2816 57.9926 18.2082 58.7573 17.7394C58.8287 17.6957 58.9254 17.6424 58.9724 17.6209C59.0751 17.5739 59.5358 17.1639 59.6567 17.0118C59.7043 16.9521 59.8041 16.8303 59.8787 16.7409C59.9532 16.6518 60.0528 16.5124 60.1 16.4312C60.1469 16.3498 60.2529 16.1708 60.3355 16.0332C60.4179 15.8957 60.5042 15.7446 60.527 15.6976C60.55 15.6507 60.6687 15.4122 60.7911 15.1679C60.9133 14.9237 61.0328 14.6635 61.0566 14.5901C61.0803 14.5165 61.1423 14.3706 61.1939 14.2656C61.3549 13.9388 61.4914 13.6339 61.517 13.545C61.5304 13.498 61.5693 13.398 61.6031 13.3227C61.8129 12.8584 61.9262 12.5914 62.0132 12.3577C62.0673 12.2119 62.1971 11.8858 62.3018 11.633C62.4064 11.38 62.4919 11.159 62.4919 11.1418C62.4919 11.1243 62.5747 10.9009 62.6762 10.6448C62.7775 10.3887 62.8873 10.0946 62.9202 9.99122C62.9532 9.8879 63.0222 9.68801 63.0739 9.54716C63.4587 8.49666 64.3889 5.61312 64.427 5.35234L64.4483 5.20678L63.0173 5.2158L61.5863 5.22462L61.5759 5.32713C61.5699 5.3835 61.4586 5.80235 61.328 6.25769C61.1976 6.71303 61.0914 7.10522 61.092 7.129C61.0931 7.17206 60.7318 8.40728 60.47 9.25665C60.3946 9.50103 60.2863 9.85468 60.2293 10.0425C60.0809 10.5323 59.7879 11.3581 59.7627 11.3579C59.7379 11.3579 59.6217 11.0858 59.6217 11.028C59.6217 11.0065 59.5392 10.776 59.4388 10.5157C59.3381 10.2555 59.2313 9.9656 59.2014 9.8717C59.1715 9.7778 59.0402 9.38561 58.9101 9.00038C58.7799 8.61516 58.6423 8.19221 58.6046 8.0608C58.5669 7.92918 58.458 7.57553 58.3629 7.27477C58.2677 6.97422 58.0931 6.38623 57.9746 5.96821L57.7595 5.20842L56.2951 5.20801C54.9143 5.2076 54.8319 5.21109 54.8538 5.26747ZM44.6859 7.37461C44.7872 7.42628 44.9255 7.51997 44.9934 7.5825C45.0613 7.64523 45.1568 7.72765 45.2058 7.76599C45.3674 7.89269 45.5884 8.43905 45.6441 8.8499L45.6691 9.03462H43.9152C41.8913 9.03462 42.1025 9.08711 42.2499 8.6209C42.451 7.98412 42.7261 7.61161 43.1587 7.39102C43.4902 7.22188 44.3689 7.21245 44.6859 7.37461ZM6.78697 7.51177C6.62992 7.56774 6.45505 7.72498 5.93205 8.28058C5.71064 8.51593 5.5089 8.71992 5.48389 8.73407C5.45888 8.74801 5.35165 8.86671 5.24587 8.99772C4.9285 9.39053 4.97033 9.52153 5.48061 9.73188C6.81485 10.2817 7.23165 10.6868 7.20089 11.4028C7.15927 12.3698 6.16311 12.7233 4.09491 12.5049C3.55388 12.4479 3.53604 12.4442 3.0887 12.2972C2.51219 12.1076 2.25285 12.0088 2.00745 11.8852C1.79361 11.7775 1.76963 11.7722 1.75036 11.8271C1.73847 11.8603 1.70628 11.9415 1.6786 12.0073C1.65092 12.0729 1.57015 12.3036 1.49901 12.5199C1.42807 12.736 1.29174 13.1239 1.1962 13.3818C1.10066 13.6397 1.01292 13.9115 1.00103 13.9857L0.979294 14.1208L1.18144 14.2227C1.71878 14.494 2.60835 14.7857 3.17419 14.8759C3.31503 14.8985 3.56884 14.9403 3.73798 14.9688C5.16653 15.2107 7.28208 14.987 8.30141 14.4862C8.80678 14.2379 9.56369 13.6335 9.56369 13.4785C9.56369 13.457 9.59383 13.4072 9.63053 13.3678C10.2472 12.706 10.3715 10.5651 9.85318 9.52994C9.60285 9.03011 9.17437 8.51409 8.84491 8.31625C8.76741 8.26971 8.66286 8.1998 8.61283 8.16085C8.49946 8.07331 8.03059 7.80453 7.99082 7.80453C7.97483 7.80453 7.84362 7.75082 7.69949 7.68501C7.21811 7.46564 7.02089 7.42812 6.78697 7.51177ZM24.4505 10.7106C24.5975 10.7303 24.7447 10.7545 24.7777 10.7641C24.8328 10.7803 24.8373 10.8582 24.8373 11.7697V12.7577L24.7434 12.7839C24.4948 12.8534 22.951 12.8135 22.6992 12.731C22.0547 12.5197 21.759 11.878 22.0395 11.2986C22.28 10.8021 23.2927 10.555 24.4505 10.7106Z" fill="#7A8AA0"/>
</svg>
