<svg width="94" height="18" viewBox="0 0 94 18" fill="none" xmlns="http://www.w3.org/2000/svg">
<path d="M33.7499 1.48889C35.7173 1.57699 37.4205 2.16429 38.5951 3.83811C38.8594 4.21986 39.0356 4.74844 39.0062 5.18891C38.9475 5.89368 38.2721 6.18733 37.6261 5.83495C37.3324 5.65876 37.0094 5.39447 36.8626 5.07145C35.9229 3.39763 33.0451 3.19208 31.6649 4.1024C30.226 5.04209 30.2554 7.06829 31.8411 7.77306C32.7514 8.18417 33.8086 8.36036 34.7777 8.59529C35.3062 8.74211 35.8348 8.77148 36.334 8.97703C38.6832 9.82863 39.6523 11.0032 39.4174 13.9398C39.2705 15.731 37.7729 17.2874 35.7173 17.6692C34.2784 17.9334 32.8395 17.9041 31.4594 17.4049C29.257 16.6414 27.73 14.439 27.8474 12.1485C27.8768 11.4144 28.2586 10.9739 28.8752 10.9445C29.4919 10.9151 29.9911 11.3263 29.9911 12.031C30.0205 15.2318 32.4872 16.0541 34.9538 15.731C35.9523 15.5842 36.7745 15.1731 37.1562 14.1747C37.7142 12.7945 37.1856 11.4144 35.7467 10.9739C34.484 10.5921 33.1626 10.3866 31.8999 10.0635C30.5491 9.6818 29.3157 9.06513 28.7871 7.62623C27.8768 5.01272 28.9633 2.63414 31.7237 1.84127C32.3697 1.63572 33.0745 1.57699 33.7499 1.48889Z" fill="#7A8AA0"/>
<path d="M60.9421 7.36185C60.9715 7.15629 60.9715 7.00946 61.0008 6.83327C61.0889 6.18724 61.5294 5.77612 62.1167 5.77612C62.704 5.80549 63.1445 6.24597 63.1738 6.892C63.2032 7.83169 63.1738 8.74201 63.1738 9.6817C63.1738 11.2381 63.1738 12.8238 63.1738 14.3801C63.1738 14.8206 63.2619 15.0555 63.7318 15.1436C64.3485 15.2905 64.6715 15.7603 64.554 16.4063C64.4366 17.023 63.8492 17.3754 63.1445 17.2579C62.2048 17.1111 61.5588 16.5238 61.0596 15.6722C60.3842 16.6413 59.5326 17.3167 58.3873 17.4929C55.95 17.904 53.6595 16.6706 52.8373 14.3214C52.1325 12.3539 52.1619 10.3571 53.1603 8.419C54.6286 5.5412 58.9453 4.9539 60.7365 7.21502C60.7659 7.30312 60.8246 7.30312 60.9421 7.36185ZM61.0008 11.5904C60.9421 11.2968 60.9127 10.7682 60.7953 10.269C60.4722 9.0063 59.3564 8.06661 58.123 7.97852C56.596 7.86106 55.4508 8.50709 54.9222 9.88726C54.4524 11.0619 54.4524 12.2952 54.8341 13.4698C55.4214 15.2905 57.5944 16.0833 59.2683 15.1436C60.5897 14.4095 60.9421 13.1762 61.0008 11.5904Z" fill="#7A8AA0"/>
<path d="M69.3406 9.12382C70.4564 7.91984 71.5136 6.6865 72.6588 5.51189C73.1287 5.01268 73.716 4.5722 74.3033 4.19046C74.7144 3.92617 75.1842 4.01426 75.4779 4.45474C75.7422 4.89522 75.7128 5.30634 75.3311 5.71745C74.1271 7.00952 72.9231 8.36032 71.6898 9.74049C71.9834 9.88732 72.189 9.97541 72.3945 10.0635C75.0374 11.3849 76.6231 13.4699 77.0343 16.4064C77.1224 17.0231 76.6819 17.581 76.0652 17.6691C75.5366 17.7278 75.1549 17.6691 75.0668 16.9643C74.6263 13.9104 72.8938 12.031 70.016 11.4437C69.781 11.3849 69.5461 11.3849 69.1937 11.3262C69.1937 12.5302 69.1937 13.6754 69.1937 14.8207C69.1937 15.3786 69.2231 15.9366 69.1937 16.4945C69.1644 17.2874 68.7826 17.6985 68.1072 17.6691C67.4318 17.6691 67.0501 17.2286 67.0501 16.4651C67.0501 11.8548 67.0501 7.21508 67.0501 2.60473C67.0501 1.8706 67.5199 1.40076 68.1366 1.40076C68.7532 1.40076 69.1937 1.8706 69.2231 2.6341C69.2231 4.51347 69.2231 6.39285 69.2231 8.27223C69.2231 8.53651 69.2231 8.8008 69.2231 9.06509C69.2231 9.09445 69.2818 9.09445 69.3406 9.12382Z" fill="#7A8AA0"/>
<path d="M86.2843 7.59676C86.6073 7.24438 86.7835 7.00945 86.9891 6.8039C89.1327 4.89515 92.8915 5.92294 93.6844 8.68327C93.8605 9.27058 93.9486 9.88725 93.978 10.4746C94.0074 12.442 94.0074 14.3801 93.978 16.3476C93.978 17.2286 93.5669 17.669 92.8621 17.669C92.1867 17.669 91.805 17.2286 91.805 16.377C91.805 14.7619 91.805 13.1468 91.805 11.5317C91.805 11.2381 91.805 10.9444 91.7756 10.6507C91.6582 9.00629 90.8653 8.03724 89.5438 7.97851C87.8113 7.89041 86.5486 8.77137 86.3724 10.4158C86.2256 11.7373 86.2549 13.0881 86.2256 14.4389C86.1962 15.173 86.2549 15.9071 86.1962 16.6413C86.1668 17.2286 85.8438 17.669 85.1978 17.6984C84.5518 17.7278 84.1994 17.3754 84.0819 16.7587C84.0526 16.5532 84.0526 16.3182 84.0526 16.1127C84.0526 13.1762 84.0526 10.2396 84.0526 7.30311C84.0526 7.00945 84.0526 6.65707 84.2287 6.48088C84.493 6.18723 84.9629 5.83484 85.2565 5.89357C85.6089 5.9523 85.9319 6.42215 86.1962 6.74517C86.3137 6.89199 86.2256 7.18565 86.2843 7.59676Z" fill="#7A8AA0"/>
<path d="M46.2301 6.15787C47.2285 6.15787 48.1388 6.15787 49.0198 6.15787C49.3134 6.15787 49.6071 6.18724 49.9007 6.2166C50.4293 6.3047 50.723 6.62772 50.723 7.18566C50.723 7.77296 50.4 8.12534 49.8126 8.15471C48.9611 8.21344 48.1095 8.18408 47.2579 8.18408C46.9349 8.18408 46.6412 8.18408 46.2888 8.18408C46.2888 9.88726 46.1714 11.5023 46.3182 13.1174C46.4356 14.4682 47.6396 15.3492 49.196 15.4667C50.3412 15.5548 50.7817 15.8778 50.723 16.6119C50.6642 17.3754 50.0182 17.6984 48.9023 17.6103C45.9364 17.3754 43.9102 14.85 44.0571 12.1778C44.1158 11.0912 44.0277 9.97536 44.0864 8.88884C44.1158 8.3309 43.9102 8.15471 43.3523 8.18408C42.7356 8.21344 42.1189 8.21344 41.5316 8.18408C40.7975 8.15471 40.2689 7.7436 40.3277 7.18566C40.3864 6.51026 40.8562 6.2166 41.4729 6.18724C42.2951 6.15787 43.1174 6.18724 44.0864 6.18724C44.0864 5.15945 44.0864 4.21976 44.0864 3.28008C44.0864 2.98642 44.0864 2.69277 44.1158 2.39912C44.1745 1.78245 44.5269 1.45943 45.1142 1.43006C45.7309 1.4007 46.142 1.72372 46.1714 2.31102C46.2301 3.25071 46.2301 4.21976 46.2301 5.15945C46.2301 5.45311 46.2301 5.74676 46.2301 6.15787Z" fill="#7A8AA0"/>
<path d="M6.58701 16.2889C8.08463 16.2889 9.4648 16.4651 10.7862 16.2595C12.7831 15.9365 13.9577 14.2039 13.8696 12.1484C13.7815 10.269 12.2839 8.742 10.3458 8.53645C10.1402 8.50708 9.96401 8.50708 9.75845 8.50708C9.22988 8.50708 8.7894 8.36025 8.81877 7.74358C8.84813 7.18564 9.25924 7.03882 9.75845 7.03882C11.0212 7.03882 12.1958 7.3912 13.1942 8.12533C15.0442 9.5055 15.8077 11.9428 15.1323 14.0865C14.4275 16.2889 12.4013 17.8159 10.0521 17.8452C8.52511 17.8746 6.96875 17.8746 5.44176 17.8452C2.82825 17.8159 0.890146 16.2889 0.156014 13.8222C0.0679183 13.5579 0.00918782 13.2349 0.0385531 12.9706C0.0679183 12.6769 0.156014 12.2658 0.361571 12.1484C0.537763 12.0309 0.978241 12.1484 1.21316 12.2952C2.47587 13.1174 3.85604 13.5579 5.35366 13.6166C6.17589 13.646 6.52828 13.9984 6.58701 14.85C6.58701 15.3198 6.58701 15.7897 6.58701 16.2889Z" fill="#7A8AA0"/>
<path d="M8.76002 2.45788C7.32112 2.45788 5.97032 2.31105 4.64889 2.48724C2.79887 2.72216 1.47744 4.45471 1.47744 6.33409C1.47744 8.2722 2.76951 9.85792 4.70762 10.2397C4.91317 10.269 5.1481 10.3278 5.35365 10.3278C5.88223 10.3571 6.4989 10.269 6.52826 11.0619C6.55763 11.5905 6.08778 11.8254 5.23619 11.7667C2.56395 11.6198 0.302827 9.56427 0.03854 7.15632C-0.313843 3.83804 1.80046 1.63565 4.32587 1.04834C4.53142 0.989614 4.76635 0.989614 4.9719 0.989614C6.79255 0.989614 8.58383 0.960248 10.4045 0.989614C12.8124 0.989614 15.3085 3.48566 15.2791 5.86425C15.2791 6.1579 15.1616 6.53965 14.9561 6.65711C14.7799 6.77457 14.3394 6.65711 14.1339 6.51028C12.8712 5.65869 11.491 5.24758 9.99336 5.18885C9.11241 5.15948 8.76002 4.77773 8.73066 3.89677C8.76002 3.4563 8.76002 2.98645 8.76002 2.45788Z" fill="#7A8AA0"/>
<path d="M81.0573 11.7079C81.0573 13.2349 81.0573 14.7913 81.0573 16.3183C81.0573 17.2286 80.6755 17.6691 79.9708 17.6691C79.266 17.6691 78.8843 17.2286 78.8843 16.3183C78.8843 13.2349 78.8843 10.1515 78.8843 7.09756C78.8843 6.2166 79.266 5.77612 80.0001 5.77612C80.6755 5.80549 81.0573 6.24597 81.0573 7.06819C81.0573 8.62455 81.0573 10.1809 81.0573 11.7079Z" fill="#7A8AA0"/>
<path d="M79.9414 1.51819C80.8224 1.51819 81.4097 2.13486 81.4097 2.98645C81.4097 3.80868 80.7343 4.48408 79.9121 4.45471C79.1779 4.42535 78.4732 3.74995 78.4732 2.98645C78.4438 2.19359 79.1192 1.51819 79.9414 1.51819Z" fill="#7A8AA0"/>
</svg>
