<svg width="48" height="49" viewBox="0 0 48 49" fill="none" xmlns="http://www.w3.org/2000/svg">
<path d="M0 24.9934C0 38.2482 10.7452 48.9934 24 48.9934C37.2549 48.9934 48.0001 38.2482 48.0001 24.9934C48.0001 11.7386 37.2549 0.993408 24 0.993408C10.7452 0.993408 0 11.7386 0 24.9934Z" fill="#251E25"/>
<path fill-rule="evenodd" clip-rule="evenodd" d="M36.4075 28.7233L31.4712 35.6041C30.6948 36.6968 29.1885 37.2229 27.2301 37.0619C24.704 36.8533 21.3551 35.5183 18.1453 33.2158C14.9355 30.9122 12.5949 28.1682 11.5752 25.8449C10.7988 24.0442 10.8103 22.4544 11.5982 21.3605L16.523 14.4797C17.311 13.3869 18.8174 12.8609 20.7641 13.0219C23.2902 13.2305 26.6507 14.5666 29.8605 16.8691C33.0703 19.1715 35.4109 21.9155 36.4191 24.2389C37.207 26.0396 37.1839 27.6306 36.4075 28.7233ZM17.8441 15.4252C18.3539 14.7184 19.3736 14.5353 20.6367 14.6396C22.9426 14.8297 25.9787 16.0857 28.9104 18.1877C31.8421 20.2886 34.009 22.7649 34.936 24.8855C35.4342 26.0477 35.5963 27.072 35.0865 27.7789L35.7471 28.2505L35.0865 27.7789L30.1502 34.6597C29.6519 35.3654 28.6322 35.5496 27.3691 35.4442C25.0631 35.2553 22.0156 33.998 19.0839 31.8972C16.1522 29.7952 13.9852 27.3189 13.0698 25.1995C12.5599 24.0361 12.4094 23.0117 12.9193 22.306L17.8441 15.4252Z" fill="white"/>
<path fill-rule="evenodd" clip-rule="evenodd" d="M17.1925 15.109C18.8032 12.861 24.2609 14.0152 29.3827 17.6838C34.5044 21.3537 37.3551 26.159 35.7444 28.4071L30.8196 35.2879C29.2089 37.5359 23.7394 36.3818 18.6176 32.7119C13.4958 29.0421 10.6454 24.2378 12.2561 21.9898L17.1925 15.109Z" fill="white"/>
<path fill-rule="evenodd" clip-rule="evenodd" d="M16.8338 14.6976C17.5503 13.6945 18.9355 13.2527 20.7268 13.396C23.1988 13.599 26.471 14.9245 29.6237 17.1696C32.7644 19.4267 35.0693 22.1137 36.0486 24.3827C36.7651 26.0307 36.7889 27.4875 36.0724 28.4907L31.1523 35.3693C30.4358 36.3725 29.0386 36.8143 27.2593 36.671C24.7873 36.456 21.5032 35.1425 18.3625 32.8854C15.2098 30.6403 12.9168 27.9533 11.9257 25.6843C11.2091 24.0363 11.1853 22.5794 11.9019 21.5763L16.8338 14.6976ZM35.3918 28.0011V27.9892C35.965 27.201 35.8455 26.0306 35.2842 24.717C34.3408 22.5555 32.1316 20.0118 29.1222 17.8622C26.1247 15.7127 23.0078 14.4349 20.6552 14.2438C19.2222 14.1244 18.0878 14.3872 17.5146 15.1873L17.4906 15.235C16.9532 16.0351 17.0728 17.1696 17.634 18.4594C18.5775 20.6328 20.7867 23.1765 23.7842 25.326C26.7816 27.4756 29.8983 28.7535 32.2509 28.9446C33.6601 29.052 34.7707 28.8012 35.3558 28.0489L35.3918 27.9892V28.0011ZM27.7251 19.8089C29.2298 20.8837 30.3402 22.1615 30.806 23.2482C31.0806 23.8572 31.1522 24.3946 30.8776 24.7648C30.6149 25.135 30.0776 25.2425 29.4207 25.1828C28.2385 25.0873 26.686 24.4424 25.1813 23.3676C23.6766 22.2928 22.5659 21.0269 22.1002 19.9402C21.8375 19.3312 21.7659 18.7938 22.0286 18.4235C22.2913 18.0533 22.8288 17.9459 23.4975 17.9937C24.6679 18.1012 26.2323 18.7341 27.7251 19.8089Z" fill="#0E0F23"/>
<mask id="mask0_10338_3598" style="mask-type:alpha" maskUnits="userSpaceOnUse" x="11" y="13" width="26" height="24">
<path fill-rule="evenodd" clip-rule="evenodd" d="M16.8338 14.6976C17.5503 13.6945 18.9355 13.2527 20.7268 13.396C23.1988 13.599 26.471 14.9245 29.6237 17.1696C32.7644 19.4267 35.0693 22.1137 36.0486 24.3827C36.7651 26.0307 36.7889 27.4875 36.0724 28.4907L31.1523 35.3693C30.4358 36.3725 29.0386 36.8143 27.2593 36.671C24.7873 36.456 21.5032 35.1425 18.3625 32.8854C15.2098 30.6403 12.9168 27.9533 11.9257 25.6843C11.2091 24.0363 11.1853 22.5794 11.9019 21.5763L16.8338 14.6976ZM35.3918 28.0011V27.9892C35.965 27.201 35.8455 26.0306 35.2842 24.717C34.3408 22.5555 32.1316 20.0118 29.1222 17.8622C26.1247 15.7127 23.0078 14.4349 20.6552 14.2438C19.2222 14.1244 18.0878 14.3872 17.5146 15.1873L17.4906 15.235C16.9532 16.0351 17.0728 17.1696 17.634 18.4594C18.5775 20.6328 20.7867 23.1765 23.7842 25.326C26.7816 27.4756 29.8983 28.7535 32.2509 28.9446C33.6601 29.052 34.7707 28.8012 35.3558 28.0489L35.3918 27.9892V28.0011ZM27.7251 19.8089C29.2298 20.8837 30.3402 22.1615 30.806 23.2482C31.0806 23.8572 31.1522 24.3946 30.8776 24.7648C30.6149 25.135 30.0776 25.2425 29.4207 25.1828C28.2385 25.0873 26.686 24.4424 25.1813 23.3676C23.6766 22.2928 22.5659 21.0269 22.1002 19.9402C21.8375 19.3312 21.7659 18.7938 22.0286 18.4235C22.2913 18.0533 22.8288 17.9459 23.4975 17.9937C24.6679 18.1012 26.2323 18.7341 27.7251 19.8089Z" fill="#0E0F23"/>
</mask>
<g mask="url(#mask0_10338_3598)">
<path fill-rule="evenodd" clip-rule="evenodd" d="M10.3551 28.2356C10.4865 28.2356 10.7015 28.547 10.8209 28.632C11.2389 28.9436 11.6568 29.2553 12.0867 29.5102C13.3406 30.275 14.6422 30.6997 15.9319 30.4164C17.9621 29.9632 19.8012 26.4227 21.8433 26.9043C22.9897 27.1592 23.8018 28.7737 24.805 29.8784C25.7603 30.9831 26.8111 31.4646 27.874 31.238C31.0386 30.6148 32.2329 24.3833 35.4453 24.7232C38.1084 25.0064 37.0694 28.2071 39.625 29.3401C39.6489 29.3685 45.799 23.9584 45.8468 23.0236C46.0259 19.4263 42.6106 -22.9483 42.7659 -22.9483L12.3017 -11.7598L10.3551 28.2356Z" fill="url(#paint0_linear_10338_3598)"/>
</g>
<path d="M16.3743 17.1584C16.5056 20.2992 19.5987 23.2966 21.9751 25.3267C25.2831 28.1451 30.6094 30.2589 33.5829 29.7812" stroke="white" stroke-width="0.01302" stroke-linecap="round" stroke-linejoin="round" stroke-dasharray="0.03 0.03 0.33 0.33"/>
<defs>
<linearGradient id="paint0_linear_10338_3598" x1="21.2462" y1="13.3647" x2="24.579" y2="30.1431" gradientUnits="userSpaceOnUse">
<stop stop-color="#27B0E6"/>
<stop offset="0.52" stop-color="#C26BB3"/>
<stop offset="1" stop-color="#FA52A0"/>
</linearGradient>
</defs>
</svg>
