<svg width="109" height="22" viewBox="0 0 109 22" fill="none" xmlns="http://www.w3.org/2000/svg">
<path d="M46.0729 17.9745H43.5996V4.07422H46.0729V17.9745ZM51.2879 17.9745H48.8146V4.07422H51.2879V17.9745ZM59.3596 8.11969C60.4142 8.11969 61.2769 8.4648 61.948 9.1742C62.6382 9.88359 62.9833 10.8422 62.9833 12.0885V17.9745H60.51V12.3952C60.51 11.1107 59.7623 10.4204 58.6119 10.4204C57.3273 10.4204 56.5029 11.2065 56.5029 12.7979V17.9745H54.0296V8.38811H56.5029V9.46179C57.0972 8.56067 58.0559 8.11969 59.3596 8.11969ZM73.4996 16.7858C72.5218 17.7636 71.3139 18.243 69.8951 18.243C68.4763 18.243 67.2684 17.7636 66.2906 16.7858C65.3128 15.808 64.8335 14.6001 64.8335 13.1813C64.8335 11.7625 65.3128 10.5738 66.2906 9.596C67.2684 8.61818 68.4763 8.11969 69.8951 8.11969C71.3139 8.11969 72.5218 8.61818 73.4996 9.596C74.4774 10.5738 74.9759 11.7625 74.9759 13.1813C74.9759 14.6001 74.4774 15.808 73.4996 16.7858ZM68.0354 15.0794C68.5339 15.5779 69.1474 15.8272 69.8951 15.8272C70.6429 15.8272 71.2564 15.5779 71.7549 15.0794C72.2534 14.5809 72.5026 13.9482 72.5026 13.1813C72.5026 12.4144 72.2534 11.7817 71.7549 11.2832C71.2564 10.7847 70.6429 10.5355 69.8951 10.5355C69.1474 10.5355 68.5339 10.7847 68.0354 11.2832C67.556 11.7817 67.3068 12.4144 67.3068 13.1813C67.3068 13.9482 67.556 14.5809 68.0354 15.0794ZM84.4665 9.51931V4.07422H86.9398V17.9745H84.4665V16.8433C83.7379 17.7828 82.7026 18.243 81.3605 18.243C80.0759 18.243 78.9639 17.7636 78.0436 16.7858C77.1425 15.808 76.6823 14.6001 76.6823 13.1813C76.6823 11.7625 77.1425 10.5738 78.0436 9.596C78.9639 8.61818 80.0759 8.11969 81.3605 8.11969C82.7026 8.11969 83.7379 8.57984 84.4665 9.51931ZM79.9034 15.137C80.421 15.6354 81.0537 15.8847 81.8206 15.8847C82.5876 15.8847 83.2203 15.6354 83.7188 15.137C84.2173 14.6193 84.4665 13.9674 84.4665 13.1813C84.4665 12.3952 84.2173 11.7434 83.7188 11.2449C83.2203 10.7272 82.5876 10.478 81.8206 10.478C81.0537 10.478 80.421 10.7272 79.9034 11.2449C79.4049 11.7434 79.1556 12.3952 79.1556 13.1813C79.1556 13.9674 79.4049 14.6193 79.9034 15.137ZM98.7119 14.1975H91.4838C91.8097 15.4054 92.7108 15.9997 94.1871 15.9997C95.1266 15.9997 95.8552 15.6738 96.3345 15.0411L98.3285 16.1915C97.389 17.5527 95.9894 18.243 94.1488 18.243C92.5574 18.243 91.292 17.7636 90.3334 16.805C89.3747 15.8463 88.8954 14.6385 88.8954 13.1813C88.8954 11.7434 89.3747 10.5355 90.3142 9.57683C91.2537 8.59901 92.4808 8.11969 93.9571 8.11969C95.3567 8.11969 96.5262 8.59901 97.4274 9.57683C98.3476 10.5546 98.8078 11.7434 98.8078 13.1813C98.8078 13.5073 98.7695 13.8332 98.7119 14.1975ZM91.4454 12.2802H96.3345C96.0469 10.9764 95.0883 10.3437 93.9571 10.3437C92.6341 10.3437 91.733 11.0531 91.4454 12.2802ZM104.119 8.11969C105.672 8.11969 107.014 8.84826 107.762 10.152L105.653 11.3024C105.346 10.6505 104.828 10.3246 104.119 10.3246C103.486 10.3246 103.007 10.6313 103.007 11.1107C103.007 11.6283 103.774 11.9159 104.751 12.1652C106.151 12.4528 107.972 13.1238 107.953 15.1753C107.953 16.1531 107.589 16.92 106.841 17.4569C106.113 17.9745 105.192 18.243 104.1 18.243C102.125 18.243 100.783 17.476 100.073 15.9614L102.221 14.7535C102.508 15.5779 103.122 15.9997 104.1 15.9997C104.981 15.9997 105.422 15.7313 105.422 15.1753C105.422 14.6576 104.656 14.37 103.678 14.1208C102.259 13.7565 100.476 13.1622 100.476 11.1682C100.476 10.2287 100.821 9.48096 101.511 8.94412C102.221 8.38811 103.083 8.11969 104.119 8.11969ZM37.0205 4.07422L41.9055 17.9745H38.9269L38.0928 15.4725H32.5526L31.7185 17.9745H28.7598L33.6249 4.07422H37.0205ZM35.3326 7.23158L33.4263 12.9108H37.239L35.3326 7.23158Z" fill="#7A8AA0"/>
<mask id="mask0" style="mask-type:alpha" maskUnits="userSpaceOnUse" x="0" y="0" width="22" height="22">
<path d="M22 11C22 4.92487 17.0751 0 11 0C4.92487 0 0 4.92487 0 11C0 17.0751 4.92487 22 11 22C17.0751 22 22 17.0751 22 11Z" fill="white"/>
</mask>
<g mask="url(#mask0)">
<path d="M22 11C22 4.92487 17.0751 0 11 0C4.92487 0 0 4.92487 0 11C0 17.0751 4.92487 22 11 22C17.0751 22 22 17.0751 22 11Z" fill="white"/>
<path fill-rule="evenodd" clip-rule="evenodd" d="M22 0V22H21.6399L15.2668 9.77029C15.2585 9.75422 15.2499 9.73831 15.2411 9.72255L15.2141 9.67574L13.4493 6.28982C13.1197 5.65746 12.4658 5.26087 11.7528 5.26087H9.15811C9.08115 5.26087 9.00533 5.27944 8.93708 5.31501C8.70285 5.43707 8.61191 5.72592 8.73398 5.96015L16.8501 21.5343L16.853 21.5323L17.0964 22H4.8577L10.226 11.6993L10.2489 11.6483C10.3343 11.4246 10.2404 11.1675 10.0228 11.0541C9.9546 11.0186 9.87878 11 9.80183 11H7.20718L7.10574 11.0027C6.43256 11.0383 5.82452 11.4267 5.51067 12.029L0.314217 22H0V0H22Z" fill="#7A8AA0"/>
</g>
</svg>
