<svg width="110" height="27" viewBox="0 0 110 27" fill="none" xmlns="http://www.w3.org/2000/svg">
<path fill-rule="evenodd" clip-rule="evenodd" d="M8.01926 22.6238C9.69392 23.619 11.6097 24.1454 13.5626 24.147C15.6973 24.1437 17.7833 23.5142 19.5573 22.3377C21.331 21.1615 22.7135 19.4913 23.5303 17.5378H20.4234C19.5175 19.0349 18.1411 20.1965 16.5052 20.8445C14.8692 21.4925 13.0639 21.5913 11.3659 21.1257C9.66787 20.6601 8.17076 19.6558 7.10395 18.2666C6.03714 16.8775 5.45948 15.1801 5.45948 13.4346C5.45948 11.6891 6.03714 9.99172 7.10395 8.60256C8.17076 7.21341 9.66787 6.20908 11.3659 5.74347C13.0639 5.27786 14.8692 5.37664 16.5052 6.02469C18.1411 6.67273 19.5175 7.8343 20.4234 9.3314H23.5313C23.9003 10.2124 24.1486 11.1383 24.2697 12.0846H18.6311C18.2961 10.8659 17.526 9.80912 16.4638 9.1106C15.4015 8.41209 14.1195 8.11935 12.8558 8.28676C11.5921 8.45418 10.4328 9.07038 9.59315 10.0209C8.75351 10.9713 8.2907 12.1915 8.2907 13.4545C8.2907 14.7176 8.75351 15.9378 9.59315 16.8882C10.4328 17.8387 11.5921 18.4549 12.8558 18.6223C14.1195 18.7897 15.4015 18.497 16.4638 17.7985C17.526 17.1 18.2961 16.0432 18.6311 14.8245L24.2697 14.8045C24.1469 15.7436 23.8988 16.6624 23.5318 17.5367H26.4709C25.4834 20.5865 23.4285 23.1864 20.6768 24.8676C17.925 26.5488 14.6575 27.2006 11.4634 26.7055C8.26935 26.2104 5.35895 24.601 3.25703 22.1674C1.15511 19.7339 0 16.6364 0 13.4335C0 10.2306 1.15511 7.13312 3.25703 4.69958C5.35895 2.26604 8.26935 0.656604 11.4634 0.161499C14.6575 -0.333606 17.925 0.318202 20.6768 1.99939C23.4285 3.68057 25.4834 6.28049 26.4709 9.33031H23.5308C22.7778 7.54522 21.5501 5.99594 19.9785 4.84755C18.407 3.69915 16.5503 2.99467 14.6065 2.80916C12.6627 2.62364 10.7045 2.96405 8.94051 3.79411C7.17655 4.62417 5.67293 5.91278 4.58986 7.52265C3.5068 9.13252 2.88486 11.0033 2.79032 12.9357C2.69577 14.8682 3.13216 16.7898 4.053 18.4959C4.97383 20.202 6.3446 21.6286 8.01926 22.6238ZM27.0353 12.0846C27.1024 12.5368 27.1024 12.989 27.1024 13.4545C27.1024 13.9134 27.0756 14.3723 27.0353 14.8245H29.8009C29.7234 15.7494 29.5662 16.666 29.331 17.5644H26.4714C26.7535 16.6729 26.9402 15.7546 27.0286 14.8245H24.2697C24.386 13.9148 24.386 12.9943 24.2697 12.0846H27.0353ZM27.0353 12.0846C26.9467 11.1496 26.7577 10.2266 26.4714 9.3314H29.3243C29.5635 10.2337 29.7229 11.1549 29.8009 12.0846H27.0353ZM29.8083 12.0845H32.5336C32.5672 12.5301 32.5873 12.9756 32.5873 13.4145C32.5873 13.9022 32.5672 14.3677 32.5269 14.8111H29.8016C29.8687 14.3522 29.8687 13.8534 29.8687 13.4145C29.8687 12.9756 29.8418 12.5301 29.8083 12.0845ZM15.7122 13.4279C15.7122 14.6106 14.7444 15.5693 13.5507 15.5693C12.357 15.5693 11.3892 14.6106 11.3892 13.4279C11.3892 12.2453 12.357 11.2865 13.5507 11.2865C14.7444 11.2865 15.7122 12.2453 15.7122 13.4279Z" fill="#7A8AA0"/>
<path d="M42.1578 18.0896C41.342 18.0909 40.5399 17.8818 39.8304 17.4828C39.1209 17.0838 38.5285 16.5087 38.1115 15.814C37.6944 15.1194 37.4672 14.3291 37.452 13.521C37.4368 12.7129 37.6343 11.9148 38.0249 11.2053C38.4156 10.4957 38.986 9.89918 39.68 9.47432C40.374 9.04945 41.1677 8.81092 41.983 8.7822C42.7983 8.75348 43.6071 8.93555 44.3298 9.3105C45.0525 9.68545 45.6643 10.2404 46.1048 10.9206C46.4103 11.3577 46.6185 11.8542 46.7157 12.377H44.3058C44.1466 11.9277 43.852 11.5376 43.4619 11.2593C43.0718 10.981 42.6049 10.828 42.1242 10.8209C41.791 10.8292 41.4628 10.9039 41.1593 11.0406C40.8558 11.1773 40.5831 11.3731 40.3576 11.6163C40.1321 11.8596 39.9584 12.1453 39.8467 12.4566C39.7351 12.7678 39.6878 13.0981 39.7077 13.4278C39.6878 13.7612 39.7352 14.0952 39.8471 14.4103C39.959 14.7254 40.1331 15.0153 40.3593 15.2629C40.5856 15.5106 40.8593 15.7111 41.1647 15.8527C41.47 15.9944 41.8008 16.0743 42.1377 16.0879C42.6093 16.0771 43.0671 15.9279 43.4531 15.6592C43.8391 15.3904 44.1359 15.0142 44.3058 14.5783H46.7157C46.4706 15.5889 45.886 16.487 45.0577 17.1251C44.2295 17.7631 43.2069 18.1032 42.1578 18.0896ZM89.2802 18.0563C88.0546 18.0724 86.8724 17.6071 85.992 16.7622C85.1115 15.9174 84.6044 14.7616 84.5814 13.5475C84.5773 12.8969 84.698 12.2514 84.9372 11.6455C85.083 11.2872 85.2797 10.9513 85.5212 10.648C85.9969 10.0054 86.6312 9.49463 87.3632 9.16447C88.0952 8.83431 88.9005 8.69584 89.7021 8.76232C90.5036 8.82881 91.2745 9.09801 91.9409 9.54417C92.6073 9.99032 93.147 10.5985 93.5083 11.3105C93.8695 12.0224 94.0403 12.8143 94.0041 13.6104C93.968 14.4064 93.7262 15.18 93.3019 15.8569C92.8776 16.5339 92.285 17.0916 91.5809 17.4767C90.8767 17.8618 90.0846 18.0614 89.2802 18.0563ZM89.2802 10.8142C88.9447 10.8192 88.6136 10.891 88.3068 11.0256C87.9999 11.1601 87.7235 11.3545 87.4942 11.5972C87.2649 11.8399 87.0873 12.126 86.9721 12.4382C86.8568 12.7504 86.8063 13.0824 86.8234 13.4145C86.7903 13.751 86.8284 14.0907 86.9351 14.4119C87.0419 14.7331 87.215 15.0287 87.4435 15.2799C87.6719 15.5311 87.9507 15.7324 88.2621 15.8709C88.5734 16.0095 88.9105 16.0822 89.2518 16.0845C89.5931 16.0868 89.9312 16.0187 90.2444 15.8844C90.5576 15.7501 90.8392 15.5526 91.0711 15.3045C91.3031 15.0564 91.4803 14.7632 91.5915 14.4435C91.7026 14.1238 91.7454 13.7847 91.7169 13.4477C91.735 13.1192 91.6875 12.7905 91.5772 12.4802C91.4668 12.1699 91.2957 11.8843 91.0737 11.6397C90.8517 11.395 90.5832 11.1962 90.2835 11.0545C89.9838 10.9129 89.6588 10.8312 89.3272 10.8142H89.2802ZM59.5569 11.2864C59.1316 11.2764 58.7123 11.3871 58.3486 11.6056C57.998 11.8294 57.7314 12.1612 57.5901 12.5499V11.4127H55.5092V17.9034H57.6572V14.6913C57.6567 14.492 57.6908 14.294 57.7579 14.1061C57.8231 13.9216 57.9285 13.7535 58.0667 13.614C58.2121 13.4713 58.3828 13.3564 58.5701 13.2748C58.7869 13.2023 59.0128 13.1597 59.2414 13.1485H59.5703L59.5569 11.2864ZM64.6517 13.1618H63.3092V15.742C63.2953 15.837 63.3073 15.9339 63.3439 16.0228C63.3804 16.1117 63.4403 16.1892 63.5173 16.2475C63.6899 16.3325 63.882 16.3715 64.0744 16.3605H64.3564C64.448 16.3539 64.54 16.3539 64.6316 16.3605V17.9233L64.0476 17.9566C63.8508 17.9664 63.6537 17.9664 63.4569 17.9566C63.0778 17.9629 62.6993 17.925 62.3292 17.8435C62.0629 17.7927 61.8185 17.6632 61.628 17.4721C61.4375 17.281 61.3098 17.0372 61.2619 16.7728C61.1878 16.4096 61.1541 16.0394 61.1612 15.6689V13.1618H60.4631V11.3263H61.1813V9.45093H63.3293V11.3263H64.6719L64.6517 13.1618ZM72.2638 17.9034H70.1829V17.0122C69.9762 17.3499 69.6787 17.6239 69.3237 17.8036C68.9735 17.9859 68.5848 18.0839 68.1893 18.0896C67.791 18.1009 67.3943 18.0354 67.0213 17.8967C66.7141 17.7764 66.4468 17.5738 66.2493 17.3115C66.054 17.0512 65.9188 16.7515 65.8533 16.4337C65.7763 16.0662 65.7381 15.6918 65.7392 15.3164V11.4127H67.8872V15.1768C67.869 15.3376 67.8834 15.5005 67.9295 15.6558C67.9756 15.8111 68.0525 15.9557 68.1557 16.0812C68.3755 16.2666 68.6597 16.3597 68.9478 16.3406C69.076 16.3395 69.2031 16.317 69.3237 16.2741C69.4663 16.2271 69.5969 16.15 69.7063 16.048C69.8311 15.9183 69.9312 15.7674 70.0017 15.6024C70.09 15.3757 70.1311 15.1337 70.1225 14.8908V11.4127H72.2638V17.9034ZM75.459 15.762C75.4531 15.9019 75.4818 16.0411 75.5426 16.1674C75.6035 16.2938 75.6946 16.4034 75.8081 16.4869C75.916 16.5679 76.0393 16.6267 76.1705 16.6598C76.3133 16.6947 76.4598 16.7125 76.6069 16.713C76.7177 16.7117 76.828 16.6983 76.9358 16.6731C77.0485 16.6525 77.1573 16.6143 77.258 16.56C77.3558 16.5057 77.4424 16.4335 77.5131 16.3472C77.5813 16.2547 77.6167 16.1425 77.6138 16.028C77.6175 15.9152 77.5765 15.8054 77.4996 15.7221C77.4236 15.6411 77.3324 15.5756 77.2311 15.5292C77.1234 15.4748 77.008 15.4367 76.8888 15.4162L76.5666 15.3364C76.231 15.2566 75.8953 15.1834 75.5261 15.1169C75.1853 15.0541 74.8538 14.9491 74.5394 14.8044C74.2544 14.6749 74.0039 14.4814 73.8077 14.2391C73.6019 13.938 73.5028 13.5778 73.5258 13.215C73.5112 12.8696 73.6101 12.5289 73.8077 12.244C74.0021 11.9925 74.2495 11.786 74.5327 11.6389C74.8387 11.4837 75.167 11.376 75.506 11.3196C75.8406 11.2604 76.1797 11.2293 76.5196 11.2265C76.8752 11.2275 77.23 11.2587 77.5802 11.3196C77.9138 11.3757 78.2359 11.4858 78.5334 11.6455C78.8223 11.8033 79.0651 12.0324 79.2382 12.3105C79.4302 12.6257 79.5322 12.9865 79.5336 13.3546H77.5198C77.5283 13.244 77.5066 13.1332 77.457 13.0337C77.4074 12.9343 77.3317 12.8499 77.2378 12.7893C77.0337 12.6747 76.801 12.6194 76.5666 12.6297C76.4682 12.6232 76.3696 12.6232 76.2712 12.6297C76.1682 12.6355 76.0665 12.6556 75.9692 12.6896C75.8821 12.7223 75.8039 12.7746 75.7409 12.8425C75.7082 12.8771 75.6829 12.9179 75.6667 12.9626C75.6506 13.0072 75.6438 13.0546 75.647 13.1019C75.649 13.1791 75.6718 13.2544 75.7131 13.3199C75.7545 13.3854 75.8127 13.4387 75.8819 13.4743C76.0691 13.587 76.2729 13.6701 76.486 13.7204C76.721 13.7802 76.9828 13.8401 77.2714 13.8866L78.0702 14.0396C78.3582 14.093 78.6336 14.199 78.8824 14.3521C79.0795 14.4755 79.2524 14.6332 79.3926 14.8177C79.5137 14.9692 79.6028 15.1433 79.6544 15.3297C79.7039 15.4779 79.7311 15.6325 79.7349 15.7886C79.7479 16.1743 79.6476 16.5555 79.4463 16.8859C79.2623 17.1768 79.0116 17.4206 78.7146 17.5975C78.4036 17.7819 78.0631 17.9124 77.7077 17.9832C77.3416 18.0621 76.9681 18.1022 76.5934 18.1029C76.2082 18.1044 75.8238 18.0687 75.4456 17.9965C75.0867 17.9301 74.7418 17.8042 74.4253 17.6241C74.1262 17.4441 73.8753 17.1954 73.6936 16.8992C73.4942 16.5573 73.3878 16.1701 73.3848 15.7753L75.459 15.762ZM81.0506 15.5758H83.4V17.9034H81.0506V15.5758ZM94.986 11.4127H97.0669V12.3039C97.169 12.1356 97.2957 11.9833 97.4428 11.8517C97.5976 11.7176 97.769 11.6037 97.9529 11.5125C98.137 11.421 98.3305 11.3496 98.5302 11.2997C98.7237 11.2532 98.9219 11.2287 99.1209 11.2265C99.5678 11.2047 100.013 11.2938 100.416 11.4859C100.706 11.6432 100.949 11.8724 101.121 12.1509C101.278 12.4001 101.38 12.6786 101.423 12.9689C101.461 13.2311 101.481 13.4954 101.484 13.7603V17.9233H99.3491V14.1327C99.3546 13.9379 99.3227 13.7438 99.2552 13.5608C99.1961 13.3958 99.0856 13.2537 98.9397 13.1551C98.7388 13.0324 98.5036 12.9765 98.2684 12.9955C98.0865 12.9911 97.9064 13.0323 97.7448 13.1152C97.6022 13.1917 97.4785 13.2984 97.3824 13.4278C97.2865 13.5627 97.216 13.7136 97.1743 13.8733C97.128 14.0401 97.1054 14.2125 97.1071 14.3854V17.9233H94.9591L94.986 11.4127ZM54.5224 14.6514C54.5468 14.1836 54.4753 13.7158 54.3124 13.2761C54.1494 12.8364 53.8983 12.4339 53.5742 12.0928C53.2501 11.7518 52.8596 11.4793 52.4264 11.2917C51.9932 11.1041 51.5261 11.0053 51.0533 11.0013C50.5805 10.9972 50.1118 11.088 49.6754 11.2682C49.239 11.4483 48.8438 11.7141 48.5138 12.0496C48.1838 12.385 47.9257 12.7832 47.7552 13.22C47.5846 13.6569 47.505 14.1234 47.5212 14.5916C47.5286 15.4843 47.8804 16.3405 48.5044 16.9847C49.1284 17.6288 49.9774 18.0122 50.8775 18.0563H51.3406C51.6201 18.0571 51.8989 18.0304 52.173 17.9765C52.5112 17.8979 52.835 17.7678 53.1329 17.5908C53.4224 17.4165 53.6772 17.1911 53.8847 16.9258C54.1165 16.6358 54.2836 16.3003 54.3747 15.9416H52.361C52.2696 16.1728 52.0951 16.3624 51.8709 16.4736C51.6459 16.5927 51.3944 16.6544 51.1393 16.6531C50.944 16.6651 50.7484 16.6357 50.5655 16.5669C50.3827 16.4981 50.2167 16.3915 50.0787 16.2541C49.9935 16.1636 49.9233 16.0604 49.8706 15.9482C49.7463 15.7095 49.6797 15.4454 49.6759 15.1768H54.4821C54.5123 15.0033 54.5258 14.8274 54.5224 14.6514ZM51.052 12.6563C51.2211 12.6527 51.389 12.6852 51.5443 12.7518C51.6995 12.8184 51.8384 12.9174 51.9515 13.0421C52.2003 13.2964 52.3461 13.6325 52.361 13.9864H49.6759C49.7245 13.6281 49.884 13.2936 50.1324 13.0288C50.2513 12.907 50.3944 12.811 50.5527 12.7469C50.711 12.6828 50.881 12.652 51.052 12.6563ZM109.418 14.6514C109.442 14.1836 109.371 13.7158 109.208 13.2761C109.045 12.8364 108.794 12.4339 108.47 12.0928C108.146 11.7518 107.755 11.4793 107.322 11.2917C106.889 11.1041 106.422 11.0053 105.949 11.0013C105.476 10.9972 105.007 11.088 104.571 11.2682C104.135 11.4483 103.739 11.7141 103.409 12.0496C103.079 12.385 102.821 12.7832 102.651 13.22C102.48 13.6569 102.401 14.1234 102.417 14.5916C102.424 15.4843 102.776 16.3405 103.4 16.9847C104.024 17.6288 104.873 18.0122 105.773 18.0563H106.236C106.516 18.0562 106.794 18.0295 107.069 17.9765C107.405 17.8992 107.727 17.769 108.022 17.5908C108.315 17.4188 108.572 17.1931 108.78 16.9258C109.005 16.6405 109.167 16.3121 109.257 15.9615H107.243C107.15 16.1914 106.976 16.3803 106.753 16.4935C106.526 16.6126 106.272 16.6743 106.015 16.6731C105.82 16.6863 105.625 16.6575 105.443 16.5886C105.261 16.5197 105.097 16.4124 104.961 16.2741C104.876 16.1821 104.804 16.0792 104.746 15.9682C104.624 15.7288 104.56 15.4648 104.558 15.1967H109.364C109.4 15.0171 109.418 14.8345 109.418 14.6514ZM105.948 12.6563C106.117 12.6527 106.285 12.6852 106.44 12.7518C106.595 12.8184 106.734 12.9174 106.847 13.0421C107.082 13.2996 107.216 13.6325 107.223 13.9797H104.538C104.586 13.6199 104.748 13.2845 105.001 13.0221C105.124 12.8981 105.271 12.8014 105.435 12.7383C105.598 12.6753 105.773 12.6473 105.948 12.6563Z" fill="#7A8AA0"/>
</svg>
