<svg width="94" height="30" viewBox="0 0 94 30" fill="none" xmlns="http://www.w3.org/2000/svg">
<path fill-rule="evenodd" clip-rule="evenodd" d="M0 4.45203L21.0523 0L32.8362 5.63051V7.33276L21.0523 3.14261L0 6.28522V4.45203ZM0.000419721 7.33403L19.8085 4.32236L32.8367 8.25063V9.95287L19.8085 7.33403L0.000419721 9.56005V7.33403ZM18.3462 8.7737L0.000419721 10.6069V12.702L18.3462 11.5235L32.8367 12.702V10.8688L18.3462 8.7737ZM0.000419721 13.7493L16.368 13.3564L32.8367 13.7493V15.5825L16.368 16.2372L0.000419721 15.5825V13.7493ZM15.0945 17.9395L0.000419721 16.6301V18.3323L15.0945 20.8202L32.8367 18.5942V16.6301L15.0945 17.9395ZM0.000419721 19.3797L13.482 22.3914L32.8367 19.9035V21.9986L13.482 25.0102L0.000419721 21.2129V19.3797ZM12.0137 26.4517L0.000419721 21.9996V23.8328L12.0137 29.5943L32.8367 25.0113V23.1781L12.0137 26.4517ZM38.2446 11.1248H36.6254C36.6375 11.5556 36.71 11.9326 36.8308 12.2773C36.9516 12.6219 37.145 12.902 37.3867 13.1389C37.6283 13.3759 37.9425 13.559 38.3171 13.6883C38.6796 13.8175 39.1267 13.8822 39.6342 13.8822C40.0692 13.8822 40.468 13.8283 40.8184 13.7098C41.1689 13.6021 41.471 13.4405 41.7126 13.2251C41.9543 13.0205 42.1356 12.7727 42.2685 12.4711C42.3893 12.1803 42.4618 11.8572 42.4618 11.491C42.4618 11.0817 42.3652 10.737 42.1718 10.4785C41.9785 10.22 41.7247 10.0153 41.4347 9.84299C41.1447 9.68142 40.8305 9.55217 40.4922 9.44446C40.1538 9.33675 39.8276 9.22903 39.5376 9.12132C39.2476 9.01361 39.0059 8.89513 38.8125 8.75511C38.6192 8.62585 38.5225 8.44274 38.5225 8.20578C38.5225 8.09807 38.5346 8.00113 38.5709 7.89341C38.595 7.79647 38.6554 7.71031 38.74 7.62414C38.8246 7.54874 38.9334 7.48411 39.0784 7.43026C39.2234 7.38717 39.4046 7.35486 39.6342 7.35486C39.8517 7.35486 40.033 7.39794 40.178 7.48411C40.323 7.57028 40.4318 7.66722 40.5163 7.7857C40.6009 7.91496 40.6613 8.05498 40.6976 8.20578C40.7251 8.32 40.7456 8.43423 40.7644 8.5391L40.7647 8.54041C40.7706 8.57352 40.7764 8.60569 40.7822 8.63662H42.4014C42.4014 8.35657 42.341 8.05498 42.2443 7.75339C42.1356 7.4518 41.9664 7.17175 41.7489 6.91324C41.5314 6.66551 41.2414 6.46086 40.8909 6.29929C40.5405 6.13772 40.1176 6.05155 39.6342 6.05155C39.1267 6.05155 38.7038 6.11618 38.3413 6.22389C37.9788 6.3316 37.6767 6.49317 37.4471 6.68705C37.2175 6.88093 37.0483 7.11789 36.9396 7.38717C36.8308 7.66722 36.7825 7.95804 36.7825 8.28118C36.7825 8.73356 36.8791 9.09978 37.0725 9.37983C37.2658 9.65988 37.5075 9.88607 37.7975 10.0584C38.0875 10.2307 38.4017 10.3708 38.74 10.4677C39.0784 10.5754 39.3926 10.6724 39.6826 10.7585C39.9726 10.8447 40.2142 10.9524 40.4076 11.0709C40.6009 11.2001 40.6976 11.3617 40.6976 11.5664C40.6976 11.8464 40.613 12.0726 40.4438 12.2665C40.2747 12.4604 39.9967 12.5465 39.6342 12.5465C39.175 12.5465 38.8367 12.4281 38.6192 12.1695C38.4017 11.9218 38.2688 11.5771 38.2446 11.1248ZM43.0786 6.21312V7.5272H45.024V13.7529H46.7762V7.5272H48.6854V6.21312H43.0786ZM55.1725 13.7529L54.4112 12.0726H50.8224L50.0973 13.7529H48.3452L51.7286 6.21312H53.4204L56.9246 13.7529H55.1725ZM53.7708 10.6185L52.5866 7.97958L51.4265 10.6185H53.7708ZM59.2344 10.7262L61.9291 13.7529H63.9229L60.6241 9.97224L63.9229 6.21312H61.9291L59.2344 9.22903V6.21312H57.4823V13.7529H59.2344V10.7262ZM64.6601 13.7529V6.21312H66.4123V13.7529H64.6601ZM69.6338 8.63662L73.4885 13.7529H75.1682V6.21312H73.416V11.0924L69.7184 6.21312H67.8817V13.7529H69.6338V8.63662ZM80.299 10.9955V9.68142H84.8184V10.6616C84.7458 11.1463 84.6129 11.5879 84.4075 11.9757C84.2021 12.3742 83.9362 12.7189 83.5979 12.9989C83.2596 13.279 82.8487 13.5052 82.3653 13.656C81.882 13.8068 81.3261 13.8822 80.7099 13.8822C80.1057 13.8822 79.5378 13.7852 79.0302 13.5806C78.5227 13.3759 78.0756 13.0959 77.701 12.7404C77.3144 12.3957 77.0243 11.9757 76.8068 11.5017C76.5893 11.0278 76.4927 10.5108 76.4927 9.97224C76.4927 9.43369 76.5893 8.91667 76.8068 8.44274C77.0243 7.96881 77.3143 7.54874 77.6889 7.19329C78.0635 6.84862 78.5106 6.56857 79.0302 6.36392C79.5378 6.15927 80.1057 6.05155 80.7099 6.05155C81.8457 6.05155 82.7641 6.29929 83.4771 6.79476C84.1779 7.29023 84.6371 8.00113 84.8304 8.94898H83.2233C83.1025 8.4966 82.8245 8.15192 82.3774 7.90419C81.9303 7.65645 81.3745 7.5272 80.722 7.5272C80.3715 7.5272 80.0453 7.59182 79.7432 7.71031C79.4411 7.83956 79.1752 8.00113 78.9577 8.21655C78.7281 8.43197 78.5469 8.69048 78.4261 8.99207C78.2931 9.29366 78.2327 9.62757 78.2327 9.98301C78.2327 10.3492 78.2931 10.6724 78.4261 10.974C78.5469 11.2755 78.7281 11.5448 78.9577 11.7602C79.1752 11.9757 79.4411 12.148 79.7432 12.2665C80.0453 12.3957 80.3715 12.4496 80.722 12.4496C81.0603 12.4496 81.3624 12.4173 81.6282 12.3419C81.8941 12.2665 82.1116 12.1588 82.3049 12.0295C82.4983 11.9003 82.6554 11.7387 82.7762 11.5664C82.897 11.394 82.9937 11.2001 83.0662 10.9955H80.299ZM36.9879 16.0445V23.5843H38.74V20.7407H41.5555V19.4267H38.74V17.4986H41.7972V16.0445H36.9879ZM48.8238 23.5843L48.0625 21.904H44.4737L43.7486 23.5843H41.9965L45.38 16.0445H47.0717L50.576 23.5843H48.8238ZM47.4221 20.4499L46.2379 17.811L45.0779 20.4499H47.4221ZM59.2837 20.6438H57.5678C57.4953 20.87 57.3986 21.0746 57.2657 21.2685C57.1207 21.4624 56.9515 21.624 56.7461 21.764C56.5407 21.904 56.299 22.0117 56.0332 22.0871C55.7553 22.1733 55.4532 22.2056 55.1148 22.2056C54.7402 22.2056 54.4019 22.1517 54.0998 22.0225C53.7856 21.904 53.5318 21.7317 53.3143 21.5163C53.0968 21.3008 52.9277 21.0531 52.8068 20.7623C52.686 20.4715 52.6256 20.1591 52.6256 19.8144C52.6256 19.4805 52.686 19.1681 52.8068 18.8773C52.9277 18.5865 53.0968 18.328 53.3143 18.1126C53.5318 17.8972 53.7856 17.7356 54.0998 17.6063C54.4019 17.4879 54.7402 17.4232 55.1148 17.4232C55.7673 17.4232 56.3111 17.574 56.7461 17.8541C57.1691 18.1341 57.447 18.5111 57.5678 18.985H59.2958C59.2233 18.5542 59.0662 18.1557 58.8366 17.7787C58.5949 17.4017 58.2928 17.0678 57.9303 16.7877C57.5557 16.5077 57.1328 16.2923 56.6495 16.1307C56.1661 15.9691 55.6586 15.883 55.1027 15.883C54.4985 15.883 53.9306 15.9907 53.4231 16.1953C52.9035 16.4 52.4564 16.68 52.0818 17.0247C51.7072 17.3801 51.4172 17.8002 51.1997 18.2741C50.9822 18.7481 50.8855 19.2651 50.8855 19.8036C50.8855 20.3422 50.9822 20.8592 51.1997 21.3331C51.4172 21.8071 51.7072 22.2271 52.0939 22.5718C52.4685 22.9273 52.9156 23.2073 53.4231 23.412C53.9306 23.6166 54.4985 23.7136 55.1027 23.7136C55.6586 23.7136 56.1661 23.6382 56.6495 23.4766C57.1328 23.3258 57.5557 23.1104 57.9182 22.8303C58.2808 22.5503 58.5829 22.2271 58.8245 21.8502C59.0541 21.4839 59.2112 21.0746 59.2837 20.6438ZM62.3765 23.5843H60.6243V16.0445H62.3765V23.5843ZM63.8459 23.5843H68.2927V22.2702H65.598V16.0445H63.8459V23.5843ZM71.1207 23.5843H69.3685V16.0445H71.1207V23.5843ZM72.1551 16.0445V17.3586H74.1005V23.5843H75.8527V17.3586H77.7619V16.0445H72.1551ZM80.5611 23.5843H78.809V16.0445H80.5611V23.5843ZM82.0305 23.5843H87.0815V22.2056H83.7826V20.4822H86.8398V19.1681H83.7826V17.4232H87.0815V16.0445H82.0305V23.5843ZM87.9931 20.9562H89.6123C89.6365 21.4085 89.7694 21.7532 89.9869 22.0009C90.2044 22.2595 90.5427 22.3779 91.0019 22.3779C91.3644 22.3779 91.6424 22.2918 91.8115 22.0979C91.9807 21.904 92.0653 21.6778 92.0653 21.3978C92.0653 21.1931 91.9686 21.0316 91.7753 20.9023C91.5819 20.7838 91.3403 20.6761 91.0503 20.5899C90.7602 20.5038 90.4461 20.4068 90.1077 20.2991C89.7694 20.2022 89.4552 20.0621 89.1652 19.8898C88.8752 19.7175 88.6335 19.4913 88.4402 19.2112C88.2468 18.9312 88.1502 18.565 88.1502 18.1126C88.1502 17.7894 88.1985 17.4986 88.3072 17.2186C88.416 16.9493 88.5852 16.7123 88.8148 16.5185C89.0444 16.3246 89.3465 16.163 89.709 16.0553C90.0715 15.9476 90.4944 15.883 91.0019 15.883C91.4853 15.883 91.9082 15.9691 92.2586 16.1307C92.6091 16.2923 92.8991 16.4969 93.1166 16.7446C93.3341 17.0032 93.5033 17.2832 93.612 17.5848C93.7087 17.8864 93.7691 18.188 93.7691 18.468H92.1499C92.144 18.4366 92.1381 18.404 92.1321 18.3703L92.132 18.3699C92.1132 18.2652 92.0927 18.1512 92.0653 18.0372C92.029 17.8864 91.9686 17.7464 91.884 17.6171C91.7994 17.4986 91.6907 17.4017 91.5457 17.3155C91.4007 17.2293 91.2194 17.1863 91.0019 17.1863C90.7723 17.1863 90.5911 17.2186 90.4461 17.2617C90.3011 17.3155 90.1923 17.3801 90.1077 17.4555C90.0231 17.5417 89.9627 17.6279 89.9386 17.7248C89.9023 17.8325 89.8902 17.9295 89.8902 18.0372C89.8902 18.2741 89.9869 18.4573 90.1802 18.5865C90.3736 18.7265 90.6152 18.845 90.9053 18.9527C91.1953 19.0604 91.5215 19.1681 91.8599 19.2759C92.1982 19.3836 92.5124 19.5128 92.8024 19.6744C93.0924 19.8467 93.3462 20.0514 93.5395 20.3099C93.7328 20.5684 93.8295 20.9131 93.8295 21.3224C93.8295 21.6886 93.757 22.0117 93.6362 22.3025C93.5033 22.6041 93.322 22.8519 93.0803 23.0565C92.8387 23.2719 92.5366 23.4335 92.1861 23.5412C91.8357 23.6597 91.4369 23.7136 91.0019 23.7136C90.4944 23.7136 90.0473 23.6489 89.6848 23.5197C89.3102 23.3904 88.996 23.2073 88.7543 22.9704C88.5127 22.7334 88.3193 22.4533 88.1985 22.1087C88.0777 21.764 88.0051 21.387 87.9931 20.9562Z" fill="#7A8AA0"/>
</svg>
