<svg width="80" height="26" viewBox="0 0 80 26" fill="none" xmlns="http://www.w3.org/2000/svg">
<path d="M3.90594 7.30851V11.2808H10.5755V13.7259H3.90594V19.6833H1.23242V4.86133H11.3816V7.30646H3.90594V7.30851Z" fill="#7A8AA0" stroke="#7A8AA0" stroke-width="0.25" stroke-miterlimit="10"/>
<path d="M13.3516 19.6846V8.81445H15.9825V19.6846H13.3516Z" fill="#7A8AA0" stroke="#7A8AA0" stroke-width="0.25" stroke-miterlimit="10"/>
<path d="M28.3034 21.1262C28.3034 21.8376 28.1455 22.4285 27.8275 22.9028C27.5095 23.3771 27.1024 23.7492 26.6062 24.0211C26.1099 24.293 25.5489 24.4852 24.9292 24.5956C24.3073 24.708 23.6997 24.7632 23.1063 24.7632C22.444 24.7632 21.7837 24.7141 21.1295 24.616C20.4733 24.5179 19.8636 24.2685 19.2965 23.8636C18.8834 23.5713 18.5613 23.2299 18.3345 22.8394C18.1077 22.4489 17.9922 21.9971 17.9922 21.4799C17.9922 21.0056 18.1036 20.5701 18.3244 20.1735C18.5451 19.7769 18.8631 19.4743 19.2763 19.2638C18.932 19.0695 18.6646 18.7996 18.4783 18.4582C18.292 18.1168 18.1988 17.7652 18.1988 17.4012C18.1988 16.467 18.6262 15.7371 19.4829 15.2056C19.1507 14.8703 18.8894 14.4819 18.697 14.0341C18.5026 13.5884 18.4074 13.0875 18.4074 12.5295C18.4074 11.8875 18.5249 11.3171 18.7599 10.8142C18.9948 10.3112 19.3127 9.8942 19.7138 9.55892C20.1148 9.22358 20.5806 8.97011 21.1113 8.79634C21.642 8.62256 22.2111 8.53464 22.8187 8.53464C23.2602 8.53464 23.6896 8.59396 24.1028 8.71253C24.516 8.8311 24.9028 8.99466 25.2634 9.20314C25.4983 8.72886 25.8082 8.38541 26.195 8.16871C26.5819 7.952 27.0032 7.8457 27.4588 7.8457C27.5419 7.8457 27.6594 7.8457 27.8113 7.8457C27.9632 7.8457 28.0807 7.85997 28.1637 7.88658V9.91464L27.9571 9.8942C27.6533 9.8942 27.3799 9.94324 27.1389 10.0414C26.8979 10.1395 26.7338 10.3214 26.6528 10.5852C27.0254 11.1985 27.2118 11.8527 27.2118 12.5499C27.2118 13.1775 27.0903 13.7356 26.8492 14.2222C26.6082 14.7108 26.2862 15.1218 25.8872 15.455C25.4861 15.7903 25.0203 16.0479 24.4896 16.2278C23.957 16.4097 23.402 16.4997 22.8227 16.4997C22.2151 16.4997 21.6359 16.4016 21.0829 16.2073C20.9594 16.2768 20.8379 16.3791 20.7204 16.5099C20.603 16.6428 20.5442 16.8002 20.5442 16.9801C20.5442 17.3011 20.6718 17.5137 20.927 17.618C21.1822 17.7223 21.4475 17.7754 21.725 17.7754H23.5053C23.7666 17.7754 24.0501 17.7795 24.354 17.7856C24.6577 17.7938 24.9656 17.8204 25.2755 17.8694C25.5854 17.9185 25.8892 17.9921 26.1869 18.0882C26.4846 18.1863 26.7561 18.3253 27.0052 18.5053C27.4751 18.8262 27.8092 19.2106 28.0097 19.6542C28.2042 20.1081 28.3034 20.5967 28.3034 21.1262ZM25.8608 21.1896C25.8608 20.8543 25.7717 20.5967 25.5914 20.4168C25.4112 20.2348 25.1945 20.104 24.9393 20.0202C24.6841 19.9364 24.4066 19.8873 24.1109 19.875C23.8132 19.8607 23.5418 19.8546 23.2926 19.8546H21.2632C20.9858 19.9384 20.7548 20.0958 20.5685 20.3248C20.3822 20.5558 20.289 20.8441 20.289 21.1916C20.289 21.5392 20.3822 21.8111 20.5685 22.0074C20.7548 22.2016 20.9858 22.3529 21.2632 22.4571C21.5386 22.5614 21.8364 22.6268 22.1544 22.6554C22.4724 22.684 22.7559 22.6963 23.003 22.6963C23.2643 22.6963 23.562 22.6861 23.8942 22.6656C24.2263 22.6452 24.5362 22.5859 24.8258 22.4878C25.1155 22.3896 25.3606 22.2404 25.5611 22.038C25.7596 21.8336 25.8608 21.5515 25.8608 21.1896ZM24.7206 12.5335C24.7206 11.9488 24.5504 11.4643 24.2122 11.0799C23.8739 10.6956 23.4081 10.5054 22.8146 10.5054C22.2212 10.5054 21.7554 10.6977 21.4171 11.0799C21.0789 11.4622 20.9088 11.9467 20.9088 12.5335C20.9088 13.1182 21.0769 13.6007 21.4171 13.9769C21.7554 14.353 22.2212 14.5411 22.8146 14.5411C23.4081 14.5411 23.8739 14.353 24.2122 13.9769C24.5524 13.6007 24.7206 13.1203 24.7206 12.5335Z" fill="#7A8AA0" stroke="#7A8AA0" stroke-width="0.25" stroke-miterlimit="10"/>
<path d="M42.5114 19.683V12.9303C42.5114 12.2618 42.398 11.7425 42.1691 11.3724C41.9422 11.0044 41.5027 10.8184 40.8546 10.8184C40.4819 10.8184 40.164 10.9063 39.9027 11.0801C39.6414 11.2539 39.4227 11.4849 39.2505 11.7691C39.0784 12.0553 38.9507 12.3722 38.8677 12.7197C38.7847 13.0693 38.7442 13.4087 38.7442 13.7439V19.6809H36.176V12.9303C36.176 12.2618 36.0625 11.7425 35.8337 11.3724C35.6068 11.0044 35.1673 10.8184 34.5192 10.8184C34.1465 10.8184 33.8285 10.9063 33.5673 11.0801C33.306 11.2539 33.0832 11.4849 32.9049 11.7691C32.7247 12.0553 32.5951 12.3722 32.512 12.7197C32.429 13.0693 32.3885 13.4087 32.3885 13.7439V19.6809H29.8203V8.81282H31.9733L32.1798 10.2562C32.4837 9.75529 32.8908 9.34437 33.4012 9.02342C33.9116 8.70241 34.5273 8.54297 35.2443 8.54297C36.0038 8.54297 36.6397 8.70042 37.1502 9.01321C37.6606 9.32599 38.0555 9.76352 38.331 10.3196C38.6489 9.74919 39.0865 9.30961 39.6455 9.00299C40.2045 8.69631 40.8505 8.54297 41.5817 8.54297C42.7423 8.54297 43.6152 8.89463 44.2026 9.59996C44.79 10.3053 45.0836 11.2191 45.0836 12.3497V19.6871H42.5114V19.683Z" fill="#7A8AA0" stroke="#7A8AA0" stroke-width="0.25" stroke-miterlimit="10"/>
<path d="M56.8419 14.3326C56.8278 14.4307 56.8217 14.5206 56.8217 14.6045V15.0645H49.6154C49.6154 15.4836 49.6802 15.8802 49.8118 16.2564C49.9435 16.6326 50.142 16.9454 50.4012 17.1968C50.5957 17.3788 50.8205 17.5341 51.0757 17.667C51.3309 17.7999 51.6367 17.8653 51.9972 17.8653C52.3699 17.8653 52.6778 17.8265 52.9188 17.7508C53.1598 17.6752 53.3786 17.5382 53.571 17.344C53.818 17.0925 53.9922 16.7859 54.0894 16.424H56.5746C56.5463 16.745 56.4389 17.0966 56.2526 17.481C56.0662 17.8653 55.8698 18.1802 55.6632 18.4317C55.2074 18.9755 54.6627 19.366 54.0267 19.6031C53.3907 19.8402 52.7284 19.9588 52.0397 19.9588C51.2924 19.9588 50.6483 19.8361 50.1035 19.5929C49.5566 19.3496 49.0705 19.0245 48.6432 18.6218C48.1044 18.0923 47.6933 17.4585 47.4097 16.7205C47.1262 15.9825 46.9844 15.1667 46.9844 14.2753C46.9844 13.3983 47.112 12.5846 47.3672 11.8404C47.6224 11.0942 48.0133 10.4584 48.5359 9.92687C48.9369 9.50978 49.4229 9.1745 49.9961 8.92309C50.5694 8.67161 51.2276 8.54688 51.9749 8.54688C52.777 8.54688 53.5203 8.71043 54.213 9.03755C54.9016 9.36467 55.4687 9.86961 55.9123 10.5524C56.3113 11.1515 56.5665 11.7628 56.6779 12.3822C56.7852 12.9976 56.8419 13.6498 56.8419 14.3326ZM54.2535 13.1611C54.2373 12.3679 54.0165 11.7321 53.5892 11.2598C53.411 11.0656 53.1861 10.9123 52.9167 10.7998C52.6474 10.6895 52.3274 10.6322 51.9527 10.6322C51.5537 10.6322 51.2013 10.7099 50.8954 10.8632C50.5937 11.0165 50.3425 11.2189 50.1501 11.4704C49.9556 11.7076 49.8179 11.959 49.7349 12.2227C49.6538 12.4865 49.6032 12.8013 49.5911 13.1632H54.2535V13.1611Z" fill="#7A8AA0" stroke="#7A8AA0" stroke-width="0.25" stroke-miterlimit="10"/>
<path d="M65.4381 19.6831V13.0143C65.4381 12.3744 65.3123 11.8715 65.0656 11.5096C64.8165 11.1477 64.3485 10.9658 63.658 10.9658C63.2021 10.9658 62.8212 11.0946 62.5176 11.3521C62.2135 11.6098 61.9728 11.941 61.7926 12.3458C61.6125 12.7506 61.5091 13.2208 61.4825 13.7564C61.454 14.2941 61.4401 14.7909 61.4401 15.2509V19.6831H58.8516V8.81303H61.0266L61.2134 10.2135C61.5314 9.64303 61.9831 9.21984 62.5702 8.94793C63.1573 8.67602 63.7614 8.53906 64.3812 8.53906C64.9622 8.53906 65.4768 8.6372 65.9242 8.83141C66.3717 9.02768 66.7526 9.29548 67.0646 9.63693C67.3742 9.97831 67.6136 10.3892 67.7793 10.8697C67.9456 11.3501 68.0284 11.8694 68.0284 12.4275V19.6811H65.4381V19.6831Z" fill="#7A8AA0" stroke="#7A8AA0" stroke-width="0.25" stroke-miterlimit="10"/>
<path d="M76.7673 19.5393C76.0218 19.7335 75.2823 19.8316 74.5512 19.8316C73.4598 19.8316 72.6454 19.5352 72.1066 18.9423C71.5679 18.3495 71.2988 17.5317 71.2988 16.487V10.9671H69.3301V8.81428H71.2988V6.05435L73.8873 5.40625V8.81428H76.601V10.9671H73.8873V16.256C73.8873 16.6751 73.9823 16.9776 74.177 17.1657C74.3711 17.3538 74.6752 17.4479 75.0882 17.4479C75.3633 17.4479 75.6227 17.4417 75.8639 17.4274C76.1046 17.4131 76.4045 17.3865 76.7649 17.3436V19.5393H76.7673Z" fill="#7A8AA0" stroke="#7A8AA0" stroke-width="0.25" stroke-miterlimit="10"/>
<path fill-rule="evenodd" clip-rule="evenodd" d="M16.1974 6.40422C16.1974 5.59054 15.5453 4.875 14.6622 4.875C13.7609 4.875 13.127 5.59054 13.127 6.40422C13.127 7.25671 13.7609 7.89462 14.6622 7.89462C15.5453 7.89462 16.1974 7.25671 16.1974 6.40422Z" fill="#7A8AA0"/>
</svg>
