<svg width="91" height="20" viewBox="0 0 91 20" fill="none" xmlns="http://www.w3.org/2000/svg">
<path fill-rule="evenodd" clip-rule="evenodd" d="M32.515 6.40921C33.6081 6.40921 34.2286 7.01192 34.474 7.93255H36.775C36.3827 5.74536 34.735 4.53892 32.4989 4.53892C31.2589 4.53892 30.214 4.93071 29.3652 5.7148C28.8594 6.18249 28.5491 6.71031 28.4189 7.32882C28.2887 7.93204 28.2228 8.82158 28.2228 9.99847C28.2228 11.1743 28.2887 12.0644 28.4189 12.6681C28.5491 13.2708 28.8594 13.8134 29.3652 14.2811C30.214 15.0657 31.2589 15.457 32.4989 15.457C34.7184 15.457 36.3827 14.2511 36.775 12.0644H34.474C34.2286 12.984 33.6081 13.5877 32.515 13.5877C31.895 13.5877 31.4058 13.4069 31.0628 13.0293C30.5896 12.5616 30.4916 12.0797 30.4916 9.99796C30.4916 7.91675 30.5896 7.43428 31.0623 6.96658C31.4052 6.58957 31.895 6.4087 32.515 6.4087V6.40921ZM45.5206 9.01773H45.5212V8.92602V9.01773H45.5206ZM45.5212 4.63114V8.9245H43.2518V11.0719H45.5206V10.8732H45.5212V15.3684H47.7894V4.6291H45.5206V4.63165L45.5212 4.63114ZM39.3192 15.3673H41.588V4.62961H39.3192V15.3673ZM56.1734 13.0146C55.8476 13.361 55.3412 13.5877 54.7212 13.5877C54.1012 13.5877 53.5788 13.3615 53.253 13.0146C52.8114 12.5616 52.6973 12.0644 52.6973 9.99847C52.6973 7.93153 52.8114 7.43428 53.2524 6.98237C53.5793 6.63542 54.1012 6.40921 54.7207 6.40921C55.3412 6.40921 55.8476 6.63542 56.1739 6.98237C56.6144 7.43428 56.7451 7.93153 56.7451 9.99847C56.7451 12.0644 56.6144 12.5616 56.1739 13.0146H56.1734ZM54.7212 4.53892C53.3998 4.53892 52.3876 4.96077 51.5715 5.7148C50.3963 6.801 50.4296 8.14347 50.4296 9.99847C50.4296 11.853 50.3963 13.1949 51.5715 14.2811C52.3876 15.0352 53.3998 15.457 54.7212 15.457C56.0437 15.457 57.0382 15.0352 57.8549 14.2811C59.03 13.1949 59.0139 11.8535 59.0139 9.99847C59.0139 8.14347 59.03 6.801 57.8549 5.7148C57.0382 4.96077 56.0437 4.53892 54.7212 4.53892ZM65.853 9.33462H63.7149V6.49939H65.853C66.8481 6.49939 67.5007 7.08783 67.5007 7.91726C67.5007 8.74669 66.8481 9.33462 65.853 9.33462ZM69.7701 7.91726C69.7701 6.12238 68.3661 4.62961 65.9998 4.62961H61.4467V15.3673H63.7144V11.0842H65.3466L67.6154 15.3673H70.2427L67.6476 10.7377C68.7739 10.3607 69.7695 9.4248 69.7695 7.91726H69.7701ZM78.5157 11.612C78.5157 12.8485 77.7157 13.5877 76.4918 13.5877C75.2679 13.5877 74.4845 12.8485 74.4845 11.612V4.6291H72.2157V11.6879C72.2157 13.9647 74.1094 15.4575 76.4918 15.4575C78.8747 15.4575 80.7679 13.9647 80.7679 11.6874V4.62961H78.5157V11.6125V11.612ZM90.1024 9.92256C89.6127 9.50071 88.9439 9.22865 87.8824 9.09364L86.5117 8.91227C86.0385 8.85215 85.6629 8.68606 85.4346 8.48991C85.1908 8.27899 85.0922 7.99266 85.0922 7.7206C85.0922 6.98186 85.679 6.36336 86.8873 6.36336C87.6536 6.36336 88.5356 6.45404 89.2697 7.10261L90.7063 5.79071C89.7107 4.90065 88.5517 4.53841 86.9527 4.53841C84.4396 4.53841 82.9054 5.88088 82.9054 7.79601C82.9054 8.70084 83.1825 9.39525 83.7376 9.90778C84.2595 10.3755 84.9942 10.6618 85.9898 10.7973L87.3937 10.9782C87.9317 11.0541 88.1927 11.1596 88.4215 11.3552C88.6658 11.5666 88.7805 11.883 88.7805 12.2605C88.7805 13.1195 88.0625 13.5872 86.7244 13.5872C85.6474 13.5872 84.6518 13.361 83.9166 12.6824L82.4483 14.0396C83.5908 15.1106 84.9293 15.4575 86.6912 15.4575C89.124 15.4575 91 14.2811 91 12.1999C91 11.2497 90.7224 10.4657 90.1024 9.92256ZM0.00535852 17.7746L2.35346 19.9964L4.70049 17.7746L2.35346 15.5528L0.00589437 17.7741L0.00535852 17.7746ZM21.1329 2.22183L18.7859 0L16.4378 2.22183L18.7854 4.44365L21.1329 2.22183ZM12.9167 12.2198L10.5697 14.4416L8.22158 12.2203L5.87455 9.99796L8.22158 7.77665L10.5691 5.55431L12.9167 7.77614L15.2637 9.99796L12.9167 12.2198ZM19.9589 9.99847L17.6118 7.77614L15.2643 5.55482L12.9167 3.33248L10.5697 1.11117L8.22158 3.33248L5.87455 5.55431L3.52698 7.77614L1.17887 9.99796L3.52591 12.2198L5.87347 14.4416L8.22104 16.6634L10.5686 18.8853L12.9156 16.6639L15.2637 14.4416L17.6108 12.2203L19.9583 9.99796L19.9589 9.99847ZM16.4351 17.7787L18.7827 20L21.1303 17.7787L18.7832 15.5569L16.4351 17.7782V17.7787ZM4.6946 2.22335L2.34757 0.00152843L0 2.22335L2.34703 4.44518L4.6946 2.22335Z" fill="#7A8AA0"/>
</svg>
