<svg width="100" height="22" viewBox="0 0 100 22" fill="none" xmlns="http://www.w3.org/2000/svg">
<path fill-rule="evenodd" clip-rule="evenodd" d="M24.6044 0C21.3296 0 18.3921 1.43901 16.3906 3.71667C18.6176 4.10876 20.698 5.09008 22.4144 6.55803C23.6122 7.53915 24.6733 8.67517 25.5698 9.93603L26.0782 10.6931C26.1168 10.7513 26.1374 10.8195 26.1374 10.8893C26.1374 10.959 26.1168 11.0272 26.0782 11.0854L25.573 11.8425C24.6785 13.1045 23.6175 14.2406 22.4186 15.22C20.7035 16.6911 18.6221 17.6736 16.3938 18.0641C18.3949 20.34 21.3314 21.7771 24.6049 21.7771C30.6347 21.7771 35.5226 16.9024 35.5226 10.8883C35.5226 4.87521 30.6347 0 24.6049 0" fill="#7A8AA0"/>
<path fill-rule="evenodd" clip-rule="evenodd" d="M20.439 11.0228C20.4246 11.1724 20.3805 11.3177 20.3091 11.4501C20.2376 11.5825 20.1404 11.6993 20.0231 11.7938C19.9058 11.8882 19.7707 11.9583 19.6258 12C19.481 12.0417 19.3292 12.0541 19.1794 12.0365C19.0297 12.0189 18.885 11.9717 18.7538 11.8976C18.6226 11.8235 18.5075 11.724 18.4154 11.605C18.3233 11.486 18.256 11.3498 18.2174 11.2045C18.1788 11.0592 18.1697 10.9077 18.1906 10.7588C18.2317 10.4666 18.3859 10.2021 18.6202 10.0218C18.8546 9.8416 19.1504 9.76 19.4443 9.79451C19.7382 9.82902 20.0069 9.97689 20.1928 10.2065C20.3787 10.436 20.4671 10.729 20.439 11.0228ZM23.4214 10.7015C22.1642 9.12455 19.2488 6.12509 15.1015 5.83775L14.936 5.82812C14.1128 7.38898 13.684 9.12643 13.6865 10.8899C13.6865 12.7157 14.1375 14.4356 14.9337 15.947C14.9911 15.9438 15.0486 15.9406 15.1056 15.9365C19.2484 15.656 22.1619 12.6639 23.4214 11.0869C23.4645 11.0319 23.4879 10.964 23.4879 10.8942C23.4879 10.8244 23.4645 10.7566 23.4214 10.7015Z" fill="#7A8AA0"/>
<path fill-rule="evenodd" clip-rule="evenodd" d="M14.934 15.948C11.3346 16.13 7.80415 14.24 5.23906 11.0527C5.20192 11.0072 5.18164 10.9503 5.18164 10.8916C5.18164 10.8329 5.20192 10.776 5.23906 10.7305C7.80598 7.54177 11.3392 5.65135 14.9363 5.82916C15.3363 5.07107 15.8245 4.36257 16.3907 3.71831C16.0074 3.65044 15.6212 3.60028 15.2332 3.568C11.8606 3.41612 8.55939 4.56869 6.0187 6.78514C5.25005 7.42373 4.54036 8.12972 3.89814 8.89462C3.88854 8.90407 3.87697 8.91129 3.86426 8.91579C3.85155 8.92028 3.838 8.92193 3.82457 8.92062C3.81115 8.9193 3.79818 8.91506 3.78658 8.90819C3.77498 8.90133 3.76505 8.892 3.75747 8.88087C3.02868 7.60369 2.45729 6.24343 2.05569 4.82965L2.05109 4.80857C1.99378 4.66218 1.90656 4.52926 1.79498 4.41826C1.6834 4.30726 1.54989 4.22059 1.40292 4.16376C1.27979 4.11294 1.14729 4.08856 1.01407 4.09219C0.880849 4.09582 0.749889 4.12739 0.629722 4.18485C0.402632 4.30756 0.221193 4.49989 0.112244 4.73338C0.0032959 4.96687 -0.027376 5.22911 0.024766 5.48133L0.0293629 5.49508C0.546387 7.34576 1.3256 9.11344 2.34346 10.7447C2.3699 10.7866 2.38393 10.8352 2.38393 10.8847C2.38393 10.9342 2.3699 10.9828 2.34346 11.0247C1.32631 12.6619 0.545593 14.4338 0.0243063 16.2881L0.0197093 16.3092V16.3303C0.0190739 16.5588 0.0843922 16.7827 0.207875 16.9753C0.331358 17.1679 0.507794 17.321 0.716144 17.4164C0.843479 17.4723 0.980467 17.5035 1.11975 17.5076C1.30159 17.5034 1.47971 17.4554 1.63881 17.3675C1.7979 17.2796 1.93323 17.1545 2.03316 17.003L2.04649 16.9819L2.05477 16.9609C2.45761 15.5424 3.03054 14.1776 3.76115 12.8959C3.76872 12.8848 3.77866 12.8754 3.79026 12.8686C3.80185 12.8617 3.81482 12.8575 3.82825 12.8561C3.84167 12.8548 3.85522 12.8565 3.86794 12.861C3.88065 12.8655 3.89222 12.8727 3.90181 12.8821C4.54541 13.6493 5.25647 14.3575 6.02651 14.9985C8.37522 17.0289 11.3621 18.1767 14.4701 18.2431C14.7239 18.2431 14.9822 18.2363 15.2369 18.2156C15.6245 18.1838 16.0105 18.1341 16.3935 18.0667C15.825 17.4203 15.3351 16.7091 14.934 15.948ZM84.3582 6.45014C84.6763 6.45014 84.9392 6.35848 85.1396 6.17838C85.3419 5.99598 85.4453 5.75446 85.4453 5.46025C85.4453 5.16649 85.3419 4.92681 85.1383 4.74808C84.9383 4.57301 84.6758 4.4841 84.3586 4.4841C84.0318 4.4841 83.7665 4.57347 83.5707 4.74899C83.3726 4.92681 83.2719 5.16603 83.2719 5.46025C83.2719 5.75401 83.3721 5.99552 83.5698 6.17792C83.7656 6.35848 84.0309 6.45014 84.3586 6.45014" fill="#7A8AA0"/>
<path fill-rule="evenodd" clip-rule="evenodd" d="M84.4392 7.60103H80.6136V7.38106C80.6136 6.98327 80.7014 6.67988 80.8752 6.47732C81.0471 6.27751 81.3307 6.15882 81.7183 6.1249L82.0152 6.09832C82.2244 6.07816 82.3922 6.00621 82.5149 5.8843C82.6395 5.75965 82.7029 5.58505 82.7029 5.36415C82.7029 5.04794 82.5632 4.67031 81.8989 4.67031C81.8288 4.66848 81.7586 4.67308 81.6893 4.68406L81.379 4.71064C80.5506 4.78443 79.8988 5.07727 79.4405 5.58C78.9863 6.07907 78.7542 6.75871 78.75 7.60103H78.1653C77.4679 7.60103 77.3213 7.99286 77.3213 8.32191C77.3213 8.6505 77.4679 9.04279 78.1653 9.04279H78.75V13.5376C78.75 13.8241 78.8424 14.0463 79.0249 14.1976C79.2024 14.3451 79.4258 14.4203 79.6882 14.4203C79.9517 14.4203 80.1732 14.3451 80.3465 14.1971C80.5235 14.0454 80.6132 13.8236 80.6132 13.5376V9.04279H83.42V13.5376C83.42 13.8236 83.512 14.0477 83.6935 14.2035C83.8715 14.3561 84.0953 14.4336 84.3587 14.4336C84.6221 14.4336 84.8442 14.3557 85.0175 14.2026C85.194 14.0468 85.2836 13.8231 85.2836 13.5381V8.32145C85.2836 7.99241 85.137 7.60057 84.4392 7.60057V7.60103ZM91.9763 11.3805C91.82 11.1248 91.5598 10.9098 91.204 10.7416C90.8579 10.5785 90.3747 10.4314 89.7684 10.3049C89.2149 10.1912 88.8384 10.0771 88.65 9.96577C88.4799 9.86587 88.3971 9.7238 88.3971 9.53178C88.3971 9.32738 88.4799 9.17111 88.649 9.05333C88.826 8.93005 89.0743 8.86773 89.3864 8.86773C89.6535 8.86773 89.8792 8.89981 90.0575 8.96351C90.2405 9.02858 90.4634 9.12849 90.7177 9.25956C90.8629 9.34113 90.9861 9.40392 91.0831 9.44562C91.1884 9.49053 91.2978 9.51299 91.4081 9.51299C91.5791 9.51299 91.7253 9.44104 91.8411 9.29897C91.9528 9.1624 92.0099 8.99192 92.0099 8.79211C92.0099 8.46535 91.8503 8.20001 91.5373 8.00524C91.2523 7.82193 90.9268 7.67986 90.5687 7.58362C90.2051 7.48709 89.8303 7.43871 89.454 7.43972C88.9226 7.43972 88.4413 7.53 88.0234 7.70873C87.6019 7.88883 87.2649 8.14776 87.0226 8.47773C86.7814 8.80174 86.6523 9.19516 86.6549 9.59869C86.6549 10.1436 86.8401 10.578 87.2051 10.8897C87.5609 11.194 88.153 11.4314 88.963 11.5945C89.4057 11.6921 89.7399 11.7792 89.9569 11.8544C90.1619 11.9249 90.3044 12.001 90.3798 12.0798C90.4492 12.1532 90.4832 12.2517 90.4832 12.3818C90.4832 12.5739 90.394 12.7201 90.2102 12.8296C90.0139 12.946 89.7321 13.0051 89.3731 13.0051C89.0145 13.0051 88.7166 12.9703 88.4886 12.9015C88.2243 12.8191 87.9662 12.7181 87.7163 12.5991C87.4309 12.4469 87.2102 12.3731 87.0406 12.3731C86.8709 12.3731 86.7261 12.44 86.6098 12.5716C86.4968 12.6999 86.4398 12.8662 86.4398 13.0674C86.4398 13.413 86.5988 13.6824 86.9132 13.8694C87.5265 14.2613 88.3406 14.4606 89.3326 14.4606C90.1922 14.4606 90.8928 14.2695 91.4136 13.8923C91.9432 13.5088 92.2121 12.9914 92.2121 12.3548C92.2121 11.9634 92.1326 11.6358 91.9763 11.3805Z" fill="#7A8AA0"/>
<path d="M93.335 4.63086H99.6875V14.434H93.335V4.63086Z" fill="white"/>
<path fill-rule="evenodd" clip-rule="evenodd" d="M97.2796 7.44013C96.7918 7.44013 96.3501 7.53637 95.9662 7.72519C95.6697 7.86974 95.4079 8.07621 95.1986 8.33058V5.47227C95.1986 5.2138 95.1112 5.00573 94.9393 4.8545C94.7701 4.70602 94.5458 4.63086 94.2737 4.63086C94.0001 4.63086 93.7735 4.7106 93.6002 4.86917C93.4241 5.02957 93.335 5.24129 93.335 5.49931V13.5385C93.335 13.8135 93.4191 14.0335 93.5846 14.1938C93.7496 14.3533 93.9767 14.434 94.2603 14.434C94.5426 14.434 94.772 14.3538 94.9416 14.1948C95.1117 14.0344 95.199 13.8139 95.199 13.5385V10.5404C95.199 10.056 95.3378 9.6651 95.6118 9.37867C95.8853 9.09362 96.2554 8.94926 96.7132 8.94926C97.098 8.94926 97.3812 9.05008 97.5563 9.24806C97.7338 9.45016 97.8239 9.78104 97.8239 10.2315V13.5385C97.8239 13.8139 97.9103 14.0348 98.0813 14.1948C98.2505 14.3538 98.4794 14.434 98.7626 14.434C99.0457 14.434 99.2728 14.3533 99.4378 14.1938C99.6033 14.0335 99.6875 13.8135 99.6875 13.5385V10.2315C99.6875 8.37961 98.8775 7.44059 97.2796 7.44059" fill="#7A8AA0"/>
<path fill-rule="evenodd" clip-rule="evenodd" d="M43.9931 11.3814C43.8363 11.1256 43.5761 10.9107 43.2203 10.7425C42.8742 10.5794 42.3915 10.4323 41.7847 10.3058C41.2312 10.1921 40.8547 10.078 40.6663 9.96665C40.4962 9.86674 40.4134 9.72467 40.4134 9.53265C40.4134 9.32826 40.4962 9.17198 40.6653 9.05421C40.8423 8.93093 41.0906 8.8686 41.4027 8.8686C41.6702 8.8686 41.8955 8.90068 42.0738 8.96438C42.2568 9.02946 42.4802 9.12936 42.734 9.26043C42.8792 9.34201 43.0024 9.40479 43.0999 9.4465C43.2047 9.49141 43.3141 9.51386 43.4249 9.51386C43.5959 9.51386 43.7416 9.44191 43.8579 9.29985C43.9696 9.16328 44.0262 8.9928 44.0262 8.79298C44.0262 8.46623 43.8666 8.20088 43.554 8.00611C43.2549 7.81635 42.928 7.67411 42.585 7.58449C42.2214 7.48796 41.8466 7.43958 41.4703 7.44059C40.9389 7.44059 40.458 7.53087 40.0397 7.7096C39.6182 7.88971 39.2817 8.14864 39.0394 8.4786C38.7953 8.8104 38.6717 9.18802 38.6717 9.59956C38.6717 10.1445 38.8564 10.5789 39.2214 10.8905C39.5772 11.1948 40.1693 11.4322 40.9793 11.5954C41.4225 11.693 41.7566 11.7801 41.9732 11.8552C42.1782 11.9258 42.3207 12.0019 42.3961 12.0807C42.466 12.154 42.4995 12.2526 42.4995 12.3827C42.4995 12.5747 42.4103 12.7209 42.2265 12.8305C42.0306 12.9469 41.7484 13.006 41.3894 13.006C41.0308 13.006 40.7334 12.9711 40.5054 12.9024C40.241 12.82 39.983 12.7189 39.7331 12.5999C39.4472 12.4478 39.2265 12.374 39.0573 12.374C38.8872 12.374 38.7424 12.4409 38.6261 12.5724C38.5131 12.7008 38.4561 12.8671 38.4561 13.0683C38.4561 13.4139 38.6151 13.6833 38.9295 13.8703C39.5432 14.2621 40.3569 14.4615 41.3489 14.4615C42.2085 14.4615 42.9091 14.2704 43.4299 13.8932C43.9595 13.5096 44.2284 12.9922 44.2284 12.3557C44.2284 11.9643 44.1489 11.6366 43.9931 11.3814ZM49.0442 13.006L48.6801 12.9794C48.1193 12.9382 47.8462 12.6201 47.8462 12.006V9.04367H48.9026C49.1655 9.04367 49.3728 8.98225 49.519 8.86173C49.6703 8.73707 49.747 8.55559 49.747 8.32279C49.747 8.08998 49.6703 7.9085 49.519 7.78339C49.3728 7.66286 49.1651 7.60191 48.903 7.60191H47.8462V6.45345C47.8462 6.18765 47.7598 5.97088 47.5888 5.81048C47.4196 5.65191 47.1948 5.57126 46.9213 5.57126C46.6386 5.57126 46.4092 5.65191 46.24 5.81048C46.0695 5.97088 45.9826 6.18719 45.9826 6.45345V7.60145H45.3979C45.1354 7.60145 44.9281 7.6624 44.7819 7.78293C44.6302 7.90804 44.5539 8.08952 44.5539 8.32233C44.5539 8.55514 44.6306 8.73662 44.7819 8.86127C44.9276 8.9818 45.1349 9.04321 45.3979 9.04321H45.9826V11.8846C45.9826 13.4381 46.7724 14.2823 48.3298 14.3932L48.6957 14.4207C48.7408 14.4225 48.7844 14.4239 48.8272 14.4239C49.1067 14.4239 49.3315 14.3707 49.497 14.2653C49.6983 14.1366 49.8004 13.9459 49.8004 13.6994C49.8004 13.4038 49.6693 13.0431 49.0442 13.0055V13.006ZM54.6418 11.3557V11.5491C54.6418 11.9982 54.5071 12.3694 54.2414 12.6508C53.9739 12.9349 53.6356 13.0733 53.2081 13.0733C52.9318 13.0733 52.707 12.9909 52.5199 12.8208C52.3356 12.6531 52.2459 12.4441 52.2459 12.1811C52.2459 11.9716 52.3071 11.8126 52.433 11.6944C52.5631 11.5734 52.7874 11.4859 53.1009 11.435C53.4273 11.3823 53.8944 11.3557 54.4883 11.3557H54.6418ZM55.7313 8.14589C55.2716 7.67798 54.5628 7.44013 53.6259 7.44013C53.1984 7.44013 52.7585 7.49055 52.3185 7.59045C51.8768 7.69036 51.4902 7.82922 51.1698 8.00291C50.9785 8.10785 50.8388 8.22288 50.7551 8.34662C50.6673 8.47877 50.6219 8.63447 50.625 8.79298C50.625 9.00334 50.6848 9.17703 50.8025 9.30901C50.9225 9.44512 51.0788 9.51386 51.2668 9.51386C51.39 9.51386 51.5706 9.45383 51.8115 9.3333C52.176 9.19123 52.4955 9.08124 52.7603 9.00654C53.0109 8.93437 53.2704 8.89705 53.5312 8.89564C53.9261 8.89564 54.2125 8.98775 54.3826 9.16969C54.5545 9.35346 54.6418 9.65639 54.6418 10.0702V10.2902H54.3936C53.4126 10.2902 52.6307 10.3544 52.0694 10.4808C51.4962 10.6101 51.0746 10.8227 50.8158 11.1133C50.5552 11.4066 50.4228 11.8112 50.4228 12.3153C50.4228 12.7168 50.5322 13.0862 50.7473 13.4129C50.962 13.7383 51.259 13.9977 51.6313 14.1828C52.0014 14.3675 52.4188 14.461 52.8711 14.461C53.3161 14.461 53.7151 14.3575 54.0562 14.1526C54.2898 14.0139 54.4901 13.8257 54.6428 13.6013C54.6529 13.8364 54.7365 14.0312 54.891 14.181C55.056 14.34 55.2698 14.4207 55.5263 14.4207C55.8007 14.4207 56.0214 14.3423 56.1813 14.187C56.3422 14.0316 56.4245 13.8181 56.4245 13.5523V10.2719C56.4245 9.32918 56.191 8.6138 55.7318 8.14589H55.7313ZM63.9699 12.8942L61.6972 10.8621L63.7442 8.96347C63.9318 8.77694 64.0265 8.56568 64.0265 8.33608C64.0265 8.10694 63.941 7.90437 63.7713 7.73573C63.6936 7.65468 63.6001 7.59028 63.4966 7.54647C63.393 7.50266 63.2816 7.48036 63.1691 7.48092C62.9388 7.48092 62.7315 7.57074 62.5545 7.74718L59.8212 10.3594V5.51305C59.8212 5.22663 59.7288 5.00436 59.5463 4.85313C59.3689 4.70556 59.1454 4.63086 58.8825 4.63086C58.6191 4.63086 58.3975 4.70556 58.2251 4.85358C58.0477 5.00482 57.9576 5.22709 57.9576 5.51305V13.5385C57.9576 13.8245 58.0477 14.0463 58.2242 14.198C58.398 14.346 58.6196 14.4207 58.8825 14.4207C59.1454 14.4207 59.3689 14.346 59.5463 14.1984C59.7288 14.0472 59.8212 13.8249 59.8212 13.5385V11.4405L62.8244 14.1544C63.0115 14.3313 63.2183 14.4207 63.4385 14.4207C63.6615 14.4207 63.8582 14.33 64.0232 14.1503C64.1864 13.9725 64.2692 13.7667 64.2692 13.5385C64.2692 13.2993 64.1694 13.083 63.9704 12.8942H63.9699ZM69.5598 10.2907H66.7069C66.7681 9.82275 66.9216 9.45749 67.1639 9.20452C67.419 8.93689 67.767 8.80123 68.1977 8.80123C68.6238 8.80123 68.9461 8.93047 69.1824 9.19536C69.4044 9.44466 69.5313 9.81266 69.5598 10.2907ZM70.5297 12.374C70.3877 12.374 70.1804 12.4478 69.9 12.5972C69.6251 12.7209 69.3764 12.819 69.1608 12.8896C68.9511 12.9583 68.7038 12.9927 68.4266 12.9927C67.8874 12.9927 67.4732 12.8543 67.1951 12.5812C66.9313 12.3218 66.7667 11.9143 66.7055 11.3695H70.5835C70.858 11.3695 71.1848 11.2535 71.1848 10.7022C71.1848 10.0455 71.0593 9.46666 70.8111 8.98134C70.5619 8.49373 70.2061 8.1106 69.7528 7.84251C69.3005 7.57579 68.7636 7.44059 68.1573 7.44059C67.5243 7.44059 66.9487 7.58953 66.4472 7.88283C65.9445 8.1774 65.5373 8.60976 65.2741 9.12845C64.9992 9.65868 64.8599 10.2742 64.8599 10.9575C64.8599 12.0344 65.1817 12.8974 65.8165 13.5215C66.4509 14.1448 67.3197 14.461 68.4 14.461C68.7553 14.461 69.1355 14.4083 69.5281 14.3034C69.8971 14.2081 70.2529 14.0676 70.5872 13.885C70.9481 13.6806 71.131 13.4194 71.131 13.1086C71.131 12.8914 71.0768 12.7145 70.9701 12.5816C70.9181 12.5151 70.8512 12.4617 70.7747 12.4256C70.6982 12.3895 70.6143 12.3719 70.5297 12.374ZM74.6596 9.76913C74.9578 9.80438 75.2298 9.95628 75.4156 10.1914C75.6015 10.4266 75.6861 10.7257 75.6507 11.023C75.6154 11.3203 75.463 11.5914 75.2271 11.7767C74.9912 11.962 74.6912 12.0463 74.393 12.011C74.0948 11.9758 73.8228 11.8239 73.637 11.5887C73.4511 11.3536 73.3665 11.0545 73.4019 10.7572C73.4372 10.4599 73.5896 10.1888 73.8255 10.0035C74.0614 9.81818 74.3614 9.73388 74.6596 9.76913Z" fill="#7A8AA0"/>
</svg>
