<svg width="84" height="20" viewBox="0 0 84 20" fill="none" xmlns="http://www.w3.org/2000/svg">
<path d="M9.99533 13.7603L9.9668 13.7888V6.21141L9.99879 6.2434L13.7257 2.51652C14.7633 1.47887 16.4452 1.47887 17.4828 2.51652C18.5196 3.5533 18.5196 5.23602 17.4828 6.2728L13.7559 9.99969L19.2209 15.4655C20.2577 16.5023 20.2577 18.1841 19.2209 19.2218C18.1832 20.2594 16.5014 20.2594 15.4637 19.2218L9.99533 13.7603Z" fill="#738399"/>
<path d="M9.96769 6.21119V13.7886L6.28317 17.4731C5.24553 18.5108 3.56367 18.5108 2.52602 17.4731C1.48924 16.4355 1.48924 14.7536 2.52602 13.7168L6.2408 10.0021L0.777587 4.53452C-0.259196 3.49774 -0.259196 1.81502 0.777587 0.778236C1.81524 -0.259412 3.49709 -0.259412 4.53474 0.778236L9.96769 6.21119Z" fill="#A2B2C8"/>
<path d="M9.9986 13.7576L8.4331 12.1921C7.22272 10.9817 7.22284 9.01926 8.43335 7.80903L9.9986 6.24414L11.5638 7.80903C12.7744 9.01926 12.7745 10.9817 11.5641 12.1921L9.9986 13.7576Z" fill="#556375"/>
<path d="M59.1039 1.99219V17.2664H62.203V13.0604L65.9662 17.2664H72.6072L76.149 12.3963L79.4695 17.2664H83.6754L78.1413 10.1827L83.2327 2.65628H79.2481L76.149 7.30494L73.0499 2.65628H69.0653L74.3781 10.1827L69.3709 16.8589L64.8594 11.7322L68.844 6.86221H65.3021L62.203 10.4041V1.99219H59.1039Z" fill="#7A8AA0"/>
<path fill-rule="evenodd" clip-rule="evenodd" d="M46.0434 11.9536C46.0434 14.8878 43.6648 17.2664 40.7306 17.2664C37.7965 17.2664 35.4179 14.8878 35.4179 11.9536C35.4179 9.01945 37.7965 6.64085 40.7306 6.64085C43.6648 6.64085 46.0434 9.01945 46.0434 11.9536ZM43.387 11.9536C43.387 13.4207 42.1977 14.61 40.7306 14.61C39.2636 14.61 38.0743 13.4207 38.0743 11.9536C38.0743 10.4865 39.2636 9.29723 40.7306 9.29723C42.1977 9.29723 43.387 10.4865 43.387 11.9536Z" fill="#7A8AA0"/>
<path d="M57.387 13.2818C56.7972 15.5732 54.7171 17.2664 52.2416 17.2664C49.3075 17.2664 46.9289 14.8878 46.9289 11.9536C46.9289 9.01945 49.3075 6.64085 52.2416 6.64085C54.8741 6.64085 57.0594 8.55547 57.4809 11.0681H54.7468C54.3822 10.0364 53.3982 9.29723 52.2416 9.29723C50.7745 9.29723 49.5852 10.4865 49.5852 11.9536C49.5852 13.4207 50.7745 14.61 52.2416 14.61C53.2249 14.61 54.0833 14.0758 54.5426 13.2818H57.387Z" fill="#7A8AA0"/>
<path fill-rule="evenodd" clip-rule="evenodd" d="M23.6855 17.2664V2.87765H30.9906C32.0236 3.02522 34.0897 4.02874 34.0897 6.86221C34.0897 9.69568 32.0236 10.6992 30.9906 10.8468L36.3033 17.2664H32.3188L27.006 11.0681V17.2664H23.6855ZM27.006 5.31266H29.441C30.2968 5.31266 30.9906 6.00642 30.9906 6.86221C30.9906 7.71801 30.2968 8.41177 29.441 8.41177H27.006V5.31266Z" fill="#7A8AA0"/>
</svg>
