<svg width="134" height="22" viewBox="0 0 134 22" fill="none" xmlns="http://www.w3.org/2000/svg">
<path d="M35.9702 3.69531V8.94749C36.5151 7.96568 38.036 7.42702 39.0141 7.42702C41.7198 7.42702 43.7308 9.12076 43.7308 12.3921C43.7308 15.5097 41.6829 17.3573 38.9578 17.3573C38.3738 17.3911 37.7913 17.2686 37.2675 17.0021C36.7437 16.7355 36.2966 16.3339 35.9702 15.8368V17.1451H33.6777V3.69531H35.9702ZM36.1204 12.3939C36.1101 12.7581 36.1712 13.1207 36.3002 13.4603C36.4292 13.7999 36.6233 14.1096 36.8712 14.371C37.1191 14.6323 37.4158 14.8401 37.7435 14.982C38.0712 15.1238 38.4233 15.197 38.7791 15.197C39.1349 15.197 39.4871 15.1238 39.8148 14.982C40.1425 14.8401 40.439 14.6323 40.6869 14.371C40.9348 14.1096 41.129 13.7999 41.258 13.4603C41.387 13.1207 41.4482 12.7581 41.4379 12.3939C41.459 12.0308 41.406 11.6672 41.2823 11.3263C41.1585 10.9854 40.9668 10.6746 40.7192 10.4139C40.4717 10.1531 40.1738 9.94799 39.8445 9.81169C39.5153 9.67539 39.162 9.61088 38.807 9.62225C38.4509 9.61621 38.0972 9.68394 37.7673 9.82139C37.4373 9.95883 37.1379 10.1631 36.887 10.4221C36.6361 10.681 36.4388 10.9891 36.3071 11.3281C36.1753 11.667 36.1118 12.0297 36.1204 12.3944V12.3939Z" fill="#7A8AA0"/>
<path d="M48.1651 3.69531V17.1474H45.8916V3.69531H48.1651Z" fill="#7A8AA0"/>
<path d="M59.8516 12.4135C59.8806 13.0709 59.7755 13.7272 59.5431 14.3407C59.3106 14.9541 58.956 15.5113 58.5017 15.9766C58.0474 16.4419 57.5033 16.8051 56.9043 17.0432C56.3054 17.2812 55.6646 17.3888 55.0227 17.3592C52.0162 17.3592 50.2122 15.1462 50.2122 12.4135C50.2053 11.7608 50.3249 11.1132 50.5641 10.5081C50.8032 9.90305 51.1572 9.35258 51.6054 8.88855C52.0536 8.42451 52.5872 8.05611 53.1754 7.8047C53.7636 7.55328 54.3946 7.42383 55.0319 7.42383C55.6693 7.42383 56.3002 7.55328 56.8884 7.8047C57.4765 8.05611 58.0102 8.42451 58.4585 8.88855C58.9067 9.35258 59.2606 9.90305 59.4997 10.5081C59.7389 11.1132 59.8585 11.7608 59.8516 12.4135V12.4135ZM52.5047 12.4135C52.5047 13.8568 53.3506 15.204 55.0227 15.204C56.6949 15.204 57.5407 13.8568 57.5407 12.4135C57.5578 12.0591 57.506 11.7048 57.3883 11.3711C57.2706 11.0374 57.0894 10.7309 56.8551 10.4695C56.6209 10.2081 56.3383 9.99694 56.0237 9.84829C55.7091 9.69964 55.3689 9.61646 55.0227 9.60357C53.3701 9.60414 52.5047 10.9897 52.5047 12.4135Z" fill="#7A8AA0"/>
<path d="M69.8496 15.9341C69.3896 16.4254 68.8344 16.8127 68.2197 17.0712C67.6049 17.3297 66.9441 17.4537 66.2797 17.4351C63.5925 17.4351 61.3564 15.7803 61.3564 12.4122C61.3564 9.04421 63.5925 7.38936 66.2797 7.38936C66.9026 7.36749 67.523 7.48144 68.0996 7.72366C68.6763 7.96587 69.1961 8.33082 69.6246 8.79433L68.1775 10.3531C67.668 9.87803 67.0061 9.61088 66.3171 9.60231C65.9578 9.59295 65.6005 9.65984 65.2676 9.79876C64.9348 9.93768 64.6335 10.1456 64.3829 10.4095C64.1323 10.6735 63.9378 10.9876 63.8114 11.3323C63.6851 11.6769 63.6297 12.0446 63.6489 12.4122C63.6228 12.7761 63.6724 13.1416 63.7941 13.4845C63.9159 13.8274 64.1072 14.14 64.3554 14.4018C64.6036 14.6635 64.9031 14.8685 65.2342 15.0032C65.5653 15.1379 65.9205 15.1993 66.2764 15.1833C66.649 15.1976 67.0207 15.1352 67.3693 14.9996C67.7179 14.864 68.0364 14.6582 68.3059 14.3942L69.8496 15.9341Z" fill="#7A8AA0"/>
<path d="M73.5662 3.69531V11.4721L76.6855 7.66147H79.4291V7.79642L75.652 12.1263L79.955 16.9759V17.1474H77.193L73.5639 12.8559V17.1474H71.2715V3.69531H73.5662Z" fill="#7A8AA0"/>
<path d="M87.5251 10.1818C87.2178 9.89063 86.8565 9.66565 86.4627 9.52018C86.0689 9.37471 85.6506 9.31171 85.2326 9.33493C84.1428 9.33493 83.5414 9.68145 83.5414 10.2779C83.5414 10.8937 84.0864 11.2402 85.2723 11.3169C87.0198 11.4312 89.2363 11.8366 89.2363 14.3572C89.2363 16.0315 87.902 17.4748 85.2527 17.4748C84.4611 17.5309 83.6671 17.4083 82.9269 17.1156C82.1866 16.8229 81.5182 16.3674 80.9688 15.7811L82.096 14.1068C82.9771 14.9171 84.1069 15.3867 85.2901 15.4345C86.1544 15.4534 86.9651 14.992 86.9651 14.2989C86.9651 13.6447 86.4391 13.3748 85.1226 13.2982C83.3751 13.1633 81.2892 12.5091 81.2892 10.3539C81.2892 8.15983 83.5063 7.39016 85.1975 7.39016C85.8496 7.3457 86.5038 7.43326 87.1229 7.64784C87.7419 7.86241 88.3136 8.1998 88.8053 8.64073L87.5251 10.1818Z" fill="#7A8AA0"/>
<path d="M99.1211 15.9341C98.6611 16.4253 98.1059 16.8127 97.4911 17.0712C96.8763 17.3297 96.2155 17.4536 95.5512 17.4351C92.864 17.4351 90.6279 15.7803 90.6279 12.4122C90.6279 9.0442 92.864 7.38935 95.5512 7.38935C96.174 7.36753 96.7942 7.4815 97.3708 7.72372C97.9473 7.96593 98.4671 8.33086 98.8955 8.79432L97.4489 10.3531C96.9395 9.87802 96.2776 9.61087 95.5886 9.6023C95.2293 9.59294 94.872 9.65983 94.5391 9.79875C94.2062 9.93767 93.905 10.1456 93.6544 10.4095C93.4038 10.6735 93.2092 10.9876 93.0829 11.3323C92.9566 11.6769 92.9012 12.0446 92.9204 12.4122C92.8944 12.7764 92.944 13.1421 93.066 13.4852C93.188 13.8283 93.3796 14.1411 93.6282 14.4029C93.8767 14.6647 94.1766 14.8696 94.508 15.0041C94.8395 15.1386 95.195 15.1997 95.5512 15.1833C95.9238 15.1976 96.2955 15.1351 96.6441 14.9995C96.9927 14.864 97.3112 14.6581 97.5807 14.3942L99.1211 15.9341Z" fill="#7A8AA0"/>
<path d="M107.876 7.65864H110.15V17.1463H107.876V15.7608C107.35 16.877 105.903 17.4156 104.87 17.4351C102.126 17.4545 100.097 15.7196 100.097 12.3933C100.097 9.12193 102.218 7.40875 104.926 7.4282C105.505 7.4061 106.08 7.53592 106.596 7.80532C107.112 8.07473 107.553 8.47479 107.876 8.96754L107.876 7.65864ZM102.39 12.3928C102.366 12.7715 102.421 13.151 102.55 13.5069C102.678 13.8627 102.878 14.1871 103.137 14.459C103.395 14.7309 103.706 14.9444 104.05 15.0857C104.394 15.2269 104.763 15.2929 105.133 15.2793C108.741 15.2793 108.741 9.52507 105.133 9.52507C104.764 9.50911 104.395 9.57283 104.052 9.71211C103.708 9.85138 103.397 10.0631 103.138 10.3335C102.879 10.604 102.679 10.9271 102.55 11.282C102.421 11.6368 102.366 12.0154 102.389 12.3933L102.39 12.3928Z" fill="#7A8AA0"/>
<path d="M112.554 21.1115V7.65942H114.846V8.96947C115.194 8.4902 115.648 8.10242 116.171 7.83806C116.693 7.57371 117.27 7.44036 117.853 7.44899C118.49 7.43138 119.123 7.54851 119.714 7.79307C120.305 8.03762 120.84 8.40434 121.286 8.87031C121.733 9.33628 122.08 9.89149 122.307 10.5012C122.535 11.111 122.636 11.7622 122.607 12.4141C122.607 15.1852 120.897 17.3792 117.928 17.3792C116.951 17.3792 115.504 17.071 114.847 16.032V21.1127L112.554 21.1115ZM120.314 12.413C120.314 11.6984 120.037 11.013 119.544 10.5077C119.05 10.0024 118.381 9.71855 117.684 9.71855C116.986 9.71855 116.317 10.0024 115.823 10.5077C115.33 11.013 115.053 11.6984 115.053 12.413C115.053 13.1276 115.33 13.8129 115.823 14.3182C116.317 14.8235 116.986 15.1074 117.684 15.1074C118.381 15.1074 119.05 14.8235 119.544 14.3182C120.037 13.8129 120.314 13.1276 120.314 12.413Z" fill="#7A8AA0"/>
<path d="M126.722 13.2408C126.872 14.4148 127.868 15.2617 129.484 15.2617C130.387 15.276 131.266 14.9624 131.964 14.3765L133.43 15.8586C132.347 16.8804 130.919 17.4322 129.446 17.398C126.252 17.398 124.354 15.3772 124.354 12.3362C124.354 9.44966 126.271 7.37109 129.278 7.37109C132.378 7.37109 134.314 9.33416 133.956 13.2408H126.722ZM131.758 11.2966C131.607 10.0649 130.668 9.4491 129.353 9.4491C128.779 9.40341 128.207 9.5624 127.734 9.89912C127.261 10.2358 126.917 10.7296 126.759 11.2966H131.758Z" fill="#7A8AA0"/>
<path d="M7.41865 16.2813L3.52328 13.9512L0.00583792 16.0669L0.00195312 17.4256L7.41919 21.8623L14.7891 17.4256L14.7929 16.0669L11.2716 13.9603L7.41865 16.2813Z" fill="#7A8AA0"/>
<path d="M7.37375 0.134766L0.0038848 4.57153L0 5.93017L7.4173 10.3669L14.7871 5.92961L14.7911 4.57096L7.37375 0.134766Z" fill="#7A8AA0"/>
<path d="M7.37571 6.7701L14.2883 10.9055V11.6638L7.42096 15.7992L0.50834 11.6638V10.9055L7.37571 6.7701ZM7.37571 6.16797L0.00590608 10.6047L0.00195312 11.9634L7.41926 16.4002L14.7891 11.9634L14.793 10.6047L7.37571 6.16797V6.16797Z" fill="#7A8AA0"/>
</svg>
