<svg width="95" height="36" viewBox="0 0 95 36" fill="none" xmlns="http://www.w3.org/2000/svg">
<path d="M43.8398 18V36H69.2516H94.6634L94.6331 18.0303L94.5877 0.0756302L69.2214 0.0302505L43.8398 0V18ZM48.6802 12.2067V15.4891L49.1945 14.9294C49.8751 14.1882 50.5709 13.916 51.8113 13.916C54.3524 13.9311 55.502 15.4891 55.7289 19.1798C55.9256 22.5076 55.2449 24.9731 53.8533 25.9412C53.2785 26.3345 53.0365 26.395 52.0079 26.4555C50.6466 26.516 49.739 26.1832 49.0735 25.4118L48.7104 24.9731L48.6045 25.6387C48.5138 26.3193 48.4987 26.3193 47.9088 26.3193H47.3188V17.6218V8.92437H47.9995H48.6802V12.2067ZM59.4197 17.6218V26.3193H58.739H58.0583V17.6218V8.92437H58.739H59.4197V17.6218ZM84.2566 14.2941L84.302 19.679L86.465 17.0319C87.66 15.5798 88.7188 14.3244 88.8398 14.2185C88.9457 14.1277 89.3844 14.0672 89.7928 14.0975L90.5491 14.1429L88.5071 16.563C87.3877 17.8941 86.4499 19.0588 86.4045 19.1647C86.3592 19.2555 87.3424 20.874 88.5978 22.7496C89.8533 24.6252 90.8819 26.1983 90.8819 26.2437C90.8819 26.2891 90.5491 26.3193 90.1407 26.3193H89.4146L87.4029 23.2941L85.3911 20.2689L84.8163 20.9193L84.2415 21.5546L84.2264 23.9294V26.3193H83.5457H82.865V17.6218V8.92437H83.5457H84.2264L84.2566 14.2941ZM67.7541 14.0975C68.5104 14.3092 69.4482 15.1261 69.9323 15.958C71.0365 17.8336 71.0365 22.5529 69.9323 24.4286C69.4331 25.3059 68.4802 26.0924 67.6634 26.3193C67.3003 26.4252 66.4987 26.4857 65.8785 26.4555C64.502 26.3798 63.5642 25.8655 62.8079 24.7613C62.0667 23.6874 61.9457 23.158 61.8852 20.5261C61.8247 18.4235 61.855 18.0151 62.1272 17.1076C62.7625 15.0202 64.139 13.916 66.1205 13.916C66.6953 13.916 67.4365 13.9916 67.7541 14.0975ZM78.7508 14.3092C79.9306 14.8992 80.6718 16.1092 80.7777 17.6218L80.823 18.2269L80.2029 18.2723L79.5827 18.3176L79.4768 17.6067C79.265 16.0487 78.2819 15.1261 76.8298 15.1261C75.3625 15.1261 74.455 15.8218 74.0163 17.2739C73.6987 18.3479 73.6987 22.0387 74.0163 23.1126C74.455 24.5647 75.3625 25.2605 76.8449 25.2605C78.2667 25.2605 79.265 24.4286 79.4768 23.1126C79.5676 22.5529 79.5827 22.5378 80.2331 22.5378H80.8835L80.7928 23.0975C80.581 24.595 79.5524 25.8958 78.2214 26.3345C77.4953 26.5765 75.3625 26.4403 74.7424 26.1227C73.9709 25.7143 73.2146 24.837 72.8516 23.9143C72.534 23.1429 72.5037 22.8252 72.5037 20.1933C72.5037 17.6218 72.5491 17.2437 72.8214 16.5479C73.5928 14.6723 74.7272 13.916 76.739 13.916C77.7524 13.916 78.1003 13.9765 78.7508 14.3092Z" fill="#7A8AA0"/>
<path d="M50.3416 15.3678C49.6609 15.6703 49.313 15.9879 48.9651 16.6686C48.708 17.1678 48.6777 17.5913 48.6777 20.2686C48.6777 23.5963 48.7231 23.8384 49.5702 24.5493C50.2055 25.0787 50.992 25.3056 51.8845 25.23C53.6542 25.0484 54.4256 23.5056 54.4256 20.1022C54.4105 17.4249 53.8357 15.8216 52.671 15.3375C52.0206 15.0653 51.0071 15.0804 50.3416 15.3678Z" fill="#7A8AA0"/>
<path d="M65.0919 15.339C64.4263 15.6264 63.7305 16.4886 63.4129 17.4264C63.2011 18.0466 63.1406 18.6819 63.1406 20.1945C63.1406 22.4483 63.3826 23.4163 64.1541 24.3088C64.744 24.9743 65.3944 25.2617 66.302 25.2617C67.6028 25.2617 68.3591 24.7172 68.9642 23.371C69.2364 22.7659 69.3272 22.2516 69.3726 20.7542C69.4784 17.7592 68.9339 16.1105 67.6028 15.4298C66.907 15.0819 65.7877 15.0365 65.0919 15.339Z" fill="#7A8AA0"/>
<path d="M2.69567 17.8026C1.24357 22.4463 0.0334864 26.3337 0.00323435 26.4245C-0.0421438 26.5757 0.381386 26.6211 1.81836 26.6211H3.67886L4.11752 24.8816L4.55618 23.1421H6.93097H9.30575L9.74441 24.8816L10.1831 26.6211H12.0284C13.057 26.6211 13.8889 26.5757 13.8889 26.5152C13.8889 26.4547 12.6789 22.5824 11.2116 17.8934L8.53433 9.3774H6.93097H5.3276L2.69567 17.8026ZM7.74777 17.2581C8.12592 18.7253 8.44357 19.9808 8.44357 20.0261C8.44357 20.0715 7.74777 20.1169 6.91584 20.1169C5.52424 20.1169 5.38811 20.0866 5.44861 19.8446C6.53769 15.5791 6.87046 14.3992 6.94609 14.49C7.0066 14.5505 7.35449 15.7908 7.74777 17.2581Z" fill="#7A8AA0"/>
<path d="M14.9473 17.9992V26.6211H16.6868H18.4263L18.4565 21.1303L18.5019 15.6396L20.9826 21.1303L23.4632 26.6211H25.2481H27.0481V17.9992V9.3774H25.233H23.4179L23.3876 14.8379L23.3422 20.3135L20.9069 14.8833L18.4565 9.45303L16.7019 9.40765L14.9473 9.36227V17.9992Z" fill="#7A8AA0"/>
<path d="M27.6543 9.48328C27.6543 9.54378 28.6829 12.0093 29.9232 14.974L32.1921 20.3589V23.49V26.6211H34.0072H35.8224V23.4597V20.2833L38.0308 15.0194C39.256 12.1303 40.2845 9.66479 40.3148 9.55891C40.3753 9.40765 39.982 9.3774 38.4694 9.40765L36.5333 9.45303L35.3081 13.1135C34.6274 15.1253 34.0526 16.8043 34.0072 16.8497C33.9619 16.895 33.3568 15.2312 32.661 13.1438L31.4056 9.3774H29.5299C28.5014 9.3774 27.6543 9.42277 27.6543 9.48328Z" fill="#7A8AA0"/>
</svg>
