<svg width="138" height="30" viewBox="0 0 138 30" fill="none" xmlns="http://www.w3.org/2000/svg">
<path fill-rule="evenodd" clip-rule="evenodd" d="M7.66942 6.20832L11.1863 4.17785L14.7929 6.26013L22.3676 0.128486V10.6334V23.5445L11.1863 30L0.00497334 23.5445V12.5409L0 12.5438V0L7.66942 6.20832ZM1.95993 13.6068V22.4158L11.1863 27.7426L20.4127 22.4158V13.7442L11.1772 19.1755L1.95993 13.6068ZM2.33182 11.5474L11.1907 16.8996L20.1674 11.6205L11.1863 6.43526L2.33182 11.5474ZM16.8078 7.14437L20.4127 9.259V4.22623C19.211 5.19893 18.0094 6.17162 16.8078 7.14437ZM1.95496 9.13052L5.55985 7.01584L1.95496 4.09774C1.95496 5.7753 1.95496 7.45291 1.95496 9.13052Z" fill="#7A8AA0"/>
<path fill-rule="evenodd" clip-rule="evenodd" d="M33.3848 15.1467H33.5739C34.1791 15.1467 35.0965 15.0615 35.0965 15.9221C35.0965 16.707 34.1697 16.6787 33.6212 16.6787H33.3848V15.1467ZM34.3872 18.0972C35.6922 18.0972 36.9688 17.6054 36.9688 16.1113C36.9688 15.1183 36.5338 14.428 35.5125 14.2956V14.2767C36.0894 13.9835 36.2974 13.4634 36.2974 12.8203C36.2974 11.4585 35.4463 10.9668 34.1791 10.9668H31.5312V18.0972H34.3872ZM33.3848 12.3853H33.5172C34.0184 12.3853 34.5952 12.4231 34.5952 13.0756C34.5952 13.6809 34.0846 13.766 33.5928 13.766H33.3848V12.3853Z" fill="#7A8AA0"/>
<path fill-rule="evenodd" clip-rule="evenodd" d="M42.625 10.9668H40.7715V18.0972H44.8474V16.5273H42.625V10.9668Z" fill="#7A8AA0"/>
<path fill-rule="evenodd" clip-rule="evenodd" d="M51.873 10.7305C49.8209 10.7305 47.9297 12.2435 47.9297 14.3997C47.9297 16.7071 49.5847 18.3336 51.873 18.3336C54.1617 18.3336 55.8164 16.7071 55.8164 14.3997C55.8164 12.2435 53.9251 10.7305 51.873 10.7305ZM51.873 12.5272C52.9797 12.5272 53.8874 13.4256 53.8874 14.4091C53.8874 15.6385 52.9797 16.5369 51.873 16.5369C50.7668 16.5369 49.859 15.6385 49.859 14.4091C49.859 13.4256 50.7668 12.5272 51.873 12.5272Z" fill="#7A8AA0"/>
<path fill-rule="evenodd" clip-rule="evenodd" d="M64.611 11.1367C64.0624 10.9097 63.5139 10.7773 62.9181 10.7773C61.9157 10.7773 60.9037 11.2123 60.204 11.9311C59.5232 12.6309 59.1543 13.5671 59.1543 14.5411C59.1543 15.6003 59.5135 16.527 60.2986 17.2363C61.036 17.9077 61.9819 18.286 62.9746 18.286C63.5516 18.286 63.9963 18.1441 64.611 17.955V15.7327C64.2232 16.1961 63.6177 16.4892 63.0127 16.4892C61.8587 16.4892 61.0833 15.6759 61.0833 14.5506C61.0833 13.4442 61.8496 12.5741 62.9842 12.5741C63.6177 12.5741 64.2324 12.8484 64.611 13.359V11.1367Z" fill="#7A8AA0"/>
<path fill-rule="evenodd" clip-rule="evenodd" d="M70.4643 13.9078H70.4454V10.9668H68.5918V18.0972H70.4454V15.0048H70.4643L72.8568 18.0972H75.259L72.1663 14.3429L75.0035 10.9668H72.7057L70.4643 13.9078Z" fill="#7A8AA0"/>
<path fill-rule="evenodd" clip-rule="evenodd" d="M78.5977 18.0972H81.2268C83.2031 18.0972 84.8486 16.5368 84.8486 14.532C84.8486 12.5272 83.2127 10.9668 81.2268 10.9668H78.5977V18.0972ZM80.4513 12.5366H80.8864C82.078 12.5366 82.9196 13.2553 82.9196 14.532C82.9196 15.9221 81.9737 16.5273 80.8675 16.5273H80.4513V12.5366Z" fill="#7A8AA0"/>
<path fill-rule="evenodd" clip-rule="evenodd" d="M92.9143 16.8583L93.3778 18.0972H95.3541L92.6685 10.9668H90.6449L87.9023 18.0972H89.8695L90.361 16.8583H92.9143ZM92.4131 15.4398H90.8719L91.6377 13.1702H91.6565L92.4131 15.4398Z" fill="#7A8AA0"/>
<path fill-rule="evenodd" clip-rule="evenodd" d="M102.826 12.5366V10.9668H98.7695V18.0972H102.826V16.5273H100.623V15.298H102.713V13.7282H100.623V12.5366H102.826Z" fill="#7A8AA0"/>
<path fill-rule="evenodd" clip-rule="evenodd" d="M106.381 18.0972H108.225L108.821 13.993H108.84L110.475 18.0972H111.213L112.925 13.993H112.944L113.464 18.0972H115.317L114.239 10.9668H112.395L110.863 14.7779L109.417 10.9668H107.591L106.381 18.0972Z" fill="#7A8AA0"/>
<path fill-rule="evenodd" clip-rule="evenodd" d="M122.523 10.7305C120.471 10.7305 118.58 12.2435 118.58 14.3997C118.58 16.7071 120.235 18.3336 122.523 18.3336C124.812 18.3336 126.467 16.7071 126.467 14.3997C126.467 12.2435 124.576 10.7305 122.523 10.7305ZM122.523 12.5272C123.63 12.5272 124.537 13.4256 124.537 14.4091C124.537 15.6385 123.63 16.5369 122.523 16.5369C121.417 16.5369 120.509 15.6385 120.509 14.4091C120.509 13.4256 121.417 12.5272 122.523 12.5272Z" fill="#7A8AA0"/>
<path fill-rule="evenodd" clip-rule="evenodd" d="M130.164 18.0972H132.017V13.7282H132.036L135.431 18.0972H137.285V10.9668H135.431V15.3263H135.412L132.017 10.9668H130.164V18.0972Z" fill="#7A8AA0"/>
</svg>
