<svg width="138" height="40" fill="none" xmlns="http://www.w3.org/2000/svg"><path d="M80.883 14.336c.279.258.64.387 1.083.387.444 0 .804-.129 1.083-.387a1.33 1.33 0 00.418-1.006c0-.37-.14-.68-.418-.928a1.376 1.376 0 00-.324-.215 1.744 1.744 0 00-.759-.156c-.444 0-.804.13-1.083.387a1.256 1.256 0 00-.417.96l.002.082.005.065a1.266 1.266 0 00.41.81zM65.732 15.858a4.325 4.325 0 00-.95-.099 4.1 4.1 0 00-1.485.263c-.454.165-.84.408-1.16.727v-4.022h-2.413v11.478h2.413V20.09c0-.742.18-1.299.542-1.67a1.778 1.778 0 01.445-.343 1.931 1.931 0 01.613-.2c.081-.013.165-.022.252-.027l.074-.003h.07c.425 0 .773.1 1.042.3.077.058.146.122.21.195a1.4 1.4 0 01.223.336c.047.101.087.212.119.333.061.23.091.498.091.8v4.394h2.414V19.44a5.78 5.78 0 00-.063-.877 4.533 4.533 0 00-.09-.437l-.033-.121c-.158-.533-.416-.973-.773-1.319a3.07 3.07 0 00-1.255-.75 3.874 3.874 0 00-.286-.079z" fill="#7A8AA0"/><path fill-rule="evenodd" clip-rule="evenodd" d="M76.221 24.205h2.305v-8.322h-2.414v.881c-.597-.67-1.427-1.005-2.49-1.005-.784 0-1.495.175-2.135.526a3.784 3.784 0 00-1.484 1.5 4.063 4.063 0 00-.365.895 5.063 5.063 0 00-.177 1.364c0 .856.18 1.609.541 2.258a3.748 3.748 0 002.002 1.74l.136.049.132.043a4.211 4.211 0 00.618.141c.237.036.481.053.732.053.678 0 1.26-.129 1.747-.387a2.844 2.844 0 00.852-.696v.96zm-1.399-1.99c-.238.09-.5.134-.782.134-.62 0-1.13-.207-1.532-.619a2.048 2.048 0 01-.396-.598 2.698 2.698 0 01-.207-1.088 3.511 3.511 0 01.015-.32l.014-.118.02-.123a2.142 2.142 0 01.28-.754c.077-.128.169-.247.274-.356.402-.423.913-.634 1.532-.634.608 0 1.114.211 1.516.634.402.413.603.97.603 1.671 0 .355-.052.675-.155.959-.1.276-.25.518-.448.727a1.99 1.99 0 01-.734.485z" fill="#7A8AA0"/><path d="M90.47 15.76c1.032 0 1.862.309 2.491.927.64.619.96 1.537.96 2.754v4.764h-2.414v-4.393c0-.66-.145-1.15-.433-1.47-.29-.33-.707-.495-1.253-.495-.37 0-.694.07-.972.211l-.056.03-.055.032a1.702 1.702 0 00-.37.3c-.166.169-.293.377-.383.624a2.78 2.78 0 00-.148.729 4.25 4.25 0 00-.012.317v4.115h-2.413v-8.322h2.305v.975a3.13 3.13 0 011.191-.805 3.789 3.789 0 01.97-.256 4.9 4.9 0 01.592-.038zM95.848 13.377h2.506v8.786h3.28v2.042h-5.786V13.377z" fill="#7A8AA0"/><path fill-rule="evenodd" clip-rule="evenodd" d="M111.68 24.205h-2.306v-.96c-.597.722-1.463 1.083-2.598 1.083a4.366 4.366 0 01-2.135-.525 3.762 3.762 0 01-1.484-1.5 4.235 4.235 0 01-.479-1.422 5.753 5.753 0 01-.063-.836c0-.315.025-.615.073-.902a4.77 4.77 0 01.111-.49c.088-.307.207-.596.358-.867.361-.65.856-1.15 1.484-1.5a4.367 4.367 0 012.135-.527c1.063 0 1.893.335 2.49 1.005v-.88h2.414v8.32zm-4.486-1.856c.609 0 1.114-.207 1.516-.619a2.07 2.07 0 00.471-.795c.089-.266.132-.564.132-.89 0-.703-.201-1.259-.603-1.672-.402-.423-.907-.634-1.516-.634-.619 0-1.129.211-1.531.634-.402.413-.604.97-.604 1.671 0 .7.202 1.263.604 1.686.402.412.912.619 1.531.619zM130.876 19.927c0 .03-.015.247-.046.65h-6.296c.046.211.119.405.218.58.088.159.198.301.33.43l.054.05.065.057c.044.036.089.071.137.105.423.299.949.448 1.578.448.926 0 1.559-.405 1.659-.804h2.301c-.897 2.117-2.516 2.738-4.022 2.738-.939 0-1.769-.18-2.49-.542a4.264 4.264 0 01-1.095-.792 3.883 3.883 0 01-.576-.74c-.392-.649-.588-1.386-.588-2.21 0-.383.042-.748.127-1.095.054-.223.126-.439.214-.646a4.064 4.064 0 011.825-1.987c.681-.372 1.439-.558 2.274-.558.815 0 1.552.176 2.212.526.66.35 1.176.857 1.547 1.516.382.65.572 1.408.572 2.274zm-4.316-2.49c-.546 0-1.005.154-1.376.464a1.8 1.8 0 00-.271.277c-.214.27-.35.6-.41.99h4.099c-.083-.525-.309-.942-.681-1.252a1.907 1.907 0 00-.659-.374 2.25 2.25 0 00-.702-.105z" fill="#7A8AA0"/><path d="M83.172 15.883H80.76v8.322h2.412v-8.322zM121.966 15.735l-3.759 8.832c-.069.176-.165.403-.275.66l-.225.515-.301.678c-.386.864-.747 1.652-.747 1.652h-2.363s1.581-3.505 1.746-3.875l.03-.078-3.603-8.384h2.49l2.336 5.646 2.351-5.646h2.32zM134.788 16.833a2.683 2.683 0 011.159-.912c.193-.08.395-.144.609-.193a4.84 4.84 0 011.093-.117v2.228a15.345 15.345 0 00-.413-.027l-.129-.004c-.69 0-1.232.196-1.624.588-.21.205-.364.466-.461.783-.084.274-.126.59-.126.949v3.93h-2.414v-8.323h2.306v1.098zM52.852 24.492a5.588 5.588 0 005.157-3.438h-2.474a3.438 3.438 0 110-4.297h2.474a5.588 5.588 0 00-10.743 2.15c0 3.084 2.5 5.585 5.586 5.585zM0 30.293V12.03l6.66 3.867V26.64l9.023 5.157v7.519L0 30.293zM35.45 30.293V12.03l-6.66 3.867V26.64l-9.024 5.157v7.519l15.683-9.023zM17.617 0L2.148 9.023l6.23 3.867 9.239-5.37 9.023 5.37 6.66-3.867L17.617 0z" fill="#7A8AA0"/><path opacity=".3" d="M17.617 19.55l-7.52 4.512 7.52 4.727 7.734-4.727-7.734-4.511z" fill="#7A8AA0"/><path opacity=".6" d="M17.617 15.469l-7.52 4.511 7.52 4.727 7.734-4.727-7.734-4.511z" fill="#7A8AA0"/><path opacity=".8" d="M17.617 11.387l-7.52 4.511 7.52 4.727 7.734-4.727-7.734-4.511z" fill="#7A8AA0"/></svg>
