<svg width="124" height="22" viewBox="0 0 124 22" fill="none" xmlns="http://www.w3.org/2000/svg">
<path d="M22.4027 8.5979L18.113 1.17552C17.9211 0.843015 17.6448 0.567024 17.3121 0.375383C16.9794 0.183742 16.6021 0.0832309 16.2181 0.0839886H7.64747C7.17226 0.0852623 6.70568 0.211113 6.29429 0.448987C5.88289 0.686862 5.54105 1.02844 5.30288 1.43966L1.01318 8.86204C0.821574 9.19391 0.720703 9.57037 0.720703 9.95357C0.720703 10.3368 0.821574 10.7132 1.01318 11.0451L5.30288 18.4784C5.54124 18.8899 5.88342 19.2317 6.29523 19.4696C6.70705 19.7075 7.17407 19.8332 7.64966 19.8341H16.2181C16.6006 19.8333 16.9761 19.7321 17.3072 19.5405C17.6382 19.3489 17.9131 19.0738 18.1043 18.7425L22.394 11.3202C22.6349 10.9073 22.7626 10.4382 22.7641 9.9602C22.7656 9.48221 22.641 9.01228 22.4027 8.5979V8.5979ZM2.23132 9.98413L2.71596 9.15239L6.54722 2.50499L8.94857 6.67026C9.06062 6.84545 9.23592 6.97067 9.43797 7.01986C9.64003 7.06905 9.85327 7.03842 10.0333 6.93433C10.2133 6.83025 10.3463 6.66074 10.4045 6.4611C10.4627 6.26145 10.4416 6.04705 10.3457 5.86253L8.41154 2.50499C8.25119 2.26732 8.03728 2.07062 7.78703 1.9307C7.53678 1.79079 7.25718 1.71158 6.97073 1.69945H15.62L11.553 8.74416C11.4811 8.86816 11.378 8.97113 11.2538 9.04277C11.1297 9.11441 10.989 9.15221 10.8456 9.15239H3.69178C3.39673 9.15045 3.10637 9.22632 2.84997 9.37234C2.59357 9.51836 2.38019 9.72938 2.23132 9.98413V9.98413ZM15.62 18.2208H7.94655L10.3479 14.0512C10.4067 13.9592 10.4463 13.8563 10.4642 13.7487C10.4821 13.6411 10.4781 13.5309 10.4523 13.4249C10.4265 13.3189 10.3794 13.2192 10.314 13.1318C10.2486 13.0445 10.1662 12.9713 10.0717 12.9167C9.97725 12.8621 9.8727 12.8272 9.76437 12.8141C9.65603 12.801 9.54617 12.81 9.44141 12.8405C9.33665 12.871 9.23916 12.9225 9.15484 12.9917C9.07051 13.061 9.00108 13.1466 8.95076 13.2434L6.5494 17.4131L6.07131 18.247C6.20335 18.0161 6.27872 17.7572 6.29125 17.4916C6.30377 17.2259 6.25308 16.9611 6.14335 16.7189L2.71159 10.7657H10.8456C10.9889 10.7661 11.1296 10.804 11.2537 10.8756C11.3778 10.9472 11.4809 11.05 11.553 11.1739V11.1739L15.1659 17.4305C15.3254 17.6649 15.5377 17.8584 15.7856 17.9957C16.0336 18.133 16.3104 18.2101 16.5936 18.2208H15.62ZM20.8549 10.7678L17.0193 17.4131L12.9436 10.3684C12.8723 10.2441 12.8348 10.1034 12.8348 9.96012C12.8348 9.81689 12.8723 9.67615 12.9436 9.55189V9.55189L17.0193 2.50499L17.4974 1.67325C17.3375 1.95348 17.2611 2.27365 17.2774 2.5959C17.2936 2.91815 17.4018 3.22901 17.5891 3.49173C17.7266 3.68384 20.8637 9.15021 20.8637 9.15021H16.0369C15.8227 9.15021 15.6173 9.23531 15.4658 9.38679C15.3143 9.53827 15.2292 9.74371 15.2292 9.95794C15.2292 10.1722 15.3143 10.3776 15.4658 10.5291C15.6173 10.6806 15.8227 10.7657 16.0369 10.7657H19.901H19.8791C20.1742 10.7676 20.4645 10.6917 20.7209 10.5457C20.9773 10.3997 21.1907 10.1887 21.3396 9.93392L20.8528 10.77L20.8549 10.7678Z" fill="#7A8AA0"/>
<path d="M69.1635 5.58003C68.6652 5.56931 68.1738 5.69783 67.7445 5.95115C67.3305 6.2067 66.9599 6.52652 66.6464 6.8986L66.6028 6.95099H66.3474L66.081 5.77651H63.3042C63.2013 5.77652 63.1009 5.80786 63.0163 5.86635C62.9316 5.92485 62.8668 6.00773 62.8305 6.10396L62.3284 7.44218H65.5418C65.5418 7.44218 64.5354 7.44218 64.5354 8.25864V12.7208H63.302C63.1991 12.7208 63.0987 12.7521 63.0141 12.8106C62.9294 12.8691 62.8646 12.952 62.8283 13.0483L62.3262 14.3865H69.4451C69.5486 14.3867 69.6497 14.3553 69.7348 14.2963C69.8199 14.2374 69.8849 14.1538 69.921 14.0568L70.4231 12.7186H66.5591V8.73673L66.5831 8.69961C66.794 8.37735 67.0531 8.08945 67.3516 7.84604C67.7074 7.5751 68.1469 7.43758 68.5937 7.45746C68.7352 7.44832 68.8765 7.47709 69.0032 7.54079C69.1298 7.60449 69.2371 7.70082 69.3141 7.81984C69.4581 8.08788 69.5296 8.3889 69.5215 8.69307H71.3138C71.2985 7.58626 71.0955 6.78508 70.7309 6.31135C70.5481 6.07203 70.31 5.88052 70.037 5.75318C69.7641 5.62583 69.4644 5.56642 69.1635 5.58003Z" fill="#7A8AA0"/>
<path d="M80.0702 9.90816C79.6281 9.69657 79.1659 9.52982 78.6905 9.41043L77.2824 9.04586C76.9092 8.95069 76.5442 8.82586 76.1909 8.67255C75.8438 8.51756 75.667 8.29925 75.667 8.01764C75.6703 7.85431 75.7248 7.69614 75.8227 7.56535C75.9206 7.43457 76.057 7.33775 76.2127 7.2885C76.6179 7.1371 77.0488 7.06664 77.4811 7.08111C77.7695 7.08176 78.057 7.11249 78.339 7.1728C78.6188 7.23205 78.8938 7.31157 79.162 7.41075C79.4196 7.5068 79.6707 7.61377 79.9043 7.72729C80.0877 7.8168 80.2557 7.90412 80.4042 7.98926L81.2359 6.64231C81.0904 6.5448 80.931 6.43856 80.7579 6.32359C80.5034 6.16585 80.2326 6.03629 79.9501 5.93719C79.583 5.80872 79.2064 5.70944 78.8237 5.64029C78.3271 5.55361 77.8236 5.51269 77.3195 5.51804C76.8187 5.51482 76.3193 5.57348 75.8329 5.69269C75.4185 5.79134 75.0246 5.96203 74.6693 6.19697C74.3609 6.40408 74.1022 6.67695 73.9118 6.99597C73.7235 7.3283 73.6291 7.70563 73.6389 8.0875C73.6201 8.52757 73.7629 8.95932 74.0406 9.30127C74.3297 9.63261 74.6804 9.9047 75.0732 10.1025C75.5102 10.324 75.9718 10.4932 76.4485 10.6067C76.955 10.7312 77.4287 10.8534 77.8588 10.9735C78.2376 11.0739 78.6066 11.2084 78.9612 11.3752C79.1078 11.4268 79.2356 11.5212 79.3282 11.646C79.4208 11.7709 79.4739 11.9206 79.4808 12.0759C79.4877 12.242 79.4443 12.4063 79.3563 12.5473C79.2682 12.6884 79.1397 12.7995 78.9874 12.8662C78.4285 13.1325 77.6121 13.1303 76.8327 12.9382C76.4772 12.8517 76.1284 12.7394 75.7892 12.602C75.4814 12.4787 75.1849 12.329 74.9029 12.1545C74.7042 12.0301 74.5383 11.9166 74.4008 11.8118L73.4883 13.2417C73.987 13.642 74.5444 13.963 75.1409 14.1935C75.9678 14.5041 76.8469 14.6524 77.73 14.6301C78.9852 14.6301 79.9392 14.3791 80.5679 13.8857C80.8721 13.6489 81.1148 13.3424 81.2755 12.9921C81.4362 12.6418 81.5103 12.2579 81.4914 11.8729C81.5091 11.442 81.3668 11.0198 81.0919 10.6875C80.8067 10.3622 80.4593 10.0972 80.0702 9.90816V9.90816Z" fill="#7A8AA0"/>
<path d="M91.4373 12.0453C91.2521 12.1973 91.0542 12.3332 90.8457 12.4513C90.6131 12.5819 90.3663 12.6852 90.11 12.7592C89.8125 12.8435 89.5045 12.8847 89.1953 12.8814C88.9027 12.8957 88.6106 12.8432 88.3413 12.7278C88.072 12.6124 87.8325 12.4373 87.641 12.2156C87.2764 11.779 87.0908 11.0804 87.0908 10.1351V7.44124H91.1317L91.7517 5.77557H87.093V3.14062L85.4383 3.61216C85.3326 3.6425 85.2396 3.7064 85.1735 3.79423C85.1073 3.88205 85.0715 3.98903 85.0715 4.09899V5.78212H84.2834C84.1806 5.78213 84.0801 5.81347 83.9955 5.87197C83.9109 5.93046 83.8461 6.01334 83.8097 6.10958L83.3076 7.44779H86.1565C86.1565 7.44779 85.065 7.44779 85.065 8.30573V10.1264C85.065 11.696 85.3902 12.853 86.0342 13.5625C86.6782 14.272 87.6453 14.6279 88.9268 14.6279C89.294 14.6263 89.6599 14.5853 90.0183 14.5056C90.3846 14.4261 90.7427 14.3129 91.088 14.1672C91.4207 14.0271 91.7407 13.8584 92.0442 13.6629C92.2842 13.5114 92.5043 13.3302 92.6991 13.1237L91.7844 11.7506L91.4373 12.0453Z" fill="#7A8AA0"/>
<path d="M101.874 12.5849C101.863 12.4394 101.845 12.2822 101.822 12.1134C101.797 11.7961 101.785 11.5102 101.785 11.2555C101.785 10.9193 101.807 10.5307 101.848 10.1006C101.89 9.67057 101.909 9.16629 101.909 8.5725C101.914 8.15358 101.856 7.73629 101.737 7.33471C101.631 6.98949 101.445 6.67442 101.193 6.41564C100.913 6.14214 100.573 5.93803 100.2 5.81967C99.7058 5.66453 99.1897 5.5908 98.6719 5.60136C97.9381 5.58706 97.2052 5.66034 96.4888 5.81967C95.9752 5.94307 95.4722 6.10732 94.9847 6.31085L95.4475 7.83899C95.8043 7.6874 96.1687 7.55406 96.539 7.43949C97.0802 7.27493 97.6435 7.19467 98.2091 7.20154C98.6457 7.17335 99.0797 7.28665 99.4469 7.52463C99.7438 7.74294 99.8835 8.11406 99.8835 8.61616V8.94798C99.8838 9.07913 99.8713 9.21 99.8464 9.33875L99.8289 9.47191H99.7001C99.3552 9.44863 99.0641 9.42461 98.8269 9.39987C98.5955 9.37586 98.375 9.36494 98.172 9.36494C97.6326 9.35988 97.0943 9.41553 96.5674 9.53086C96.1385 9.62223 95.7296 9.79009 95.3602 10.0264C95.0427 10.2343 94.7852 10.5219 94.6136 10.8603C94.433 11.2428 94.3448 11.6623 94.356 12.085C94.3405 12.417 94.398 12.7483 94.5243 13.0557C94.6507 13.3631 94.8428 13.6391 95.0873 13.8642C95.5763 14.3008 96.2509 14.5388 97.0957 14.5388C97.6844 14.5681 98.27 14.4368 98.7898 14.1589C99.1751 13.9337 99.5043 13.624 99.7525 13.253L99.7962 13.1853H100.086L100.32 14.3969H102.309C102.427 14.3969 102.541 14.3557 102.632 14.2803C102.723 14.205 102.785 14.1003 102.807 13.9843L103.042 12.7312H101.896L101.874 12.5849ZM99.8704 11.8274L99.8529 11.8602C99.6894 12.1437 99.4659 12.3881 99.198 12.5762C98.793 12.8291 98.3187 12.9482 97.8423 12.9168C97.3533 12.9168 97.0062 12.8142 96.7814 12.6002C96.6679 12.4859 96.5795 12.3492 96.5216 12.1989C96.4637 12.0486 96.4377 11.8879 96.4452 11.727C96.4403 11.5111 96.5062 11.2994 96.6329 11.1245C96.7581 10.959 96.9203 10.8252 97.1066 10.7337C97.3077 10.6312 97.5223 10.5577 97.7441 10.5154C98.2307 10.4345 98.7268 10.4278 99.2155 10.4958C99.4556 10.5263 99.6324 10.5525 99.7547 10.5765L99.8726 10.6006V11.8252L99.8704 11.8274Z" fill="#7A8AA0"/>
<path d="M110.054 9.68985L113.518 5.78H111.18L108.268 9.31873H107.517V2.21289H105.011C104.908 2.2129 104.808 2.24424 104.723 2.30274C104.638 2.36123 104.574 2.44411 104.537 2.54035L104.035 3.87856H106.476C106.476 3.87856 105.496 3.87856 105.496 4.5946V14.3856H107.517V10.6984H108.355L111.412 14.3856H113.106C113.209 14.3859 113.31 14.3544 113.395 14.2955C113.481 14.2365 113.546 14.1529 113.582 14.056L114.084 12.7177H112.503L110.054 9.68985Z" fill="#7A8AA0"/>
<path d="M48.5922 5.77562C48.4849 5.77556 48.3804 5.80956 48.2937 5.87273C48.2069 5.9359 48.1425 6.02496 48.1097 6.12709L46.2738 11.2398H45.9419L43.4925 5.78217H41.7112C41.6083 5.78218 41.5079 5.81352 41.4232 5.87202C41.3386 5.93051 41.2738 6.01339 41.2375 6.10963L40.7354 7.44784H43.2218C43.2218 7.44784 42.0343 7.44784 42.4862 8.53937L44.9989 14.3856H47.1033L50.3932 5.77344L48.5922 5.77562Z" fill="#7A8AA0"/>
<path d="M38.2105 6.29139C37.8267 6.01397 37.3931 5.8131 36.9334 5.69978C35.876 5.43406 34.765 5.47265 33.7286 5.81112C33.1847 5.99029 32.6837 6.28017 32.2573 6.66251C31.8324 7.0587 31.4994 7.54301 31.2814 8.08149C31.0282 8.71712 30.9049 9.39708 30.9191 10.0812C30.9081 10.7334 31.0161 11.3822 31.2378 11.9957C31.435 12.5369 31.7511 13.027 32.163 13.4298C32.5748 13.8326 33.0718 14.1377 33.6173 14.3228C34.2576 14.5395 34.9302 14.6451 35.6061 14.635C36.0427 14.635 38.0336 14.5608 39.5596 13.4693L39.278 12.0459C38.2213 12.7138 36.998 13.0709 35.748 13.0763C35.3984 13.0809 35.0495 13.0436 34.7088 12.965C34.3933 12.8905 34.0937 12.7596 33.8247 12.5786C33.5634 12.4004 33.3467 12.1644 33.1916 11.8887C33.0222 11.5716 32.933 11.2179 32.9318 10.8583V10.7077H39.3587C39.4559 10.2106 39.5071 9.70567 39.5116 9.19921C39.5336 8.58393 39.4079 7.97231 39.1448 7.41566C38.9253 6.97314 38.6054 6.58811 38.2105 6.29139V6.29139ZM37.6603 9.30182H32.9733L32.9864 9.14464C33.0083 8.83692 33.1001 8.53825 33.2549 8.27142C33.4029 8.01594 33.6012 7.79314 33.8378 7.6165C34.0747 7.44118 34.3397 7.30756 34.6215 7.22137C34.9187 7.1313 35.2278 7.08641 35.5384 7.0882C36.2413 7.0882 36.7784 7.27813 37.132 7.65143C37.4993 8.06469 37.6898 8.60554 37.6625 9.15774L37.6603 9.30182Z" fill="#7A8AA0"/>
<path d="M58.9382 6.29139C58.5544 6.01397 58.1208 5.8131 57.6611 5.69978C56.6037 5.43406 55.4927 5.47265 54.4564 5.81112C53.9124 5.99029 53.4114 6.28017 52.985 6.66251C52.5565 7.05697 52.2196 7.54059 51.9982 8.07931C51.745 8.71493 51.6217 9.3949 51.6359 10.079C51.6249 10.7312 51.7329 11.38 51.9546 11.9935C52.1527 12.5357 52.4702 13.0263 52.8836 13.4292C53.297 13.832 53.7957 14.1367 54.3428 14.3207C54.9831 14.5374 55.6557 14.6429 56.3316 14.6328C56.7682 14.6328 58.7592 14.5586 60.2851 13.4671L60.01 12.0481C58.9534 12.716 57.7301 13.0731 56.48 13.0785C56.1294 13.0804 55.7798 13.0401 55.4387 12.9584C55.1232 12.8839 54.8236 12.753 54.5546 12.572C54.2915 12.3917 54.074 12.1525 53.9193 11.8735C53.7499 11.5563 53.6607 11.2026 53.6595 10.8431V10.6924H60.0974C60.1946 10.1954 60.2457 9.69039 60.2502 9.18393C60.2699 8.57049 60.1426 7.96122 59.8791 7.40693C59.6566 6.96687 59.3344 6.58488 58.9382 6.29139V6.29139ZM58.388 9.30182H53.701L53.7141 9.14464C53.736 8.83692 53.8278 8.53825 53.9826 8.27142C54.1306 8.01594 54.3289 7.79314 54.5655 7.6165C54.8024 7.44118 55.0674 7.30756 55.3492 7.22137C55.6465 7.1313 55.9555 7.08641 56.2661 7.0882C56.9691 7.0882 57.5061 7.27813 57.8597 7.65143C58.227 8.06469 58.4175 8.60554 58.3902 9.15774L58.388 9.30182Z" fill="#7A8AA0"/>
<path d="M122.651 6.29139C122.267 6.01397 121.834 5.8131 121.374 5.69978C120.317 5.43406 119.206 5.47265 118.169 5.81112C117.625 5.99029 117.124 6.28017 116.698 6.66251C116.269 7.05697 115.933 7.54059 115.711 8.07931C115.458 8.71493 115.335 9.3949 115.349 10.079C115.338 10.7312 115.446 11.38 115.667 11.9935C115.866 12.5363 116.183 13.0276 116.597 13.4308C117.011 13.834 117.51 14.1389 118.058 14.3228C118.698 14.5395 119.371 14.6451 120.047 14.635C120.483 14.635 122.474 14.5608 124 13.4693L123.719 12.0459C122.662 12.7138 121.439 13.0709 120.189 13.0763C119.838 13.0783 119.488 13.0379 119.147 12.9562C118.832 12.8818 118.532 12.7508 118.263 12.5698C118.002 12.3917 117.785 12.1556 117.63 11.88C117.461 11.5629 117.371 11.2091 117.37 10.8496V10.699H123.812C123.91 10.2019 123.961 9.69694 123.965 9.19048C123.987 8.57519 123.862 7.96358 123.598 7.40693C123.374 6.96617 123.05 6.58412 122.651 6.29139V6.29139ZM122.097 9.30182H117.414L117.427 9.14464C117.449 8.83692 117.541 8.53825 117.696 8.27142C117.844 8.01594 118.042 7.79314 118.278 7.6165C118.515 7.44118 118.78 7.30756 119.062 7.22137C119.359 7.1313 119.668 7.08641 119.979 7.0882C120.682 7.0882 121.219 7.27813 121.573 7.65143C121.94 8.06469 122.13 8.60554 122.103 9.15774L122.097 9.30182Z" fill="#7A8AA0"/>
</svg>
